G75*
%MOIN*%
%OFA0B0*%
%FSLAX25Y25*%
%IPPOS*%
%LPD*%
%AMOC8*
5,1,8,0,0,1.08239X$1,22.5*
%
%ADD10C,0.00500*%
%ADD11C,0.00000*%
%ADD12R,0.15700X0.09800*%
D10*
X0001250Y0001250D02*
X0001250Y0294750D01*
X0001854Y0294757D01*
X0002458Y0294779D01*
X0003061Y0294816D01*
X0003663Y0294867D01*
X0004263Y0294932D01*
X0004862Y0295012D01*
X0005459Y0295107D01*
X0006053Y0295216D01*
X0006645Y0295339D01*
X0007233Y0295476D01*
X0007818Y0295628D01*
X0008399Y0295794D01*
X0008975Y0295974D01*
X0009548Y0296167D01*
X0010115Y0296375D01*
X0010677Y0296596D01*
X0011234Y0296830D01*
X0011785Y0297078D01*
X0012330Y0297339D01*
X0012868Y0297614D01*
X0013400Y0297901D01*
X0013924Y0298201D01*
X0014441Y0298513D01*
X0014950Y0298838D01*
X0015452Y0299175D01*
X0015945Y0299525D01*
X0016429Y0299886D01*
X0016905Y0300258D01*
X0017371Y0300642D01*
X0017828Y0301037D01*
X0018275Y0301443D01*
X0018713Y0301860D01*
X0019140Y0302287D01*
X0019557Y0302725D01*
X0019963Y0303172D01*
X0020358Y0303629D01*
X0020742Y0304095D01*
X0021114Y0304571D01*
X0021475Y0305055D01*
X0021825Y0305548D01*
X0022162Y0306050D01*
X0022487Y0306559D01*
X0022799Y0307076D01*
X0023099Y0307600D01*
X0023386Y0308132D01*
X0023661Y0308670D01*
X0023922Y0309215D01*
X0024170Y0309766D01*
X0024404Y0310323D01*
X0024625Y0310885D01*
X0024833Y0311452D01*
X0025026Y0312025D01*
X0025206Y0312601D01*
X0025372Y0313182D01*
X0025524Y0313767D01*
X0025661Y0314355D01*
X0025784Y0314947D01*
X0025893Y0315541D01*
X0025988Y0316138D01*
X0026068Y0316737D01*
X0026133Y0317337D01*
X0026184Y0317939D01*
X0026221Y0318542D01*
X0026243Y0319146D01*
X0026250Y0319750D01*
X0308350Y0319750D01*
X0308357Y0319146D01*
X0308379Y0318542D01*
X0308416Y0317939D01*
X0308467Y0317337D01*
X0308532Y0316737D01*
X0308612Y0316138D01*
X0308707Y0315541D01*
X0308816Y0314947D01*
X0308939Y0314355D01*
X0309076Y0313767D01*
X0309228Y0313182D01*
X0309394Y0312601D01*
X0309574Y0312025D01*
X0309767Y0311452D01*
X0309975Y0310885D01*
X0310196Y0310323D01*
X0310430Y0309766D01*
X0310678Y0309215D01*
X0310939Y0308670D01*
X0311214Y0308132D01*
X0311501Y0307600D01*
X0311801Y0307076D01*
X0312113Y0306559D01*
X0312438Y0306050D01*
X0312775Y0305548D01*
X0313125Y0305055D01*
X0313486Y0304571D01*
X0313858Y0304095D01*
X0314242Y0303629D01*
X0314637Y0303172D01*
X0315043Y0302725D01*
X0315460Y0302287D01*
X0315887Y0301860D01*
X0316325Y0301443D01*
X0316772Y0301037D01*
X0317229Y0300642D01*
X0317695Y0300258D01*
X0318171Y0299886D01*
X0318655Y0299525D01*
X0319148Y0299175D01*
X0319650Y0298838D01*
X0320159Y0298513D01*
X0320676Y0298201D01*
X0321200Y0297901D01*
X0321732Y0297614D01*
X0322270Y0297339D01*
X0322815Y0297078D01*
X0323366Y0296830D01*
X0323923Y0296596D01*
X0324485Y0296375D01*
X0325052Y0296167D01*
X0325625Y0295974D01*
X0326201Y0295794D01*
X0326782Y0295628D01*
X0327367Y0295476D01*
X0327955Y0295339D01*
X0328547Y0295216D01*
X0329141Y0295107D01*
X0329738Y0295012D01*
X0330337Y0294932D01*
X0330937Y0294867D01*
X0331539Y0294816D01*
X0332142Y0294779D01*
X0332746Y0294757D01*
X0333350Y0294750D01*
X0333350Y0001250D01*
X0001250Y0001250D01*
D11*
X0051573Y0093998D02*
X0051575Y0094138D01*
X0051581Y0094278D01*
X0051591Y0094417D01*
X0051605Y0094556D01*
X0051623Y0094695D01*
X0051644Y0094833D01*
X0051670Y0094971D01*
X0051700Y0095108D01*
X0051733Y0095243D01*
X0051771Y0095378D01*
X0051812Y0095512D01*
X0051857Y0095645D01*
X0051905Y0095776D01*
X0051958Y0095905D01*
X0052014Y0096034D01*
X0052073Y0096160D01*
X0052137Y0096285D01*
X0052203Y0096408D01*
X0052274Y0096529D01*
X0052347Y0096648D01*
X0052424Y0096765D01*
X0052505Y0096879D01*
X0052588Y0096991D01*
X0052675Y0097101D01*
X0052765Y0097209D01*
X0052857Y0097313D01*
X0052953Y0097415D01*
X0053052Y0097515D01*
X0053153Y0097611D01*
X0053257Y0097705D01*
X0053364Y0097795D01*
X0053473Y0097882D01*
X0053585Y0097967D01*
X0053699Y0098048D01*
X0053815Y0098126D01*
X0053933Y0098200D01*
X0054054Y0098271D01*
X0054176Y0098339D01*
X0054301Y0098403D01*
X0054427Y0098464D01*
X0054554Y0098521D01*
X0054684Y0098574D01*
X0054815Y0098624D01*
X0054947Y0098669D01*
X0055080Y0098712D01*
X0055215Y0098750D01*
X0055350Y0098784D01*
X0055487Y0098815D01*
X0055624Y0098842D01*
X0055762Y0098864D01*
X0055901Y0098883D01*
X0056040Y0098898D01*
X0056179Y0098909D01*
X0056319Y0098916D01*
X0056459Y0098919D01*
X0056599Y0098918D01*
X0056739Y0098913D01*
X0056878Y0098904D01*
X0057018Y0098891D01*
X0057157Y0098874D01*
X0057295Y0098853D01*
X0057433Y0098829D01*
X0057570Y0098800D01*
X0057706Y0098768D01*
X0057841Y0098731D01*
X0057975Y0098691D01*
X0058108Y0098647D01*
X0058239Y0098599D01*
X0058369Y0098548D01*
X0058498Y0098493D01*
X0058625Y0098434D01*
X0058750Y0098371D01*
X0058873Y0098306D01*
X0058995Y0098236D01*
X0059114Y0098163D01*
X0059232Y0098087D01*
X0059347Y0098008D01*
X0059460Y0097925D01*
X0059570Y0097839D01*
X0059678Y0097750D01*
X0059783Y0097658D01*
X0059886Y0097563D01*
X0059986Y0097465D01*
X0060083Y0097365D01*
X0060177Y0097261D01*
X0060269Y0097155D01*
X0060357Y0097047D01*
X0060442Y0096936D01*
X0060524Y0096822D01*
X0060603Y0096706D01*
X0060678Y0096589D01*
X0060750Y0096469D01*
X0060818Y0096347D01*
X0060883Y0096223D01*
X0060945Y0096097D01*
X0061003Y0095970D01*
X0061057Y0095841D01*
X0061108Y0095710D01*
X0061154Y0095578D01*
X0061197Y0095445D01*
X0061237Y0095311D01*
X0061272Y0095176D01*
X0061304Y0095039D01*
X0061331Y0094902D01*
X0061355Y0094764D01*
X0061375Y0094626D01*
X0061391Y0094487D01*
X0061403Y0094347D01*
X0061411Y0094208D01*
X0061415Y0094068D01*
X0061415Y0093928D01*
X0061411Y0093788D01*
X0061403Y0093649D01*
X0061391Y0093509D01*
X0061375Y0093370D01*
X0061355Y0093232D01*
X0061331Y0093094D01*
X0061304Y0092957D01*
X0061272Y0092820D01*
X0061237Y0092685D01*
X0061197Y0092551D01*
X0061154Y0092418D01*
X0061108Y0092286D01*
X0061057Y0092155D01*
X0061003Y0092026D01*
X0060945Y0091899D01*
X0060883Y0091773D01*
X0060818Y0091649D01*
X0060750Y0091527D01*
X0060678Y0091407D01*
X0060603Y0091290D01*
X0060524Y0091174D01*
X0060442Y0091060D01*
X0060357Y0090949D01*
X0060269Y0090841D01*
X0060177Y0090735D01*
X0060083Y0090631D01*
X0059986Y0090531D01*
X0059886Y0090433D01*
X0059783Y0090338D01*
X0059678Y0090246D01*
X0059570Y0090157D01*
X0059460Y0090071D01*
X0059347Y0089988D01*
X0059232Y0089909D01*
X0059114Y0089833D01*
X0058995Y0089760D01*
X0058873Y0089690D01*
X0058750Y0089625D01*
X0058625Y0089562D01*
X0058498Y0089503D01*
X0058369Y0089448D01*
X0058239Y0089397D01*
X0058108Y0089349D01*
X0057975Y0089305D01*
X0057841Y0089265D01*
X0057706Y0089228D01*
X0057570Y0089196D01*
X0057433Y0089167D01*
X0057295Y0089143D01*
X0057157Y0089122D01*
X0057018Y0089105D01*
X0056878Y0089092D01*
X0056739Y0089083D01*
X0056599Y0089078D01*
X0056459Y0089077D01*
X0056319Y0089080D01*
X0056179Y0089087D01*
X0056040Y0089098D01*
X0055901Y0089113D01*
X0055762Y0089132D01*
X0055624Y0089154D01*
X0055487Y0089181D01*
X0055350Y0089212D01*
X0055215Y0089246D01*
X0055080Y0089284D01*
X0054947Y0089327D01*
X0054815Y0089372D01*
X0054684Y0089422D01*
X0054554Y0089475D01*
X0054427Y0089532D01*
X0054301Y0089593D01*
X0054176Y0089657D01*
X0054054Y0089725D01*
X0053933Y0089796D01*
X0053815Y0089870D01*
X0053699Y0089948D01*
X0053585Y0090029D01*
X0053473Y0090114D01*
X0053364Y0090201D01*
X0053257Y0090291D01*
X0053153Y0090385D01*
X0053052Y0090481D01*
X0052953Y0090581D01*
X0052857Y0090683D01*
X0052765Y0090787D01*
X0052675Y0090895D01*
X0052588Y0091005D01*
X0052505Y0091117D01*
X0052424Y0091231D01*
X0052347Y0091348D01*
X0052274Y0091467D01*
X0052203Y0091588D01*
X0052137Y0091711D01*
X0052073Y0091836D01*
X0052014Y0091962D01*
X0051958Y0092091D01*
X0051905Y0092220D01*
X0051857Y0092351D01*
X0051812Y0092484D01*
X0051771Y0092618D01*
X0051733Y0092753D01*
X0051700Y0092888D01*
X0051670Y0093025D01*
X0051644Y0093163D01*
X0051623Y0093301D01*
X0051605Y0093440D01*
X0051591Y0093579D01*
X0051581Y0093718D01*
X0051575Y0093858D01*
X0051573Y0093998D01*
X0106691Y0180612D02*
X0106693Y0180752D01*
X0106699Y0180892D01*
X0106709Y0181031D01*
X0106723Y0181170D01*
X0106741Y0181309D01*
X0106762Y0181447D01*
X0106788Y0181585D01*
X0106818Y0181722D01*
X0106851Y0181857D01*
X0106889Y0181992D01*
X0106930Y0182126D01*
X0106975Y0182259D01*
X0107023Y0182390D01*
X0107076Y0182519D01*
X0107132Y0182648D01*
X0107191Y0182774D01*
X0107255Y0182899D01*
X0107321Y0183022D01*
X0107392Y0183143D01*
X0107465Y0183262D01*
X0107542Y0183379D01*
X0107623Y0183493D01*
X0107706Y0183605D01*
X0107793Y0183715D01*
X0107883Y0183823D01*
X0107975Y0183927D01*
X0108071Y0184029D01*
X0108170Y0184129D01*
X0108271Y0184225D01*
X0108375Y0184319D01*
X0108482Y0184409D01*
X0108591Y0184496D01*
X0108703Y0184581D01*
X0108817Y0184662D01*
X0108933Y0184740D01*
X0109051Y0184814D01*
X0109172Y0184885D01*
X0109294Y0184953D01*
X0109419Y0185017D01*
X0109545Y0185078D01*
X0109672Y0185135D01*
X0109802Y0185188D01*
X0109933Y0185238D01*
X0110065Y0185283D01*
X0110198Y0185326D01*
X0110333Y0185364D01*
X0110468Y0185398D01*
X0110605Y0185429D01*
X0110742Y0185456D01*
X0110880Y0185478D01*
X0111019Y0185497D01*
X0111158Y0185512D01*
X0111297Y0185523D01*
X0111437Y0185530D01*
X0111577Y0185533D01*
X0111717Y0185532D01*
X0111857Y0185527D01*
X0111996Y0185518D01*
X0112136Y0185505D01*
X0112275Y0185488D01*
X0112413Y0185467D01*
X0112551Y0185443D01*
X0112688Y0185414D01*
X0112824Y0185382D01*
X0112959Y0185345D01*
X0113093Y0185305D01*
X0113226Y0185261D01*
X0113357Y0185213D01*
X0113487Y0185162D01*
X0113616Y0185107D01*
X0113743Y0185048D01*
X0113868Y0184985D01*
X0113991Y0184920D01*
X0114113Y0184850D01*
X0114232Y0184777D01*
X0114350Y0184701D01*
X0114465Y0184622D01*
X0114578Y0184539D01*
X0114688Y0184453D01*
X0114796Y0184364D01*
X0114901Y0184272D01*
X0115004Y0184177D01*
X0115104Y0184079D01*
X0115201Y0183979D01*
X0115295Y0183875D01*
X0115387Y0183769D01*
X0115475Y0183661D01*
X0115560Y0183550D01*
X0115642Y0183436D01*
X0115721Y0183320D01*
X0115796Y0183203D01*
X0115868Y0183083D01*
X0115936Y0182961D01*
X0116001Y0182837D01*
X0116063Y0182711D01*
X0116121Y0182584D01*
X0116175Y0182455D01*
X0116226Y0182324D01*
X0116272Y0182192D01*
X0116315Y0182059D01*
X0116355Y0181925D01*
X0116390Y0181790D01*
X0116422Y0181653D01*
X0116449Y0181516D01*
X0116473Y0181378D01*
X0116493Y0181240D01*
X0116509Y0181101D01*
X0116521Y0180961D01*
X0116529Y0180822D01*
X0116533Y0180682D01*
X0116533Y0180542D01*
X0116529Y0180402D01*
X0116521Y0180263D01*
X0116509Y0180123D01*
X0116493Y0179984D01*
X0116473Y0179846D01*
X0116449Y0179708D01*
X0116422Y0179571D01*
X0116390Y0179434D01*
X0116355Y0179299D01*
X0116315Y0179165D01*
X0116272Y0179032D01*
X0116226Y0178900D01*
X0116175Y0178769D01*
X0116121Y0178640D01*
X0116063Y0178513D01*
X0116001Y0178387D01*
X0115936Y0178263D01*
X0115868Y0178141D01*
X0115796Y0178021D01*
X0115721Y0177904D01*
X0115642Y0177788D01*
X0115560Y0177674D01*
X0115475Y0177563D01*
X0115387Y0177455D01*
X0115295Y0177349D01*
X0115201Y0177245D01*
X0115104Y0177145D01*
X0115004Y0177047D01*
X0114901Y0176952D01*
X0114796Y0176860D01*
X0114688Y0176771D01*
X0114578Y0176685D01*
X0114465Y0176602D01*
X0114350Y0176523D01*
X0114232Y0176447D01*
X0114113Y0176374D01*
X0113991Y0176304D01*
X0113868Y0176239D01*
X0113743Y0176176D01*
X0113616Y0176117D01*
X0113487Y0176062D01*
X0113357Y0176011D01*
X0113226Y0175963D01*
X0113093Y0175919D01*
X0112959Y0175879D01*
X0112824Y0175842D01*
X0112688Y0175810D01*
X0112551Y0175781D01*
X0112413Y0175757D01*
X0112275Y0175736D01*
X0112136Y0175719D01*
X0111996Y0175706D01*
X0111857Y0175697D01*
X0111717Y0175692D01*
X0111577Y0175691D01*
X0111437Y0175694D01*
X0111297Y0175701D01*
X0111158Y0175712D01*
X0111019Y0175727D01*
X0110880Y0175746D01*
X0110742Y0175768D01*
X0110605Y0175795D01*
X0110468Y0175826D01*
X0110333Y0175860D01*
X0110198Y0175898D01*
X0110065Y0175941D01*
X0109933Y0175986D01*
X0109802Y0176036D01*
X0109672Y0176089D01*
X0109545Y0176146D01*
X0109419Y0176207D01*
X0109294Y0176271D01*
X0109172Y0176339D01*
X0109051Y0176410D01*
X0108933Y0176484D01*
X0108817Y0176562D01*
X0108703Y0176643D01*
X0108591Y0176728D01*
X0108482Y0176815D01*
X0108375Y0176905D01*
X0108271Y0176999D01*
X0108170Y0177095D01*
X0108071Y0177195D01*
X0107975Y0177297D01*
X0107883Y0177401D01*
X0107793Y0177509D01*
X0107706Y0177619D01*
X0107623Y0177731D01*
X0107542Y0177845D01*
X0107465Y0177962D01*
X0107392Y0178081D01*
X0107321Y0178202D01*
X0107255Y0178325D01*
X0107191Y0178450D01*
X0107132Y0178576D01*
X0107076Y0178705D01*
X0107023Y0178834D01*
X0106975Y0178965D01*
X0106930Y0179098D01*
X0106889Y0179232D01*
X0106851Y0179367D01*
X0106818Y0179502D01*
X0106788Y0179639D01*
X0106762Y0179777D01*
X0106741Y0179915D01*
X0106723Y0180054D01*
X0106709Y0180193D01*
X0106699Y0180332D01*
X0106693Y0180472D01*
X0106691Y0180612D01*
X0161809Y0093998D02*
X0161811Y0094138D01*
X0161817Y0094278D01*
X0161827Y0094417D01*
X0161841Y0094556D01*
X0161859Y0094695D01*
X0161880Y0094833D01*
X0161906Y0094971D01*
X0161936Y0095108D01*
X0161969Y0095243D01*
X0162007Y0095378D01*
X0162048Y0095512D01*
X0162093Y0095645D01*
X0162141Y0095776D01*
X0162194Y0095905D01*
X0162250Y0096034D01*
X0162309Y0096160D01*
X0162373Y0096285D01*
X0162439Y0096408D01*
X0162510Y0096529D01*
X0162583Y0096648D01*
X0162660Y0096765D01*
X0162741Y0096879D01*
X0162824Y0096991D01*
X0162911Y0097101D01*
X0163001Y0097209D01*
X0163093Y0097313D01*
X0163189Y0097415D01*
X0163288Y0097515D01*
X0163389Y0097611D01*
X0163493Y0097705D01*
X0163600Y0097795D01*
X0163709Y0097882D01*
X0163821Y0097967D01*
X0163935Y0098048D01*
X0164051Y0098126D01*
X0164169Y0098200D01*
X0164290Y0098271D01*
X0164412Y0098339D01*
X0164537Y0098403D01*
X0164663Y0098464D01*
X0164790Y0098521D01*
X0164920Y0098574D01*
X0165051Y0098624D01*
X0165183Y0098669D01*
X0165316Y0098712D01*
X0165451Y0098750D01*
X0165586Y0098784D01*
X0165723Y0098815D01*
X0165860Y0098842D01*
X0165998Y0098864D01*
X0166137Y0098883D01*
X0166276Y0098898D01*
X0166415Y0098909D01*
X0166555Y0098916D01*
X0166695Y0098919D01*
X0166835Y0098918D01*
X0166975Y0098913D01*
X0167114Y0098904D01*
X0167254Y0098891D01*
X0167393Y0098874D01*
X0167531Y0098853D01*
X0167669Y0098829D01*
X0167806Y0098800D01*
X0167942Y0098768D01*
X0168077Y0098731D01*
X0168211Y0098691D01*
X0168344Y0098647D01*
X0168475Y0098599D01*
X0168605Y0098548D01*
X0168734Y0098493D01*
X0168861Y0098434D01*
X0168986Y0098371D01*
X0169109Y0098306D01*
X0169231Y0098236D01*
X0169350Y0098163D01*
X0169468Y0098087D01*
X0169583Y0098008D01*
X0169696Y0097925D01*
X0169806Y0097839D01*
X0169914Y0097750D01*
X0170019Y0097658D01*
X0170122Y0097563D01*
X0170222Y0097465D01*
X0170319Y0097365D01*
X0170413Y0097261D01*
X0170505Y0097155D01*
X0170593Y0097047D01*
X0170678Y0096936D01*
X0170760Y0096822D01*
X0170839Y0096706D01*
X0170914Y0096589D01*
X0170986Y0096469D01*
X0171054Y0096347D01*
X0171119Y0096223D01*
X0171181Y0096097D01*
X0171239Y0095970D01*
X0171293Y0095841D01*
X0171344Y0095710D01*
X0171390Y0095578D01*
X0171433Y0095445D01*
X0171473Y0095311D01*
X0171508Y0095176D01*
X0171540Y0095039D01*
X0171567Y0094902D01*
X0171591Y0094764D01*
X0171611Y0094626D01*
X0171627Y0094487D01*
X0171639Y0094347D01*
X0171647Y0094208D01*
X0171651Y0094068D01*
X0171651Y0093928D01*
X0171647Y0093788D01*
X0171639Y0093649D01*
X0171627Y0093509D01*
X0171611Y0093370D01*
X0171591Y0093232D01*
X0171567Y0093094D01*
X0171540Y0092957D01*
X0171508Y0092820D01*
X0171473Y0092685D01*
X0171433Y0092551D01*
X0171390Y0092418D01*
X0171344Y0092286D01*
X0171293Y0092155D01*
X0171239Y0092026D01*
X0171181Y0091899D01*
X0171119Y0091773D01*
X0171054Y0091649D01*
X0170986Y0091527D01*
X0170914Y0091407D01*
X0170839Y0091290D01*
X0170760Y0091174D01*
X0170678Y0091060D01*
X0170593Y0090949D01*
X0170505Y0090841D01*
X0170413Y0090735D01*
X0170319Y0090631D01*
X0170222Y0090531D01*
X0170122Y0090433D01*
X0170019Y0090338D01*
X0169914Y0090246D01*
X0169806Y0090157D01*
X0169696Y0090071D01*
X0169583Y0089988D01*
X0169468Y0089909D01*
X0169350Y0089833D01*
X0169231Y0089760D01*
X0169109Y0089690D01*
X0168986Y0089625D01*
X0168861Y0089562D01*
X0168734Y0089503D01*
X0168605Y0089448D01*
X0168475Y0089397D01*
X0168344Y0089349D01*
X0168211Y0089305D01*
X0168077Y0089265D01*
X0167942Y0089228D01*
X0167806Y0089196D01*
X0167669Y0089167D01*
X0167531Y0089143D01*
X0167393Y0089122D01*
X0167254Y0089105D01*
X0167114Y0089092D01*
X0166975Y0089083D01*
X0166835Y0089078D01*
X0166695Y0089077D01*
X0166555Y0089080D01*
X0166415Y0089087D01*
X0166276Y0089098D01*
X0166137Y0089113D01*
X0165998Y0089132D01*
X0165860Y0089154D01*
X0165723Y0089181D01*
X0165586Y0089212D01*
X0165451Y0089246D01*
X0165316Y0089284D01*
X0165183Y0089327D01*
X0165051Y0089372D01*
X0164920Y0089422D01*
X0164790Y0089475D01*
X0164663Y0089532D01*
X0164537Y0089593D01*
X0164412Y0089657D01*
X0164290Y0089725D01*
X0164169Y0089796D01*
X0164051Y0089870D01*
X0163935Y0089948D01*
X0163821Y0090029D01*
X0163709Y0090114D01*
X0163600Y0090201D01*
X0163493Y0090291D01*
X0163389Y0090385D01*
X0163288Y0090481D01*
X0163189Y0090581D01*
X0163093Y0090683D01*
X0163001Y0090787D01*
X0162911Y0090895D01*
X0162824Y0091005D01*
X0162741Y0091117D01*
X0162660Y0091231D01*
X0162583Y0091348D01*
X0162510Y0091467D01*
X0162439Y0091588D01*
X0162373Y0091711D01*
X0162309Y0091836D01*
X0162250Y0091962D01*
X0162194Y0092091D01*
X0162141Y0092220D01*
X0162093Y0092351D01*
X0162048Y0092484D01*
X0162007Y0092618D01*
X0161969Y0092753D01*
X0161936Y0092888D01*
X0161906Y0093025D01*
X0161880Y0093163D01*
X0161859Y0093301D01*
X0161841Y0093440D01*
X0161827Y0093579D01*
X0161817Y0093718D01*
X0161811Y0093858D01*
X0161809Y0093998D01*
D12*
X0167250Y0059750D03*
X0167250Y0041250D03*
X0167250Y0022750D03*
X0146350Y0022750D03*
X0146350Y0041250D03*
X0146350Y0059750D03*
X0188150Y0059750D03*
X0188150Y0041250D03*
X0188150Y0022750D03*
M02*
