G75*
%MOIN*%
%OFA0B0*%
%FSLAX25Y25*%
%IPPOS*%
%LPD*%
%AMOC8*
5,1,8,0,0,1.08239X$1,22.5*
%
%ADD10C,0.00500*%
%ADD11C,0.08268*%
%ADD12C,0.00000*%
%ADD13C,0.11811*%
%ADD14C,0.05937*%
%ADD15C,0.08858*%
%ADD16R,0.15700X0.09800*%
%ADD17R,0.03962X0.03962*%
D10*
X0001250Y0001250D02*
X0001250Y0294750D01*
X0005750Y0290567D02*
X0009855Y0291384D01*
X0015223Y0293607D01*
X0020055Y0296836D01*
X0024164Y0300945D01*
X0027393Y0305777D01*
X0029616Y0311145D01*
X0029616Y0311145D01*
X0030433Y0315250D01*
X0151716Y0315250D01*
X0151716Y0313139D01*
X0152566Y0311087D01*
X0154137Y0309516D01*
X0156189Y0308666D01*
X0158411Y0308666D01*
X0160463Y0309516D01*
X0162034Y0311087D01*
X0162884Y0313139D01*
X0162884Y0315250D01*
X0171716Y0315250D01*
X0171716Y0313139D01*
X0172566Y0311087D01*
X0174137Y0309516D01*
X0176189Y0308666D01*
X0178411Y0308666D01*
X0180463Y0309516D01*
X0182034Y0311087D01*
X0182884Y0313139D01*
X0182884Y0315250D01*
X0304167Y0315250D01*
X0304984Y0311145D01*
X0307207Y0305777D01*
X0310436Y0300945D01*
X0310436Y0300945D01*
X0314545Y0296836D01*
X0319377Y0293607D01*
X0324745Y0291384D01*
X0328850Y0290567D01*
X0328850Y0005750D01*
X0005750Y0005750D01*
X0005750Y0290567D01*
X0005750Y0290387D02*
X0328850Y0290387D01*
X0328850Y0289888D02*
X0005750Y0289888D01*
X0005750Y0289390D02*
X0328850Y0289390D01*
X0328850Y0288891D02*
X0005750Y0288891D01*
X0005750Y0288393D02*
X0328850Y0288393D01*
X0328850Y0287894D02*
X0005750Y0287894D01*
X0005750Y0287395D02*
X0328850Y0287395D01*
X0328850Y0286897D02*
X0005750Y0286897D01*
X0005750Y0286398D02*
X0328850Y0286398D01*
X0328850Y0285900D02*
X0005750Y0285900D01*
X0005750Y0285401D02*
X0328850Y0285401D01*
X0328850Y0284903D02*
X0005750Y0284903D01*
X0005750Y0284404D02*
X0328850Y0284404D01*
X0328850Y0283906D02*
X0005750Y0283906D01*
X0005750Y0283407D02*
X0328850Y0283407D01*
X0328850Y0282909D02*
X0005750Y0282909D01*
X0005750Y0282410D02*
X0328850Y0282410D01*
X0328850Y0281912D02*
X0005750Y0281912D01*
X0005750Y0281413D02*
X0328850Y0281413D01*
X0328850Y0280915D02*
X0005750Y0280915D01*
X0005750Y0280416D02*
X0328850Y0280416D01*
X0328850Y0279918D02*
X0005750Y0279918D01*
X0005750Y0279419D02*
X0328850Y0279419D01*
X0328850Y0278921D02*
X0005750Y0278921D01*
X0005750Y0278422D02*
X0328850Y0278422D01*
X0328850Y0277924D02*
X0005750Y0277924D01*
X0005750Y0277425D02*
X0328850Y0277425D01*
X0328850Y0276927D02*
X0005750Y0276927D01*
X0005750Y0276428D02*
X0328850Y0276428D01*
X0328850Y0275930D02*
X0005750Y0275930D01*
X0005750Y0275431D02*
X0328850Y0275431D01*
X0328850Y0274933D02*
X0005750Y0274933D01*
X0005750Y0274434D02*
X0328850Y0274434D01*
X0328850Y0273936D02*
X0005750Y0273936D01*
X0005750Y0273437D02*
X0328850Y0273437D01*
X0328850Y0272939D02*
X0005750Y0272939D01*
X0005750Y0272440D02*
X0328850Y0272440D01*
X0328850Y0271942D02*
X0005750Y0271942D01*
X0005750Y0271443D02*
X0026968Y0271443D01*
X0027787Y0271783D02*
X0025735Y0270933D01*
X0024164Y0269362D01*
X0023314Y0267310D01*
X0023314Y0265088D01*
X0024164Y0263036D01*
X0025735Y0261465D01*
X0027787Y0260615D01*
X0030009Y0260615D01*
X0032061Y0261465D01*
X0033632Y0263036D01*
X0034482Y0265088D01*
X0034482Y0267310D01*
X0033632Y0269362D01*
X0032061Y0270933D01*
X0030009Y0271783D01*
X0027787Y0271783D01*
X0025764Y0270945D02*
X0005750Y0270945D01*
X0005750Y0270446D02*
X0025249Y0270446D01*
X0024750Y0269948D02*
X0005750Y0269948D01*
X0005750Y0269449D02*
X0024252Y0269449D01*
X0023994Y0268951D02*
X0005750Y0268951D01*
X0005750Y0268452D02*
X0023787Y0268452D01*
X0023581Y0267954D02*
X0005750Y0267954D01*
X0005750Y0267455D02*
X0023374Y0267455D01*
X0023314Y0266957D02*
X0005750Y0266957D01*
X0005750Y0266458D02*
X0023314Y0266458D01*
X0023314Y0265960D02*
X0005750Y0265960D01*
X0005750Y0265461D02*
X0023314Y0265461D01*
X0023366Y0264962D02*
X0005750Y0264962D01*
X0005750Y0264464D02*
X0023573Y0264464D01*
X0023779Y0263965D02*
X0005750Y0263965D01*
X0005750Y0263467D02*
X0023986Y0263467D01*
X0024232Y0262968D02*
X0005750Y0262968D01*
X0005750Y0262470D02*
X0024730Y0262470D01*
X0025229Y0261971D02*
X0005750Y0261971D01*
X0005750Y0261473D02*
X0025727Y0261473D01*
X0026920Y0260974D02*
X0005750Y0260974D01*
X0005750Y0260476D02*
X0158331Y0260476D01*
X0157887Y0260920D02*
X0159541Y0259266D01*
X0161701Y0258371D01*
X0172899Y0258371D01*
X0175059Y0259266D01*
X0176713Y0260920D01*
X0177608Y0263081D01*
X0177608Y0265419D01*
X0176713Y0267580D01*
X0175059Y0269234D01*
X0172899Y0270129D01*
X0161701Y0270129D01*
X0159541Y0269234D01*
X0157887Y0267580D01*
X0156992Y0265419D01*
X0156992Y0263081D01*
X0157887Y0260920D01*
X0157864Y0260974D02*
X0080876Y0260974D01*
X0080009Y0260615D02*
X0082061Y0261465D01*
X0083632Y0263036D01*
X0084482Y0265088D01*
X0084482Y0267310D01*
X0083632Y0269362D01*
X0082061Y0270933D01*
X0080009Y0271783D01*
X0077787Y0271783D01*
X0075735Y0270933D01*
X0074164Y0269362D01*
X0073314Y0267310D01*
X0073314Y0265088D01*
X0074164Y0263036D01*
X0075735Y0261465D01*
X0077787Y0260615D01*
X0080009Y0260615D01*
X0082069Y0261473D02*
X0157658Y0261473D01*
X0157451Y0261971D02*
X0082567Y0261971D01*
X0083066Y0262470D02*
X0157245Y0262470D01*
X0157038Y0262968D02*
X0083564Y0262968D01*
X0083810Y0263467D02*
X0156992Y0263467D01*
X0156992Y0263965D02*
X0084017Y0263965D01*
X0084223Y0264464D02*
X0156992Y0264464D01*
X0156992Y0264962D02*
X0084430Y0264962D01*
X0084482Y0265461D02*
X0157009Y0265461D01*
X0157215Y0265960D02*
X0084482Y0265960D01*
X0084482Y0266458D02*
X0157422Y0266458D01*
X0157628Y0266957D02*
X0084482Y0266957D01*
X0084422Y0267455D02*
X0157835Y0267455D01*
X0158260Y0267954D02*
X0084215Y0267954D01*
X0084009Y0268452D02*
X0158759Y0268452D01*
X0159257Y0268951D02*
X0083802Y0268951D01*
X0083545Y0269449D02*
X0160060Y0269449D01*
X0161263Y0269948D02*
X0083046Y0269948D01*
X0082547Y0270446D02*
X0251852Y0270446D01*
X0252339Y0270933D02*
X0250768Y0269362D01*
X0249918Y0267310D01*
X0249918Y0265088D01*
X0250768Y0263036D01*
X0252339Y0261465D01*
X0254391Y0260615D01*
X0256613Y0260615D01*
X0258665Y0261465D01*
X0260236Y0263036D01*
X0261086Y0265088D01*
X0261086Y0267310D01*
X0260236Y0269362D01*
X0258665Y0270933D01*
X0256613Y0271783D01*
X0254391Y0271783D01*
X0252339Y0270933D01*
X0252368Y0270945D02*
X0082032Y0270945D01*
X0080828Y0271443D02*
X0253572Y0271443D01*
X0251354Y0269948D02*
X0173337Y0269948D01*
X0174540Y0269449D02*
X0250855Y0269449D01*
X0250598Y0268951D02*
X0175343Y0268951D01*
X0175841Y0268452D02*
X0250391Y0268452D01*
X0250185Y0267954D02*
X0176340Y0267954D01*
X0176765Y0267455D02*
X0249978Y0267455D01*
X0249918Y0266957D02*
X0176972Y0266957D01*
X0177178Y0266458D02*
X0249918Y0266458D01*
X0249918Y0265960D02*
X0177385Y0265960D01*
X0177591Y0265461D02*
X0249918Y0265461D01*
X0249970Y0264962D02*
X0177608Y0264962D01*
X0177608Y0264464D02*
X0250177Y0264464D01*
X0250383Y0263965D02*
X0177608Y0263965D01*
X0177608Y0263467D02*
X0250590Y0263467D01*
X0250836Y0262968D02*
X0177562Y0262968D01*
X0177355Y0262470D02*
X0251334Y0262470D01*
X0251833Y0261971D02*
X0177149Y0261971D01*
X0176942Y0261473D02*
X0252331Y0261473D01*
X0253523Y0260974D02*
X0176736Y0260974D01*
X0176269Y0260476D02*
X0328850Y0260476D01*
X0328850Y0260974D02*
X0306845Y0260974D01*
X0306763Y0260948D02*
X0307569Y0261209D01*
X0308324Y0261594D01*
X0309009Y0262092D01*
X0309609Y0262691D01*
X0310107Y0263377D01*
X0310491Y0264132D01*
X0310753Y0264938D01*
X0310886Y0265775D01*
X0310886Y0265949D01*
X0305752Y0265949D01*
X0305752Y0266449D01*
X0305252Y0266449D01*
X0305252Y0271583D01*
X0305078Y0271583D01*
X0304241Y0271450D01*
X0303435Y0271188D01*
X0302680Y0270803D01*
X0301995Y0270305D01*
X0301395Y0269706D01*
X0300897Y0269021D01*
X0300513Y0268266D01*
X0300251Y0267460D01*
X0300118Y0266623D01*
X0300118Y0266449D01*
X0305252Y0266449D01*
X0305252Y0265949D01*
X0300118Y0265949D01*
X0300118Y0265775D01*
X0300251Y0264938D01*
X0300513Y0264132D01*
X0300897Y0263377D01*
X0301395Y0262691D01*
X0301995Y0262092D01*
X0302680Y0261594D01*
X0303435Y0261209D01*
X0304241Y0260948D01*
X0305078Y0260815D01*
X0305252Y0260815D01*
X0305252Y0265949D01*
X0305752Y0265949D01*
X0305752Y0260815D01*
X0305926Y0260815D01*
X0306763Y0260948D01*
X0305752Y0260974D02*
X0305252Y0260974D01*
X0305252Y0261473D02*
X0305752Y0261473D01*
X0305752Y0261971D02*
X0305252Y0261971D01*
X0305252Y0262470D02*
X0305752Y0262470D01*
X0305752Y0262968D02*
X0305252Y0262968D01*
X0305252Y0263467D02*
X0305752Y0263467D01*
X0305752Y0263965D02*
X0305252Y0263965D01*
X0305252Y0264464D02*
X0305752Y0264464D01*
X0305752Y0264962D02*
X0305252Y0264962D01*
X0305252Y0265461D02*
X0305752Y0265461D01*
X0305752Y0265960D02*
X0328850Y0265960D01*
X0328850Y0266458D02*
X0310886Y0266458D01*
X0310886Y0266449D02*
X0310886Y0266623D01*
X0310753Y0267460D01*
X0310491Y0268266D01*
X0310107Y0269021D01*
X0309609Y0269706D01*
X0309009Y0270305D01*
X0308324Y0270803D01*
X0307569Y0271188D01*
X0306763Y0271450D01*
X0305926Y0271583D01*
X0305752Y0271583D01*
X0305752Y0266449D01*
X0310886Y0266449D01*
X0310833Y0266957D02*
X0328850Y0266957D01*
X0328850Y0267455D02*
X0310754Y0267455D01*
X0310593Y0267954D02*
X0328850Y0267954D01*
X0328850Y0268452D02*
X0310396Y0268452D01*
X0310142Y0268951D02*
X0328850Y0268951D01*
X0328850Y0269449D02*
X0309795Y0269449D01*
X0309367Y0269948D02*
X0328850Y0269948D01*
X0328850Y0270446D02*
X0308816Y0270446D01*
X0308047Y0270945D02*
X0328850Y0270945D01*
X0328850Y0271443D02*
X0306784Y0271443D01*
X0305752Y0271443D02*
X0305252Y0271443D01*
X0305252Y0270945D02*
X0305752Y0270945D01*
X0305752Y0270446D02*
X0305252Y0270446D01*
X0305252Y0269948D02*
X0305752Y0269948D01*
X0305752Y0269449D02*
X0305252Y0269449D01*
X0305252Y0268951D02*
X0305752Y0268951D01*
X0305752Y0268452D02*
X0305252Y0268452D01*
X0305252Y0267954D02*
X0305752Y0267954D01*
X0305752Y0267455D02*
X0305252Y0267455D01*
X0305252Y0266957D02*
X0305752Y0266957D01*
X0305752Y0266458D02*
X0305252Y0266458D01*
X0305252Y0265960D02*
X0286086Y0265960D01*
X0286086Y0266458D02*
X0300118Y0266458D01*
X0300171Y0266957D02*
X0286086Y0266957D01*
X0286086Y0267310D02*
X0285236Y0269362D01*
X0283665Y0270933D01*
X0281613Y0271783D01*
X0279391Y0271783D01*
X0277339Y0270933D01*
X0275768Y0269362D01*
X0274918Y0267310D01*
X0274918Y0265088D01*
X0275768Y0263036D01*
X0277339Y0261465D01*
X0279391Y0260615D01*
X0281613Y0260615D01*
X0283665Y0261465D01*
X0285236Y0263036D01*
X0286086Y0265088D01*
X0286086Y0267310D01*
X0286026Y0267455D02*
X0300250Y0267455D01*
X0300411Y0267954D02*
X0285819Y0267954D01*
X0285613Y0268452D02*
X0300608Y0268452D01*
X0300862Y0268951D02*
X0285406Y0268951D01*
X0285148Y0269449D02*
X0301209Y0269449D01*
X0301637Y0269948D02*
X0284650Y0269948D01*
X0284151Y0270446D02*
X0302188Y0270446D01*
X0302957Y0270945D02*
X0283636Y0270945D01*
X0282432Y0271443D02*
X0304220Y0271443D01*
X0300168Y0265461D02*
X0286086Y0265461D01*
X0286034Y0264962D02*
X0300247Y0264962D01*
X0300405Y0264464D02*
X0285827Y0264464D01*
X0285621Y0263965D02*
X0300597Y0263965D01*
X0300851Y0263467D02*
X0285414Y0263467D01*
X0285168Y0262968D02*
X0301194Y0262968D01*
X0301617Y0262470D02*
X0284670Y0262470D01*
X0284171Y0261971D02*
X0302161Y0261971D01*
X0302918Y0261473D02*
X0283673Y0261473D01*
X0282480Y0260974D02*
X0304159Y0260974D01*
X0308086Y0261473D02*
X0328850Y0261473D01*
X0328850Y0261971D02*
X0308843Y0261971D01*
X0309387Y0262470D02*
X0328850Y0262470D01*
X0328850Y0262968D02*
X0309810Y0262968D01*
X0310152Y0263467D02*
X0328850Y0263467D01*
X0328850Y0263965D02*
X0310406Y0263965D01*
X0310599Y0264464D02*
X0328850Y0264464D01*
X0328850Y0264962D02*
X0310757Y0264962D01*
X0310836Y0265461D02*
X0328850Y0265461D01*
X0328850Y0259977D02*
X0175771Y0259977D01*
X0175272Y0259479D02*
X0328850Y0259479D01*
X0328850Y0258980D02*
X0174370Y0258980D01*
X0173166Y0258482D02*
X0328850Y0258482D01*
X0328850Y0257983D02*
X0005750Y0257983D01*
X0005750Y0257485D02*
X0328850Y0257485D01*
X0328850Y0256986D02*
X0005750Y0256986D01*
X0005750Y0256488D02*
X0328850Y0256488D01*
X0328850Y0255989D02*
X0005750Y0255989D01*
X0005750Y0255491D02*
X0328850Y0255491D01*
X0328850Y0254992D02*
X0173229Y0254992D01*
X0172899Y0255129D02*
X0161701Y0255129D01*
X0159541Y0254234D01*
X0157887Y0252580D01*
X0156992Y0250419D01*
X0156992Y0248081D01*
X0157887Y0245920D01*
X0159541Y0244266D01*
X0161701Y0243371D01*
X0172899Y0243371D01*
X0175059Y0244266D01*
X0176713Y0245920D01*
X0177608Y0248081D01*
X0177608Y0250419D01*
X0176713Y0252580D01*
X0175059Y0254234D01*
X0172899Y0255129D01*
X0174432Y0254494D02*
X0328850Y0254494D01*
X0328850Y0253995D02*
X0175298Y0253995D01*
X0175797Y0253497D02*
X0328850Y0253497D01*
X0328850Y0252998D02*
X0176295Y0252998D01*
X0176747Y0252500D02*
X0328850Y0252500D01*
X0328850Y0252001D02*
X0176953Y0252001D01*
X0177160Y0251503D02*
X0328850Y0251503D01*
X0328850Y0251004D02*
X0177366Y0251004D01*
X0177573Y0250506D02*
X0328850Y0250506D01*
X0328850Y0250007D02*
X0177608Y0250007D01*
X0177608Y0249509D02*
X0328850Y0249509D01*
X0328850Y0249010D02*
X0177608Y0249010D01*
X0177608Y0248512D02*
X0328850Y0248512D01*
X0328850Y0248013D02*
X0177580Y0248013D01*
X0177374Y0247515D02*
X0328850Y0247515D01*
X0328850Y0247016D02*
X0177167Y0247016D01*
X0176961Y0246518D02*
X0328850Y0246518D01*
X0328850Y0246019D02*
X0176754Y0246019D01*
X0176314Y0245521D02*
X0328850Y0245521D01*
X0328850Y0245022D02*
X0175816Y0245022D01*
X0175317Y0244524D02*
X0328850Y0244524D01*
X0328850Y0244025D02*
X0174478Y0244025D01*
X0173274Y0243527D02*
X0328850Y0243527D01*
X0328850Y0243028D02*
X0005750Y0243028D01*
X0005750Y0243527D02*
X0161326Y0243527D01*
X0160122Y0244025D02*
X0005750Y0244025D01*
X0005750Y0244524D02*
X0159283Y0244524D01*
X0158784Y0245022D02*
X0005750Y0245022D01*
X0005750Y0245521D02*
X0158286Y0245521D01*
X0157846Y0246019D02*
X0005750Y0246019D01*
X0005750Y0246518D02*
X0157639Y0246518D01*
X0157433Y0247016D02*
X0005750Y0247016D01*
X0005750Y0247515D02*
X0157226Y0247515D01*
X0157020Y0248013D02*
X0005750Y0248013D01*
X0005750Y0248512D02*
X0156992Y0248512D01*
X0156992Y0249010D02*
X0005750Y0249010D01*
X0005750Y0249509D02*
X0156992Y0249509D01*
X0156992Y0250007D02*
X0005750Y0250007D01*
X0005750Y0250506D02*
X0157027Y0250506D01*
X0157234Y0251004D02*
X0005750Y0251004D01*
X0005750Y0251503D02*
X0157440Y0251503D01*
X0157647Y0252001D02*
X0005750Y0252001D01*
X0005750Y0252500D02*
X0157853Y0252500D01*
X0158305Y0252998D02*
X0005750Y0252998D01*
X0005750Y0253497D02*
X0158803Y0253497D01*
X0159302Y0253995D02*
X0005750Y0253995D01*
X0005750Y0254494D02*
X0160168Y0254494D01*
X0161371Y0254992D02*
X0005750Y0254992D01*
X0005750Y0258482D02*
X0161434Y0258482D01*
X0160230Y0258980D02*
X0005750Y0258980D01*
X0005750Y0259479D02*
X0159328Y0259479D01*
X0158829Y0259977D02*
X0005750Y0259977D01*
X0005750Y0242529D02*
X0328850Y0242529D01*
X0328850Y0242031D02*
X0005750Y0242031D01*
X0005750Y0241532D02*
X0328850Y0241532D01*
X0328850Y0241034D02*
X0005750Y0241034D01*
X0005750Y0240535D02*
X0328850Y0240535D01*
X0328850Y0240037D02*
X0173121Y0240037D01*
X0172899Y0240129D02*
X0161701Y0240129D01*
X0159541Y0239234D01*
X0157887Y0237580D01*
X0156992Y0235419D01*
X0156992Y0233081D01*
X0157887Y0230920D01*
X0159541Y0229266D01*
X0161701Y0228371D01*
X0172899Y0228371D01*
X0175059Y0229266D01*
X0176713Y0230920D01*
X0177608Y0233081D01*
X0177608Y0235419D01*
X0176713Y0237580D01*
X0175059Y0239234D01*
X0172899Y0240129D01*
X0174325Y0239538D02*
X0328850Y0239538D01*
X0328850Y0239040D02*
X0175254Y0239040D01*
X0175752Y0238541D02*
X0328850Y0238541D01*
X0328850Y0238043D02*
X0176251Y0238043D01*
X0176728Y0237544D02*
X0328850Y0237544D01*
X0328850Y0237046D02*
X0176935Y0237046D01*
X0177141Y0236547D02*
X0328850Y0236547D01*
X0328850Y0236049D02*
X0177348Y0236049D01*
X0177554Y0235550D02*
X0328850Y0235550D01*
X0328850Y0235052D02*
X0177608Y0235052D01*
X0177608Y0234553D02*
X0328850Y0234553D01*
X0328850Y0234055D02*
X0177608Y0234055D01*
X0177608Y0233556D02*
X0328850Y0233556D01*
X0328850Y0233058D02*
X0177599Y0233058D01*
X0177392Y0232559D02*
X0328850Y0232559D01*
X0328850Y0232061D02*
X0177186Y0232061D01*
X0176979Y0231562D02*
X0328850Y0231562D01*
X0328850Y0231064D02*
X0176773Y0231064D01*
X0176359Y0230565D02*
X0328850Y0230565D01*
X0328850Y0230067D02*
X0175860Y0230067D01*
X0175362Y0229568D02*
X0328850Y0229568D01*
X0328850Y0229070D02*
X0174586Y0229070D01*
X0173382Y0228571D02*
X0328850Y0228571D01*
X0328850Y0228073D02*
X0005750Y0228073D01*
X0005750Y0228571D02*
X0161218Y0228571D01*
X0160014Y0229070D02*
X0005750Y0229070D01*
X0005750Y0229568D02*
X0159238Y0229568D01*
X0158740Y0230067D02*
X0005750Y0230067D01*
X0005750Y0230565D02*
X0158241Y0230565D01*
X0157827Y0231064D02*
X0005750Y0231064D01*
X0005750Y0231562D02*
X0157621Y0231562D01*
X0157414Y0232061D02*
X0005750Y0232061D01*
X0005750Y0232559D02*
X0157208Y0232559D01*
X0157001Y0233058D02*
X0005750Y0233058D01*
X0005750Y0233556D02*
X0156992Y0233556D01*
X0156992Y0234055D02*
X0005750Y0234055D01*
X0005750Y0234553D02*
X0156992Y0234553D01*
X0156992Y0235052D02*
X0005750Y0235052D01*
X0005750Y0235550D02*
X0157046Y0235550D01*
X0157252Y0236049D02*
X0005750Y0236049D01*
X0005750Y0236547D02*
X0157459Y0236547D01*
X0157665Y0237046D02*
X0005750Y0237046D01*
X0005750Y0237544D02*
X0157872Y0237544D01*
X0158349Y0238043D02*
X0005750Y0238043D01*
X0005750Y0238541D02*
X0158848Y0238541D01*
X0159346Y0239040D02*
X0005750Y0239040D01*
X0005750Y0239538D02*
X0160275Y0239538D01*
X0161479Y0240037D02*
X0005750Y0240037D01*
X0005750Y0227574D02*
X0328850Y0227574D01*
X0328850Y0227076D02*
X0005750Y0227076D01*
X0005750Y0226577D02*
X0328850Y0226577D01*
X0328850Y0226079D02*
X0005750Y0226079D01*
X0005750Y0225580D02*
X0328850Y0225580D01*
X0328850Y0225082D02*
X0005750Y0225082D01*
X0005750Y0224583D02*
X0328850Y0224583D01*
X0328850Y0224085D02*
X0005750Y0224085D01*
X0005750Y0223586D02*
X0328850Y0223586D01*
X0328850Y0223088D02*
X0005750Y0223088D01*
X0005750Y0222589D02*
X0328850Y0222589D01*
X0328850Y0222091D02*
X0005750Y0222091D01*
X0005750Y0221592D02*
X0328850Y0221592D01*
X0328850Y0221093D02*
X0005750Y0221093D01*
X0005750Y0220595D02*
X0328850Y0220595D01*
X0328850Y0220096D02*
X0005750Y0220096D01*
X0005750Y0219598D02*
X0328850Y0219598D01*
X0328850Y0219099D02*
X0005750Y0219099D01*
X0005750Y0218601D02*
X0328850Y0218601D01*
X0328850Y0218102D02*
X0005750Y0218102D01*
X0005750Y0217604D02*
X0328850Y0217604D01*
X0328850Y0217105D02*
X0005750Y0217105D01*
X0005750Y0216607D02*
X0328850Y0216607D01*
X0328850Y0216108D02*
X0005750Y0216108D01*
X0005750Y0215610D02*
X0328850Y0215610D01*
X0328850Y0215111D02*
X0005750Y0215111D01*
X0005750Y0214613D02*
X0328850Y0214613D01*
X0328850Y0214114D02*
X0005750Y0214114D01*
X0005750Y0213616D02*
X0328850Y0213616D01*
X0328850Y0213117D02*
X0005750Y0213117D01*
X0005750Y0212619D02*
X0328850Y0212619D01*
X0328850Y0212120D02*
X0005750Y0212120D01*
X0005750Y0211622D02*
X0328850Y0211622D01*
X0328850Y0211123D02*
X0005750Y0211123D01*
X0005750Y0210625D02*
X0328850Y0210625D01*
X0328850Y0210126D02*
X0005750Y0210126D01*
X0005750Y0209628D02*
X0328850Y0209628D01*
X0328850Y0209129D02*
X0005750Y0209129D01*
X0005750Y0208631D02*
X0328850Y0208631D01*
X0328850Y0208132D02*
X0005750Y0208132D01*
X0005750Y0207634D02*
X0028150Y0207634D01*
X0028474Y0207685D02*
X0027637Y0207552D01*
X0026831Y0207291D01*
X0026076Y0206906D01*
X0025391Y0206408D01*
X0024791Y0205809D01*
X0024293Y0205123D01*
X0023909Y0204368D01*
X0023647Y0203562D01*
X0023514Y0202725D01*
X0023514Y0202551D01*
X0028648Y0202551D01*
X0028648Y0202051D01*
X0029148Y0202051D01*
X0029148Y0196917D01*
X0029322Y0196917D01*
X0030159Y0197050D01*
X0030965Y0197312D01*
X0031720Y0197696D01*
X0032405Y0198195D01*
X0033005Y0198794D01*
X0033503Y0199479D01*
X0033887Y0200234D01*
X0034149Y0201040D01*
X0034282Y0201877D01*
X0034282Y0202051D01*
X0029148Y0202051D01*
X0029148Y0202551D01*
X0034282Y0202551D01*
X0034282Y0202725D01*
X0034149Y0203562D01*
X0033887Y0204368D01*
X0033503Y0205123D01*
X0033005Y0205809D01*
X0032405Y0206408D01*
X0031720Y0206906D01*
X0030965Y0207291D01*
X0030159Y0207552D01*
X0029322Y0207685D01*
X0029148Y0207685D01*
X0029148Y0202551D01*
X0028648Y0202551D01*
X0028648Y0207685D01*
X0028474Y0207685D01*
X0028648Y0207634D02*
X0029148Y0207634D01*
X0029646Y0207634D02*
X0052181Y0207634D01*
X0052787Y0207885D02*
X0050735Y0207035D01*
X0049164Y0205464D01*
X0048314Y0203412D01*
X0048314Y0201190D01*
X0049164Y0199138D01*
X0050735Y0197567D01*
X0052787Y0196717D01*
X0055009Y0196717D01*
X0057061Y0197567D01*
X0058632Y0199138D01*
X0059482Y0201190D01*
X0059482Y0203412D01*
X0058632Y0205464D01*
X0057061Y0207035D01*
X0055009Y0207885D01*
X0052787Y0207885D01*
X0050977Y0207135D02*
X0031270Y0207135D01*
X0032090Y0206637D02*
X0050337Y0206637D01*
X0049838Y0206138D02*
X0032675Y0206138D01*
X0033127Y0205640D02*
X0049340Y0205640D01*
X0049030Y0205141D02*
X0033489Y0205141D01*
X0033747Y0204643D02*
X0048824Y0204643D01*
X0048617Y0204144D02*
X0033960Y0204144D01*
X0034122Y0203646D02*
X0048411Y0203646D01*
X0048314Y0203147D02*
X0034215Y0203147D01*
X0034282Y0202649D02*
X0048314Y0202649D01*
X0048314Y0202150D02*
X0029148Y0202150D01*
X0029148Y0201652D02*
X0028648Y0201652D01*
X0028648Y0202051D02*
X0028648Y0196917D01*
X0028474Y0196917D01*
X0027637Y0197050D01*
X0026831Y0197312D01*
X0026076Y0197696D01*
X0025391Y0198195D01*
X0024791Y0198794D01*
X0024293Y0199479D01*
X0023909Y0200234D01*
X0023647Y0201040D01*
X0023514Y0201877D01*
X0023514Y0202051D01*
X0028648Y0202051D01*
X0028648Y0202150D02*
X0005750Y0202150D01*
X0005750Y0201652D02*
X0023550Y0201652D01*
X0023629Y0201153D02*
X0005750Y0201153D01*
X0005750Y0200655D02*
X0023772Y0200655D01*
X0023949Y0200156D02*
X0005750Y0200156D01*
X0005750Y0199658D02*
X0024203Y0199658D01*
X0024526Y0199159D02*
X0005750Y0199159D01*
X0005750Y0198660D02*
X0024925Y0198660D01*
X0025436Y0198162D02*
X0005750Y0198162D01*
X0005750Y0197663D02*
X0026141Y0197663D01*
X0027283Y0197165D02*
X0005750Y0197165D01*
X0005750Y0196666D02*
X0328850Y0196666D01*
X0328850Y0196168D02*
X0005750Y0196168D01*
X0005750Y0195669D02*
X0328850Y0195669D01*
X0328850Y0195171D02*
X0005750Y0195171D01*
X0005750Y0194672D02*
X0328850Y0194672D01*
X0328850Y0194174D02*
X0005750Y0194174D01*
X0005750Y0193675D02*
X0328850Y0193675D01*
X0328850Y0193177D02*
X0005750Y0193177D01*
X0005750Y0192678D02*
X0328850Y0192678D01*
X0328850Y0192180D02*
X0005750Y0192180D01*
X0005750Y0191681D02*
X0328850Y0191681D01*
X0328850Y0191183D02*
X0005750Y0191183D01*
X0005750Y0190684D02*
X0328850Y0190684D01*
X0328850Y0190186D02*
X0005750Y0190186D01*
X0005750Y0189687D02*
X0109556Y0189687D01*
X0109788Y0189783D02*
X0106417Y0188387D01*
X0103837Y0185807D01*
X0102441Y0182436D01*
X0102441Y0178788D01*
X0103837Y0175417D01*
X0106417Y0172837D01*
X0109788Y0171441D01*
X0113436Y0171441D01*
X0116807Y0172837D01*
X0119387Y0175417D01*
X0120783Y0178788D01*
X0120783Y0182436D01*
X0119387Y0185807D01*
X0116807Y0188387D01*
X0113436Y0189783D01*
X0109788Y0189783D01*
X0108352Y0189189D02*
X0005750Y0189189D01*
X0005750Y0188690D02*
X0107149Y0188690D01*
X0106222Y0188192D02*
X0005750Y0188192D01*
X0005750Y0187693D02*
X0105723Y0187693D01*
X0105225Y0187195D02*
X0005750Y0187195D01*
X0005750Y0186696D02*
X0104726Y0186696D01*
X0104228Y0186198D02*
X0005750Y0186198D01*
X0005750Y0185699D02*
X0103792Y0185699D01*
X0103586Y0185201D02*
X0005750Y0185201D01*
X0005750Y0184702D02*
X0103379Y0184702D01*
X0103173Y0184204D02*
X0005750Y0184204D01*
X0005750Y0183705D02*
X0102966Y0183705D01*
X0102760Y0183207D02*
X0005750Y0183207D01*
X0005750Y0182708D02*
X0102553Y0182708D01*
X0102441Y0182210D02*
X0005750Y0182210D01*
X0005750Y0181711D02*
X0102441Y0181711D01*
X0102441Y0181213D02*
X0005750Y0181213D01*
X0005750Y0180714D02*
X0102441Y0180714D01*
X0102441Y0180216D02*
X0005750Y0180216D01*
X0005750Y0179717D02*
X0102441Y0179717D01*
X0102441Y0179219D02*
X0005750Y0179219D01*
X0005750Y0178720D02*
X0102469Y0178720D01*
X0102676Y0178222D02*
X0005750Y0178222D01*
X0005750Y0177723D02*
X0102882Y0177723D01*
X0103089Y0177224D02*
X0005750Y0177224D01*
X0005750Y0176726D02*
X0103295Y0176726D01*
X0103502Y0176227D02*
X0005750Y0176227D01*
X0005750Y0175729D02*
X0103708Y0175729D01*
X0104024Y0175230D02*
X0005750Y0175230D01*
X0005750Y0174732D02*
X0104522Y0174732D01*
X0105021Y0174233D02*
X0005750Y0174233D01*
X0005750Y0173735D02*
X0105519Y0173735D01*
X0106018Y0173236D02*
X0005750Y0173236D01*
X0005750Y0172738D02*
X0106657Y0172738D01*
X0107860Y0172239D02*
X0005750Y0172239D01*
X0005750Y0171741D02*
X0109064Y0171741D01*
X0114161Y0171741D02*
X0328850Y0171741D01*
X0328850Y0172239D02*
X0115364Y0172239D01*
X0116568Y0172738D02*
X0328850Y0172738D01*
X0328850Y0173236D02*
X0117207Y0173236D01*
X0117705Y0173735D02*
X0328850Y0173735D01*
X0328850Y0174233D02*
X0118204Y0174233D01*
X0118702Y0174732D02*
X0328850Y0174732D01*
X0328850Y0175230D02*
X0119201Y0175230D01*
X0119516Y0175729D02*
X0328850Y0175729D01*
X0328850Y0176227D02*
X0119723Y0176227D01*
X0119929Y0176726D02*
X0328850Y0176726D01*
X0328850Y0177224D02*
X0120136Y0177224D01*
X0120342Y0177723D02*
X0328850Y0177723D01*
X0328850Y0178222D02*
X0120549Y0178222D01*
X0120755Y0178720D02*
X0328850Y0178720D01*
X0328850Y0179219D02*
X0120783Y0179219D01*
X0120783Y0179717D02*
X0328850Y0179717D01*
X0328850Y0180216D02*
X0120783Y0180216D01*
X0120783Y0180714D02*
X0328850Y0180714D01*
X0328850Y0181213D02*
X0120783Y0181213D01*
X0120783Y0181711D02*
X0328850Y0181711D01*
X0328850Y0182210D02*
X0120783Y0182210D01*
X0120671Y0182708D02*
X0328850Y0182708D01*
X0328850Y0183207D02*
X0120464Y0183207D01*
X0120258Y0183705D02*
X0328850Y0183705D01*
X0328850Y0184204D02*
X0120051Y0184204D01*
X0119845Y0184702D02*
X0328850Y0184702D01*
X0328850Y0185201D02*
X0119638Y0185201D01*
X0119432Y0185699D02*
X0328850Y0185699D01*
X0328850Y0186198D02*
X0118997Y0186198D01*
X0118498Y0186696D02*
X0328850Y0186696D01*
X0328850Y0187195D02*
X0118000Y0187195D01*
X0117501Y0187693D02*
X0328850Y0187693D01*
X0328850Y0188192D02*
X0117003Y0188192D01*
X0116076Y0188690D02*
X0328850Y0188690D01*
X0328850Y0189189D02*
X0114872Y0189189D01*
X0113669Y0189687D02*
X0328850Y0189687D01*
X0328850Y0197165D02*
X0307693Y0197165D01*
X0308665Y0197567D02*
X0310236Y0199138D01*
X0311086Y0201190D01*
X0311086Y0203412D01*
X0310236Y0205464D01*
X0308665Y0207035D01*
X0306613Y0207885D01*
X0304391Y0207885D01*
X0302339Y0207035D01*
X0300768Y0205464D01*
X0299918Y0203412D01*
X0299918Y0201190D01*
X0300768Y0199138D01*
X0302339Y0197567D01*
X0304391Y0196717D01*
X0306613Y0196717D01*
X0308665Y0197567D01*
X0308761Y0197663D02*
X0328850Y0197663D01*
X0328850Y0198162D02*
X0309260Y0198162D01*
X0309758Y0198660D02*
X0328850Y0198660D01*
X0328850Y0199159D02*
X0310244Y0199159D01*
X0310451Y0199658D02*
X0328850Y0199658D01*
X0328850Y0200156D02*
X0310657Y0200156D01*
X0310864Y0200655D02*
X0328850Y0200655D01*
X0328850Y0201153D02*
X0311070Y0201153D01*
X0311086Y0201652D02*
X0328850Y0201652D01*
X0328850Y0202150D02*
X0311086Y0202150D01*
X0311086Y0202649D02*
X0328850Y0202649D01*
X0328850Y0203147D02*
X0311086Y0203147D01*
X0310989Y0203646D02*
X0328850Y0203646D01*
X0328850Y0204144D02*
X0310783Y0204144D01*
X0310576Y0204643D02*
X0328850Y0204643D01*
X0328850Y0205141D02*
X0310370Y0205141D01*
X0310060Y0205640D02*
X0328850Y0205640D01*
X0328850Y0206138D02*
X0309562Y0206138D01*
X0309063Y0206637D02*
X0328850Y0206637D01*
X0328850Y0207135D02*
X0308423Y0207135D01*
X0307219Y0207634D02*
X0328850Y0207634D01*
X0303784Y0207634D02*
X0282219Y0207634D01*
X0281613Y0207885D02*
X0279391Y0207885D01*
X0277339Y0207035D01*
X0275768Y0205464D01*
X0274918Y0203412D01*
X0274918Y0201190D01*
X0275768Y0199138D01*
X0277339Y0197567D01*
X0279391Y0196717D01*
X0281613Y0196717D01*
X0283665Y0197567D01*
X0285236Y0199138D01*
X0286086Y0201190D01*
X0286086Y0203412D01*
X0285236Y0205464D01*
X0283665Y0207035D01*
X0281613Y0207885D01*
X0283423Y0207135D02*
X0302581Y0207135D01*
X0301941Y0206637D02*
X0284063Y0206637D01*
X0284562Y0206138D02*
X0301442Y0206138D01*
X0300944Y0205640D02*
X0285060Y0205640D01*
X0285370Y0205141D02*
X0300634Y0205141D01*
X0300428Y0204643D02*
X0285576Y0204643D01*
X0285783Y0204144D02*
X0300221Y0204144D01*
X0300015Y0203646D02*
X0285989Y0203646D01*
X0286086Y0203147D02*
X0299918Y0203147D01*
X0299918Y0202649D02*
X0286086Y0202649D01*
X0286086Y0202150D02*
X0299918Y0202150D01*
X0299918Y0201652D02*
X0286086Y0201652D01*
X0286070Y0201153D02*
X0299934Y0201153D01*
X0300140Y0200655D02*
X0285864Y0200655D01*
X0285657Y0200156D02*
X0300347Y0200156D01*
X0300553Y0199658D02*
X0285451Y0199658D01*
X0285244Y0199159D02*
X0300760Y0199159D01*
X0301246Y0198660D02*
X0284758Y0198660D01*
X0284260Y0198162D02*
X0301744Y0198162D01*
X0302243Y0197663D02*
X0283761Y0197663D01*
X0282693Y0197165D02*
X0303311Y0197165D01*
X0278311Y0197165D02*
X0257693Y0197165D01*
X0258665Y0197567D02*
X0260236Y0199138D01*
X0261086Y0201190D01*
X0261086Y0203412D01*
X0260236Y0205464D01*
X0258665Y0207035D01*
X0256613Y0207885D01*
X0254391Y0207885D01*
X0252339Y0207035D01*
X0250768Y0205464D01*
X0249918Y0203412D01*
X0249918Y0201190D01*
X0250768Y0199138D01*
X0252339Y0197567D01*
X0254391Y0196717D01*
X0256613Y0196717D01*
X0258665Y0197567D01*
X0258761Y0197663D02*
X0277243Y0197663D01*
X0276744Y0198162D02*
X0259260Y0198162D01*
X0259758Y0198660D02*
X0276246Y0198660D01*
X0275760Y0199159D02*
X0260244Y0199159D01*
X0260451Y0199658D02*
X0275553Y0199658D01*
X0275347Y0200156D02*
X0260657Y0200156D01*
X0260864Y0200655D02*
X0275140Y0200655D01*
X0274934Y0201153D02*
X0261070Y0201153D01*
X0261086Y0201652D02*
X0274918Y0201652D01*
X0274918Y0202150D02*
X0261086Y0202150D01*
X0261086Y0202649D02*
X0274918Y0202649D01*
X0274918Y0203147D02*
X0261086Y0203147D01*
X0260989Y0203646D02*
X0275015Y0203646D01*
X0275221Y0204144D02*
X0260783Y0204144D01*
X0260576Y0204643D02*
X0275428Y0204643D01*
X0275634Y0205141D02*
X0260370Y0205141D01*
X0260060Y0205640D02*
X0275944Y0205640D01*
X0276442Y0206138D02*
X0259562Y0206138D01*
X0259063Y0206637D02*
X0276941Y0206637D01*
X0277581Y0207135D02*
X0258423Y0207135D01*
X0257219Y0207634D02*
X0278784Y0207634D01*
X0253784Y0207634D02*
X0080616Y0207634D01*
X0080009Y0207885D02*
X0077787Y0207885D01*
X0075735Y0207035D01*
X0074164Y0205464D01*
X0073314Y0203412D01*
X0073314Y0201190D01*
X0074164Y0199138D01*
X0075735Y0197567D01*
X0077787Y0196717D01*
X0080009Y0196717D01*
X0082061Y0197567D01*
X0083632Y0199138D01*
X0084482Y0201190D01*
X0084482Y0203412D01*
X0083632Y0205464D01*
X0082061Y0207035D01*
X0080009Y0207885D01*
X0081819Y0207135D02*
X0252581Y0207135D01*
X0251941Y0206637D02*
X0082459Y0206637D01*
X0082958Y0206138D02*
X0251442Y0206138D01*
X0250944Y0205640D02*
X0083456Y0205640D01*
X0083766Y0205141D02*
X0250634Y0205141D01*
X0250428Y0204643D02*
X0083972Y0204643D01*
X0084179Y0204144D02*
X0250221Y0204144D01*
X0250015Y0203646D02*
X0084385Y0203646D01*
X0084482Y0203147D02*
X0249918Y0203147D01*
X0249918Y0202649D02*
X0084482Y0202649D01*
X0084482Y0202150D02*
X0249918Y0202150D01*
X0249918Y0201652D02*
X0084482Y0201652D01*
X0084466Y0201153D02*
X0249934Y0201153D01*
X0250140Y0200655D02*
X0084260Y0200655D01*
X0084053Y0200156D02*
X0250347Y0200156D01*
X0250553Y0199658D02*
X0083847Y0199658D01*
X0083640Y0199159D02*
X0250760Y0199159D01*
X0251246Y0198660D02*
X0083154Y0198660D01*
X0082656Y0198162D02*
X0251744Y0198162D01*
X0252243Y0197663D02*
X0082157Y0197663D01*
X0081089Y0197165D02*
X0253311Y0197165D01*
X0221706Y0164762D02*
X0328850Y0164762D01*
X0328850Y0165260D02*
X0221499Y0165260D01*
X0221293Y0165759D02*
X0328850Y0165759D01*
X0328850Y0166257D02*
X0221086Y0166257D01*
X0220998Y0166472D02*
X0218928Y0168541D01*
X0216225Y0169661D01*
X0213299Y0169661D01*
X0210595Y0168541D01*
X0208526Y0166472D01*
X0207406Y0163768D01*
X0207406Y0160842D01*
X0208526Y0158139D01*
X0210595Y0156069D01*
X0213299Y0154950D01*
X0216225Y0154950D01*
X0218928Y0156069D01*
X0220998Y0158139D01*
X0222117Y0160842D01*
X0222117Y0163768D01*
X0220998Y0166472D01*
X0220713Y0166756D02*
X0328850Y0166756D01*
X0328850Y0167254D02*
X0220215Y0167254D01*
X0219716Y0167753D02*
X0328850Y0167753D01*
X0328850Y0168251D02*
X0219218Y0168251D01*
X0218424Y0168750D02*
X0328850Y0168750D01*
X0328850Y0169248D02*
X0217220Y0169248D01*
X0212303Y0169248D02*
X0005750Y0169248D01*
X0005750Y0168750D02*
X0211100Y0168750D01*
X0210306Y0168251D02*
X0005750Y0168251D01*
X0005750Y0167753D02*
X0209807Y0167753D01*
X0209309Y0167254D02*
X0005750Y0167254D01*
X0005750Y0166756D02*
X0208810Y0166756D01*
X0208437Y0166257D02*
X0005750Y0166257D01*
X0005750Y0165759D02*
X0208231Y0165759D01*
X0208024Y0165260D02*
X0005750Y0165260D01*
X0005750Y0164762D02*
X0207818Y0164762D01*
X0207611Y0164263D02*
X0005750Y0164263D01*
X0005750Y0163765D02*
X0207406Y0163765D01*
X0207406Y0163266D02*
X0005750Y0163266D01*
X0005750Y0162768D02*
X0207406Y0162768D01*
X0207406Y0162269D02*
X0005750Y0162269D01*
X0005750Y0161771D02*
X0207406Y0161771D01*
X0207406Y0161272D02*
X0005750Y0161272D01*
X0005750Y0160774D02*
X0207435Y0160774D01*
X0207641Y0160275D02*
X0005750Y0160275D01*
X0005750Y0159777D02*
X0207848Y0159777D01*
X0208054Y0159278D02*
X0005750Y0159278D01*
X0005750Y0158780D02*
X0208261Y0158780D01*
X0208467Y0158281D02*
X0005750Y0158281D01*
X0005750Y0157783D02*
X0208882Y0157783D01*
X0209381Y0157284D02*
X0005750Y0157284D01*
X0005750Y0156786D02*
X0209879Y0156786D01*
X0210378Y0156287D02*
X0005750Y0156287D01*
X0005750Y0155789D02*
X0211273Y0155789D01*
X0212477Y0155290D02*
X0005750Y0155290D01*
X0005750Y0154791D02*
X0328850Y0154791D01*
X0328850Y0154293D02*
X0005750Y0154293D01*
X0005750Y0153794D02*
X0328850Y0153794D01*
X0328850Y0153296D02*
X0005750Y0153296D01*
X0005750Y0152797D02*
X0328850Y0152797D01*
X0328850Y0152299D02*
X0005750Y0152299D01*
X0005750Y0151800D02*
X0328850Y0151800D01*
X0328850Y0151302D02*
X0005750Y0151302D01*
X0005750Y0150803D02*
X0328850Y0150803D01*
X0328850Y0150305D02*
X0005750Y0150305D01*
X0005750Y0149806D02*
X0328850Y0149806D01*
X0328850Y0149308D02*
X0005750Y0149308D01*
X0005750Y0148809D02*
X0328850Y0148809D01*
X0328850Y0148311D02*
X0005750Y0148311D01*
X0005750Y0147812D02*
X0328850Y0147812D01*
X0328850Y0147314D02*
X0005750Y0147314D01*
X0005750Y0146815D02*
X0328850Y0146815D01*
X0328850Y0146317D02*
X0005750Y0146317D01*
X0005750Y0145818D02*
X0328850Y0145818D01*
X0328850Y0145320D02*
X0005750Y0145320D01*
X0005750Y0144821D02*
X0328850Y0144821D01*
X0328850Y0144323D02*
X0005750Y0144323D01*
X0005750Y0143824D02*
X0328850Y0143824D01*
X0328850Y0143326D02*
X0005750Y0143326D01*
X0005750Y0142827D02*
X0328850Y0142827D01*
X0328850Y0142329D02*
X0005750Y0142329D01*
X0005750Y0141830D02*
X0328850Y0141830D01*
X0328850Y0141332D02*
X0005750Y0141332D01*
X0005750Y0140833D02*
X0328850Y0140833D01*
X0328850Y0140335D02*
X0005750Y0140335D01*
X0005750Y0139836D02*
X0328850Y0139836D01*
X0328850Y0139338D02*
X0005750Y0139338D01*
X0005750Y0138839D02*
X0328850Y0138839D01*
X0328850Y0138341D02*
X0005750Y0138341D01*
X0005750Y0137842D02*
X0328850Y0137842D01*
X0328850Y0137344D02*
X0005750Y0137344D01*
X0005750Y0136845D02*
X0328850Y0136845D01*
X0328850Y0136347D02*
X0005750Y0136347D01*
X0005750Y0135848D02*
X0328850Y0135848D01*
X0328850Y0135350D02*
X0005750Y0135350D01*
X0005750Y0134851D02*
X0328850Y0134851D01*
X0328850Y0134353D02*
X0005750Y0134353D01*
X0005750Y0133854D02*
X0328850Y0133854D01*
X0328850Y0133355D02*
X0005750Y0133355D01*
X0005750Y0132857D02*
X0328850Y0132857D01*
X0328850Y0132358D02*
X0005750Y0132358D01*
X0005750Y0131860D02*
X0328850Y0131860D01*
X0328850Y0131361D02*
X0005750Y0131361D01*
X0005750Y0130863D02*
X0328850Y0130863D01*
X0328850Y0130364D02*
X0005750Y0130364D01*
X0005750Y0129866D02*
X0328850Y0129866D01*
X0328850Y0129367D02*
X0005750Y0129367D01*
X0005750Y0128869D02*
X0328850Y0128869D01*
X0328850Y0128370D02*
X0005750Y0128370D01*
X0005750Y0127872D02*
X0328850Y0127872D01*
X0328850Y0127373D02*
X0005750Y0127373D01*
X0005750Y0126875D02*
X0328850Y0126875D01*
X0328850Y0126376D02*
X0005750Y0126376D01*
X0005750Y0125878D02*
X0328850Y0125878D01*
X0328850Y0125379D02*
X0005750Y0125379D01*
X0005750Y0124881D02*
X0328850Y0124881D01*
X0328850Y0124382D02*
X0005750Y0124382D01*
X0005750Y0123884D02*
X0328850Y0123884D01*
X0328850Y0123385D02*
X0005750Y0123385D01*
X0005750Y0122887D02*
X0328850Y0122887D01*
X0328850Y0122388D02*
X0005750Y0122388D01*
X0005750Y0121890D02*
X0328850Y0121890D01*
X0328850Y0121391D02*
X0005750Y0121391D01*
X0005750Y0120893D02*
X0328850Y0120893D01*
X0328850Y0120394D02*
X0005750Y0120394D01*
X0005750Y0119896D02*
X0328850Y0119896D01*
X0328850Y0119397D02*
X0216861Y0119397D01*
X0216225Y0119661D02*
X0213299Y0119661D01*
X0210595Y0118541D01*
X0208526Y0116472D01*
X0207406Y0113768D01*
X0207406Y0110842D01*
X0208526Y0108139D01*
X0210595Y0106069D01*
X0213299Y0104950D01*
X0216225Y0104950D01*
X0218928Y0106069D01*
X0220998Y0108139D01*
X0222117Y0110842D01*
X0222117Y0113768D01*
X0220998Y0116472D01*
X0218928Y0118541D01*
X0216225Y0119661D01*
X0218064Y0118899D02*
X0328850Y0118899D01*
X0328850Y0118400D02*
X0219069Y0118400D01*
X0219568Y0117902D02*
X0328850Y0117902D01*
X0328850Y0117403D02*
X0220066Y0117403D01*
X0220565Y0116905D02*
X0328850Y0116905D01*
X0328850Y0116406D02*
X0221025Y0116406D01*
X0221231Y0115908D02*
X0328850Y0115908D01*
X0328850Y0115409D02*
X0221438Y0115409D01*
X0221644Y0114911D02*
X0328850Y0114911D01*
X0328850Y0114412D02*
X0221851Y0114412D01*
X0222057Y0113914D02*
X0328850Y0113914D01*
X0328850Y0113415D02*
X0222117Y0113415D01*
X0222117Y0112917D02*
X0328850Y0112917D01*
X0328850Y0112418D02*
X0222117Y0112418D01*
X0222117Y0111920D02*
X0328850Y0111920D01*
X0328850Y0111421D02*
X0222117Y0111421D01*
X0222117Y0110922D02*
X0328850Y0110922D01*
X0328850Y0110424D02*
X0221944Y0110424D01*
X0221738Y0109925D02*
X0328850Y0109925D01*
X0328850Y0109427D02*
X0221531Y0109427D01*
X0221325Y0108928D02*
X0328850Y0108928D01*
X0328850Y0108430D02*
X0221118Y0108430D01*
X0220790Y0107931D02*
X0328850Y0107931D01*
X0328850Y0107433D02*
X0220292Y0107433D01*
X0219793Y0106934D02*
X0328850Y0106934D01*
X0328850Y0106436D02*
X0219295Y0106436D01*
X0218610Y0105937D02*
X0328850Y0105937D01*
X0328850Y0105439D02*
X0217406Y0105439D01*
X0212118Y0105439D02*
X0005750Y0105439D01*
X0005750Y0105937D02*
X0210914Y0105937D01*
X0210229Y0106436D02*
X0005750Y0106436D01*
X0005750Y0106934D02*
X0209730Y0106934D01*
X0209232Y0107433D02*
X0005750Y0107433D01*
X0005750Y0107931D02*
X0208733Y0107931D01*
X0208405Y0108430D02*
X0005750Y0108430D01*
X0005750Y0108928D02*
X0208199Y0108928D01*
X0207992Y0109427D02*
X0005750Y0109427D01*
X0005750Y0109925D02*
X0207786Y0109925D01*
X0207579Y0110424D02*
X0005750Y0110424D01*
X0005750Y0110922D02*
X0207406Y0110922D01*
X0207406Y0111421D02*
X0005750Y0111421D01*
X0005750Y0111920D02*
X0207406Y0111920D01*
X0207406Y0112418D02*
X0005750Y0112418D01*
X0005750Y0112917D02*
X0207406Y0112917D01*
X0207406Y0113415D02*
X0005750Y0113415D01*
X0005750Y0113914D02*
X0207467Y0113914D01*
X0207673Y0114412D02*
X0005750Y0114412D01*
X0005750Y0114911D02*
X0207879Y0114911D01*
X0208086Y0115409D02*
X0005750Y0115409D01*
X0005750Y0115908D02*
X0208292Y0115908D01*
X0208499Y0116406D02*
X0005750Y0116406D01*
X0005750Y0116905D02*
X0208959Y0116905D01*
X0209458Y0117403D02*
X0005750Y0117403D01*
X0005750Y0117902D02*
X0209956Y0117902D01*
X0210455Y0118400D02*
X0005750Y0118400D01*
X0005750Y0118899D02*
X0211459Y0118899D01*
X0212663Y0119397D02*
X0005750Y0119397D01*
X0005750Y0104940D02*
X0328850Y0104940D01*
X0328850Y0104442D02*
X0005750Y0104442D01*
X0005750Y0103943D02*
X0328850Y0103943D01*
X0328850Y0103445D02*
X0005750Y0103445D01*
X0005750Y0102946D02*
X0054132Y0102946D01*
X0054670Y0103169D02*
X0051299Y0101773D01*
X0048719Y0099193D01*
X0047323Y0095822D01*
X0047323Y0092174D01*
X0048719Y0088803D01*
X0051299Y0086223D01*
X0054670Y0084827D01*
X0058318Y0084827D01*
X0061689Y0086223D01*
X0064269Y0088803D01*
X0065665Y0092174D01*
X0065665Y0095822D01*
X0064269Y0099193D01*
X0061689Y0101773D01*
X0058318Y0103169D01*
X0054670Y0103169D01*
X0052928Y0102448D02*
X0005750Y0102448D01*
X0005750Y0101949D02*
X0051724Y0101949D01*
X0050977Y0101451D02*
X0005750Y0101451D01*
X0005750Y0100952D02*
X0050478Y0100952D01*
X0049980Y0100454D02*
X0005750Y0100454D01*
X0005750Y0099955D02*
X0049481Y0099955D01*
X0048983Y0099457D02*
X0005750Y0099457D01*
X0005750Y0098958D02*
X0048622Y0098958D01*
X0048415Y0098460D02*
X0005750Y0098460D01*
X0005750Y0097961D02*
X0048209Y0097961D01*
X0048002Y0097463D02*
X0005750Y0097463D01*
X0005750Y0096964D02*
X0047796Y0096964D01*
X0047589Y0096466D02*
X0005750Y0096466D01*
X0005750Y0095967D02*
X0047383Y0095967D01*
X0047323Y0095469D02*
X0005750Y0095469D01*
X0005750Y0094970D02*
X0047323Y0094970D01*
X0047323Y0094472D02*
X0005750Y0094472D01*
X0005750Y0093973D02*
X0047323Y0093973D01*
X0047323Y0093475D02*
X0005750Y0093475D01*
X0005750Y0092976D02*
X0047323Y0092976D01*
X0047323Y0092478D02*
X0005750Y0092478D01*
X0005750Y0091979D02*
X0047403Y0091979D01*
X0047610Y0091481D02*
X0005750Y0091481D01*
X0005750Y0090982D02*
X0047816Y0090982D01*
X0048023Y0090484D02*
X0005750Y0090484D01*
X0005750Y0089985D02*
X0048229Y0089985D01*
X0048436Y0089487D02*
X0005750Y0089487D01*
X0005750Y0088988D02*
X0048642Y0088988D01*
X0049033Y0088489D02*
X0005750Y0088489D01*
X0005750Y0087991D02*
X0049531Y0087991D01*
X0050030Y0087492D02*
X0005750Y0087492D01*
X0005750Y0086994D02*
X0050528Y0086994D01*
X0051027Y0086495D02*
X0005750Y0086495D01*
X0005750Y0085997D02*
X0051845Y0085997D01*
X0053048Y0085498D02*
X0005750Y0085498D01*
X0005750Y0085000D02*
X0054252Y0085000D01*
X0058736Y0085000D02*
X0164488Y0085000D01*
X0164906Y0084827D02*
X0168555Y0084827D01*
X0171925Y0086223D01*
X0174505Y0088803D01*
X0175902Y0092174D01*
X0175902Y0095822D01*
X0174505Y0099193D01*
X0171925Y0101773D01*
X0168555Y0103169D01*
X0164906Y0103169D01*
X0161535Y0101773D01*
X0158955Y0099193D01*
X0157559Y0095822D01*
X0157559Y0092174D01*
X0158955Y0088803D01*
X0161535Y0086223D01*
X0164906Y0084827D01*
X0163285Y0085498D02*
X0059940Y0085498D01*
X0061143Y0085997D02*
X0162081Y0085997D01*
X0161263Y0086495D02*
X0061962Y0086495D01*
X0062460Y0086994D02*
X0160764Y0086994D01*
X0160266Y0087492D02*
X0062959Y0087492D01*
X0063457Y0087991D02*
X0159767Y0087991D01*
X0159269Y0088489D02*
X0063956Y0088489D01*
X0064346Y0088988D02*
X0158879Y0088988D01*
X0158672Y0089487D02*
X0064552Y0089487D01*
X0064759Y0089985D02*
X0158466Y0089985D01*
X0158259Y0090484D02*
X0064965Y0090484D01*
X0065172Y0090982D02*
X0158053Y0090982D01*
X0157846Y0091481D02*
X0065378Y0091481D01*
X0065585Y0091979D02*
X0157640Y0091979D01*
X0157559Y0092478D02*
X0065665Y0092478D01*
X0065665Y0092976D02*
X0157559Y0092976D01*
X0157559Y0093475D02*
X0065665Y0093475D01*
X0065665Y0093973D02*
X0157559Y0093973D01*
X0157559Y0094472D02*
X0065665Y0094472D01*
X0065665Y0094970D02*
X0157559Y0094970D01*
X0157559Y0095469D02*
X0065665Y0095469D01*
X0065605Y0095967D02*
X0157619Y0095967D01*
X0157826Y0096466D02*
X0065399Y0096466D01*
X0065192Y0096964D02*
X0158032Y0096964D01*
X0158239Y0097463D02*
X0064986Y0097463D01*
X0064779Y0097961D02*
X0158445Y0097961D01*
X0158652Y0098460D02*
X0064573Y0098460D01*
X0064366Y0098958D02*
X0158858Y0098958D01*
X0159219Y0099457D02*
X0064005Y0099457D01*
X0063507Y0099955D02*
X0159717Y0099955D01*
X0160216Y0100454D02*
X0063008Y0100454D01*
X0062510Y0100952D02*
X0160714Y0100952D01*
X0161213Y0101451D02*
X0062011Y0101451D01*
X0061264Y0101949D02*
X0161961Y0101949D01*
X0163164Y0102448D02*
X0060060Y0102448D01*
X0058857Y0102946D02*
X0164368Y0102946D01*
X0169093Y0102946D02*
X0328850Y0102946D01*
X0328850Y0102448D02*
X0170296Y0102448D01*
X0171500Y0101949D02*
X0328850Y0101949D01*
X0328850Y0101451D02*
X0172248Y0101451D01*
X0172746Y0100952D02*
X0328850Y0100952D01*
X0328850Y0100454D02*
X0173245Y0100454D01*
X0173743Y0099955D02*
X0328850Y0099955D01*
X0328850Y0099457D02*
X0174242Y0099457D01*
X0174603Y0098958D02*
X0328850Y0098958D01*
X0328850Y0098460D02*
X0174809Y0098460D01*
X0175016Y0097961D02*
X0328850Y0097961D01*
X0328850Y0097463D02*
X0175222Y0097463D01*
X0175429Y0096964D02*
X0328850Y0096964D01*
X0328850Y0096466D02*
X0175635Y0096466D01*
X0175842Y0095967D02*
X0328850Y0095967D01*
X0328850Y0095469D02*
X0175902Y0095469D01*
X0175902Y0094970D02*
X0328850Y0094970D01*
X0328850Y0094472D02*
X0175902Y0094472D01*
X0175902Y0093973D02*
X0328850Y0093973D01*
X0328850Y0093475D02*
X0175902Y0093475D01*
X0175902Y0092976D02*
X0328850Y0092976D01*
X0328850Y0092478D02*
X0175902Y0092478D01*
X0175821Y0091979D02*
X0328850Y0091979D01*
X0328850Y0091481D02*
X0175614Y0091481D01*
X0175408Y0090982D02*
X0328850Y0090982D01*
X0328850Y0090484D02*
X0175201Y0090484D01*
X0174995Y0089985D02*
X0328850Y0089985D01*
X0328850Y0089487D02*
X0174788Y0089487D01*
X0174582Y0088988D02*
X0328850Y0088988D01*
X0328850Y0088489D02*
X0174192Y0088489D01*
X0173693Y0087991D02*
X0328850Y0087991D01*
X0328850Y0087492D02*
X0173195Y0087492D01*
X0172696Y0086994D02*
X0328850Y0086994D01*
X0328850Y0086495D02*
X0172198Y0086495D01*
X0171380Y0085997D02*
X0328850Y0085997D01*
X0328850Y0085498D02*
X0170176Y0085498D01*
X0168973Y0085000D02*
X0328850Y0085000D01*
X0328850Y0084501D02*
X0005750Y0084501D01*
X0005750Y0084003D02*
X0328850Y0084003D01*
X0328850Y0083504D02*
X0005750Y0083504D01*
X0005750Y0083006D02*
X0328850Y0083006D01*
X0328850Y0082507D02*
X0005750Y0082507D01*
X0005750Y0082009D02*
X0328850Y0082009D01*
X0328850Y0081510D02*
X0005750Y0081510D01*
X0005750Y0081012D02*
X0328850Y0081012D01*
X0328850Y0080513D02*
X0005750Y0080513D01*
X0005750Y0080015D02*
X0328850Y0080015D01*
X0328850Y0079516D02*
X0005750Y0079516D01*
X0005750Y0079018D02*
X0328850Y0079018D01*
X0328850Y0078519D02*
X0005750Y0078519D01*
X0005750Y0078021D02*
X0328850Y0078021D01*
X0328850Y0077522D02*
X0005750Y0077522D01*
X0005750Y0077024D02*
X0328850Y0077024D01*
X0328850Y0076525D02*
X0005750Y0076525D01*
X0005750Y0076027D02*
X0328850Y0076027D01*
X0328850Y0075528D02*
X0005750Y0075528D01*
X0005750Y0075030D02*
X0328850Y0075030D01*
X0328850Y0074531D02*
X0005750Y0074531D01*
X0005750Y0074033D02*
X0328850Y0074033D01*
X0328850Y0073534D02*
X0005750Y0073534D01*
X0005750Y0073036D02*
X0328850Y0073036D01*
X0328850Y0072537D02*
X0005750Y0072537D01*
X0005750Y0072039D02*
X0328850Y0072039D01*
X0328850Y0071540D02*
X0005750Y0071540D01*
X0005750Y0071042D02*
X0328850Y0071042D01*
X0328850Y0070543D02*
X0005750Y0070543D01*
X0005750Y0070045D02*
X0328850Y0070045D01*
X0328850Y0069546D02*
X0005750Y0069546D01*
X0005750Y0069048D02*
X0328850Y0069048D01*
X0328850Y0068549D02*
X0005750Y0068549D01*
X0005750Y0068051D02*
X0328850Y0068051D01*
X0328850Y0067552D02*
X0005750Y0067552D01*
X0005750Y0067053D02*
X0328850Y0067053D01*
X0328850Y0066555D02*
X0005750Y0066555D01*
X0005750Y0066056D02*
X0137856Y0066056D01*
X0137899Y0066100D02*
X0137050Y0065251D01*
X0137050Y0054249D01*
X0137899Y0053400D01*
X0154801Y0053400D01*
X0155650Y0054249D01*
X0155650Y0065251D01*
X0154801Y0066100D01*
X0137899Y0066100D01*
X0137357Y0065558D02*
X0005750Y0065558D01*
X0005750Y0065059D02*
X0137050Y0065059D01*
X0137050Y0064561D02*
X0005750Y0064561D01*
X0005750Y0064062D02*
X0137050Y0064062D01*
X0137050Y0063564D02*
X0005750Y0063564D01*
X0005750Y0063065D02*
X0137050Y0063065D01*
X0137050Y0062567D02*
X0005750Y0062567D01*
X0005750Y0062068D02*
X0137050Y0062068D01*
X0137050Y0061570D02*
X0005750Y0061570D01*
X0005750Y0061071D02*
X0137050Y0061071D01*
X0137050Y0060573D02*
X0005750Y0060573D01*
X0005750Y0060074D02*
X0137050Y0060074D01*
X0137050Y0059576D02*
X0005750Y0059576D01*
X0005750Y0059077D02*
X0137050Y0059077D01*
X0137050Y0058579D02*
X0005750Y0058579D01*
X0005750Y0058080D02*
X0137050Y0058080D01*
X0137050Y0057582D02*
X0005750Y0057582D01*
X0005750Y0057083D02*
X0137050Y0057083D01*
X0137050Y0056585D02*
X0005750Y0056585D01*
X0005750Y0056086D02*
X0137050Y0056086D01*
X0137050Y0055588D02*
X0005750Y0055588D01*
X0005750Y0055089D02*
X0137050Y0055089D01*
X0137050Y0054591D02*
X0005750Y0054591D01*
X0005750Y0054092D02*
X0137207Y0054092D01*
X0137706Y0053594D02*
X0005750Y0053594D01*
X0005750Y0053095D02*
X0328850Y0053095D01*
X0328850Y0052597D02*
X0005750Y0052597D01*
X0005750Y0052098D02*
X0328850Y0052098D01*
X0328850Y0051600D02*
X0005750Y0051600D01*
X0005750Y0051101D02*
X0328850Y0051101D01*
X0328850Y0050603D02*
X0005750Y0050603D01*
X0005750Y0050104D02*
X0328850Y0050104D01*
X0328850Y0049606D02*
X0005750Y0049606D01*
X0005750Y0049107D02*
X0328850Y0049107D01*
X0328850Y0048609D02*
X0005750Y0048609D01*
X0005750Y0048110D02*
X0328850Y0048110D01*
X0328850Y0047612D02*
X0005750Y0047612D01*
X0005750Y0047113D02*
X0137412Y0047113D01*
X0137050Y0046751D02*
X0137899Y0047600D01*
X0154801Y0047600D01*
X0155650Y0046751D01*
X0155650Y0035749D01*
X0154801Y0034900D01*
X0137899Y0034900D01*
X0137050Y0035749D01*
X0137050Y0046751D01*
X0137050Y0046615D02*
X0005750Y0046615D01*
X0005750Y0046116D02*
X0137050Y0046116D01*
X0137050Y0045618D02*
X0005750Y0045618D01*
X0005750Y0045119D02*
X0137050Y0045119D01*
X0137050Y0044620D02*
X0005750Y0044620D01*
X0005750Y0044122D02*
X0137050Y0044122D01*
X0137050Y0043623D02*
X0005750Y0043623D01*
X0005750Y0043125D02*
X0137050Y0043125D01*
X0137050Y0042626D02*
X0005750Y0042626D01*
X0005750Y0042128D02*
X0137050Y0042128D01*
X0137050Y0041629D02*
X0005750Y0041629D01*
X0005750Y0041131D02*
X0137050Y0041131D01*
X0137050Y0040632D02*
X0005750Y0040632D01*
X0005750Y0040134D02*
X0137050Y0040134D01*
X0137050Y0039635D02*
X0005750Y0039635D01*
X0005750Y0039137D02*
X0137050Y0039137D01*
X0137050Y0038638D02*
X0005750Y0038638D01*
X0005750Y0038140D02*
X0137050Y0038140D01*
X0137050Y0037641D02*
X0005750Y0037641D01*
X0005750Y0037143D02*
X0137050Y0037143D01*
X0137050Y0036644D02*
X0005750Y0036644D01*
X0005750Y0036146D02*
X0137050Y0036146D01*
X0137152Y0035647D02*
X0005750Y0035647D01*
X0005750Y0035149D02*
X0137651Y0035149D01*
X0137899Y0029100D02*
X0137050Y0028251D01*
X0137050Y0017249D01*
X0137899Y0016400D01*
X0154801Y0016400D01*
X0155650Y0017249D01*
X0155650Y0028251D01*
X0154801Y0029100D01*
X0137899Y0029100D01*
X0137468Y0028668D02*
X0005750Y0028668D01*
X0005750Y0028170D02*
X0137050Y0028170D01*
X0137050Y0027671D02*
X0005750Y0027671D01*
X0005750Y0027173D02*
X0137050Y0027173D01*
X0137050Y0026674D02*
X0005750Y0026674D01*
X0005750Y0026176D02*
X0137050Y0026176D01*
X0137050Y0025677D02*
X0005750Y0025677D01*
X0005750Y0025179D02*
X0137050Y0025179D01*
X0137050Y0024680D02*
X0005750Y0024680D01*
X0005750Y0024182D02*
X0137050Y0024182D01*
X0137050Y0023683D02*
X0005750Y0023683D01*
X0005750Y0023184D02*
X0137050Y0023184D01*
X0137050Y0022686D02*
X0005750Y0022686D01*
X0005750Y0022187D02*
X0137050Y0022187D01*
X0137050Y0021689D02*
X0005750Y0021689D01*
X0005750Y0021190D02*
X0137050Y0021190D01*
X0137050Y0020692D02*
X0005750Y0020692D01*
X0005750Y0020193D02*
X0137050Y0020193D01*
X0137050Y0019695D02*
X0005750Y0019695D01*
X0005750Y0019196D02*
X0137050Y0019196D01*
X0137050Y0018698D02*
X0005750Y0018698D01*
X0005750Y0018199D02*
X0137050Y0018199D01*
X0137050Y0017701D02*
X0005750Y0017701D01*
X0005750Y0017202D02*
X0137097Y0017202D01*
X0137596Y0016704D02*
X0005750Y0016704D01*
X0005750Y0016205D02*
X0328850Y0016205D01*
X0328850Y0015707D02*
X0005750Y0015707D01*
X0005750Y0015208D02*
X0328850Y0015208D01*
X0328850Y0014710D02*
X0005750Y0014710D01*
X0005750Y0014211D02*
X0328850Y0014211D01*
X0328850Y0013713D02*
X0005750Y0013713D01*
X0005750Y0013214D02*
X0328850Y0013214D01*
X0328850Y0012716D02*
X0005750Y0012716D01*
X0005750Y0012217D02*
X0328850Y0012217D01*
X0328850Y0011719D02*
X0005750Y0011719D01*
X0005750Y0011220D02*
X0328850Y0011220D01*
X0328850Y0010722D02*
X0005750Y0010722D01*
X0005750Y0010223D02*
X0328850Y0010223D01*
X0328850Y0009725D02*
X0005750Y0009725D01*
X0005750Y0009226D02*
X0328850Y0009226D01*
X0328850Y0008728D02*
X0005750Y0008728D01*
X0005750Y0008229D02*
X0328850Y0008229D01*
X0328850Y0007731D02*
X0005750Y0007731D01*
X0005750Y0007232D02*
X0328850Y0007232D01*
X0328850Y0006734D02*
X0005750Y0006734D01*
X0005750Y0006235D02*
X0328850Y0006235D01*
X0333350Y0001250D02*
X0333350Y0294750D01*
X0327252Y0290885D02*
X0007348Y0290885D01*
X0009854Y0291384D02*
X0324746Y0291384D01*
X0324745Y0291384D02*
X0324745Y0291384D01*
X0323542Y0291882D02*
X0011058Y0291882D01*
X0009855Y0291384D02*
X0009855Y0291384D01*
X0012262Y0292381D02*
X0322338Y0292381D01*
X0321135Y0292879D02*
X0013465Y0292879D01*
X0014669Y0293378D02*
X0319931Y0293378D01*
X0319377Y0293607D02*
X0319377Y0293607D01*
X0318974Y0293876D02*
X0015626Y0293876D01*
X0015223Y0293607D02*
X0015223Y0293607D01*
X0016372Y0294375D02*
X0318228Y0294375D01*
X0317482Y0294873D02*
X0255172Y0294873D01*
X0255071Y0294831D02*
X0256695Y0295504D01*
X0257938Y0296747D01*
X0258611Y0298371D01*
X0258611Y0300129D01*
X0257938Y0301753D01*
X0256695Y0302996D01*
X0255071Y0303668D01*
X0253314Y0303668D01*
X0251690Y0302996D01*
X0250447Y0301753D01*
X0249774Y0300129D01*
X0249774Y0298371D01*
X0250447Y0296747D01*
X0251690Y0295504D01*
X0253314Y0294831D01*
X0255071Y0294831D01*
X0256376Y0295372D02*
X0316736Y0295372D01*
X0315990Y0295870D02*
X0257061Y0295870D01*
X0257560Y0296369D02*
X0315244Y0296369D01*
X0314545Y0296836D02*
X0314545Y0296836D01*
X0314545Y0296836D01*
X0314513Y0296867D02*
X0257988Y0296867D01*
X0258195Y0297366D02*
X0314015Y0297366D01*
X0313516Y0297864D02*
X0258401Y0297864D01*
X0258608Y0298363D02*
X0313018Y0298363D01*
X0312519Y0298861D02*
X0258611Y0298861D01*
X0258611Y0299360D02*
X0312021Y0299360D01*
X0311522Y0299858D02*
X0258611Y0299858D01*
X0258517Y0300357D02*
X0311024Y0300357D01*
X0310525Y0300855D02*
X0258310Y0300855D01*
X0258104Y0301354D02*
X0310163Y0301354D01*
X0309829Y0301852D02*
X0257839Y0301852D01*
X0257340Y0302351D02*
X0309496Y0302351D01*
X0309163Y0302849D02*
X0256842Y0302849D01*
X0255845Y0303348D02*
X0308830Y0303348D01*
X0308497Y0303846D02*
X0026103Y0303846D01*
X0025770Y0303348D02*
X0079368Y0303348D01*
X0079420Y0303365D02*
X0078788Y0303159D01*
X0078196Y0302858D01*
X0077659Y0302468D01*
X0077190Y0301998D01*
X0076799Y0301461D01*
X0076498Y0300869D01*
X0076293Y0300238D01*
X0076189Y0299582D01*
X0076189Y0299500D01*
X0080157Y0299500D01*
X0080157Y0299000D01*
X0076189Y0299000D01*
X0076189Y0298918D01*
X0076293Y0298262D01*
X0076498Y0297631D01*
X0076799Y0297039D01*
X0077190Y0296502D01*
X0077659Y0296032D01*
X0078196Y0295642D01*
X0078788Y0295341D01*
X0079420Y0295135D01*
X0080075Y0295031D01*
X0080157Y0295031D01*
X0080157Y0299000D01*
X0080657Y0299000D01*
X0080657Y0295031D01*
X0080739Y0295031D01*
X0081395Y0295135D01*
X0082027Y0295341D01*
X0082618Y0295642D01*
X0083156Y0296032D01*
X0083625Y0296502D01*
X0084015Y0297039D01*
X0084317Y0297631D01*
X0084522Y0298262D01*
X0084626Y0298918D01*
X0084626Y0299000D01*
X0080658Y0299000D01*
X0080658Y0299500D01*
X0084626Y0299500D01*
X0084626Y0299582D01*
X0084522Y0300238D01*
X0084317Y0300869D01*
X0084015Y0301461D01*
X0083625Y0301998D01*
X0083156Y0302468D01*
X0082618Y0302858D01*
X0082027Y0303159D01*
X0081395Y0303365D01*
X0080739Y0303468D01*
X0080657Y0303468D01*
X0080657Y0299500D01*
X0080157Y0299500D01*
X0080157Y0303468D01*
X0080075Y0303468D01*
X0079420Y0303365D01*
X0080157Y0303348D02*
X0080657Y0303348D01*
X0080657Y0302849D02*
X0080157Y0302849D01*
X0080157Y0302351D02*
X0080657Y0302351D01*
X0080657Y0301852D02*
X0080157Y0301852D01*
X0080157Y0301354D02*
X0080657Y0301354D01*
X0080657Y0300855D02*
X0080157Y0300855D01*
X0080157Y0300357D02*
X0080657Y0300357D01*
X0080657Y0299858D02*
X0080157Y0299858D01*
X0080157Y0299360D02*
X0022579Y0299360D01*
X0023078Y0299858D02*
X0076233Y0299858D01*
X0076332Y0300357D02*
X0023576Y0300357D01*
X0024075Y0300855D02*
X0076493Y0300855D01*
X0076745Y0301354D02*
X0024437Y0301354D01*
X0024164Y0300945D02*
X0024164Y0300945D01*
X0024770Y0301852D02*
X0077084Y0301852D01*
X0077542Y0302351D02*
X0025104Y0302351D01*
X0025437Y0302849D02*
X0078185Y0302849D01*
X0081447Y0303348D02*
X0088597Y0303348D01*
X0089371Y0303668D02*
X0087747Y0302996D01*
X0086504Y0301753D01*
X0085831Y0300129D01*
X0085831Y0298371D01*
X0086504Y0296747D01*
X0087747Y0295504D01*
X0089371Y0294831D01*
X0091129Y0294831D01*
X0092753Y0295504D01*
X0093996Y0296747D01*
X0094668Y0298371D01*
X0094668Y0300129D01*
X0093996Y0301753D01*
X0092753Y0302996D01*
X0091129Y0303668D01*
X0089371Y0303668D01*
X0087601Y0302849D02*
X0082630Y0302849D01*
X0083272Y0302351D02*
X0087102Y0302351D01*
X0086604Y0301852D02*
X0083731Y0301852D01*
X0084070Y0301354D02*
X0086339Y0301354D01*
X0086132Y0300855D02*
X0084321Y0300855D01*
X0084483Y0300357D02*
X0085926Y0300357D01*
X0085831Y0299858D02*
X0084582Y0299858D01*
X0084617Y0298861D02*
X0085831Y0298861D01*
X0085835Y0298363D02*
X0084538Y0298363D01*
X0084393Y0297864D02*
X0086041Y0297864D01*
X0086248Y0297366D02*
X0084182Y0297366D01*
X0083891Y0296867D02*
X0086454Y0296867D01*
X0086883Y0296369D02*
X0083492Y0296369D01*
X0082933Y0295870D02*
X0087381Y0295870D01*
X0088067Y0295372D02*
X0082088Y0295372D01*
X0080657Y0295372D02*
X0080157Y0295372D01*
X0080157Y0295870D02*
X0080657Y0295870D01*
X0080657Y0296369D02*
X0080157Y0296369D01*
X0080157Y0296867D02*
X0080657Y0296867D01*
X0080657Y0297366D02*
X0080157Y0297366D01*
X0080157Y0297864D02*
X0080657Y0297864D01*
X0080657Y0298363D02*
X0080157Y0298363D01*
X0080157Y0298861D02*
X0080657Y0298861D01*
X0080658Y0299360D02*
X0085831Y0299360D01*
X0089270Y0294873D02*
X0017118Y0294873D01*
X0017864Y0295372D02*
X0078727Y0295372D01*
X0077882Y0295870D02*
X0018610Y0295870D01*
X0019356Y0296369D02*
X0077323Y0296369D01*
X0076924Y0296867D02*
X0020087Y0296867D01*
X0020055Y0296836D02*
X0020055Y0296836D01*
X0020585Y0297366D02*
X0076633Y0297366D01*
X0076422Y0297864D02*
X0021084Y0297864D01*
X0021582Y0298363D02*
X0076277Y0298363D01*
X0076198Y0298861D02*
X0022081Y0298861D01*
X0026436Y0304345D02*
X0308164Y0304345D01*
X0307831Y0304843D02*
X0026769Y0304843D01*
X0027102Y0305342D02*
X0307498Y0305342D01*
X0307181Y0305840D02*
X0027419Y0305840D01*
X0027393Y0305777D02*
X0027393Y0305777D01*
X0027625Y0306339D02*
X0306974Y0306339D01*
X0306768Y0306837D02*
X0027832Y0306837D01*
X0028038Y0307336D02*
X0306561Y0307336D01*
X0306355Y0307834D02*
X0028245Y0307834D01*
X0028451Y0308333D02*
X0306149Y0308333D01*
X0305942Y0308831D02*
X0178810Y0308831D01*
X0180013Y0309330D02*
X0305736Y0309330D01*
X0305529Y0309829D02*
X0180775Y0309829D01*
X0181274Y0310327D02*
X0305323Y0310327D01*
X0305116Y0310826D02*
X0181772Y0310826D01*
X0182132Y0311324D02*
X0304948Y0311324D01*
X0304849Y0311823D02*
X0182338Y0311823D01*
X0182545Y0312321D02*
X0304750Y0312321D01*
X0304651Y0312820D02*
X0182751Y0312820D01*
X0182884Y0313318D02*
X0304551Y0313318D01*
X0304452Y0313817D02*
X0182884Y0313817D01*
X0182884Y0314315D02*
X0304353Y0314315D01*
X0304254Y0314814D02*
X0182884Y0314814D01*
X0175790Y0308831D02*
X0158810Y0308831D01*
X0160013Y0309330D02*
X0174587Y0309330D01*
X0173825Y0309829D02*
X0160775Y0309829D01*
X0161274Y0310327D02*
X0173326Y0310327D01*
X0172828Y0310826D02*
X0161772Y0310826D01*
X0162132Y0311324D02*
X0172468Y0311324D01*
X0172262Y0311823D02*
X0162338Y0311823D01*
X0162545Y0312321D02*
X0172055Y0312321D01*
X0171849Y0312820D02*
X0162751Y0312820D01*
X0162884Y0313318D02*
X0171716Y0313318D01*
X0171716Y0313817D02*
X0162884Y0313817D01*
X0162884Y0314315D02*
X0171716Y0314315D01*
X0171716Y0314814D02*
X0162884Y0314814D01*
X0155790Y0308831D02*
X0028658Y0308831D01*
X0028864Y0309330D02*
X0154587Y0309330D01*
X0153825Y0309829D02*
X0029071Y0309829D01*
X0029277Y0310327D02*
X0153326Y0310327D01*
X0152828Y0310826D02*
X0029484Y0310826D01*
X0029652Y0311324D02*
X0152468Y0311324D01*
X0152262Y0311823D02*
X0029751Y0311823D01*
X0029850Y0312321D02*
X0152055Y0312321D01*
X0151849Y0312820D02*
X0029949Y0312820D01*
X0030049Y0313318D02*
X0151716Y0313318D01*
X0151716Y0313817D02*
X0030148Y0313817D01*
X0030247Y0314315D02*
X0151716Y0314315D01*
X0151716Y0314814D02*
X0030346Y0314814D01*
X0026250Y0319750D02*
X0308350Y0319750D01*
X0308357Y0319146D01*
X0308379Y0318542D01*
X0308416Y0317939D01*
X0308467Y0317337D01*
X0308532Y0316737D01*
X0308612Y0316138D01*
X0308707Y0315541D01*
X0308816Y0314947D01*
X0308939Y0314355D01*
X0309076Y0313767D01*
X0309228Y0313182D01*
X0309394Y0312601D01*
X0309574Y0312025D01*
X0309767Y0311452D01*
X0309975Y0310885D01*
X0310196Y0310323D01*
X0310430Y0309766D01*
X0310678Y0309215D01*
X0310939Y0308670D01*
X0311214Y0308132D01*
X0311501Y0307600D01*
X0311801Y0307076D01*
X0312113Y0306559D01*
X0312438Y0306050D01*
X0312775Y0305548D01*
X0313125Y0305055D01*
X0313486Y0304571D01*
X0313858Y0304095D01*
X0314242Y0303629D01*
X0314637Y0303172D01*
X0315043Y0302725D01*
X0315460Y0302287D01*
X0315887Y0301860D01*
X0316325Y0301443D01*
X0316772Y0301037D01*
X0317229Y0300642D01*
X0317695Y0300258D01*
X0318171Y0299886D01*
X0318655Y0299525D01*
X0319148Y0299175D01*
X0319650Y0298838D01*
X0320159Y0298513D01*
X0320676Y0298201D01*
X0321200Y0297901D01*
X0321732Y0297614D01*
X0322270Y0297339D01*
X0322815Y0297078D01*
X0323366Y0296830D01*
X0323923Y0296596D01*
X0324485Y0296375D01*
X0325052Y0296167D01*
X0325625Y0295974D01*
X0326201Y0295794D01*
X0326782Y0295628D01*
X0327367Y0295476D01*
X0327955Y0295339D01*
X0328547Y0295216D01*
X0329141Y0295107D01*
X0329738Y0295012D01*
X0330337Y0294932D01*
X0330937Y0294867D01*
X0331539Y0294816D01*
X0332142Y0294779D01*
X0332746Y0294757D01*
X0333350Y0294750D01*
X0278572Y0271443D02*
X0257432Y0271443D01*
X0258636Y0270945D02*
X0277368Y0270945D01*
X0276852Y0270446D02*
X0259151Y0270446D01*
X0259650Y0269948D02*
X0276354Y0269948D01*
X0275855Y0269449D02*
X0260148Y0269449D01*
X0260406Y0268951D02*
X0275598Y0268951D01*
X0275391Y0268452D02*
X0260613Y0268452D01*
X0260819Y0267954D02*
X0275185Y0267954D01*
X0274978Y0267455D02*
X0261026Y0267455D01*
X0261086Y0266957D02*
X0274918Y0266957D01*
X0274918Y0266458D02*
X0261086Y0266458D01*
X0261086Y0265960D02*
X0274918Y0265960D01*
X0274918Y0265461D02*
X0261086Y0265461D01*
X0261034Y0264962D02*
X0274970Y0264962D01*
X0275177Y0264464D02*
X0260827Y0264464D01*
X0260621Y0263965D02*
X0275383Y0263965D01*
X0275590Y0263467D02*
X0260414Y0263467D01*
X0260168Y0262968D02*
X0275836Y0262968D01*
X0276334Y0262470D02*
X0259670Y0262470D01*
X0259171Y0261971D02*
X0276833Y0261971D01*
X0277331Y0261473D02*
X0258673Y0261473D01*
X0257480Y0260974D02*
X0278523Y0260974D01*
X0253213Y0294873D02*
X0245329Y0294873D01*
X0245229Y0294831D02*
X0246853Y0295504D01*
X0248096Y0296747D01*
X0248768Y0298371D01*
X0248768Y0300129D01*
X0248096Y0301753D01*
X0246853Y0302996D01*
X0245229Y0303668D01*
X0243471Y0303668D01*
X0241847Y0302996D01*
X0240604Y0301753D01*
X0239931Y0300129D01*
X0239931Y0298371D01*
X0240604Y0296747D01*
X0241847Y0295504D01*
X0243471Y0294831D01*
X0245229Y0294831D01*
X0246533Y0295372D02*
X0252009Y0295372D01*
X0251324Y0295870D02*
X0247219Y0295870D01*
X0247717Y0296369D02*
X0250825Y0296369D01*
X0250397Y0296867D02*
X0248146Y0296867D01*
X0248352Y0297366D02*
X0250190Y0297366D01*
X0249984Y0297864D02*
X0248559Y0297864D01*
X0248765Y0298363D02*
X0249777Y0298363D01*
X0249774Y0298861D02*
X0248768Y0298861D01*
X0248768Y0299360D02*
X0249774Y0299360D01*
X0249774Y0299858D02*
X0248768Y0299858D01*
X0248674Y0300357D02*
X0249868Y0300357D01*
X0250075Y0300855D02*
X0248468Y0300855D01*
X0248261Y0301354D02*
X0250281Y0301354D01*
X0250546Y0301852D02*
X0247996Y0301852D01*
X0247498Y0302351D02*
X0251045Y0302351D01*
X0251543Y0302849D02*
X0246999Y0302849D01*
X0246003Y0303348D02*
X0252540Y0303348D01*
X0242697Y0303348D02*
X0235547Y0303348D01*
X0235495Y0303365D02*
X0234839Y0303468D01*
X0234757Y0303468D01*
X0234757Y0299500D01*
X0234257Y0299500D01*
X0234257Y0299000D01*
X0230289Y0299000D01*
X0230289Y0298918D01*
X0230393Y0298262D01*
X0230598Y0297631D01*
X0230899Y0297039D01*
X0231290Y0296502D01*
X0231759Y0296032D01*
X0232296Y0295642D01*
X0232888Y0295341D01*
X0233520Y0295135D01*
X0234175Y0295031D01*
X0234257Y0295031D01*
X0234257Y0299000D01*
X0234757Y0299000D01*
X0234757Y0295031D01*
X0234839Y0295031D01*
X0235495Y0295135D01*
X0236127Y0295341D01*
X0236718Y0295642D01*
X0237256Y0296032D01*
X0237725Y0296502D01*
X0238115Y0297039D01*
X0238417Y0297631D01*
X0238622Y0298262D01*
X0238726Y0298918D01*
X0238726Y0299000D01*
X0234758Y0299000D01*
X0234758Y0299500D01*
X0238726Y0299500D01*
X0238726Y0299582D01*
X0238622Y0300238D01*
X0238417Y0300869D01*
X0238115Y0301461D01*
X0237725Y0301998D01*
X0237256Y0302468D01*
X0236718Y0302858D01*
X0236127Y0303159D01*
X0235495Y0303365D01*
X0234757Y0303348D02*
X0234257Y0303348D01*
X0234257Y0303468D02*
X0234175Y0303468D01*
X0233520Y0303365D01*
X0232888Y0303159D01*
X0232296Y0302858D01*
X0231759Y0302468D01*
X0231290Y0301998D01*
X0230899Y0301461D01*
X0230598Y0300869D01*
X0230393Y0300238D01*
X0230289Y0299582D01*
X0230289Y0299500D01*
X0234257Y0299500D01*
X0234257Y0303468D01*
X0234257Y0302849D02*
X0234757Y0302849D01*
X0234757Y0302351D02*
X0234257Y0302351D01*
X0234257Y0301852D02*
X0234757Y0301852D01*
X0234757Y0301354D02*
X0234257Y0301354D01*
X0234257Y0300855D02*
X0234757Y0300855D01*
X0234757Y0300357D02*
X0234257Y0300357D01*
X0234257Y0299858D02*
X0234757Y0299858D01*
X0234758Y0299360D02*
X0239931Y0299360D01*
X0239931Y0299858D02*
X0238682Y0299858D01*
X0238583Y0300357D02*
X0240026Y0300357D01*
X0240232Y0300855D02*
X0238421Y0300855D01*
X0238170Y0301354D02*
X0240439Y0301354D01*
X0240704Y0301852D02*
X0237831Y0301852D01*
X0237372Y0302351D02*
X0241202Y0302351D01*
X0241701Y0302849D02*
X0236730Y0302849D01*
X0233468Y0303348D02*
X0101745Y0303348D01*
X0100971Y0303668D02*
X0099214Y0303668D01*
X0097590Y0302996D01*
X0096347Y0301753D01*
X0095674Y0300129D01*
X0095674Y0298371D01*
X0096347Y0296747D01*
X0097590Y0295504D01*
X0099214Y0294831D01*
X0100971Y0294831D01*
X0102595Y0295504D01*
X0103838Y0296747D01*
X0104511Y0298371D01*
X0104511Y0300129D01*
X0103838Y0301753D01*
X0102595Y0302996D01*
X0100971Y0303668D01*
X0102742Y0302849D02*
X0232285Y0302849D01*
X0231642Y0302351D02*
X0103240Y0302351D01*
X0103739Y0301852D02*
X0231184Y0301852D01*
X0230845Y0301354D02*
X0104004Y0301354D01*
X0104210Y0300855D02*
X0230593Y0300855D01*
X0230432Y0300357D02*
X0104417Y0300357D01*
X0104511Y0299858D02*
X0230333Y0299858D01*
X0230298Y0298861D02*
X0104511Y0298861D01*
X0104508Y0298363D02*
X0230377Y0298363D01*
X0230522Y0297864D02*
X0104301Y0297864D01*
X0104095Y0297366D02*
X0230733Y0297366D01*
X0231024Y0296867D02*
X0103888Y0296867D01*
X0103460Y0296369D02*
X0231423Y0296369D01*
X0231982Y0295870D02*
X0102961Y0295870D01*
X0102276Y0295372D02*
X0232827Y0295372D01*
X0234257Y0295372D02*
X0234757Y0295372D01*
X0234757Y0295870D02*
X0234257Y0295870D01*
X0234257Y0296369D02*
X0234757Y0296369D01*
X0234757Y0296867D02*
X0234257Y0296867D01*
X0234257Y0297366D02*
X0234757Y0297366D01*
X0234757Y0297864D02*
X0234257Y0297864D01*
X0234257Y0298363D02*
X0234757Y0298363D01*
X0234757Y0298861D02*
X0234257Y0298861D01*
X0234257Y0299360D02*
X0104511Y0299360D01*
X0101072Y0294873D02*
X0243370Y0294873D01*
X0242167Y0295372D02*
X0236188Y0295372D01*
X0237033Y0295870D02*
X0241481Y0295870D01*
X0240983Y0296369D02*
X0237592Y0296369D01*
X0237991Y0296867D02*
X0240554Y0296867D01*
X0240348Y0297366D02*
X0238282Y0297366D01*
X0238493Y0297864D02*
X0240141Y0297864D01*
X0239935Y0298363D02*
X0238638Y0298363D01*
X0238717Y0298861D02*
X0239931Y0298861D01*
X0328850Y0171242D02*
X0005750Y0171242D01*
X0005750Y0170744D02*
X0328850Y0170744D01*
X0328850Y0170245D02*
X0005750Y0170245D01*
X0005750Y0169747D02*
X0328850Y0169747D01*
X0328850Y0164263D02*
X0221912Y0164263D01*
X0222117Y0163765D02*
X0328850Y0163765D01*
X0328850Y0163266D02*
X0222117Y0163266D01*
X0222117Y0162768D02*
X0328850Y0162768D01*
X0328850Y0162269D02*
X0222117Y0162269D01*
X0222117Y0161771D02*
X0328850Y0161771D01*
X0328850Y0161272D02*
X0222117Y0161272D01*
X0222089Y0160774D02*
X0328850Y0160774D01*
X0328850Y0160275D02*
X0221882Y0160275D01*
X0221676Y0159777D02*
X0328850Y0159777D01*
X0328850Y0159278D02*
X0221470Y0159278D01*
X0221263Y0158780D02*
X0328850Y0158780D01*
X0328850Y0158281D02*
X0221057Y0158281D01*
X0220642Y0157783D02*
X0328850Y0157783D01*
X0328850Y0157284D02*
X0220143Y0157284D01*
X0219644Y0156786D02*
X0328850Y0156786D01*
X0328850Y0156287D02*
X0219146Y0156287D01*
X0218250Y0155789D02*
X0328850Y0155789D01*
X0328850Y0155290D02*
X0217047Y0155290D01*
X0196601Y0066100D02*
X0179699Y0066100D01*
X0178850Y0065251D01*
X0178850Y0054249D01*
X0179699Y0053400D01*
X0196601Y0053400D01*
X0197450Y0054249D01*
X0197450Y0065251D01*
X0196601Y0066100D01*
X0196644Y0066056D02*
X0328850Y0066056D01*
X0328850Y0065558D02*
X0197143Y0065558D01*
X0197450Y0065059D02*
X0328850Y0065059D01*
X0328850Y0064561D02*
X0197450Y0064561D01*
X0197450Y0064062D02*
X0328850Y0064062D01*
X0328850Y0063564D02*
X0197450Y0063564D01*
X0197450Y0063065D02*
X0328850Y0063065D01*
X0328850Y0062567D02*
X0197450Y0062567D01*
X0197450Y0062068D02*
X0328850Y0062068D01*
X0328850Y0061570D02*
X0197450Y0061570D01*
X0197450Y0061071D02*
X0328850Y0061071D01*
X0328850Y0060573D02*
X0197450Y0060573D01*
X0197450Y0060074D02*
X0328850Y0060074D01*
X0328850Y0059576D02*
X0197450Y0059576D01*
X0197450Y0059077D02*
X0328850Y0059077D01*
X0328850Y0058579D02*
X0197450Y0058579D01*
X0197450Y0058080D02*
X0328850Y0058080D01*
X0328850Y0057582D02*
X0197450Y0057582D01*
X0197450Y0057083D02*
X0328850Y0057083D01*
X0328850Y0056585D02*
X0197450Y0056585D01*
X0197450Y0056086D02*
X0328850Y0056086D01*
X0328850Y0055588D02*
X0197450Y0055588D01*
X0197450Y0055089D02*
X0328850Y0055089D01*
X0328850Y0054591D02*
X0197450Y0054591D01*
X0197293Y0054092D02*
X0328850Y0054092D01*
X0328850Y0053594D02*
X0196794Y0053594D01*
X0196601Y0047600D02*
X0179699Y0047600D01*
X0178850Y0046751D01*
X0178850Y0035749D01*
X0179699Y0034900D01*
X0196601Y0034900D01*
X0197450Y0035749D01*
X0197450Y0046751D01*
X0196601Y0047600D01*
X0197088Y0047113D02*
X0328850Y0047113D01*
X0328850Y0046615D02*
X0197450Y0046615D01*
X0197450Y0046116D02*
X0328850Y0046116D01*
X0328850Y0045618D02*
X0197450Y0045618D01*
X0197450Y0045119D02*
X0328850Y0045119D01*
X0328850Y0044620D02*
X0197450Y0044620D01*
X0197450Y0044122D02*
X0328850Y0044122D01*
X0328850Y0043623D02*
X0197450Y0043623D01*
X0197450Y0043125D02*
X0328850Y0043125D01*
X0328850Y0042626D02*
X0197450Y0042626D01*
X0197450Y0042128D02*
X0328850Y0042128D01*
X0328850Y0041629D02*
X0197450Y0041629D01*
X0197450Y0041131D02*
X0328850Y0041131D01*
X0328850Y0040632D02*
X0197450Y0040632D01*
X0197450Y0040134D02*
X0328850Y0040134D01*
X0328850Y0039635D02*
X0197450Y0039635D01*
X0197450Y0039137D02*
X0328850Y0039137D01*
X0328850Y0038638D02*
X0197450Y0038638D01*
X0197450Y0038140D02*
X0328850Y0038140D01*
X0328850Y0037641D02*
X0197450Y0037641D01*
X0197450Y0037143D02*
X0328850Y0037143D01*
X0328850Y0036644D02*
X0197450Y0036644D01*
X0197450Y0036146D02*
X0328850Y0036146D01*
X0328850Y0035647D02*
X0197348Y0035647D01*
X0196849Y0035149D02*
X0328850Y0035149D01*
X0328850Y0034650D02*
X0005750Y0034650D01*
X0005750Y0034152D02*
X0328850Y0034152D01*
X0328850Y0033653D02*
X0005750Y0033653D01*
X0005750Y0033155D02*
X0328850Y0033155D01*
X0328850Y0032656D02*
X0005750Y0032656D01*
X0005750Y0032158D02*
X0328850Y0032158D01*
X0328850Y0031659D02*
X0005750Y0031659D01*
X0005750Y0031161D02*
X0328850Y0031161D01*
X0328850Y0030662D02*
X0005750Y0030662D01*
X0005750Y0030164D02*
X0328850Y0030164D01*
X0328850Y0029665D02*
X0005750Y0029665D01*
X0005750Y0029167D02*
X0328850Y0029167D01*
X0328850Y0028668D02*
X0197032Y0028668D01*
X0197450Y0028251D02*
X0196601Y0029100D01*
X0179699Y0029100D01*
X0178850Y0028251D01*
X0178850Y0017249D01*
X0179699Y0016400D01*
X0196601Y0016400D01*
X0197450Y0017249D01*
X0197450Y0028251D01*
X0197450Y0028170D02*
X0328850Y0028170D01*
X0328850Y0027671D02*
X0197450Y0027671D01*
X0197450Y0027173D02*
X0328850Y0027173D01*
X0328850Y0026674D02*
X0197450Y0026674D01*
X0197450Y0026176D02*
X0328850Y0026176D01*
X0328850Y0025677D02*
X0197450Y0025677D01*
X0197450Y0025179D02*
X0328850Y0025179D01*
X0328850Y0024680D02*
X0197450Y0024680D01*
X0197450Y0024182D02*
X0328850Y0024182D01*
X0328850Y0023683D02*
X0197450Y0023683D01*
X0197450Y0023184D02*
X0328850Y0023184D01*
X0328850Y0022686D02*
X0197450Y0022686D01*
X0197450Y0022187D02*
X0328850Y0022187D01*
X0328850Y0021689D02*
X0197450Y0021689D01*
X0197450Y0021190D02*
X0328850Y0021190D01*
X0328850Y0020692D02*
X0197450Y0020692D01*
X0197450Y0020193D02*
X0328850Y0020193D01*
X0328850Y0019695D02*
X0197450Y0019695D01*
X0197450Y0019196D02*
X0328850Y0019196D01*
X0328850Y0018698D02*
X0197450Y0018698D01*
X0197450Y0018199D02*
X0328850Y0018199D01*
X0328850Y0017701D02*
X0197450Y0017701D01*
X0197403Y0017202D02*
X0328850Y0017202D01*
X0328850Y0016704D02*
X0196904Y0016704D01*
X0179396Y0016704D02*
X0176004Y0016704D01*
X0175701Y0016400D02*
X0176550Y0017249D01*
X0176550Y0028251D01*
X0175701Y0029100D01*
X0158799Y0029100D01*
X0157950Y0028251D01*
X0157950Y0017249D01*
X0158799Y0016400D01*
X0175701Y0016400D01*
X0176503Y0017202D02*
X0178897Y0017202D01*
X0178850Y0017701D02*
X0176550Y0017701D01*
X0176550Y0018199D02*
X0178850Y0018199D01*
X0178850Y0018698D02*
X0176550Y0018698D01*
X0176550Y0019196D02*
X0178850Y0019196D01*
X0178850Y0019695D02*
X0176550Y0019695D01*
X0176550Y0020193D02*
X0178850Y0020193D01*
X0178850Y0020692D02*
X0176550Y0020692D01*
X0176550Y0021190D02*
X0178850Y0021190D01*
X0178850Y0021689D02*
X0176550Y0021689D01*
X0176550Y0022187D02*
X0178850Y0022187D01*
X0178850Y0022686D02*
X0176550Y0022686D01*
X0176550Y0023184D02*
X0178850Y0023184D01*
X0178850Y0023683D02*
X0176550Y0023683D01*
X0176550Y0024182D02*
X0178850Y0024182D01*
X0178850Y0024680D02*
X0176550Y0024680D01*
X0176550Y0025179D02*
X0178850Y0025179D01*
X0178850Y0025677D02*
X0176550Y0025677D01*
X0176550Y0026176D02*
X0178850Y0026176D01*
X0178850Y0026674D02*
X0176550Y0026674D01*
X0176550Y0027173D02*
X0178850Y0027173D01*
X0178850Y0027671D02*
X0176550Y0027671D01*
X0176550Y0028170D02*
X0178850Y0028170D01*
X0179268Y0028668D02*
X0176132Y0028668D01*
X0175701Y0034900D02*
X0176550Y0035749D01*
X0176550Y0046751D01*
X0175701Y0047600D01*
X0158799Y0047600D01*
X0157950Y0046751D01*
X0157950Y0035749D01*
X0158799Y0034900D01*
X0175701Y0034900D01*
X0175949Y0035149D02*
X0179451Y0035149D01*
X0178952Y0035647D02*
X0176448Y0035647D01*
X0176550Y0036146D02*
X0178850Y0036146D01*
X0178850Y0036644D02*
X0176550Y0036644D01*
X0176550Y0037143D02*
X0178850Y0037143D01*
X0178850Y0037641D02*
X0176550Y0037641D01*
X0176550Y0038140D02*
X0178850Y0038140D01*
X0178850Y0038638D02*
X0176550Y0038638D01*
X0176550Y0039137D02*
X0178850Y0039137D01*
X0178850Y0039635D02*
X0176550Y0039635D01*
X0176550Y0040134D02*
X0178850Y0040134D01*
X0178850Y0040632D02*
X0176550Y0040632D01*
X0176550Y0041131D02*
X0178850Y0041131D01*
X0178850Y0041629D02*
X0176550Y0041629D01*
X0176550Y0042128D02*
X0178850Y0042128D01*
X0178850Y0042626D02*
X0176550Y0042626D01*
X0176550Y0043125D02*
X0178850Y0043125D01*
X0178850Y0043623D02*
X0176550Y0043623D01*
X0176550Y0044122D02*
X0178850Y0044122D01*
X0178850Y0044620D02*
X0176550Y0044620D01*
X0176550Y0045119D02*
X0178850Y0045119D01*
X0178850Y0045618D02*
X0176550Y0045618D01*
X0176550Y0046116D02*
X0178850Y0046116D01*
X0178850Y0046615D02*
X0176550Y0046615D01*
X0176188Y0047113D02*
X0179212Y0047113D01*
X0179506Y0053594D02*
X0154994Y0053594D01*
X0155493Y0054092D02*
X0158394Y0054092D01*
X0158400Y0054082D02*
X0158632Y0053850D01*
X0158918Y0053685D01*
X0159235Y0053600D01*
X0167000Y0053600D01*
X0167000Y0059500D01*
X0167500Y0059500D01*
X0167500Y0060000D01*
X0176350Y0060000D01*
X0176350Y0064815D01*
X0176265Y0065132D01*
X0176100Y0065418D01*
X0175868Y0065650D01*
X0175582Y0065815D01*
X0175265Y0065900D01*
X0167500Y0065900D01*
X0167500Y0060000D01*
X0167000Y0060000D01*
X0167000Y0065900D01*
X0159235Y0065900D01*
X0158918Y0065815D01*
X0158632Y0065650D01*
X0158400Y0065418D01*
X0158235Y0065132D01*
X0158150Y0064815D01*
X0158150Y0060000D01*
X0167000Y0060000D01*
X0167000Y0059500D01*
X0158150Y0059500D01*
X0158150Y0054685D01*
X0158235Y0054368D01*
X0158400Y0054082D01*
X0158175Y0054591D02*
X0155650Y0054591D01*
X0155650Y0055089D02*
X0158150Y0055089D01*
X0158150Y0055588D02*
X0155650Y0055588D01*
X0155650Y0056086D02*
X0158150Y0056086D01*
X0158150Y0056585D02*
X0155650Y0056585D01*
X0155650Y0057083D02*
X0158150Y0057083D01*
X0158150Y0057582D02*
X0155650Y0057582D01*
X0155650Y0058080D02*
X0158150Y0058080D01*
X0158150Y0058579D02*
X0155650Y0058579D01*
X0155650Y0059077D02*
X0158150Y0059077D01*
X0158150Y0060074D02*
X0155650Y0060074D01*
X0155650Y0059576D02*
X0167000Y0059576D01*
X0167000Y0060074D02*
X0167500Y0060074D01*
X0167500Y0059576D02*
X0178850Y0059576D01*
X0178850Y0060074D02*
X0176350Y0060074D01*
X0176350Y0060573D02*
X0178850Y0060573D01*
X0178850Y0061071D02*
X0176350Y0061071D01*
X0176350Y0061570D02*
X0178850Y0061570D01*
X0178850Y0062068D02*
X0176350Y0062068D01*
X0176350Y0062567D02*
X0178850Y0062567D01*
X0178850Y0063065D02*
X0176350Y0063065D01*
X0176350Y0063564D02*
X0178850Y0063564D01*
X0178850Y0064062D02*
X0176350Y0064062D01*
X0176350Y0064561D02*
X0178850Y0064561D01*
X0178850Y0065059D02*
X0176284Y0065059D01*
X0175960Y0065558D02*
X0179157Y0065558D01*
X0179656Y0066056D02*
X0154844Y0066056D01*
X0155343Y0065558D02*
X0158540Y0065558D01*
X0158216Y0065059D02*
X0155650Y0065059D01*
X0155650Y0064561D02*
X0158150Y0064561D01*
X0158150Y0064062D02*
X0155650Y0064062D01*
X0155650Y0063564D02*
X0158150Y0063564D01*
X0158150Y0063065D02*
X0155650Y0063065D01*
X0155650Y0062567D02*
X0158150Y0062567D01*
X0158150Y0062068D02*
X0155650Y0062068D01*
X0155650Y0061570D02*
X0158150Y0061570D01*
X0158150Y0061071D02*
X0155650Y0061071D01*
X0155650Y0060573D02*
X0158150Y0060573D01*
X0167000Y0060573D02*
X0167500Y0060573D01*
X0167500Y0061071D02*
X0167000Y0061071D01*
X0167000Y0061570D02*
X0167500Y0061570D01*
X0167500Y0062068D02*
X0167000Y0062068D01*
X0167000Y0062567D02*
X0167500Y0062567D01*
X0167500Y0063065D02*
X0167000Y0063065D01*
X0167000Y0063564D02*
X0167500Y0063564D01*
X0167500Y0064062D02*
X0167000Y0064062D01*
X0167000Y0064561D02*
X0167500Y0064561D01*
X0167500Y0065059D02*
X0167000Y0065059D01*
X0167000Y0065558D02*
X0167500Y0065558D01*
X0167500Y0059500D02*
X0176350Y0059500D01*
X0176350Y0054685D01*
X0176265Y0054368D01*
X0176100Y0054082D01*
X0175868Y0053850D01*
X0175582Y0053685D01*
X0175265Y0053600D01*
X0167500Y0053600D01*
X0167500Y0059500D01*
X0167500Y0059077D02*
X0167000Y0059077D01*
X0167000Y0058579D02*
X0167500Y0058579D01*
X0167500Y0058080D02*
X0167000Y0058080D01*
X0167000Y0057582D02*
X0167500Y0057582D01*
X0167500Y0057083D02*
X0167000Y0057083D01*
X0167000Y0056585D02*
X0167500Y0056585D01*
X0167500Y0056086D02*
X0167000Y0056086D01*
X0167000Y0055588D02*
X0167500Y0055588D01*
X0167500Y0055089D02*
X0167000Y0055089D01*
X0167000Y0054591D02*
X0167500Y0054591D01*
X0167500Y0054092D02*
X0167000Y0054092D01*
X0158312Y0047113D02*
X0155288Y0047113D01*
X0155650Y0046615D02*
X0157950Y0046615D01*
X0157950Y0046116D02*
X0155650Y0046116D01*
X0155650Y0045618D02*
X0157950Y0045618D01*
X0157950Y0045119D02*
X0155650Y0045119D01*
X0155650Y0044620D02*
X0157950Y0044620D01*
X0157950Y0044122D02*
X0155650Y0044122D01*
X0155650Y0043623D02*
X0157950Y0043623D01*
X0157950Y0043125D02*
X0155650Y0043125D01*
X0155650Y0042626D02*
X0157950Y0042626D01*
X0157950Y0042128D02*
X0155650Y0042128D01*
X0155650Y0041629D02*
X0157950Y0041629D01*
X0157950Y0041131D02*
X0155650Y0041131D01*
X0155650Y0040632D02*
X0157950Y0040632D01*
X0157950Y0040134D02*
X0155650Y0040134D01*
X0155650Y0039635D02*
X0157950Y0039635D01*
X0157950Y0039137D02*
X0155650Y0039137D01*
X0155650Y0038638D02*
X0157950Y0038638D01*
X0157950Y0038140D02*
X0155650Y0038140D01*
X0155650Y0037641D02*
X0157950Y0037641D01*
X0157950Y0037143D02*
X0155650Y0037143D01*
X0155650Y0036644D02*
X0157950Y0036644D01*
X0157950Y0036146D02*
X0155650Y0036146D01*
X0155548Y0035647D02*
X0158052Y0035647D01*
X0158551Y0035149D02*
X0155049Y0035149D01*
X0155232Y0028668D02*
X0158368Y0028668D01*
X0157950Y0028170D02*
X0155650Y0028170D01*
X0155650Y0027671D02*
X0157950Y0027671D01*
X0157950Y0027173D02*
X0155650Y0027173D01*
X0155650Y0026674D02*
X0157950Y0026674D01*
X0157950Y0026176D02*
X0155650Y0026176D01*
X0155650Y0025677D02*
X0157950Y0025677D01*
X0157950Y0025179D02*
X0155650Y0025179D01*
X0155650Y0024680D02*
X0157950Y0024680D01*
X0157950Y0024182D02*
X0155650Y0024182D01*
X0155650Y0023683D02*
X0157950Y0023683D01*
X0157950Y0023184D02*
X0155650Y0023184D01*
X0155650Y0022686D02*
X0157950Y0022686D01*
X0157950Y0022187D02*
X0155650Y0022187D01*
X0155650Y0021689D02*
X0157950Y0021689D01*
X0157950Y0021190D02*
X0155650Y0021190D01*
X0155650Y0020692D02*
X0157950Y0020692D01*
X0157950Y0020193D02*
X0155650Y0020193D01*
X0155650Y0019695D02*
X0157950Y0019695D01*
X0157950Y0019196D02*
X0155650Y0019196D01*
X0155650Y0018698D02*
X0157950Y0018698D01*
X0157950Y0018199D02*
X0155650Y0018199D01*
X0155650Y0017701D02*
X0157950Y0017701D01*
X0157997Y0017202D02*
X0155603Y0017202D01*
X0155104Y0016704D02*
X0158496Y0016704D01*
X0176106Y0054092D02*
X0179007Y0054092D01*
X0178850Y0054591D02*
X0176325Y0054591D01*
X0176350Y0055089D02*
X0178850Y0055089D01*
X0178850Y0055588D02*
X0176350Y0055588D01*
X0176350Y0056086D02*
X0178850Y0056086D01*
X0178850Y0056585D02*
X0176350Y0056585D01*
X0176350Y0057083D02*
X0178850Y0057083D01*
X0178850Y0057582D02*
X0176350Y0057582D01*
X0176350Y0058080D02*
X0178850Y0058080D01*
X0178850Y0058579D02*
X0176350Y0058579D01*
X0176350Y0059077D02*
X0178850Y0059077D01*
X0076707Y0197165D02*
X0056089Y0197165D01*
X0057157Y0197663D02*
X0075639Y0197663D01*
X0075140Y0198162D02*
X0057656Y0198162D01*
X0058154Y0198660D02*
X0074642Y0198660D01*
X0074156Y0199159D02*
X0058640Y0199159D01*
X0058847Y0199658D02*
X0073949Y0199658D01*
X0073743Y0200156D02*
X0059053Y0200156D01*
X0059260Y0200655D02*
X0073536Y0200655D01*
X0073330Y0201153D02*
X0059466Y0201153D01*
X0059482Y0201652D02*
X0073314Y0201652D01*
X0073314Y0202150D02*
X0059482Y0202150D01*
X0059482Y0202649D02*
X0073314Y0202649D01*
X0073314Y0203147D02*
X0059482Y0203147D01*
X0059385Y0203646D02*
X0073411Y0203646D01*
X0073617Y0204144D02*
X0059179Y0204144D01*
X0058972Y0204643D02*
X0073824Y0204643D01*
X0074030Y0205141D02*
X0058766Y0205141D01*
X0058456Y0205640D02*
X0074340Y0205640D01*
X0074838Y0206138D02*
X0057958Y0206138D01*
X0057459Y0206637D02*
X0075337Y0206637D01*
X0075977Y0207135D02*
X0056819Y0207135D01*
X0055616Y0207634D02*
X0077181Y0207634D01*
X0051707Y0197165D02*
X0030513Y0197165D01*
X0031655Y0197663D02*
X0050639Y0197663D01*
X0050140Y0198162D02*
X0032360Y0198162D01*
X0032871Y0198660D02*
X0049642Y0198660D01*
X0049156Y0199159D02*
X0033270Y0199159D01*
X0033593Y0199658D02*
X0048949Y0199658D01*
X0048743Y0200156D02*
X0033847Y0200156D01*
X0034024Y0200655D02*
X0048536Y0200655D01*
X0048330Y0201153D02*
X0034167Y0201153D01*
X0034246Y0201652D02*
X0048314Y0201652D01*
X0029148Y0201153D02*
X0028648Y0201153D01*
X0028648Y0200655D02*
X0029148Y0200655D01*
X0029148Y0200156D02*
X0028648Y0200156D01*
X0028648Y0199658D02*
X0029148Y0199658D01*
X0029148Y0199159D02*
X0028648Y0199159D01*
X0028648Y0198660D02*
X0029148Y0198660D01*
X0029148Y0198162D02*
X0028648Y0198162D01*
X0028648Y0197663D02*
X0029148Y0197663D01*
X0029148Y0197165D02*
X0028648Y0197165D01*
X0028648Y0202649D02*
X0029148Y0202649D01*
X0029148Y0203147D02*
X0028648Y0203147D01*
X0028648Y0203646D02*
X0029148Y0203646D01*
X0029148Y0204144D02*
X0028648Y0204144D01*
X0028648Y0204643D02*
X0029148Y0204643D01*
X0029148Y0205141D02*
X0028648Y0205141D01*
X0028648Y0205640D02*
X0029148Y0205640D01*
X0029148Y0206138D02*
X0028648Y0206138D01*
X0028648Y0206637D02*
X0029148Y0206637D01*
X0029148Y0207135D02*
X0028648Y0207135D01*
X0026526Y0207135D02*
X0005750Y0207135D01*
X0005750Y0206637D02*
X0025706Y0206637D01*
X0025121Y0206138D02*
X0005750Y0206138D01*
X0005750Y0205640D02*
X0024669Y0205640D01*
X0024307Y0205141D02*
X0005750Y0205141D01*
X0005750Y0204643D02*
X0024049Y0204643D01*
X0023836Y0204144D02*
X0005750Y0204144D01*
X0005750Y0203646D02*
X0023674Y0203646D01*
X0023581Y0203147D02*
X0005750Y0203147D01*
X0005750Y0202649D02*
X0023514Y0202649D01*
X0030876Y0260974D02*
X0051920Y0260974D01*
X0052787Y0260615D02*
X0050735Y0261465D01*
X0049164Y0263036D01*
X0048314Y0265088D01*
X0048314Y0267310D01*
X0049164Y0269362D01*
X0050735Y0270933D01*
X0052787Y0271783D01*
X0055009Y0271783D01*
X0057061Y0270933D01*
X0058632Y0269362D01*
X0059482Y0267310D01*
X0059482Y0265088D01*
X0058632Y0263036D01*
X0057061Y0261465D01*
X0055009Y0260615D01*
X0052787Y0260615D01*
X0050727Y0261473D02*
X0032069Y0261473D01*
X0032567Y0261971D02*
X0050229Y0261971D01*
X0049730Y0262470D02*
X0033066Y0262470D01*
X0033564Y0262968D02*
X0049232Y0262968D01*
X0048986Y0263467D02*
X0033810Y0263467D01*
X0034017Y0263965D02*
X0048779Y0263965D01*
X0048573Y0264464D02*
X0034223Y0264464D01*
X0034430Y0264962D02*
X0048366Y0264962D01*
X0048314Y0265461D02*
X0034482Y0265461D01*
X0034482Y0265960D02*
X0048314Y0265960D01*
X0048314Y0266458D02*
X0034482Y0266458D01*
X0034482Y0266957D02*
X0048314Y0266957D01*
X0048374Y0267455D02*
X0034422Y0267455D01*
X0034215Y0267954D02*
X0048581Y0267954D01*
X0048787Y0268452D02*
X0034009Y0268452D01*
X0033802Y0268951D02*
X0048994Y0268951D01*
X0049252Y0269449D02*
X0033545Y0269449D01*
X0033046Y0269948D02*
X0049750Y0269948D01*
X0050249Y0270446D02*
X0032547Y0270446D01*
X0032032Y0270945D02*
X0050764Y0270945D01*
X0051968Y0271443D02*
X0030828Y0271443D01*
X0055828Y0271443D02*
X0076968Y0271443D01*
X0075764Y0270945D02*
X0057032Y0270945D01*
X0057547Y0270446D02*
X0075249Y0270446D01*
X0074750Y0269948D02*
X0058046Y0269948D01*
X0058545Y0269449D02*
X0074252Y0269449D01*
X0073994Y0268951D02*
X0058802Y0268951D01*
X0059009Y0268452D02*
X0073787Y0268452D01*
X0073581Y0267954D02*
X0059215Y0267954D01*
X0059422Y0267455D02*
X0073374Y0267455D01*
X0073314Y0266957D02*
X0059482Y0266957D01*
X0059482Y0266458D02*
X0073314Y0266458D01*
X0073314Y0265960D02*
X0059482Y0265960D01*
X0059482Y0265461D02*
X0073314Y0265461D01*
X0073366Y0264962D02*
X0059430Y0264962D01*
X0059223Y0264464D02*
X0073573Y0264464D01*
X0073779Y0263965D02*
X0059017Y0263965D01*
X0058810Y0263467D02*
X0073986Y0263467D01*
X0074232Y0262968D02*
X0058564Y0262968D01*
X0058066Y0262470D02*
X0074730Y0262470D01*
X0075229Y0261971D02*
X0057567Y0261971D01*
X0057069Y0261473D02*
X0075727Y0261473D01*
X0076920Y0260974D02*
X0055876Y0260974D01*
X0091229Y0294873D02*
X0099113Y0294873D01*
X0097909Y0295372D02*
X0092433Y0295372D01*
X0093119Y0295870D02*
X0097224Y0295870D01*
X0096725Y0296369D02*
X0093617Y0296369D01*
X0094046Y0296867D02*
X0096297Y0296867D01*
X0096090Y0297366D02*
X0094252Y0297366D01*
X0094459Y0297864D02*
X0095884Y0297864D01*
X0095677Y0298363D02*
X0094665Y0298363D01*
X0094668Y0298861D02*
X0095674Y0298861D01*
X0095674Y0299360D02*
X0094668Y0299360D01*
X0094668Y0299858D02*
X0095674Y0299858D01*
X0095768Y0300357D02*
X0094574Y0300357D01*
X0094368Y0300855D02*
X0095975Y0300855D01*
X0096181Y0301354D02*
X0094161Y0301354D01*
X0093896Y0301852D02*
X0096446Y0301852D01*
X0096945Y0302351D02*
X0093398Y0302351D01*
X0092899Y0302849D02*
X0097443Y0302849D01*
X0098440Y0303348D02*
X0091903Y0303348D01*
X0026250Y0319750D02*
X0026243Y0319146D01*
X0026221Y0318542D01*
X0026184Y0317939D01*
X0026133Y0317337D01*
X0026068Y0316737D01*
X0025988Y0316138D01*
X0025893Y0315541D01*
X0025784Y0314947D01*
X0025661Y0314355D01*
X0025524Y0313767D01*
X0025372Y0313182D01*
X0025206Y0312601D01*
X0025026Y0312025D01*
X0024833Y0311452D01*
X0024625Y0310885D01*
X0024404Y0310323D01*
X0024170Y0309766D01*
X0023922Y0309215D01*
X0023661Y0308670D01*
X0023386Y0308132D01*
X0023099Y0307600D01*
X0022799Y0307076D01*
X0022487Y0306559D01*
X0022162Y0306050D01*
X0021825Y0305548D01*
X0021475Y0305055D01*
X0021114Y0304571D01*
X0020742Y0304095D01*
X0020358Y0303629D01*
X0019963Y0303172D01*
X0019557Y0302725D01*
X0019140Y0302287D01*
X0018713Y0301860D01*
X0018275Y0301443D01*
X0017828Y0301037D01*
X0017371Y0300642D01*
X0016905Y0300258D01*
X0016429Y0299886D01*
X0015945Y0299525D01*
X0015452Y0299175D01*
X0014950Y0298838D01*
X0014441Y0298513D01*
X0013924Y0298201D01*
X0013400Y0297901D01*
X0012868Y0297614D01*
X0012330Y0297339D01*
X0011785Y0297078D01*
X0011234Y0296830D01*
X0010677Y0296596D01*
X0010115Y0296375D01*
X0009548Y0296167D01*
X0008975Y0295974D01*
X0008399Y0295794D01*
X0007818Y0295628D01*
X0007233Y0295476D01*
X0006645Y0295339D01*
X0006053Y0295216D01*
X0005459Y0295107D01*
X0004862Y0295012D01*
X0004263Y0294932D01*
X0003663Y0294867D01*
X0003061Y0294816D01*
X0002458Y0294779D01*
X0001854Y0294757D01*
X0001250Y0294750D01*
X0001250Y0001250D02*
X0333350Y0001250D01*
D11*
X0305502Y0202301D03*
X0280502Y0202301D03*
X0255502Y0202301D03*
X0255502Y0266199D03*
X0280502Y0266199D03*
X0305502Y0266199D03*
X0177300Y0314250D03*
X0157300Y0314250D03*
X0078898Y0266199D03*
X0053898Y0266199D03*
X0028898Y0266199D03*
X0028898Y0202301D03*
X0053898Y0202301D03*
X0078898Y0202301D03*
D12*
X0106691Y0180612D02*
X0106693Y0180752D01*
X0106699Y0180892D01*
X0106709Y0181031D01*
X0106723Y0181170D01*
X0106741Y0181309D01*
X0106762Y0181447D01*
X0106788Y0181585D01*
X0106818Y0181722D01*
X0106851Y0181857D01*
X0106889Y0181992D01*
X0106930Y0182126D01*
X0106975Y0182259D01*
X0107023Y0182390D01*
X0107076Y0182519D01*
X0107132Y0182648D01*
X0107191Y0182774D01*
X0107255Y0182899D01*
X0107321Y0183022D01*
X0107392Y0183143D01*
X0107465Y0183262D01*
X0107542Y0183379D01*
X0107623Y0183493D01*
X0107706Y0183605D01*
X0107793Y0183715D01*
X0107883Y0183823D01*
X0107975Y0183927D01*
X0108071Y0184029D01*
X0108170Y0184129D01*
X0108271Y0184225D01*
X0108375Y0184319D01*
X0108482Y0184409D01*
X0108591Y0184496D01*
X0108703Y0184581D01*
X0108817Y0184662D01*
X0108933Y0184740D01*
X0109051Y0184814D01*
X0109172Y0184885D01*
X0109294Y0184953D01*
X0109419Y0185017D01*
X0109545Y0185078D01*
X0109672Y0185135D01*
X0109802Y0185188D01*
X0109933Y0185238D01*
X0110065Y0185283D01*
X0110198Y0185326D01*
X0110333Y0185364D01*
X0110468Y0185398D01*
X0110605Y0185429D01*
X0110742Y0185456D01*
X0110880Y0185478D01*
X0111019Y0185497D01*
X0111158Y0185512D01*
X0111297Y0185523D01*
X0111437Y0185530D01*
X0111577Y0185533D01*
X0111717Y0185532D01*
X0111857Y0185527D01*
X0111996Y0185518D01*
X0112136Y0185505D01*
X0112275Y0185488D01*
X0112413Y0185467D01*
X0112551Y0185443D01*
X0112688Y0185414D01*
X0112824Y0185382D01*
X0112959Y0185345D01*
X0113093Y0185305D01*
X0113226Y0185261D01*
X0113357Y0185213D01*
X0113487Y0185162D01*
X0113616Y0185107D01*
X0113743Y0185048D01*
X0113868Y0184985D01*
X0113991Y0184920D01*
X0114113Y0184850D01*
X0114232Y0184777D01*
X0114350Y0184701D01*
X0114465Y0184622D01*
X0114578Y0184539D01*
X0114688Y0184453D01*
X0114796Y0184364D01*
X0114901Y0184272D01*
X0115004Y0184177D01*
X0115104Y0184079D01*
X0115201Y0183979D01*
X0115295Y0183875D01*
X0115387Y0183769D01*
X0115475Y0183661D01*
X0115560Y0183550D01*
X0115642Y0183436D01*
X0115721Y0183320D01*
X0115796Y0183203D01*
X0115868Y0183083D01*
X0115936Y0182961D01*
X0116001Y0182837D01*
X0116063Y0182711D01*
X0116121Y0182584D01*
X0116175Y0182455D01*
X0116226Y0182324D01*
X0116272Y0182192D01*
X0116315Y0182059D01*
X0116355Y0181925D01*
X0116390Y0181790D01*
X0116422Y0181653D01*
X0116449Y0181516D01*
X0116473Y0181378D01*
X0116493Y0181240D01*
X0116509Y0181101D01*
X0116521Y0180961D01*
X0116529Y0180822D01*
X0116533Y0180682D01*
X0116533Y0180542D01*
X0116529Y0180402D01*
X0116521Y0180263D01*
X0116509Y0180123D01*
X0116493Y0179984D01*
X0116473Y0179846D01*
X0116449Y0179708D01*
X0116422Y0179571D01*
X0116390Y0179434D01*
X0116355Y0179299D01*
X0116315Y0179165D01*
X0116272Y0179032D01*
X0116226Y0178900D01*
X0116175Y0178769D01*
X0116121Y0178640D01*
X0116063Y0178513D01*
X0116001Y0178387D01*
X0115936Y0178263D01*
X0115868Y0178141D01*
X0115796Y0178021D01*
X0115721Y0177904D01*
X0115642Y0177788D01*
X0115560Y0177674D01*
X0115475Y0177563D01*
X0115387Y0177455D01*
X0115295Y0177349D01*
X0115201Y0177245D01*
X0115104Y0177145D01*
X0115004Y0177047D01*
X0114901Y0176952D01*
X0114796Y0176860D01*
X0114688Y0176771D01*
X0114578Y0176685D01*
X0114465Y0176602D01*
X0114350Y0176523D01*
X0114232Y0176447D01*
X0114113Y0176374D01*
X0113991Y0176304D01*
X0113868Y0176239D01*
X0113743Y0176176D01*
X0113616Y0176117D01*
X0113487Y0176062D01*
X0113357Y0176011D01*
X0113226Y0175963D01*
X0113093Y0175919D01*
X0112959Y0175879D01*
X0112824Y0175842D01*
X0112688Y0175810D01*
X0112551Y0175781D01*
X0112413Y0175757D01*
X0112275Y0175736D01*
X0112136Y0175719D01*
X0111996Y0175706D01*
X0111857Y0175697D01*
X0111717Y0175692D01*
X0111577Y0175691D01*
X0111437Y0175694D01*
X0111297Y0175701D01*
X0111158Y0175712D01*
X0111019Y0175727D01*
X0110880Y0175746D01*
X0110742Y0175768D01*
X0110605Y0175795D01*
X0110468Y0175826D01*
X0110333Y0175860D01*
X0110198Y0175898D01*
X0110065Y0175941D01*
X0109933Y0175986D01*
X0109802Y0176036D01*
X0109672Y0176089D01*
X0109545Y0176146D01*
X0109419Y0176207D01*
X0109294Y0176271D01*
X0109172Y0176339D01*
X0109051Y0176410D01*
X0108933Y0176484D01*
X0108817Y0176562D01*
X0108703Y0176643D01*
X0108591Y0176728D01*
X0108482Y0176815D01*
X0108375Y0176905D01*
X0108271Y0176999D01*
X0108170Y0177095D01*
X0108071Y0177195D01*
X0107975Y0177297D01*
X0107883Y0177401D01*
X0107793Y0177509D01*
X0107706Y0177619D01*
X0107623Y0177731D01*
X0107542Y0177845D01*
X0107465Y0177962D01*
X0107392Y0178081D01*
X0107321Y0178202D01*
X0107255Y0178325D01*
X0107191Y0178450D01*
X0107132Y0178576D01*
X0107076Y0178705D01*
X0107023Y0178834D01*
X0106975Y0178965D01*
X0106930Y0179098D01*
X0106889Y0179232D01*
X0106851Y0179367D01*
X0106818Y0179502D01*
X0106788Y0179639D01*
X0106762Y0179777D01*
X0106741Y0179915D01*
X0106723Y0180054D01*
X0106709Y0180193D01*
X0106699Y0180332D01*
X0106693Y0180472D01*
X0106691Y0180612D01*
X0051573Y0093998D02*
X0051575Y0094138D01*
X0051581Y0094278D01*
X0051591Y0094417D01*
X0051605Y0094556D01*
X0051623Y0094695D01*
X0051644Y0094833D01*
X0051670Y0094971D01*
X0051700Y0095108D01*
X0051733Y0095243D01*
X0051771Y0095378D01*
X0051812Y0095512D01*
X0051857Y0095645D01*
X0051905Y0095776D01*
X0051958Y0095905D01*
X0052014Y0096034D01*
X0052073Y0096160D01*
X0052137Y0096285D01*
X0052203Y0096408D01*
X0052274Y0096529D01*
X0052347Y0096648D01*
X0052424Y0096765D01*
X0052505Y0096879D01*
X0052588Y0096991D01*
X0052675Y0097101D01*
X0052765Y0097209D01*
X0052857Y0097313D01*
X0052953Y0097415D01*
X0053052Y0097515D01*
X0053153Y0097611D01*
X0053257Y0097705D01*
X0053364Y0097795D01*
X0053473Y0097882D01*
X0053585Y0097967D01*
X0053699Y0098048D01*
X0053815Y0098126D01*
X0053933Y0098200D01*
X0054054Y0098271D01*
X0054176Y0098339D01*
X0054301Y0098403D01*
X0054427Y0098464D01*
X0054554Y0098521D01*
X0054684Y0098574D01*
X0054815Y0098624D01*
X0054947Y0098669D01*
X0055080Y0098712D01*
X0055215Y0098750D01*
X0055350Y0098784D01*
X0055487Y0098815D01*
X0055624Y0098842D01*
X0055762Y0098864D01*
X0055901Y0098883D01*
X0056040Y0098898D01*
X0056179Y0098909D01*
X0056319Y0098916D01*
X0056459Y0098919D01*
X0056599Y0098918D01*
X0056739Y0098913D01*
X0056878Y0098904D01*
X0057018Y0098891D01*
X0057157Y0098874D01*
X0057295Y0098853D01*
X0057433Y0098829D01*
X0057570Y0098800D01*
X0057706Y0098768D01*
X0057841Y0098731D01*
X0057975Y0098691D01*
X0058108Y0098647D01*
X0058239Y0098599D01*
X0058369Y0098548D01*
X0058498Y0098493D01*
X0058625Y0098434D01*
X0058750Y0098371D01*
X0058873Y0098306D01*
X0058995Y0098236D01*
X0059114Y0098163D01*
X0059232Y0098087D01*
X0059347Y0098008D01*
X0059460Y0097925D01*
X0059570Y0097839D01*
X0059678Y0097750D01*
X0059783Y0097658D01*
X0059886Y0097563D01*
X0059986Y0097465D01*
X0060083Y0097365D01*
X0060177Y0097261D01*
X0060269Y0097155D01*
X0060357Y0097047D01*
X0060442Y0096936D01*
X0060524Y0096822D01*
X0060603Y0096706D01*
X0060678Y0096589D01*
X0060750Y0096469D01*
X0060818Y0096347D01*
X0060883Y0096223D01*
X0060945Y0096097D01*
X0061003Y0095970D01*
X0061057Y0095841D01*
X0061108Y0095710D01*
X0061154Y0095578D01*
X0061197Y0095445D01*
X0061237Y0095311D01*
X0061272Y0095176D01*
X0061304Y0095039D01*
X0061331Y0094902D01*
X0061355Y0094764D01*
X0061375Y0094626D01*
X0061391Y0094487D01*
X0061403Y0094347D01*
X0061411Y0094208D01*
X0061415Y0094068D01*
X0061415Y0093928D01*
X0061411Y0093788D01*
X0061403Y0093649D01*
X0061391Y0093509D01*
X0061375Y0093370D01*
X0061355Y0093232D01*
X0061331Y0093094D01*
X0061304Y0092957D01*
X0061272Y0092820D01*
X0061237Y0092685D01*
X0061197Y0092551D01*
X0061154Y0092418D01*
X0061108Y0092286D01*
X0061057Y0092155D01*
X0061003Y0092026D01*
X0060945Y0091899D01*
X0060883Y0091773D01*
X0060818Y0091649D01*
X0060750Y0091527D01*
X0060678Y0091407D01*
X0060603Y0091290D01*
X0060524Y0091174D01*
X0060442Y0091060D01*
X0060357Y0090949D01*
X0060269Y0090841D01*
X0060177Y0090735D01*
X0060083Y0090631D01*
X0059986Y0090531D01*
X0059886Y0090433D01*
X0059783Y0090338D01*
X0059678Y0090246D01*
X0059570Y0090157D01*
X0059460Y0090071D01*
X0059347Y0089988D01*
X0059232Y0089909D01*
X0059114Y0089833D01*
X0058995Y0089760D01*
X0058873Y0089690D01*
X0058750Y0089625D01*
X0058625Y0089562D01*
X0058498Y0089503D01*
X0058369Y0089448D01*
X0058239Y0089397D01*
X0058108Y0089349D01*
X0057975Y0089305D01*
X0057841Y0089265D01*
X0057706Y0089228D01*
X0057570Y0089196D01*
X0057433Y0089167D01*
X0057295Y0089143D01*
X0057157Y0089122D01*
X0057018Y0089105D01*
X0056878Y0089092D01*
X0056739Y0089083D01*
X0056599Y0089078D01*
X0056459Y0089077D01*
X0056319Y0089080D01*
X0056179Y0089087D01*
X0056040Y0089098D01*
X0055901Y0089113D01*
X0055762Y0089132D01*
X0055624Y0089154D01*
X0055487Y0089181D01*
X0055350Y0089212D01*
X0055215Y0089246D01*
X0055080Y0089284D01*
X0054947Y0089327D01*
X0054815Y0089372D01*
X0054684Y0089422D01*
X0054554Y0089475D01*
X0054427Y0089532D01*
X0054301Y0089593D01*
X0054176Y0089657D01*
X0054054Y0089725D01*
X0053933Y0089796D01*
X0053815Y0089870D01*
X0053699Y0089948D01*
X0053585Y0090029D01*
X0053473Y0090114D01*
X0053364Y0090201D01*
X0053257Y0090291D01*
X0053153Y0090385D01*
X0053052Y0090481D01*
X0052953Y0090581D01*
X0052857Y0090683D01*
X0052765Y0090787D01*
X0052675Y0090895D01*
X0052588Y0091005D01*
X0052505Y0091117D01*
X0052424Y0091231D01*
X0052347Y0091348D01*
X0052274Y0091467D01*
X0052203Y0091588D01*
X0052137Y0091711D01*
X0052073Y0091836D01*
X0052014Y0091962D01*
X0051958Y0092091D01*
X0051905Y0092220D01*
X0051857Y0092351D01*
X0051812Y0092484D01*
X0051771Y0092618D01*
X0051733Y0092753D01*
X0051700Y0092888D01*
X0051670Y0093025D01*
X0051644Y0093163D01*
X0051623Y0093301D01*
X0051605Y0093440D01*
X0051591Y0093579D01*
X0051581Y0093718D01*
X0051575Y0093858D01*
X0051573Y0093998D01*
X0161809Y0093998D02*
X0161811Y0094138D01*
X0161817Y0094278D01*
X0161827Y0094417D01*
X0161841Y0094556D01*
X0161859Y0094695D01*
X0161880Y0094833D01*
X0161906Y0094971D01*
X0161936Y0095108D01*
X0161969Y0095243D01*
X0162007Y0095378D01*
X0162048Y0095512D01*
X0162093Y0095645D01*
X0162141Y0095776D01*
X0162194Y0095905D01*
X0162250Y0096034D01*
X0162309Y0096160D01*
X0162373Y0096285D01*
X0162439Y0096408D01*
X0162510Y0096529D01*
X0162583Y0096648D01*
X0162660Y0096765D01*
X0162741Y0096879D01*
X0162824Y0096991D01*
X0162911Y0097101D01*
X0163001Y0097209D01*
X0163093Y0097313D01*
X0163189Y0097415D01*
X0163288Y0097515D01*
X0163389Y0097611D01*
X0163493Y0097705D01*
X0163600Y0097795D01*
X0163709Y0097882D01*
X0163821Y0097967D01*
X0163935Y0098048D01*
X0164051Y0098126D01*
X0164169Y0098200D01*
X0164290Y0098271D01*
X0164412Y0098339D01*
X0164537Y0098403D01*
X0164663Y0098464D01*
X0164790Y0098521D01*
X0164920Y0098574D01*
X0165051Y0098624D01*
X0165183Y0098669D01*
X0165316Y0098712D01*
X0165451Y0098750D01*
X0165586Y0098784D01*
X0165723Y0098815D01*
X0165860Y0098842D01*
X0165998Y0098864D01*
X0166137Y0098883D01*
X0166276Y0098898D01*
X0166415Y0098909D01*
X0166555Y0098916D01*
X0166695Y0098919D01*
X0166835Y0098918D01*
X0166975Y0098913D01*
X0167114Y0098904D01*
X0167254Y0098891D01*
X0167393Y0098874D01*
X0167531Y0098853D01*
X0167669Y0098829D01*
X0167806Y0098800D01*
X0167942Y0098768D01*
X0168077Y0098731D01*
X0168211Y0098691D01*
X0168344Y0098647D01*
X0168475Y0098599D01*
X0168605Y0098548D01*
X0168734Y0098493D01*
X0168861Y0098434D01*
X0168986Y0098371D01*
X0169109Y0098306D01*
X0169231Y0098236D01*
X0169350Y0098163D01*
X0169468Y0098087D01*
X0169583Y0098008D01*
X0169696Y0097925D01*
X0169806Y0097839D01*
X0169914Y0097750D01*
X0170019Y0097658D01*
X0170122Y0097563D01*
X0170222Y0097465D01*
X0170319Y0097365D01*
X0170413Y0097261D01*
X0170505Y0097155D01*
X0170593Y0097047D01*
X0170678Y0096936D01*
X0170760Y0096822D01*
X0170839Y0096706D01*
X0170914Y0096589D01*
X0170986Y0096469D01*
X0171054Y0096347D01*
X0171119Y0096223D01*
X0171181Y0096097D01*
X0171239Y0095970D01*
X0171293Y0095841D01*
X0171344Y0095710D01*
X0171390Y0095578D01*
X0171433Y0095445D01*
X0171473Y0095311D01*
X0171508Y0095176D01*
X0171540Y0095039D01*
X0171567Y0094902D01*
X0171591Y0094764D01*
X0171611Y0094626D01*
X0171627Y0094487D01*
X0171639Y0094347D01*
X0171647Y0094208D01*
X0171651Y0094068D01*
X0171651Y0093928D01*
X0171647Y0093788D01*
X0171639Y0093649D01*
X0171627Y0093509D01*
X0171611Y0093370D01*
X0171591Y0093232D01*
X0171567Y0093094D01*
X0171540Y0092957D01*
X0171508Y0092820D01*
X0171473Y0092685D01*
X0171433Y0092551D01*
X0171390Y0092418D01*
X0171344Y0092286D01*
X0171293Y0092155D01*
X0171239Y0092026D01*
X0171181Y0091899D01*
X0171119Y0091773D01*
X0171054Y0091649D01*
X0170986Y0091527D01*
X0170914Y0091407D01*
X0170839Y0091290D01*
X0170760Y0091174D01*
X0170678Y0091060D01*
X0170593Y0090949D01*
X0170505Y0090841D01*
X0170413Y0090735D01*
X0170319Y0090631D01*
X0170222Y0090531D01*
X0170122Y0090433D01*
X0170019Y0090338D01*
X0169914Y0090246D01*
X0169806Y0090157D01*
X0169696Y0090071D01*
X0169583Y0089988D01*
X0169468Y0089909D01*
X0169350Y0089833D01*
X0169231Y0089760D01*
X0169109Y0089690D01*
X0168986Y0089625D01*
X0168861Y0089562D01*
X0168734Y0089503D01*
X0168605Y0089448D01*
X0168475Y0089397D01*
X0168344Y0089349D01*
X0168211Y0089305D01*
X0168077Y0089265D01*
X0167942Y0089228D01*
X0167806Y0089196D01*
X0167669Y0089167D01*
X0167531Y0089143D01*
X0167393Y0089122D01*
X0167254Y0089105D01*
X0167114Y0089092D01*
X0166975Y0089083D01*
X0166835Y0089078D01*
X0166695Y0089077D01*
X0166555Y0089080D01*
X0166415Y0089087D01*
X0166276Y0089098D01*
X0166137Y0089113D01*
X0165998Y0089132D01*
X0165860Y0089154D01*
X0165723Y0089181D01*
X0165586Y0089212D01*
X0165451Y0089246D01*
X0165316Y0089284D01*
X0165183Y0089327D01*
X0165051Y0089372D01*
X0164920Y0089422D01*
X0164790Y0089475D01*
X0164663Y0089532D01*
X0164537Y0089593D01*
X0164412Y0089657D01*
X0164290Y0089725D01*
X0164169Y0089796D01*
X0164051Y0089870D01*
X0163935Y0089948D01*
X0163821Y0090029D01*
X0163709Y0090114D01*
X0163600Y0090201D01*
X0163493Y0090291D01*
X0163389Y0090385D01*
X0163288Y0090481D01*
X0163189Y0090581D01*
X0163093Y0090683D01*
X0163001Y0090787D01*
X0162911Y0090895D01*
X0162824Y0091005D01*
X0162741Y0091117D01*
X0162660Y0091231D01*
X0162583Y0091348D01*
X0162510Y0091467D01*
X0162439Y0091588D01*
X0162373Y0091711D01*
X0162309Y0091836D01*
X0162250Y0091962D01*
X0162194Y0092091D01*
X0162141Y0092220D01*
X0162093Y0092351D01*
X0162048Y0092484D01*
X0162007Y0092618D01*
X0161969Y0092753D01*
X0161936Y0092888D01*
X0161906Y0093025D01*
X0161880Y0093163D01*
X0161859Y0093301D01*
X0161841Y0093440D01*
X0161827Y0093579D01*
X0161817Y0093718D01*
X0161811Y0093858D01*
X0161809Y0093998D01*
D13*
X0214762Y0112305D03*
X0214762Y0162305D03*
D14*
X0234507Y0299250D03*
X0244350Y0299250D03*
X0254193Y0299250D03*
X0100093Y0299250D03*
X0090250Y0299250D03*
X0080407Y0299250D03*
D15*
X0162871Y0264250D02*
X0171729Y0264250D01*
X0171729Y0249250D02*
X0162871Y0249250D01*
X0162871Y0234250D02*
X0171729Y0234250D01*
D16*
X0167250Y0059750D03*
X0167250Y0041250D03*
X0167250Y0022750D03*
X0146350Y0022750D03*
X0146350Y0041250D03*
X0146350Y0059750D03*
X0188150Y0059750D03*
X0188150Y0041250D03*
X0188150Y0022750D03*
D17*
X0244250Y0034250D03*
X0266250Y0091250D03*
X0265750Y0121250D03*
X0294750Y0113250D03*
X0195250Y0265250D03*
M02*
