%
M48
M72
T01C0.0236
T02C0.0394
T03C0.0551
T04C0.0591
T05C0.0787
T06C0.0984
%
T01
X24425Y3425
X26625Y9125
X26575Y12125
X29475Y11325
X19525Y26525
T02
X10009Y29925
X9025Y29925
X8041Y29925
X23451Y29925
X24435Y29925
X25419Y29925
T03
X7890Y20230
X5390Y20230
X2890Y20230
X2890Y26620
X5390Y26620
X7890Y26620
X15730Y31425
X17730Y31425
X25550Y26620
X28050Y26620
X30550Y26620
X30550Y20230
X28050Y20230
X25550Y20230
T04
X16730Y23425
X16730Y24925
X16730Y26425
T05
X21476Y11231
X21476Y16231
T06
X5649Y9400
X11161Y18061
X16673Y9400
M30
