G75*
%MOIN*%
%OFA0B0*%
%FSLAX25Y25*%
%IPPOS*%
%LPD*%
%AMOC8*
5,1,8,0,0,1.08239X$1,22.5*
%
%ADD10C,0.00500*%
%ADD11C,0.00000*%
%ADD12C,0.00100*%
D10*
X0001250Y0001250D02*
X0001250Y0294750D01*
X0001854Y0294757D01*
X0002458Y0294779D01*
X0003061Y0294816D01*
X0003663Y0294867D01*
X0004263Y0294932D01*
X0004862Y0295012D01*
X0005459Y0295107D01*
X0006053Y0295216D01*
X0006645Y0295339D01*
X0007233Y0295476D01*
X0007818Y0295628D01*
X0008399Y0295794D01*
X0008975Y0295974D01*
X0009548Y0296167D01*
X0010115Y0296375D01*
X0010677Y0296596D01*
X0011234Y0296830D01*
X0011785Y0297078D01*
X0012330Y0297339D01*
X0012868Y0297614D01*
X0013400Y0297901D01*
X0013924Y0298201D01*
X0014441Y0298513D01*
X0014950Y0298838D01*
X0015452Y0299175D01*
X0015945Y0299525D01*
X0016429Y0299886D01*
X0016905Y0300258D01*
X0017371Y0300642D01*
X0017828Y0301037D01*
X0018275Y0301443D01*
X0018713Y0301860D01*
X0019140Y0302287D01*
X0019557Y0302725D01*
X0019963Y0303172D01*
X0020358Y0303629D01*
X0020742Y0304095D01*
X0021114Y0304571D01*
X0021475Y0305055D01*
X0021825Y0305548D01*
X0022162Y0306050D01*
X0022487Y0306559D01*
X0022799Y0307076D01*
X0023099Y0307600D01*
X0023386Y0308132D01*
X0023661Y0308670D01*
X0023922Y0309215D01*
X0024170Y0309766D01*
X0024404Y0310323D01*
X0024625Y0310885D01*
X0024833Y0311452D01*
X0025026Y0312025D01*
X0025206Y0312601D01*
X0025372Y0313182D01*
X0025524Y0313767D01*
X0025661Y0314355D01*
X0025784Y0314947D01*
X0025893Y0315541D01*
X0025988Y0316138D01*
X0026068Y0316737D01*
X0026133Y0317337D01*
X0026184Y0317939D01*
X0026221Y0318542D01*
X0026243Y0319146D01*
X0026250Y0319750D01*
X0308350Y0319750D01*
X0308357Y0319146D01*
X0308379Y0318542D01*
X0308416Y0317939D01*
X0308467Y0317337D01*
X0308532Y0316737D01*
X0308612Y0316138D01*
X0308707Y0315541D01*
X0308816Y0314947D01*
X0308939Y0314355D01*
X0309076Y0313767D01*
X0309228Y0313182D01*
X0309394Y0312601D01*
X0309574Y0312025D01*
X0309767Y0311452D01*
X0309975Y0310885D01*
X0310196Y0310323D01*
X0310430Y0309766D01*
X0310678Y0309215D01*
X0310939Y0308670D01*
X0311214Y0308132D01*
X0311501Y0307600D01*
X0311801Y0307076D01*
X0312113Y0306559D01*
X0312438Y0306050D01*
X0312775Y0305548D01*
X0313125Y0305055D01*
X0313486Y0304571D01*
X0313858Y0304095D01*
X0314242Y0303629D01*
X0314637Y0303172D01*
X0315043Y0302725D01*
X0315460Y0302287D01*
X0315887Y0301860D01*
X0316325Y0301443D01*
X0316772Y0301037D01*
X0317229Y0300642D01*
X0317695Y0300258D01*
X0318171Y0299886D01*
X0318655Y0299525D01*
X0319148Y0299175D01*
X0319650Y0298838D01*
X0320159Y0298513D01*
X0320676Y0298201D01*
X0321200Y0297901D01*
X0321732Y0297614D01*
X0322270Y0297339D01*
X0322815Y0297078D01*
X0323366Y0296830D01*
X0323923Y0296596D01*
X0324485Y0296375D01*
X0325052Y0296167D01*
X0325625Y0295974D01*
X0326201Y0295794D01*
X0326782Y0295628D01*
X0327367Y0295476D01*
X0327955Y0295339D01*
X0328547Y0295216D01*
X0329141Y0295107D01*
X0329738Y0295012D01*
X0330337Y0294932D01*
X0330937Y0294867D01*
X0331539Y0294816D01*
X0332142Y0294779D01*
X0332746Y0294757D01*
X0333350Y0294750D01*
X0333350Y0001250D01*
X0001250Y0001250D01*
D11*
X0051573Y0093998D02*
X0051575Y0094138D01*
X0051581Y0094278D01*
X0051591Y0094417D01*
X0051605Y0094556D01*
X0051623Y0094695D01*
X0051644Y0094833D01*
X0051670Y0094971D01*
X0051700Y0095108D01*
X0051733Y0095243D01*
X0051771Y0095378D01*
X0051812Y0095512D01*
X0051857Y0095645D01*
X0051905Y0095776D01*
X0051958Y0095905D01*
X0052014Y0096034D01*
X0052073Y0096160D01*
X0052137Y0096285D01*
X0052203Y0096408D01*
X0052274Y0096529D01*
X0052347Y0096648D01*
X0052424Y0096765D01*
X0052505Y0096879D01*
X0052588Y0096991D01*
X0052675Y0097101D01*
X0052765Y0097209D01*
X0052857Y0097313D01*
X0052953Y0097415D01*
X0053052Y0097515D01*
X0053153Y0097611D01*
X0053257Y0097705D01*
X0053364Y0097795D01*
X0053473Y0097882D01*
X0053585Y0097967D01*
X0053699Y0098048D01*
X0053815Y0098126D01*
X0053933Y0098200D01*
X0054054Y0098271D01*
X0054176Y0098339D01*
X0054301Y0098403D01*
X0054427Y0098464D01*
X0054554Y0098521D01*
X0054684Y0098574D01*
X0054815Y0098624D01*
X0054947Y0098669D01*
X0055080Y0098712D01*
X0055215Y0098750D01*
X0055350Y0098784D01*
X0055487Y0098815D01*
X0055624Y0098842D01*
X0055762Y0098864D01*
X0055901Y0098883D01*
X0056040Y0098898D01*
X0056179Y0098909D01*
X0056319Y0098916D01*
X0056459Y0098919D01*
X0056599Y0098918D01*
X0056739Y0098913D01*
X0056878Y0098904D01*
X0057018Y0098891D01*
X0057157Y0098874D01*
X0057295Y0098853D01*
X0057433Y0098829D01*
X0057570Y0098800D01*
X0057706Y0098768D01*
X0057841Y0098731D01*
X0057975Y0098691D01*
X0058108Y0098647D01*
X0058239Y0098599D01*
X0058369Y0098548D01*
X0058498Y0098493D01*
X0058625Y0098434D01*
X0058750Y0098371D01*
X0058873Y0098306D01*
X0058995Y0098236D01*
X0059114Y0098163D01*
X0059232Y0098087D01*
X0059347Y0098008D01*
X0059460Y0097925D01*
X0059570Y0097839D01*
X0059678Y0097750D01*
X0059783Y0097658D01*
X0059886Y0097563D01*
X0059986Y0097465D01*
X0060083Y0097365D01*
X0060177Y0097261D01*
X0060269Y0097155D01*
X0060357Y0097047D01*
X0060442Y0096936D01*
X0060524Y0096822D01*
X0060603Y0096706D01*
X0060678Y0096589D01*
X0060750Y0096469D01*
X0060818Y0096347D01*
X0060883Y0096223D01*
X0060945Y0096097D01*
X0061003Y0095970D01*
X0061057Y0095841D01*
X0061108Y0095710D01*
X0061154Y0095578D01*
X0061197Y0095445D01*
X0061237Y0095311D01*
X0061272Y0095176D01*
X0061304Y0095039D01*
X0061331Y0094902D01*
X0061355Y0094764D01*
X0061375Y0094626D01*
X0061391Y0094487D01*
X0061403Y0094347D01*
X0061411Y0094208D01*
X0061415Y0094068D01*
X0061415Y0093928D01*
X0061411Y0093788D01*
X0061403Y0093649D01*
X0061391Y0093509D01*
X0061375Y0093370D01*
X0061355Y0093232D01*
X0061331Y0093094D01*
X0061304Y0092957D01*
X0061272Y0092820D01*
X0061237Y0092685D01*
X0061197Y0092551D01*
X0061154Y0092418D01*
X0061108Y0092286D01*
X0061057Y0092155D01*
X0061003Y0092026D01*
X0060945Y0091899D01*
X0060883Y0091773D01*
X0060818Y0091649D01*
X0060750Y0091527D01*
X0060678Y0091407D01*
X0060603Y0091290D01*
X0060524Y0091174D01*
X0060442Y0091060D01*
X0060357Y0090949D01*
X0060269Y0090841D01*
X0060177Y0090735D01*
X0060083Y0090631D01*
X0059986Y0090531D01*
X0059886Y0090433D01*
X0059783Y0090338D01*
X0059678Y0090246D01*
X0059570Y0090157D01*
X0059460Y0090071D01*
X0059347Y0089988D01*
X0059232Y0089909D01*
X0059114Y0089833D01*
X0058995Y0089760D01*
X0058873Y0089690D01*
X0058750Y0089625D01*
X0058625Y0089562D01*
X0058498Y0089503D01*
X0058369Y0089448D01*
X0058239Y0089397D01*
X0058108Y0089349D01*
X0057975Y0089305D01*
X0057841Y0089265D01*
X0057706Y0089228D01*
X0057570Y0089196D01*
X0057433Y0089167D01*
X0057295Y0089143D01*
X0057157Y0089122D01*
X0057018Y0089105D01*
X0056878Y0089092D01*
X0056739Y0089083D01*
X0056599Y0089078D01*
X0056459Y0089077D01*
X0056319Y0089080D01*
X0056179Y0089087D01*
X0056040Y0089098D01*
X0055901Y0089113D01*
X0055762Y0089132D01*
X0055624Y0089154D01*
X0055487Y0089181D01*
X0055350Y0089212D01*
X0055215Y0089246D01*
X0055080Y0089284D01*
X0054947Y0089327D01*
X0054815Y0089372D01*
X0054684Y0089422D01*
X0054554Y0089475D01*
X0054427Y0089532D01*
X0054301Y0089593D01*
X0054176Y0089657D01*
X0054054Y0089725D01*
X0053933Y0089796D01*
X0053815Y0089870D01*
X0053699Y0089948D01*
X0053585Y0090029D01*
X0053473Y0090114D01*
X0053364Y0090201D01*
X0053257Y0090291D01*
X0053153Y0090385D01*
X0053052Y0090481D01*
X0052953Y0090581D01*
X0052857Y0090683D01*
X0052765Y0090787D01*
X0052675Y0090895D01*
X0052588Y0091005D01*
X0052505Y0091117D01*
X0052424Y0091231D01*
X0052347Y0091348D01*
X0052274Y0091467D01*
X0052203Y0091588D01*
X0052137Y0091711D01*
X0052073Y0091836D01*
X0052014Y0091962D01*
X0051958Y0092091D01*
X0051905Y0092220D01*
X0051857Y0092351D01*
X0051812Y0092484D01*
X0051771Y0092618D01*
X0051733Y0092753D01*
X0051700Y0092888D01*
X0051670Y0093025D01*
X0051644Y0093163D01*
X0051623Y0093301D01*
X0051605Y0093440D01*
X0051591Y0093579D01*
X0051581Y0093718D01*
X0051575Y0093858D01*
X0051573Y0093998D01*
X0106691Y0180612D02*
X0106693Y0180752D01*
X0106699Y0180892D01*
X0106709Y0181031D01*
X0106723Y0181170D01*
X0106741Y0181309D01*
X0106762Y0181447D01*
X0106788Y0181585D01*
X0106818Y0181722D01*
X0106851Y0181857D01*
X0106889Y0181992D01*
X0106930Y0182126D01*
X0106975Y0182259D01*
X0107023Y0182390D01*
X0107076Y0182519D01*
X0107132Y0182648D01*
X0107191Y0182774D01*
X0107255Y0182899D01*
X0107321Y0183022D01*
X0107392Y0183143D01*
X0107465Y0183262D01*
X0107542Y0183379D01*
X0107623Y0183493D01*
X0107706Y0183605D01*
X0107793Y0183715D01*
X0107883Y0183823D01*
X0107975Y0183927D01*
X0108071Y0184029D01*
X0108170Y0184129D01*
X0108271Y0184225D01*
X0108375Y0184319D01*
X0108482Y0184409D01*
X0108591Y0184496D01*
X0108703Y0184581D01*
X0108817Y0184662D01*
X0108933Y0184740D01*
X0109051Y0184814D01*
X0109172Y0184885D01*
X0109294Y0184953D01*
X0109419Y0185017D01*
X0109545Y0185078D01*
X0109672Y0185135D01*
X0109802Y0185188D01*
X0109933Y0185238D01*
X0110065Y0185283D01*
X0110198Y0185326D01*
X0110333Y0185364D01*
X0110468Y0185398D01*
X0110605Y0185429D01*
X0110742Y0185456D01*
X0110880Y0185478D01*
X0111019Y0185497D01*
X0111158Y0185512D01*
X0111297Y0185523D01*
X0111437Y0185530D01*
X0111577Y0185533D01*
X0111717Y0185532D01*
X0111857Y0185527D01*
X0111996Y0185518D01*
X0112136Y0185505D01*
X0112275Y0185488D01*
X0112413Y0185467D01*
X0112551Y0185443D01*
X0112688Y0185414D01*
X0112824Y0185382D01*
X0112959Y0185345D01*
X0113093Y0185305D01*
X0113226Y0185261D01*
X0113357Y0185213D01*
X0113487Y0185162D01*
X0113616Y0185107D01*
X0113743Y0185048D01*
X0113868Y0184985D01*
X0113991Y0184920D01*
X0114113Y0184850D01*
X0114232Y0184777D01*
X0114350Y0184701D01*
X0114465Y0184622D01*
X0114578Y0184539D01*
X0114688Y0184453D01*
X0114796Y0184364D01*
X0114901Y0184272D01*
X0115004Y0184177D01*
X0115104Y0184079D01*
X0115201Y0183979D01*
X0115295Y0183875D01*
X0115387Y0183769D01*
X0115475Y0183661D01*
X0115560Y0183550D01*
X0115642Y0183436D01*
X0115721Y0183320D01*
X0115796Y0183203D01*
X0115868Y0183083D01*
X0115936Y0182961D01*
X0116001Y0182837D01*
X0116063Y0182711D01*
X0116121Y0182584D01*
X0116175Y0182455D01*
X0116226Y0182324D01*
X0116272Y0182192D01*
X0116315Y0182059D01*
X0116355Y0181925D01*
X0116390Y0181790D01*
X0116422Y0181653D01*
X0116449Y0181516D01*
X0116473Y0181378D01*
X0116493Y0181240D01*
X0116509Y0181101D01*
X0116521Y0180961D01*
X0116529Y0180822D01*
X0116533Y0180682D01*
X0116533Y0180542D01*
X0116529Y0180402D01*
X0116521Y0180263D01*
X0116509Y0180123D01*
X0116493Y0179984D01*
X0116473Y0179846D01*
X0116449Y0179708D01*
X0116422Y0179571D01*
X0116390Y0179434D01*
X0116355Y0179299D01*
X0116315Y0179165D01*
X0116272Y0179032D01*
X0116226Y0178900D01*
X0116175Y0178769D01*
X0116121Y0178640D01*
X0116063Y0178513D01*
X0116001Y0178387D01*
X0115936Y0178263D01*
X0115868Y0178141D01*
X0115796Y0178021D01*
X0115721Y0177904D01*
X0115642Y0177788D01*
X0115560Y0177674D01*
X0115475Y0177563D01*
X0115387Y0177455D01*
X0115295Y0177349D01*
X0115201Y0177245D01*
X0115104Y0177145D01*
X0115004Y0177047D01*
X0114901Y0176952D01*
X0114796Y0176860D01*
X0114688Y0176771D01*
X0114578Y0176685D01*
X0114465Y0176602D01*
X0114350Y0176523D01*
X0114232Y0176447D01*
X0114113Y0176374D01*
X0113991Y0176304D01*
X0113868Y0176239D01*
X0113743Y0176176D01*
X0113616Y0176117D01*
X0113487Y0176062D01*
X0113357Y0176011D01*
X0113226Y0175963D01*
X0113093Y0175919D01*
X0112959Y0175879D01*
X0112824Y0175842D01*
X0112688Y0175810D01*
X0112551Y0175781D01*
X0112413Y0175757D01*
X0112275Y0175736D01*
X0112136Y0175719D01*
X0111996Y0175706D01*
X0111857Y0175697D01*
X0111717Y0175692D01*
X0111577Y0175691D01*
X0111437Y0175694D01*
X0111297Y0175701D01*
X0111158Y0175712D01*
X0111019Y0175727D01*
X0110880Y0175746D01*
X0110742Y0175768D01*
X0110605Y0175795D01*
X0110468Y0175826D01*
X0110333Y0175860D01*
X0110198Y0175898D01*
X0110065Y0175941D01*
X0109933Y0175986D01*
X0109802Y0176036D01*
X0109672Y0176089D01*
X0109545Y0176146D01*
X0109419Y0176207D01*
X0109294Y0176271D01*
X0109172Y0176339D01*
X0109051Y0176410D01*
X0108933Y0176484D01*
X0108817Y0176562D01*
X0108703Y0176643D01*
X0108591Y0176728D01*
X0108482Y0176815D01*
X0108375Y0176905D01*
X0108271Y0176999D01*
X0108170Y0177095D01*
X0108071Y0177195D01*
X0107975Y0177297D01*
X0107883Y0177401D01*
X0107793Y0177509D01*
X0107706Y0177619D01*
X0107623Y0177731D01*
X0107542Y0177845D01*
X0107465Y0177962D01*
X0107392Y0178081D01*
X0107321Y0178202D01*
X0107255Y0178325D01*
X0107191Y0178450D01*
X0107132Y0178576D01*
X0107076Y0178705D01*
X0107023Y0178834D01*
X0106975Y0178965D01*
X0106930Y0179098D01*
X0106889Y0179232D01*
X0106851Y0179367D01*
X0106818Y0179502D01*
X0106788Y0179639D01*
X0106762Y0179777D01*
X0106741Y0179915D01*
X0106723Y0180054D01*
X0106709Y0180193D01*
X0106699Y0180332D01*
X0106693Y0180472D01*
X0106691Y0180612D01*
X0161809Y0093998D02*
X0161811Y0094138D01*
X0161817Y0094278D01*
X0161827Y0094417D01*
X0161841Y0094556D01*
X0161859Y0094695D01*
X0161880Y0094833D01*
X0161906Y0094971D01*
X0161936Y0095108D01*
X0161969Y0095243D01*
X0162007Y0095378D01*
X0162048Y0095512D01*
X0162093Y0095645D01*
X0162141Y0095776D01*
X0162194Y0095905D01*
X0162250Y0096034D01*
X0162309Y0096160D01*
X0162373Y0096285D01*
X0162439Y0096408D01*
X0162510Y0096529D01*
X0162583Y0096648D01*
X0162660Y0096765D01*
X0162741Y0096879D01*
X0162824Y0096991D01*
X0162911Y0097101D01*
X0163001Y0097209D01*
X0163093Y0097313D01*
X0163189Y0097415D01*
X0163288Y0097515D01*
X0163389Y0097611D01*
X0163493Y0097705D01*
X0163600Y0097795D01*
X0163709Y0097882D01*
X0163821Y0097967D01*
X0163935Y0098048D01*
X0164051Y0098126D01*
X0164169Y0098200D01*
X0164290Y0098271D01*
X0164412Y0098339D01*
X0164537Y0098403D01*
X0164663Y0098464D01*
X0164790Y0098521D01*
X0164920Y0098574D01*
X0165051Y0098624D01*
X0165183Y0098669D01*
X0165316Y0098712D01*
X0165451Y0098750D01*
X0165586Y0098784D01*
X0165723Y0098815D01*
X0165860Y0098842D01*
X0165998Y0098864D01*
X0166137Y0098883D01*
X0166276Y0098898D01*
X0166415Y0098909D01*
X0166555Y0098916D01*
X0166695Y0098919D01*
X0166835Y0098918D01*
X0166975Y0098913D01*
X0167114Y0098904D01*
X0167254Y0098891D01*
X0167393Y0098874D01*
X0167531Y0098853D01*
X0167669Y0098829D01*
X0167806Y0098800D01*
X0167942Y0098768D01*
X0168077Y0098731D01*
X0168211Y0098691D01*
X0168344Y0098647D01*
X0168475Y0098599D01*
X0168605Y0098548D01*
X0168734Y0098493D01*
X0168861Y0098434D01*
X0168986Y0098371D01*
X0169109Y0098306D01*
X0169231Y0098236D01*
X0169350Y0098163D01*
X0169468Y0098087D01*
X0169583Y0098008D01*
X0169696Y0097925D01*
X0169806Y0097839D01*
X0169914Y0097750D01*
X0170019Y0097658D01*
X0170122Y0097563D01*
X0170222Y0097465D01*
X0170319Y0097365D01*
X0170413Y0097261D01*
X0170505Y0097155D01*
X0170593Y0097047D01*
X0170678Y0096936D01*
X0170760Y0096822D01*
X0170839Y0096706D01*
X0170914Y0096589D01*
X0170986Y0096469D01*
X0171054Y0096347D01*
X0171119Y0096223D01*
X0171181Y0096097D01*
X0171239Y0095970D01*
X0171293Y0095841D01*
X0171344Y0095710D01*
X0171390Y0095578D01*
X0171433Y0095445D01*
X0171473Y0095311D01*
X0171508Y0095176D01*
X0171540Y0095039D01*
X0171567Y0094902D01*
X0171591Y0094764D01*
X0171611Y0094626D01*
X0171627Y0094487D01*
X0171639Y0094347D01*
X0171647Y0094208D01*
X0171651Y0094068D01*
X0171651Y0093928D01*
X0171647Y0093788D01*
X0171639Y0093649D01*
X0171627Y0093509D01*
X0171611Y0093370D01*
X0171591Y0093232D01*
X0171567Y0093094D01*
X0171540Y0092957D01*
X0171508Y0092820D01*
X0171473Y0092685D01*
X0171433Y0092551D01*
X0171390Y0092418D01*
X0171344Y0092286D01*
X0171293Y0092155D01*
X0171239Y0092026D01*
X0171181Y0091899D01*
X0171119Y0091773D01*
X0171054Y0091649D01*
X0170986Y0091527D01*
X0170914Y0091407D01*
X0170839Y0091290D01*
X0170760Y0091174D01*
X0170678Y0091060D01*
X0170593Y0090949D01*
X0170505Y0090841D01*
X0170413Y0090735D01*
X0170319Y0090631D01*
X0170222Y0090531D01*
X0170122Y0090433D01*
X0170019Y0090338D01*
X0169914Y0090246D01*
X0169806Y0090157D01*
X0169696Y0090071D01*
X0169583Y0089988D01*
X0169468Y0089909D01*
X0169350Y0089833D01*
X0169231Y0089760D01*
X0169109Y0089690D01*
X0168986Y0089625D01*
X0168861Y0089562D01*
X0168734Y0089503D01*
X0168605Y0089448D01*
X0168475Y0089397D01*
X0168344Y0089349D01*
X0168211Y0089305D01*
X0168077Y0089265D01*
X0167942Y0089228D01*
X0167806Y0089196D01*
X0167669Y0089167D01*
X0167531Y0089143D01*
X0167393Y0089122D01*
X0167254Y0089105D01*
X0167114Y0089092D01*
X0166975Y0089083D01*
X0166835Y0089078D01*
X0166695Y0089077D01*
X0166555Y0089080D01*
X0166415Y0089087D01*
X0166276Y0089098D01*
X0166137Y0089113D01*
X0165998Y0089132D01*
X0165860Y0089154D01*
X0165723Y0089181D01*
X0165586Y0089212D01*
X0165451Y0089246D01*
X0165316Y0089284D01*
X0165183Y0089327D01*
X0165051Y0089372D01*
X0164920Y0089422D01*
X0164790Y0089475D01*
X0164663Y0089532D01*
X0164537Y0089593D01*
X0164412Y0089657D01*
X0164290Y0089725D01*
X0164169Y0089796D01*
X0164051Y0089870D01*
X0163935Y0089948D01*
X0163821Y0090029D01*
X0163709Y0090114D01*
X0163600Y0090201D01*
X0163493Y0090291D01*
X0163389Y0090385D01*
X0163288Y0090481D01*
X0163189Y0090581D01*
X0163093Y0090683D01*
X0163001Y0090787D01*
X0162911Y0090895D01*
X0162824Y0091005D01*
X0162741Y0091117D01*
X0162660Y0091231D01*
X0162583Y0091348D01*
X0162510Y0091467D01*
X0162439Y0091588D01*
X0162373Y0091711D01*
X0162309Y0091836D01*
X0162250Y0091962D01*
X0162194Y0092091D01*
X0162141Y0092220D01*
X0162093Y0092351D01*
X0162048Y0092484D01*
X0162007Y0092618D01*
X0161969Y0092753D01*
X0161936Y0092888D01*
X0161906Y0093025D01*
X0161880Y0093163D01*
X0161859Y0093301D01*
X0161841Y0093440D01*
X0161827Y0093579D01*
X0161817Y0093718D01*
X0161811Y0093858D01*
X0161809Y0093998D01*
D12*
X0163350Y0061750D02*
X0171150Y0061750D01*
X0173150Y0059750D02*
X0173148Y0059663D01*
X0173142Y0059576D01*
X0173133Y0059489D01*
X0173120Y0059403D01*
X0173103Y0059317D01*
X0173082Y0059232D01*
X0173057Y0059149D01*
X0173029Y0059066D01*
X0172998Y0058985D01*
X0172963Y0058905D01*
X0172924Y0058827D01*
X0172882Y0058750D01*
X0172837Y0058675D01*
X0172788Y0058603D01*
X0172737Y0058532D01*
X0172682Y0058464D01*
X0172625Y0058399D01*
X0172564Y0058336D01*
X0172501Y0058275D01*
X0172436Y0058218D01*
X0172368Y0058163D01*
X0172297Y0058112D01*
X0172225Y0058063D01*
X0172150Y0058018D01*
X0172073Y0057976D01*
X0171995Y0057937D01*
X0171915Y0057902D01*
X0171834Y0057871D01*
X0171751Y0057843D01*
X0171668Y0057818D01*
X0171583Y0057797D01*
X0171497Y0057780D01*
X0171411Y0057767D01*
X0171324Y0057758D01*
X0171237Y0057752D01*
X0171150Y0057750D01*
X0163350Y0057750D01*
X0161350Y0059750D02*
X0161352Y0059837D01*
X0161358Y0059924D01*
X0161367Y0060011D01*
X0161380Y0060097D01*
X0161397Y0060183D01*
X0161418Y0060268D01*
X0161443Y0060351D01*
X0161471Y0060434D01*
X0161502Y0060515D01*
X0161537Y0060595D01*
X0161576Y0060673D01*
X0161618Y0060750D01*
X0161663Y0060825D01*
X0161712Y0060897D01*
X0161763Y0060968D01*
X0161818Y0061036D01*
X0161875Y0061101D01*
X0161936Y0061164D01*
X0161999Y0061225D01*
X0162064Y0061282D01*
X0162132Y0061337D01*
X0162203Y0061388D01*
X0162275Y0061437D01*
X0162350Y0061482D01*
X0162427Y0061524D01*
X0162505Y0061563D01*
X0162585Y0061598D01*
X0162666Y0061629D01*
X0162749Y0061657D01*
X0162832Y0061682D01*
X0162917Y0061703D01*
X0163003Y0061720D01*
X0163089Y0061733D01*
X0163176Y0061742D01*
X0163263Y0061748D01*
X0163350Y0061750D01*
X0161350Y0059750D02*
X0161352Y0059663D01*
X0161358Y0059576D01*
X0161367Y0059489D01*
X0161380Y0059403D01*
X0161397Y0059317D01*
X0161418Y0059232D01*
X0161443Y0059149D01*
X0161471Y0059066D01*
X0161502Y0058985D01*
X0161537Y0058905D01*
X0161576Y0058827D01*
X0161618Y0058750D01*
X0161663Y0058675D01*
X0161712Y0058603D01*
X0161763Y0058532D01*
X0161818Y0058464D01*
X0161875Y0058399D01*
X0161936Y0058336D01*
X0161999Y0058275D01*
X0162064Y0058218D01*
X0162132Y0058163D01*
X0162203Y0058112D01*
X0162275Y0058063D01*
X0162350Y0058018D01*
X0162427Y0057976D01*
X0162505Y0057937D01*
X0162585Y0057902D01*
X0162666Y0057871D01*
X0162749Y0057843D01*
X0162832Y0057818D01*
X0162917Y0057797D01*
X0163003Y0057780D01*
X0163089Y0057767D01*
X0163176Y0057758D01*
X0163263Y0057752D01*
X0163350Y0057750D01*
X0171150Y0061750D02*
X0171237Y0061748D01*
X0171324Y0061742D01*
X0171411Y0061733D01*
X0171497Y0061720D01*
X0171583Y0061703D01*
X0171668Y0061682D01*
X0171751Y0061657D01*
X0171834Y0061629D01*
X0171915Y0061598D01*
X0171995Y0061563D01*
X0172073Y0061524D01*
X0172150Y0061482D01*
X0172225Y0061437D01*
X0172297Y0061388D01*
X0172368Y0061337D01*
X0172436Y0061282D01*
X0172501Y0061225D01*
X0172564Y0061164D01*
X0172625Y0061101D01*
X0172682Y0061036D01*
X0172737Y0060968D01*
X0172788Y0060897D01*
X0172837Y0060825D01*
X0172882Y0060750D01*
X0172924Y0060673D01*
X0172963Y0060595D01*
X0172998Y0060515D01*
X0173029Y0060434D01*
X0173057Y0060351D01*
X0173082Y0060268D01*
X0173103Y0060183D01*
X0173120Y0060097D01*
X0173133Y0060011D01*
X0173142Y0059924D01*
X0173148Y0059837D01*
X0173150Y0059750D01*
X0182250Y0059750D02*
X0182252Y0059837D01*
X0182258Y0059924D01*
X0182267Y0060011D01*
X0182280Y0060097D01*
X0182297Y0060183D01*
X0182318Y0060268D01*
X0182343Y0060351D01*
X0182371Y0060434D01*
X0182402Y0060515D01*
X0182437Y0060595D01*
X0182476Y0060673D01*
X0182518Y0060750D01*
X0182563Y0060825D01*
X0182612Y0060897D01*
X0182663Y0060968D01*
X0182718Y0061036D01*
X0182775Y0061101D01*
X0182836Y0061164D01*
X0182899Y0061225D01*
X0182964Y0061282D01*
X0183032Y0061337D01*
X0183103Y0061388D01*
X0183175Y0061437D01*
X0183250Y0061482D01*
X0183327Y0061524D01*
X0183405Y0061563D01*
X0183485Y0061598D01*
X0183566Y0061629D01*
X0183649Y0061657D01*
X0183732Y0061682D01*
X0183817Y0061703D01*
X0183903Y0061720D01*
X0183989Y0061733D01*
X0184076Y0061742D01*
X0184163Y0061748D01*
X0184250Y0061750D01*
X0192050Y0061750D01*
X0194050Y0059750D02*
X0194048Y0059663D01*
X0194042Y0059576D01*
X0194033Y0059489D01*
X0194020Y0059403D01*
X0194003Y0059317D01*
X0193982Y0059232D01*
X0193957Y0059149D01*
X0193929Y0059066D01*
X0193898Y0058985D01*
X0193863Y0058905D01*
X0193824Y0058827D01*
X0193782Y0058750D01*
X0193737Y0058675D01*
X0193688Y0058603D01*
X0193637Y0058532D01*
X0193582Y0058464D01*
X0193525Y0058399D01*
X0193464Y0058336D01*
X0193401Y0058275D01*
X0193336Y0058218D01*
X0193268Y0058163D01*
X0193197Y0058112D01*
X0193125Y0058063D01*
X0193050Y0058018D01*
X0192973Y0057976D01*
X0192895Y0057937D01*
X0192815Y0057902D01*
X0192734Y0057871D01*
X0192651Y0057843D01*
X0192568Y0057818D01*
X0192483Y0057797D01*
X0192397Y0057780D01*
X0192311Y0057767D01*
X0192224Y0057758D01*
X0192137Y0057752D01*
X0192050Y0057750D01*
X0184250Y0057750D01*
X0184163Y0057752D01*
X0184076Y0057758D01*
X0183989Y0057767D01*
X0183903Y0057780D01*
X0183817Y0057797D01*
X0183732Y0057818D01*
X0183649Y0057843D01*
X0183566Y0057871D01*
X0183485Y0057902D01*
X0183405Y0057937D01*
X0183327Y0057976D01*
X0183250Y0058018D01*
X0183175Y0058063D01*
X0183103Y0058112D01*
X0183032Y0058163D01*
X0182964Y0058218D01*
X0182899Y0058275D01*
X0182836Y0058336D01*
X0182775Y0058399D01*
X0182718Y0058464D01*
X0182663Y0058532D01*
X0182612Y0058603D01*
X0182563Y0058675D01*
X0182518Y0058750D01*
X0182476Y0058827D01*
X0182437Y0058905D01*
X0182402Y0058985D01*
X0182371Y0059066D01*
X0182343Y0059149D01*
X0182318Y0059232D01*
X0182297Y0059317D01*
X0182280Y0059403D01*
X0182267Y0059489D01*
X0182258Y0059576D01*
X0182252Y0059663D01*
X0182250Y0059750D01*
X0192050Y0061750D02*
X0192137Y0061748D01*
X0192224Y0061742D01*
X0192311Y0061733D01*
X0192397Y0061720D01*
X0192483Y0061703D01*
X0192568Y0061682D01*
X0192651Y0061657D01*
X0192734Y0061629D01*
X0192815Y0061598D01*
X0192895Y0061563D01*
X0192973Y0061524D01*
X0193050Y0061482D01*
X0193125Y0061437D01*
X0193197Y0061388D01*
X0193268Y0061337D01*
X0193336Y0061282D01*
X0193401Y0061225D01*
X0193464Y0061164D01*
X0193525Y0061101D01*
X0193582Y0061036D01*
X0193637Y0060968D01*
X0193688Y0060897D01*
X0193737Y0060825D01*
X0193782Y0060750D01*
X0193824Y0060673D01*
X0193863Y0060595D01*
X0193898Y0060515D01*
X0193929Y0060434D01*
X0193957Y0060351D01*
X0193982Y0060268D01*
X0194003Y0060183D01*
X0194020Y0060097D01*
X0194033Y0060011D01*
X0194042Y0059924D01*
X0194048Y0059837D01*
X0194050Y0059750D01*
X0192050Y0043250D02*
X0184250Y0043250D01*
X0184163Y0043248D01*
X0184076Y0043242D01*
X0183989Y0043233D01*
X0183903Y0043220D01*
X0183817Y0043203D01*
X0183732Y0043182D01*
X0183649Y0043157D01*
X0183566Y0043129D01*
X0183485Y0043098D01*
X0183405Y0043063D01*
X0183327Y0043024D01*
X0183250Y0042982D01*
X0183175Y0042937D01*
X0183103Y0042888D01*
X0183032Y0042837D01*
X0182964Y0042782D01*
X0182899Y0042725D01*
X0182836Y0042664D01*
X0182775Y0042601D01*
X0182718Y0042536D01*
X0182663Y0042468D01*
X0182612Y0042397D01*
X0182563Y0042325D01*
X0182518Y0042250D01*
X0182476Y0042173D01*
X0182437Y0042095D01*
X0182402Y0042015D01*
X0182371Y0041934D01*
X0182343Y0041851D01*
X0182318Y0041768D01*
X0182297Y0041683D01*
X0182280Y0041597D01*
X0182267Y0041511D01*
X0182258Y0041424D01*
X0182252Y0041337D01*
X0182250Y0041250D01*
X0182252Y0041163D01*
X0182258Y0041076D01*
X0182267Y0040989D01*
X0182280Y0040903D01*
X0182297Y0040817D01*
X0182318Y0040732D01*
X0182343Y0040649D01*
X0182371Y0040566D01*
X0182402Y0040485D01*
X0182437Y0040405D01*
X0182476Y0040327D01*
X0182518Y0040250D01*
X0182563Y0040175D01*
X0182612Y0040103D01*
X0182663Y0040032D01*
X0182718Y0039964D01*
X0182775Y0039899D01*
X0182836Y0039836D01*
X0182899Y0039775D01*
X0182964Y0039718D01*
X0183032Y0039663D01*
X0183103Y0039612D01*
X0183175Y0039563D01*
X0183250Y0039518D01*
X0183327Y0039476D01*
X0183405Y0039437D01*
X0183485Y0039402D01*
X0183566Y0039371D01*
X0183649Y0039343D01*
X0183732Y0039318D01*
X0183817Y0039297D01*
X0183903Y0039280D01*
X0183989Y0039267D01*
X0184076Y0039258D01*
X0184163Y0039252D01*
X0184250Y0039250D01*
X0192050Y0039250D01*
X0192137Y0039252D01*
X0192224Y0039258D01*
X0192311Y0039267D01*
X0192397Y0039280D01*
X0192483Y0039297D01*
X0192568Y0039318D01*
X0192651Y0039343D01*
X0192734Y0039371D01*
X0192815Y0039402D01*
X0192895Y0039437D01*
X0192973Y0039476D01*
X0193050Y0039518D01*
X0193125Y0039563D01*
X0193197Y0039612D01*
X0193268Y0039663D01*
X0193336Y0039718D01*
X0193401Y0039775D01*
X0193464Y0039836D01*
X0193525Y0039899D01*
X0193582Y0039964D01*
X0193637Y0040032D01*
X0193688Y0040103D01*
X0193737Y0040175D01*
X0193782Y0040250D01*
X0193824Y0040327D01*
X0193863Y0040405D01*
X0193898Y0040485D01*
X0193929Y0040566D01*
X0193957Y0040649D01*
X0193982Y0040732D01*
X0194003Y0040817D01*
X0194020Y0040903D01*
X0194033Y0040989D01*
X0194042Y0041076D01*
X0194048Y0041163D01*
X0194050Y0041250D01*
X0194048Y0041337D01*
X0194042Y0041424D01*
X0194033Y0041511D01*
X0194020Y0041597D01*
X0194003Y0041683D01*
X0193982Y0041768D01*
X0193957Y0041851D01*
X0193929Y0041934D01*
X0193898Y0042015D01*
X0193863Y0042095D01*
X0193824Y0042173D01*
X0193782Y0042250D01*
X0193737Y0042325D01*
X0193688Y0042397D01*
X0193637Y0042468D01*
X0193582Y0042536D01*
X0193525Y0042601D01*
X0193464Y0042664D01*
X0193401Y0042725D01*
X0193336Y0042782D01*
X0193268Y0042837D01*
X0193197Y0042888D01*
X0193125Y0042937D01*
X0193050Y0042982D01*
X0192973Y0043024D01*
X0192895Y0043063D01*
X0192815Y0043098D01*
X0192734Y0043129D01*
X0192651Y0043157D01*
X0192568Y0043182D01*
X0192483Y0043203D01*
X0192397Y0043220D01*
X0192311Y0043233D01*
X0192224Y0043242D01*
X0192137Y0043248D01*
X0192050Y0043250D01*
X0192050Y0024750D02*
X0184250Y0024750D01*
X0184163Y0024748D01*
X0184076Y0024742D01*
X0183989Y0024733D01*
X0183903Y0024720D01*
X0183817Y0024703D01*
X0183732Y0024682D01*
X0183649Y0024657D01*
X0183566Y0024629D01*
X0183485Y0024598D01*
X0183405Y0024563D01*
X0183327Y0024524D01*
X0183250Y0024482D01*
X0183175Y0024437D01*
X0183103Y0024388D01*
X0183032Y0024337D01*
X0182964Y0024282D01*
X0182899Y0024225D01*
X0182836Y0024164D01*
X0182775Y0024101D01*
X0182718Y0024036D01*
X0182663Y0023968D01*
X0182612Y0023897D01*
X0182563Y0023825D01*
X0182518Y0023750D01*
X0182476Y0023673D01*
X0182437Y0023595D01*
X0182402Y0023515D01*
X0182371Y0023434D01*
X0182343Y0023351D01*
X0182318Y0023268D01*
X0182297Y0023183D01*
X0182280Y0023097D01*
X0182267Y0023011D01*
X0182258Y0022924D01*
X0182252Y0022837D01*
X0182250Y0022750D01*
X0182252Y0022663D01*
X0182258Y0022576D01*
X0182267Y0022489D01*
X0182280Y0022403D01*
X0182297Y0022317D01*
X0182318Y0022232D01*
X0182343Y0022149D01*
X0182371Y0022066D01*
X0182402Y0021985D01*
X0182437Y0021905D01*
X0182476Y0021827D01*
X0182518Y0021750D01*
X0182563Y0021675D01*
X0182612Y0021603D01*
X0182663Y0021532D01*
X0182718Y0021464D01*
X0182775Y0021399D01*
X0182836Y0021336D01*
X0182899Y0021275D01*
X0182964Y0021218D01*
X0183032Y0021163D01*
X0183103Y0021112D01*
X0183175Y0021063D01*
X0183250Y0021018D01*
X0183327Y0020976D01*
X0183405Y0020937D01*
X0183485Y0020902D01*
X0183566Y0020871D01*
X0183649Y0020843D01*
X0183732Y0020818D01*
X0183817Y0020797D01*
X0183903Y0020780D01*
X0183989Y0020767D01*
X0184076Y0020758D01*
X0184163Y0020752D01*
X0184250Y0020750D01*
X0192050Y0020750D01*
X0192137Y0020752D01*
X0192224Y0020758D01*
X0192311Y0020767D01*
X0192397Y0020780D01*
X0192483Y0020797D01*
X0192568Y0020818D01*
X0192651Y0020843D01*
X0192734Y0020871D01*
X0192815Y0020902D01*
X0192895Y0020937D01*
X0192973Y0020976D01*
X0193050Y0021018D01*
X0193125Y0021063D01*
X0193197Y0021112D01*
X0193268Y0021163D01*
X0193336Y0021218D01*
X0193401Y0021275D01*
X0193464Y0021336D01*
X0193525Y0021399D01*
X0193582Y0021464D01*
X0193637Y0021532D01*
X0193688Y0021603D01*
X0193737Y0021675D01*
X0193782Y0021750D01*
X0193824Y0021827D01*
X0193863Y0021905D01*
X0193898Y0021985D01*
X0193929Y0022066D01*
X0193957Y0022149D01*
X0193982Y0022232D01*
X0194003Y0022317D01*
X0194020Y0022403D01*
X0194033Y0022489D01*
X0194042Y0022576D01*
X0194048Y0022663D01*
X0194050Y0022750D01*
X0194048Y0022837D01*
X0194042Y0022924D01*
X0194033Y0023011D01*
X0194020Y0023097D01*
X0194003Y0023183D01*
X0193982Y0023268D01*
X0193957Y0023351D01*
X0193929Y0023434D01*
X0193898Y0023515D01*
X0193863Y0023595D01*
X0193824Y0023673D01*
X0193782Y0023750D01*
X0193737Y0023825D01*
X0193688Y0023897D01*
X0193637Y0023968D01*
X0193582Y0024036D01*
X0193525Y0024101D01*
X0193464Y0024164D01*
X0193401Y0024225D01*
X0193336Y0024282D01*
X0193268Y0024337D01*
X0193197Y0024388D01*
X0193125Y0024437D01*
X0193050Y0024482D01*
X0192973Y0024524D01*
X0192895Y0024563D01*
X0192815Y0024598D01*
X0192734Y0024629D01*
X0192651Y0024657D01*
X0192568Y0024682D01*
X0192483Y0024703D01*
X0192397Y0024720D01*
X0192311Y0024733D01*
X0192224Y0024742D01*
X0192137Y0024748D01*
X0192050Y0024750D01*
X0171150Y0024750D02*
X0163350Y0024750D01*
X0163263Y0024748D01*
X0163176Y0024742D01*
X0163089Y0024733D01*
X0163003Y0024720D01*
X0162917Y0024703D01*
X0162832Y0024682D01*
X0162749Y0024657D01*
X0162666Y0024629D01*
X0162585Y0024598D01*
X0162505Y0024563D01*
X0162427Y0024524D01*
X0162350Y0024482D01*
X0162275Y0024437D01*
X0162203Y0024388D01*
X0162132Y0024337D01*
X0162064Y0024282D01*
X0161999Y0024225D01*
X0161936Y0024164D01*
X0161875Y0024101D01*
X0161818Y0024036D01*
X0161763Y0023968D01*
X0161712Y0023897D01*
X0161663Y0023825D01*
X0161618Y0023750D01*
X0161576Y0023673D01*
X0161537Y0023595D01*
X0161502Y0023515D01*
X0161471Y0023434D01*
X0161443Y0023351D01*
X0161418Y0023268D01*
X0161397Y0023183D01*
X0161380Y0023097D01*
X0161367Y0023011D01*
X0161358Y0022924D01*
X0161352Y0022837D01*
X0161350Y0022750D01*
X0161352Y0022663D01*
X0161358Y0022576D01*
X0161367Y0022489D01*
X0161380Y0022403D01*
X0161397Y0022317D01*
X0161418Y0022232D01*
X0161443Y0022149D01*
X0161471Y0022066D01*
X0161502Y0021985D01*
X0161537Y0021905D01*
X0161576Y0021827D01*
X0161618Y0021750D01*
X0161663Y0021675D01*
X0161712Y0021603D01*
X0161763Y0021532D01*
X0161818Y0021464D01*
X0161875Y0021399D01*
X0161936Y0021336D01*
X0161999Y0021275D01*
X0162064Y0021218D01*
X0162132Y0021163D01*
X0162203Y0021112D01*
X0162275Y0021063D01*
X0162350Y0021018D01*
X0162427Y0020976D01*
X0162505Y0020937D01*
X0162585Y0020902D01*
X0162666Y0020871D01*
X0162749Y0020843D01*
X0162832Y0020818D01*
X0162917Y0020797D01*
X0163003Y0020780D01*
X0163089Y0020767D01*
X0163176Y0020758D01*
X0163263Y0020752D01*
X0163350Y0020750D01*
X0171150Y0020750D01*
X0171237Y0020752D01*
X0171324Y0020758D01*
X0171411Y0020767D01*
X0171497Y0020780D01*
X0171583Y0020797D01*
X0171668Y0020818D01*
X0171751Y0020843D01*
X0171834Y0020871D01*
X0171915Y0020902D01*
X0171995Y0020937D01*
X0172073Y0020976D01*
X0172150Y0021018D01*
X0172225Y0021063D01*
X0172297Y0021112D01*
X0172368Y0021163D01*
X0172436Y0021218D01*
X0172501Y0021275D01*
X0172564Y0021336D01*
X0172625Y0021399D01*
X0172682Y0021464D01*
X0172737Y0021532D01*
X0172788Y0021603D01*
X0172837Y0021675D01*
X0172882Y0021750D01*
X0172924Y0021827D01*
X0172963Y0021905D01*
X0172998Y0021985D01*
X0173029Y0022066D01*
X0173057Y0022149D01*
X0173082Y0022232D01*
X0173103Y0022317D01*
X0173120Y0022403D01*
X0173133Y0022489D01*
X0173142Y0022576D01*
X0173148Y0022663D01*
X0173150Y0022750D01*
X0173148Y0022837D01*
X0173142Y0022924D01*
X0173133Y0023011D01*
X0173120Y0023097D01*
X0173103Y0023183D01*
X0173082Y0023268D01*
X0173057Y0023351D01*
X0173029Y0023434D01*
X0172998Y0023515D01*
X0172963Y0023595D01*
X0172924Y0023673D01*
X0172882Y0023750D01*
X0172837Y0023825D01*
X0172788Y0023897D01*
X0172737Y0023968D01*
X0172682Y0024036D01*
X0172625Y0024101D01*
X0172564Y0024164D01*
X0172501Y0024225D01*
X0172436Y0024282D01*
X0172368Y0024337D01*
X0172297Y0024388D01*
X0172225Y0024437D01*
X0172150Y0024482D01*
X0172073Y0024524D01*
X0171995Y0024563D01*
X0171915Y0024598D01*
X0171834Y0024629D01*
X0171751Y0024657D01*
X0171668Y0024682D01*
X0171583Y0024703D01*
X0171497Y0024720D01*
X0171411Y0024733D01*
X0171324Y0024742D01*
X0171237Y0024748D01*
X0171150Y0024750D01*
X0171150Y0039250D02*
X0163350Y0039250D01*
X0161350Y0041250D02*
X0161352Y0041337D01*
X0161358Y0041424D01*
X0161367Y0041511D01*
X0161380Y0041597D01*
X0161397Y0041683D01*
X0161418Y0041768D01*
X0161443Y0041851D01*
X0161471Y0041934D01*
X0161502Y0042015D01*
X0161537Y0042095D01*
X0161576Y0042173D01*
X0161618Y0042250D01*
X0161663Y0042325D01*
X0161712Y0042397D01*
X0161763Y0042468D01*
X0161818Y0042536D01*
X0161875Y0042601D01*
X0161936Y0042664D01*
X0161999Y0042725D01*
X0162064Y0042782D01*
X0162132Y0042837D01*
X0162203Y0042888D01*
X0162275Y0042937D01*
X0162350Y0042982D01*
X0162427Y0043024D01*
X0162505Y0043063D01*
X0162585Y0043098D01*
X0162666Y0043129D01*
X0162749Y0043157D01*
X0162832Y0043182D01*
X0162917Y0043203D01*
X0163003Y0043220D01*
X0163089Y0043233D01*
X0163176Y0043242D01*
X0163263Y0043248D01*
X0163350Y0043250D01*
X0171150Y0043250D01*
X0173150Y0041250D02*
X0173148Y0041163D01*
X0173142Y0041076D01*
X0173133Y0040989D01*
X0173120Y0040903D01*
X0173103Y0040817D01*
X0173082Y0040732D01*
X0173057Y0040649D01*
X0173029Y0040566D01*
X0172998Y0040485D01*
X0172963Y0040405D01*
X0172924Y0040327D01*
X0172882Y0040250D01*
X0172837Y0040175D01*
X0172788Y0040103D01*
X0172737Y0040032D01*
X0172682Y0039964D01*
X0172625Y0039899D01*
X0172564Y0039836D01*
X0172501Y0039775D01*
X0172436Y0039718D01*
X0172368Y0039663D01*
X0172297Y0039612D01*
X0172225Y0039563D01*
X0172150Y0039518D01*
X0172073Y0039476D01*
X0171995Y0039437D01*
X0171915Y0039402D01*
X0171834Y0039371D01*
X0171751Y0039343D01*
X0171668Y0039318D01*
X0171583Y0039297D01*
X0171497Y0039280D01*
X0171411Y0039267D01*
X0171324Y0039258D01*
X0171237Y0039252D01*
X0171150Y0039250D01*
X0173150Y0041250D02*
X0173148Y0041337D01*
X0173142Y0041424D01*
X0173133Y0041511D01*
X0173120Y0041597D01*
X0173103Y0041683D01*
X0173082Y0041768D01*
X0173057Y0041851D01*
X0173029Y0041934D01*
X0172998Y0042015D01*
X0172963Y0042095D01*
X0172924Y0042173D01*
X0172882Y0042250D01*
X0172837Y0042325D01*
X0172788Y0042397D01*
X0172737Y0042468D01*
X0172682Y0042536D01*
X0172625Y0042601D01*
X0172564Y0042664D01*
X0172501Y0042725D01*
X0172436Y0042782D01*
X0172368Y0042837D01*
X0172297Y0042888D01*
X0172225Y0042937D01*
X0172150Y0042982D01*
X0172073Y0043024D01*
X0171995Y0043063D01*
X0171915Y0043098D01*
X0171834Y0043129D01*
X0171751Y0043157D01*
X0171668Y0043182D01*
X0171583Y0043203D01*
X0171497Y0043220D01*
X0171411Y0043233D01*
X0171324Y0043242D01*
X0171237Y0043248D01*
X0171150Y0043250D01*
X0163350Y0039250D02*
X0163263Y0039252D01*
X0163176Y0039258D01*
X0163089Y0039267D01*
X0163003Y0039280D01*
X0162917Y0039297D01*
X0162832Y0039318D01*
X0162749Y0039343D01*
X0162666Y0039371D01*
X0162585Y0039402D01*
X0162505Y0039437D01*
X0162427Y0039476D01*
X0162350Y0039518D01*
X0162275Y0039563D01*
X0162203Y0039612D01*
X0162132Y0039663D01*
X0162064Y0039718D01*
X0161999Y0039775D01*
X0161936Y0039836D01*
X0161875Y0039899D01*
X0161818Y0039964D01*
X0161763Y0040032D01*
X0161712Y0040103D01*
X0161663Y0040175D01*
X0161618Y0040250D01*
X0161576Y0040327D01*
X0161537Y0040405D01*
X0161502Y0040485D01*
X0161471Y0040566D01*
X0161443Y0040649D01*
X0161418Y0040732D01*
X0161397Y0040817D01*
X0161380Y0040903D01*
X0161367Y0040989D01*
X0161358Y0041076D01*
X0161352Y0041163D01*
X0161350Y0041250D01*
X0152250Y0041250D02*
X0152248Y0041163D01*
X0152242Y0041076D01*
X0152233Y0040989D01*
X0152220Y0040903D01*
X0152203Y0040817D01*
X0152182Y0040732D01*
X0152157Y0040649D01*
X0152129Y0040566D01*
X0152098Y0040485D01*
X0152063Y0040405D01*
X0152024Y0040327D01*
X0151982Y0040250D01*
X0151937Y0040175D01*
X0151888Y0040103D01*
X0151837Y0040032D01*
X0151782Y0039964D01*
X0151725Y0039899D01*
X0151664Y0039836D01*
X0151601Y0039775D01*
X0151536Y0039718D01*
X0151468Y0039663D01*
X0151397Y0039612D01*
X0151325Y0039563D01*
X0151250Y0039518D01*
X0151173Y0039476D01*
X0151095Y0039437D01*
X0151015Y0039402D01*
X0150934Y0039371D01*
X0150851Y0039343D01*
X0150768Y0039318D01*
X0150683Y0039297D01*
X0150597Y0039280D01*
X0150511Y0039267D01*
X0150424Y0039258D01*
X0150337Y0039252D01*
X0150250Y0039250D01*
X0142450Y0039250D01*
X0140450Y0041250D02*
X0140452Y0041337D01*
X0140458Y0041424D01*
X0140467Y0041511D01*
X0140480Y0041597D01*
X0140497Y0041683D01*
X0140518Y0041768D01*
X0140543Y0041851D01*
X0140571Y0041934D01*
X0140602Y0042015D01*
X0140637Y0042095D01*
X0140676Y0042173D01*
X0140718Y0042250D01*
X0140763Y0042325D01*
X0140812Y0042397D01*
X0140863Y0042468D01*
X0140918Y0042536D01*
X0140975Y0042601D01*
X0141036Y0042664D01*
X0141099Y0042725D01*
X0141164Y0042782D01*
X0141232Y0042837D01*
X0141303Y0042888D01*
X0141375Y0042937D01*
X0141450Y0042982D01*
X0141527Y0043024D01*
X0141605Y0043063D01*
X0141685Y0043098D01*
X0141766Y0043129D01*
X0141849Y0043157D01*
X0141932Y0043182D01*
X0142017Y0043203D01*
X0142103Y0043220D01*
X0142189Y0043233D01*
X0142276Y0043242D01*
X0142363Y0043248D01*
X0142450Y0043250D01*
X0150250Y0043250D01*
X0150337Y0043248D01*
X0150424Y0043242D01*
X0150511Y0043233D01*
X0150597Y0043220D01*
X0150683Y0043203D01*
X0150768Y0043182D01*
X0150851Y0043157D01*
X0150934Y0043129D01*
X0151015Y0043098D01*
X0151095Y0043063D01*
X0151173Y0043024D01*
X0151250Y0042982D01*
X0151325Y0042937D01*
X0151397Y0042888D01*
X0151468Y0042837D01*
X0151536Y0042782D01*
X0151601Y0042725D01*
X0151664Y0042664D01*
X0151725Y0042601D01*
X0151782Y0042536D01*
X0151837Y0042468D01*
X0151888Y0042397D01*
X0151937Y0042325D01*
X0151982Y0042250D01*
X0152024Y0042173D01*
X0152063Y0042095D01*
X0152098Y0042015D01*
X0152129Y0041934D01*
X0152157Y0041851D01*
X0152182Y0041768D01*
X0152203Y0041683D01*
X0152220Y0041597D01*
X0152233Y0041511D01*
X0152242Y0041424D01*
X0152248Y0041337D01*
X0152250Y0041250D01*
X0142450Y0039250D02*
X0142363Y0039252D01*
X0142276Y0039258D01*
X0142189Y0039267D01*
X0142103Y0039280D01*
X0142017Y0039297D01*
X0141932Y0039318D01*
X0141849Y0039343D01*
X0141766Y0039371D01*
X0141685Y0039402D01*
X0141605Y0039437D01*
X0141527Y0039476D01*
X0141450Y0039518D01*
X0141375Y0039563D01*
X0141303Y0039612D01*
X0141232Y0039663D01*
X0141164Y0039718D01*
X0141099Y0039775D01*
X0141036Y0039836D01*
X0140975Y0039899D01*
X0140918Y0039964D01*
X0140863Y0040032D01*
X0140812Y0040103D01*
X0140763Y0040175D01*
X0140718Y0040250D01*
X0140676Y0040327D01*
X0140637Y0040405D01*
X0140602Y0040485D01*
X0140571Y0040566D01*
X0140543Y0040649D01*
X0140518Y0040732D01*
X0140497Y0040817D01*
X0140480Y0040903D01*
X0140467Y0040989D01*
X0140458Y0041076D01*
X0140452Y0041163D01*
X0140450Y0041250D01*
X0142450Y0024750D02*
X0150250Y0024750D01*
X0152250Y0022750D02*
X0152248Y0022663D01*
X0152242Y0022576D01*
X0152233Y0022489D01*
X0152220Y0022403D01*
X0152203Y0022317D01*
X0152182Y0022232D01*
X0152157Y0022149D01*
X0152129Y0022066D01*
X0152098Y0021985D01*
X0152063Y0021905D01*
X0152024Y0021827D01*
X0151982Y0021750D01*
X0151937Y0021675D01*
X0151888Y0021603D01*
X0151837Y0021532D01*
X0151782Y0021464D01*
X0151725Y0021399D01*
X0151664Y0021336D01*
X0151601Y0021275D01*
X0151536Y0021218D01*
X0151468Y0021163D01*
X0151397Y0021112D01*
X0151325Y0021063D01*
X0151250Y0021018D01*
X0151173Y0020976D01*
X0151095Y0020937D01*
X0151015Y0020902D01*
X0150934Y0020871D01*
X0150851Y0020843D01*
X0150768Y0020818D01*
X0150683Y0020797D01*
X0150597Y0020780D01*
X0150511Y0020767D01*
X0150424Y0020758D01*
X0150337Y0020752D01*
X0150250Y0020750D01*
X0142450Y0020750D01*
X0140450Y0022750D02*
X0140452Y0022837D01*
X0140458Y0022924D01*
X0140467Y0023011D01*
X0140480Y0023097D01*
X0140497Y0023183D01*
X0140518Y0023268D01*
X0140543Y0023351D01*
X0140571Y0023434D01*
X0140602Y0023515D01*
X0140637Y0023595D01*
X0140676Y0023673D01*
X0140718Y0023750D01*
X0140763Y0023825D01*
X0140812Y0023897D01*
X0140863Y0023968D01*
X0140918Y0024036D01*
X0140975Y0024101D01*
X0141036Y0024164D01*
X0141099Y0024225D01*
X0141164Y0024282D01*
X0141232Y0024337D01*
X0141303Y0024388D01*
X0141375Y0024437D01*
X0141450Y0024482D01*
X0141527Y0024524D01*
X0141605Y0024563D01*
X0141685Y0024598D01*
X0141766Y0024629D01*
X0141849Y0024657D01*
X0141932Y0024682D01*
X0142017Y0024703D01*
X0142103Y0024720D01*
X0142189Y0024733D01*
X0142276Y0024742D01*
X0142363Y0024748D01*
X0142450Y0024750D01*
X0140450Y0022750D02*
X0140452Y0022663D01*
X0140458Y0022576D01*
X0140467Y0022489D01*
X0140480Y0022403D01*
X0140497Y0022317D01*
X0140518Y0022232D01*
X0140543Y0022149D01*
X0140571Y0022066D01*
X0140602Y0021985D01*
X0140637Y0021905D01*
X0140676Y0021827D01*
X0140718Y0021750D01*
X0140763Y0021675D01*
X0140812Y0021603D01*
X0140863Y0021532D01*
X0140918Y0021464D01*
X0140975Y0021399D01*
X0141036Y0021336D01*
X0141099Y0021275D01*
X0141164Y0021218D01*
X0141232Y0021163D01*
X0141303Y0021112D01*
X0141375Y0021063D01*
X0141450Y0021018D01*
X0141527Y0020976D01*
X0141605Y0020937D01*
X0141685Y0020902D01*
X0141766Y0020871D01*
X0141849Y0020843D01*
X0141932Y0020818D01*
X0142017Y0020797D01*
X0142103Y0020780D01*
X0142189Y0020767D01*
X0142276Y0020758D01*
X0142363Y0020752D01*
X0142450Y0020750D01*
X0150250Y0024750D02*
X0150337Y0024748D01*
X0150424Y0024742D01*
X0150511Y0024733D01*
X0150597Y0024720D01*
X0150683Y0024703D01*
X0150768Y0024682D01*
X0150851Y0024657D01*
X0150934Y0024629D01*
X0151015Y0024598D01*
X0151095Y0024563D01*
X0151173Y0024524D01*
X0151250Y0024482D01*
X0151325Y0024437D01*
X0151397Y0024388D01*
X0151468Y0024337D01*
X0151536Y0024282D01*
X0151601Y0024225D01*
X0151664Y0024164D01*
X0151725Y0024101D01*
X0151782Y0024036D01*
X0151837Y0023968D01*
X0151888Y0023897D01*
X0151937Y0023825D01*
X0151982Y0023750D01*
X0152024Y0023673D01*
X0152063Y0023595D01*
X0152098Y0023515D01*
X0152129Y0023434D01*
X0152157Y0023351D01*
X0152182Y0023268D01*
X0152203Y0023183D01*
X0152220Y0023097D01*
X0152233Y0023011D01*
X0152242Y0022924D01*
X0152248Y0022837D01*
X0152250Y0022750D01*
X0150250Y0057750D02*
X0142450Y0057750D01*
X0140450Y0059750D02*
X0140452Y0059837D01*
X0140458Y0059924D01*
X0140467Y0060011D01*
X0140480Y0060097D01*
X0140497Y0060183D01*
X0140518Y0060268D01*
X0140543Y0060351D01*
X0140571Y0060434D01*
X0140602Y0060515D01*
X0140637Y0060595D01*
X0140676Y0060673D01*
X0140718Y0060750D01*
X0140763Y0060825D01*
X0140812Y0060897D01*
X0140863Y0060968D01*
X0140918Y0061036D01*
X0140975Y0061101D01*
X0141036Y0061164D01*
X0141099Y0061225D01*
X0141164Y0061282D01*
X0141232Y0061337D01*
X0141303Y0061388D01*
X0141375Y0061437D01*
X0141450Y0061482D01*
X0141527Y0061524D01*
X0141605Y0061563D01*
X0141685Y0061598D01*
X0141766Y0061629D01*
X0141849Y0061657D01*
X0141932Y0061682D01*
X0142017Y0061703D01*
X0142103Y0061720D01*
X0142189Y0061733D01*
X0142276Y0061742D01*
X0142363Y0061748D01*
X0142450Y0061750D01*
X0150250Y0061750D01*
X0152250Y0059750D02*
X0152248Y0059663D01*
X0152242Y0059576D01*
X0152233Y0059489D01*
X0152220Y0059403D01*
X0152203Y0059317D01*
X0152182Y0059232D01*
X0152157Y0059149D01*
X0152129Y0059066D01*
X0152098Y0058985D01*
X0152063Y0058905D01*
X0152024Y0058827D01*
X0151982Y0058750D01*
X0151937Y0058675D01*
X0151888Y0058603D01*
X0151837Y0058532D01*
X0151782Y0058464D01*
X0151725Y0058399D01*
X0151664Y0058336D01*
X0151601Y0058275D01*
X0151536Y0058218D01*
X0151468Y0058163D01*
X0151397Y0058112D01*
X0151325Y0058063D01*
X0151250Y0058018D01*
X0151173Y0057976D01*
X0151095Y0057937D01*
X0151015Y0057902D01*
X0150934Y0057871D01*
X0150851Y0057843D01*
X0150768Y0057818D01*
X0150683Y0057797D01*
X0150597Y0057780D01*
X0150511Y0057767D01*
X0150424Y0057758D01*
X0150337Y0057752D01*
X0150250Y0057750D01*
X0152250Y0059750D02*
X0152248Y0059837D01*
X0152242Y0059924D01*
X0152233Y0060011D01*
X0152220Y0060097D01*
X0152203Y0060183D01*
X0152182Y0060268D01*
X0152157Y0060351D01*
X0152129Y0060434D01*
X0152098Y0060515D01*
X0152063Y0060595D01*
X0152024Y0060673D01*
X0151982Y0060750D01*
X0151937Y0060825D01*
X0151888Y0060897D01*
X0151837Y0060968D01*
X0151782Y0061036D01*
X0151725Y0061101D01*
X0151664Y0061164D01*
X0151601Y0061225D01*
X0151536Y0061282D01*
X0151468Y0061337D01*
X0151397Y0061388D01*
X0151325Y0061437D01*
X0151250Y0061482D01*
X0151173Y0061524D01*
X0151095Y0061563D01*
X0151015Y0061598D01*
X0150934Y0061629D01*
X0150851Y0061657D01*
X0150768Y0061682D01*
X0150683Y0061703D01*
X0150597Y0061720D01*
X0150511Y0061733D01*
X0150424Y0061742D01*
X0150337Y0061748D01*
X0150250Y0061750D01*
X0142450Y0057750D02*
X0142363Y0057752D01*
X0142276Y0057758D01*
X0142189Y0057767D01*
X0142103Y0057780D01*
X0142017Y0057797D01*
X0141932Y0057818D01*
X0141849Y0057843D01*
X0141766Y0057871D01*
X0141685Y0057902D01*
X0141605Y0057937D01*
X0141527Y0057976D01*
X0141450Y0058018D01*
X0141375Y0058063D01*
X0141303Y0058112D01*
X0141232Y0058163D01*
X0141164Y0058218D01*
X0141099Y0058275D01*
X0141036Y0058336D01*
X0140975Y0058399D01*
X0140918Y0058464D01*
X0140863Y0058532D01*
X0140812Y0058603D01*
X0140763Y0058675D01*
X0140718Y0058750D01*
X0140676Y0058827D01*
X0140637Y0058905D01*
X0140602Y0058985D01*
X0140571Y0059066D01*
X0140543Y0059149D01*
X0140518Y0059232D01*
X0140497Y0059317D01*
X0140480Y0059403D01*
X0140467Y0059489D01*
X0140458Y0059576D01*
X0140452Y0059663D01*
X0140450Y0059750D01*
M02*
