G75*
%MOIN*%
%OFA0B0*%
%FSLAX25Y25*%
%IPPOS*%
%LPD*%
%AMOC8*
5,1,8,0,0,1.08239X$1,22.5*
%
%ADD10C,0.00500*%
%ADD11C,0.08268*%
%ADD12R,0.09843X0.06299*%
%ADD13R,0.02756X0.05118*%
%ADD14R,0.03543X0.03150*%
%ADD15R,0.05118X0.02756*%
%ADD16R,0.06299X0.15748*%
%ADD17C,0.00000*%
%ADD18C,0.11811*%
%ADD19C,0.05937*%
%ADD20R,0.06299X0.09843*%
%ADD21R,0.07874X0.07874*%
%ADD22R,0.07874X0.05118*%
%ADD23C,0.08858*%
%ADD24R,0.00400X0.00066*%
%ADD25R,0.00670X0.00067*%
%ADD26R,0.00930X0.00067*%
%ADD27R,0.01070X0.00066*%
%ADD28R,0.01330X0.00067*%
%ADD29R,0.01470X0.00067*%
%ADD30R,0.01540X0.00066*%
%ADD31R,0.01660X0.00067*%
%ADD32R,0.01800X0.00067*%
%ADD33R,0.01940X0.00066*%
%ADD34R,0.02060X0.00067*%
%ADD35R,0.02200X0.00067*%
%ADD36R,0.02340X0.00066*%
%ADD37R,0.02400X0.00067*%
%ADD38R,0.02530X0.00067*%
%ADD39R,0.02670X0.00066*%
%ADD40R,0.02800X0.00067*%
%ADD41R,0.02860X0.00067*%
%ADD42R,0.03000X0.00066*%
%ADD43R,0.03070X0.00067*%
%ADD44R,0.03200X0.00067*%
%ADD45R,0.03330X0.00066*%
%ADD46R,0.03400X0.00067*%
%ADD47R,0.03470X0.00067*%
%ADD48R,0.01930X0.00066*%
%ADD49R,0.01670X0.00067*%
%ADD50R,0.01670X0.00066*%
%ADD51R,0.01270X0.00066*%
%ADD52R,0.01270X0.00067*%
%ADD53R,0.01260X0.00067*%
%ADD54R,0.01600X0.00066*%
%ADD55R,0.01200X0.00066*%
%ADD56R,0.01600X0.00067*%
%ADD57R,0.01200X0.00067*%
%ADD58R,0.01130X0.00067*%
%ADD59R,0.01530X0.00066*%
%ADD60R,0.01530X0.00067*%
%ADD61R,0.01130X0.00066*%
%ADD62R,0.01140X0.00067*%
%ADD63R,0.01140X0.00066*%
%ADD64R,0.01540X0.00067*%
%ADD65R,0.01060X0.00067*%
%ADD66R,0.01070X0.00067*%
%ADD67R,0.01060X0.00066*%
%ADD68R,0.00070X0.00067*%
%ADD69R,0.00330X0.00066*%
%ADD70R,0.00540X0.00067*%
%ADD71R,0.00660X0.00067*%
%ADD72R,0.00870X0.00066*%
%ADD73R,0.01340X0.00066*%
%ADD74R,0.01460X0.00067*%
%ADD75R,0.01730X0.00066*%
%ADD76R,0.01870X0.00067*%
%ADD77R,0.02000X0.00067*%
%ADD78R,0.02130X0.00066*%
%ADD79R,0.02270X0.00067*%
%ADD80R,0.02530X0.00066*%
%ADD81R,0.02600X0.00067*%
%ADD82R,0.02740X0.00067*%
%ADD83R,0.02860X0.00066*%
%ADD84R,0.03000X0.00067*%
%ADD85R,0.00600X0.00067*%
%ADD86R,0.00860X0.00067*%
%ADD87R,0.01000X0.00066*%
%ADD88R,0.01470X0.00066*%
%ADD89R,0.01740X0.00067*%
%ADD90R,0.01660X0.00066*%
%ADD91R,0.01740X0.00066*%
%ADD92R,0.00870X0.00067*%
%ADD93R,0.00800X0.00066*%
%ADD94R,0.01460X0.00066*%
%ADD95R,0.02270X0.00066*%
%ADD96R,0.02730X0.00066*%
%ADD97R,0.02930X0.00067*%
%ADD98R,0.00800X0.00067*%
%ADD99R,0.04600X0.00067*%
%ADD100R,0.04600X0.00066*%
%ADD101R,0.04660X0.00067*%
%ADD102R,0.04730X0.00067*%
%ADD103R,0.00860X0.00066*%
%ADD104R,0.04800X0.00066*%
%ADD105R,0.04870X0.00067*%
%ADD106R,0.01400X0.00066*%
%ADD107R,0.04930X0.00066*%
%ADD108R,0.01400X0.00067*%
%ADD109R,0.04930X0.00067*%
%ADD110R,0.05000X0.00067*%
%ADD111R,0.05000X0.00066*%
%ADD112R,0.05070X0.00067*%
%ADD113R,0.05060X0.00067*%
%ADD114R,0.05060X0.00066*%
%ADD115R,0.05130X0.00067*%
%ADD116R,0.00470X0.00067*%
%ADD117R,0.00930X0.00066*%
%ADD118R,0.01800X0.00066*%
%ADD119R,0.02140X0.00067*%
%ADD120R,0.01730X0.00067*%
%ADD121R,0.01260X0.00066*%
%ADD122R,0.03800X0.00067*%
%ADD123R,0.00940X0.00067*%
%ADD124R,0.04200X0.00067*%
%ADD125R,0.04670X0.00066*%
%ADD126R,0.01340X0.00067*%
%ADD127R,0.05460X0.00067*%
%ADD128R,0.01330X0.00066*%
%ADD129R,0.05870X0.00066*%
%ADD130R,0.06340X0.00067*%
%ADD131R,0.08200X0.00067*%
%ADD132R,0.00200X0.00066*%
%ADD133R,0.08330X0.00066*%
%ADD134R,0.00330X0.00067*%
%ADD135R,0.08460X0.00067*%
%ADD136R,0.08540X0.00067*%
%ADD137R,0.00600X0.00066*%
%ADD138R,0.08670X0.00066*%
%ADD139R,0.00730X0.00067*%
%ADD140R,0.08800X0.00067*%
%ADD141R,0.08870X0.00067*%
%ADD142R,0.01870X0.00066*%
%ADD143R,0.08930X0.00066*%
%ADD144R,0.09070X0.00067*%
%ADD145R,0.05200X0.00067*%
%ADD146R,0.03130X0.00067*%
%ADD147R,0.04460X0.00066*%
%ADD148R,0.02800X0.00066*%
%ADD149R,0.04000X0.00067*%
%ADD150R,0.03530X0.00067*%
%ADD151R,0.02540X0.00067*%
%ADD152R,0.03800X0.00066*%
%ADD153R,0.03060X0.00066*%
%ADD154R,0.02400X0.00066*%
%ADD155R,0.01930X0.00067*%
%ADD156R,0.04070X0.00067*%
%ADD157R,0.02070X0.00067*%
%ADD158R,0.04330X0.00067*%
%ADD159R,0.02330X0.00067*%
%ADD160R,0.02200X0.00066*%
%ADD161R,0.02260X0.00067*%
%ADD162R,0.05200X0.00066*%
%ADD163R,0.02140X0.00066*%
%ADD164R,0.02670X0.00067*%
%ADD165R,0.05330X0.00067*%
%ADD166R,0.00060X0.00067*%
%ADD167R,0.02130X0.00067*%
%ADD168R,0.00270X0.00067*%
%ADD169R,0.05600X0.00066*%
%ADD170R,0.00470X0.00066*%
%ADD171R,0.02060X0.00066*%
%ADD172R,0.05730X0.00067*%
%ADD173R,0.05800X0.00067*%
%ADD174R,0.05800X0.00066*%
%ADD175R,0.00660X0.00066*%
%ADD176R,0.02070X0.00066*%
%ADD177R,0.05670X0.00066*%
%ADD178R,0.02000X0.00066*%
%ADD179R,0.05670X0.00067*%
%ADD180R,0.05530X0.00067*%
%ADD181R,0.05470X0.00066*%
%ADD182R,0.05140X0.00067*%
%ADD183R,0.01940X0.00067*%
%ADD184R,0.00740X0.00066*%
%ADD185R,0.00940X0.00066*%
%ADD186R,0.00740X0.00067*%
%ADD187R,0.04860X0.00067*%
%ADD188R,0.04670X0.00067*%
%ADD189R,0.04530X0.00066*%
%ADD190R,0.00730X0.00066*%
%ADD191R,0.04400X0.00067*%
%ADD192R,0.01860X0.00067*%
%ADD193R,0.00670X0.00066*%
%ADD194R,0.04070X0.00066*%
%ADD195R,0.00070X0.00066*%
%ADD196R,0.05340X0.00067*%
%ADD197R,0.04660X0.00066*%
%ADD198R,0.03600X0.00067*%
%ADD199R,0.03340X0.00067*%
%ADD200R,0.03140X0.00066*%
%ADD201R,0.01860X0.00066*%
%ADD202R,0.02940X0.00067*%
%ADD203R,0.02660X0.00067*%
%ADD204R,0.02600X0.00066*%
%ADD205R,0.02540X0.00066*%
%ADD206R,0.04260X0.00067*%
%ADD207R,0.03870X0.00066*%
%ADD208R,0.03260X0.00066*%
%ADD209R,0.03730X0.00067*%
%ADD210R,0.04270X0.00067*%
%ADD211R,0.03400X0.00066*%
%ADD212R,0.06130X0.00066*%
%ADD213R,0.03270X0.00067*%
%ADD214R,0.06140X0.00067*%
%ADD215R,0.06270X0.00067*%
%ADD216R,0.06270X0.00066*%
%ADD217R,0.06330X0.00067*%
%ADD218R,0.02730X0.00067*%
%ADD219R,0.06400X0.00066*%
%ADD220R,0.00400X0.00067*%
%ADD221R,0.06400X0.00067*%
%ADD222R,0.02330X0.00066*%
%ADD223R,0.02340X0.00067*%
%ADD224R,0.01000X0.00067*%
%ADD225R,0.00460X0.00067*%
%ADD226R,0.00130X0.00066*%
%ADD227R,0.03070X0.00066*%
%ADD228R,0.00260X0.00066*%
%ADD229R,0.00130X0.00067*%
%ADD230R,0.00340X0.00066*%
%ADD231R,0.00530X0.00067*%
%ADD232R,0.02460X0.00066*%
%ADD233R,0.00200X0.00067*%
%ADD234R,0.03060X0.00067*%
%ADD235R,0.02470X0.00066*%
%ADD236R,0.02470X0.00067*%
%ADD237R,0.00460X0.00066*%
%ADD238R,0.03200X0.00066*%
%ADD239R,0.00540X0.00066*%
%ADD240R,0.03600X0.00066*%
%ADD241R,0.03870X0.00067*%
%ADD242R,0.04060X0.00067*%
%ADD243R,0.04470X0.00066*%
%ADD244R,0.08400X0.00067*%
%ADD245R,0.02460X0.00067*%
%ADD246R,0.08470X0.00066*%
%ADD247R,0.08470X0.00067*%
%ADD248R,0.08340X0.00066*%
%ADD249R,0.08260X0.00067*%
%ADD250R,0.08000X0.00066*%
%ADD251R,0.07730X0.00067*%
%ADD252R,0.07460X0.00067*%
%ADD253R,0.07200X0.00066*%
%ADD254R,0.07000X0.00067*%
%ADD255R,0.06860X0.00067*%
%ADD256R,0.06730X0.00066*%
%ADD257R,0.06600X0.00067*%
%ADD258R,0.04130X0.00067*%
%ADD259R,0.03270X0.00066*%
%ADD260R,0.03940X0.00066*%
%ADD261R,0.02870X0.00067*%
%ADD262R,0.03470X0.00066*%
%ADD263R,0.03740X0.00067*%
%ADD264R,0.10400X0.00066*%
%ADD265R,0.10340X0.00067*%
%ADD266R,0.10270X0.00067*%
%ADD267R,0.10140X0.00066*%
%ADD268R,0.10070X0.00067*%
%ADD269R,0.09940X0.00067*%
%ADD270R,0.09870X0.00066*%
%ADD271R,0.09740X0.00067*%
%ADD272R,0.09600X0.00067*%
%ADD273R,0.07530X0.00066*%
%ADD274R,0.07200X0.00067*%
%ADD275R,0.06470X0.00066*%
%ADD276R,0.06070X0.00067*%
%ADD277R,0.05600X0.00067*%
%ADD278R,0.05140X0.00066*%
%ADD279R,0.04530X0.00067*%
%ADD280R,0.03930X0.00067*%
%ADD281R,0.03670X0.00066*%
%ADD282R,0.00260X0.00067*%
%ADD283R,0.03330X0.00067*%
%ADD284R,0.03670X0.00067*%
%ADD285R,0.03860X0.00066*%
%ADD286R,0.05260X0.00067*%
%ADD287R,0.05460X0.00066*%
%ADD288R,0.05540X0.00067*%
%ADD289R,0.05730X0.00066*%
%ADD290R,0.05860X0.00067*%
%ADD291R,0.06000X0.00067*%
%ADD292R,0.06140X0.00066*%
%ADD293R,0.06200X0.00067*%
%ADD294R,0.06260X0.00067*%
%ADD295R,0.06540X0.00067*%
%ADD296R,0.06800X0.00067*%
%ADD297R,0.06870X0.00067*%
%ADD298R,0.07000X0.00066*%
%ADD299R,0.03540X0.00066*%
%ADD300R,0.07070X0.00067*%
%ADD301R,0.07130X0.00067*%
%ADD302R,0.07340X0.00067*%
%ADD303R,0.04800X0.00067*%
%ADD304R,0.08930X0.00067*%
%ADD305R,0.08540X0.00066*%
%ADD306R,0.05330X0.00066*%
%ADD307R,0.08270X0.00067*%
%ADD308R,0.07930X0.00067*%
%ADD309R,0.07600X0.00066*%
%ADD310R,0.06000X0.00066*%
%ADD311R,0.07260X0.00067*%
%ADD312R,0.06600X0.00066*%
%ADD313R,0.03740X0.00066*%
%ADD314R,0.03260X0.00067*%
%ADD315R,0.04940X0.00067*%
%ADD316R,0.03460X0.00066*%
%ADD317R,0.03530X0.00066*%
%ADD318R,0.04140X0.00067*%
%ADD319R,0.04340X0.00066*%
%ADD320R,0.03940X0.00067*%
%ADD321R,0.04870X0.00066*%
%ADD322R,0.05260X0.00066*%
%ADD323R,0.05270X0.00067*%
%ADD324R,0.05340X0.00066*%
%ADD325R,0.05400X0.00067*%
%ADD326R,0.05470X0.00067*%
%ADD327R,0.05400X0.00066*%
%ADD328R,0.05530X0.00066*%
%ADD329R,0.03460X0.00067*%
%ADD330R,0.05270X0.00066*%
%ADD331R,0.07330X0.00066*%
%ADD332R,0.07470X0.00067*%
%ADD333R,0.07600X0.00067*%
%ADD334R,0.07800X0.00066*%
%ADD335R,0.08070X0.00067*%
%ADD336R,0.08200X0.00066*%
%ADD337R,0.04740X0.00067*%
%ADD338R,0.04740X0.00066*%
%ADD339R,0.04540X0.00067*%
%ADD340R,0.04200X0.00066*%
%ADD341R,0.04470X0.00067*%
%ADD342R,0.04400X0.00066*%
%ADD343R,0.03660X0.00066*%
%ADD344R,0.02870X0.00066*%
%ADD345R,0.04270X0.00066*%
%ADD346R,0.04060X0.00066*%
%ADD347R,0.02740X0.00066*%
%ADD348R,0.04340X0.00067*%
%ADD349R,0.04730X0.00066*%
%ADD350R,0.05130X0.00066*%
%ADD351R,0.05540X0.00066*%
%ADD352R,0.06130X0.00067*%
%ADD353R,0.06060X0.00066*%
%ADD354R,0.05940X0.00067*%
%ADD355R,0.05070X0.00066*%
%ADD356R,0.02660X0.00066*%
%ADD357R,0.02940X0.00066*%
%ADD358R,0.03130X0.00066*%
%ADD359R,0.08600X0.00067*%
%ADD360R,0.08130X0.00067*%
%ADD361R,0.07870X0.00067*%
%ADD362R,0.07400X0.00067*%
%ADD363R,0.06870X0.00066*%
%ADD364R,0.05740X0.00067*%
%ADD365R,0.15700X0.09800*%
%ADD366C,0.01600*%
%ADD367R,0.03962X0.03962*%
D10*
X0001250Y0001250D02*
X0001250Y0294750D01*
X0001854Y0294757D01*
X0002458Y0294779D01*
X0003061Y0294816D01*
X0003663Y0294867D01*
X0004263Y0294932D01*
X0004862Y0295012D01*
X0005459Y0295107D01*
X0006053Y0295216D01*
X0006645Y0295339D01*
X0007233Y0295476D01*
X0007818Y0295628D01*
X0008399Y0295794D01*
X0008975Y0295974D01*
X0009548Y0296167D01*
X0010115Y0296375D01*
X0010677Y0296596D01*
X0011234Y0296830D01*
X0011785Y0297078D01*
X0012330Y0297339D01*
X0012868Y0297614D01*
X0013400Y0297901D01*
X0013924Y0298201D01*
X0014441Y0298513D01*
X0014950Y0298838D01*
X0015452Y0299175D01*
X0015945Y0299525D01*
X0016429Y0299886D01*
X0016905Y0300258D01*
X0017371Y0300642D01*
X0017828Y0301037D01*
X0018275Y0301443D01*
X0018713Y0301860D01*
X0019140Y0302287D01*
X0019557Y0302725D01*
X0019963Y0303172D01*
X0020358Y0303629D01*
X0020742Y0304095D01*
X0021114Y0304571D01*
X0021475Y0305055D01*
X0021825Y0305548D01*
X0022162Y0306050D01*
X0022487Y0306559D01*
X0022799Y0307076D01*
X0023099Y0307600D01*
X0023386Y0308132D01*
X0023661Y0308670D01*
X0023922Y0309215D01*
X0024170Y0309766D01*
X0024404Y0310323D01*
X0024625Y0310885D01*
X0024833Y0311452D01*
X0025026Y0312025D01*
X0025206Y0312601D01*
X0025372Y0313182D01*
X0025524Y0313767D01*
X0025661Y0314355D01*
X0025784Y0314947D01*
X0025893Y0315541D01*
X0025988Y0316138D01*
X0026068Y0316737D01*
X0026133Y0317337D01*
X0026184Y0317939D01*
X0026221Y0318542D01*
X0026243Y0319146D01*
X0026250Y0319750D01*
X0308350Y0319750D01*
X0308357Y0319146D01*
X0308379Y0318542D01*
X0308416Y0317939D01*
X0308467Y0317337D01*
X0308532Y0316737D01*
X0308612Y0316138D01*
X0308707Y0315541D01*
X0308816Y0314947D01*
X0308939Y0314355D01*
X0309076Y0313767D01*
X0309228Y0313182D01*
X0309394Y0312601D01*
X0309574Y0312025D01*
X0309767Y0311452D01*
X0309975Y0310885D01*
X0310196Y0310323D01*
X0310430Y0309766D01*
X0310678Y0309215D01*
X0310939Y0308670D01*
X0311214Y0308132D01*
X0311501Y0307600D01*
X0311801Y0307076D01*
X0312113Y0306559D01*
X0312438Y0306050D01*
X0312775Y0305548D01*
X0313125Y0305055D01*
X0313486Y0304571D01*
X0313858Y0304095D01*
X0314242Y0303629D01*
X0314637Y0303172D01*
X0315043Y0302725D01*
X0315460Y0302287D01*
X0315887Y0301860D01*
X0316325Y0301443D01*
X0316772Y0301037D01*
X0317229Y0300642D01*
X0317695Y0300258D01*
X0318171Y0299886D01*
X0318655Y0299525D01*
X0319148Y0299175D01*
X0319650Y0298838D01*
X0320159Y0298513D01*
X0320676Y0298201D01*
X0321200Y0297901D01*
X0321732Y0297614D01*
X0322270Y0297339D01*
X0322815Y0297078D01*
X0323366Y0296830D01*
X0323923Y0296596D01*
X0324485Y0296375D01*
X0325052Y0296167D01*
X0325625Y0295974D01*
X0326201Y0295794D01*
X0326782Y0295628D01*
X0327367Y0295476D01*
X0327955Y0295339D01*
X0328547Y0295216D01*
X0329141Y0295107D01*
X0329738Y0295012D01*
X0330337Y0294932D01*
X0330937Y0294867D01*
X0331539Y0294816D01*
X0332142Y0294779D01*
X0332746Y0294757D01*
X0333350Y0294750D01*
X0333350Y0001250D01*
X0001250Y0001250D01*
D11*
X0028898Y0202301D03*
X0053898Y0202301D03*
X0078898Y0202301D03*
X0078898Y0266199D03*
X0053898Y0266199D03*
X0028898Y0266199D03*
X0157300Y0314250D03*
X0177300Y0314250D03*
X0255502Y0266199D03*
X0280502Y0266199D03*
X0305502Y0266199D03*
X0305502Y0202301D03*
X0280502Y0202301D03*
X0255502Y0202301D03*
D12*
X0284360Y0093250D03*
X0298140Y0093250D03*
D13*
X0299510Y0113250D03*
X0306990Y0113250D03*
X0289990Y0113250D03*
X0282510Y0113250D03*
X0251990Y0149250D03*
X0244510Y0149250D03*
X0239990Y0127250D03*
X0232510Y0127250D03*
X0232510Y0097250D03*
X0239990Y0097250D03*
X0271510Y0162250D03*
X0278990Y0162250D03*
X0148990Y0234250D03*
X0141510Y0234250D03*
X0141510Y0264250D03*
X0148990Y0264250D03*
D14*
X0260187Y0140990D03*
X0260187Y0133510D03*
X0252313Y0137250D03*
X0260187Y0120990D03*
X0260187Y0113510D03*
X0252313Y0117250D03*
X0260187Y0090990D03*
X0260187Y0083510D03*
X0252313Y0087250D03*
D15*
X0251250Y0098510D03*
X0251250Y0105990D03*
X0241250Y0108510D03*
X0241250Y0115990D03*
X0232250Y0140510D03*
X0232250Y0147990D03*
X0271250Y0130990D03*
X0271250Y0123510D03*
X0133250Y0272510D03*
X0133250Y0279990D03*
D16*
X0244250Y0071455D03*
X0244250Y0047045D03*
D17*
X0161809Y0093998D02*
X0161811Y0094138D01*
X0161817Y0094278D01*
X0161827Y0094417D01*
X0161841Y0094556D01*
X0161859Y0094695D01*
X0161880Y0094833D01*
X0161906Y0094971D01*
X0161936Y0095108D01*
X0161969Y0095243D01*
X0162007Y0095378D01*
X0162048Y0095512D01*
X0162093Y0095645D01*
X0162141Y0095776D01*
X0162194Y0095905D01*
X0162250Y0096034D01*
X0162309Y0096160D01*
X0162373Y0096285D01*
X0162439Y0096408D01*
X0162510Y0096529D01*
X0162583Y0096648D01*
X0162660Y0096765D01*
X0162741Y0096879D01*
X0162824Y0096991D01*
X0162911Y0097101D01*
X0163001Y0097209D01*
X0163093Y0097313D01*
X0163189Y0097415D01*
X0163288Y0097515D01*
X0163389Y0097611D01*
X0163493Y0097705D01*
X0163600Y0097795D01*
X0163709Y0097882D01*
X0163821Y0097967D01*
X0163935Y0098048D01*
X0164051Y0098126D01*
X0164169Y0098200D01*
X0164290Y0098271D01*
X0164412Y0098339D01*
X0164537Y0098403D01*
X0164663Y0098464D01*
X0164790Y0098521D01*
X0164920Y0098574D01*
X0165051Y0098624D01*
X0165183Y0098669D01*
X0165316Y0098712D01*
X0165451Y0098750D01*
X0165586Y0098784D01*
X0165723Y0098815D01*
X0165860Y0098842D01*
X0165998Y0098864D01*
X0166137Y0098883D01*
X0166276Y0098898D01*
X0166415Y0098909D01*
X0166555Y0098916D01*
X0166695Y0098919D01*
X0166835Y0098918D01*
X0166975Y0098913D01*
X0167114Y0098904D01*
X0167254Y0098891D01*
X0167393Y0098874D01*
X0167531Y0098853D01*
X0167669Y0098829D01*
X0167806Y0098800D01*
X0167942Y0098768D01*
X0168077Y0098731D01*
X0168211Y0098691D01*
X0168344Y0098647D01*
X0168475Y0098599D01*
X0168605Y0098548D01*
X0168734Y0098493D01*
X0168861Y0098434D01*
X0168986Y0098371D01*
X0169109Y0098306D01*
X0169231Y0098236D01*
X0169350Y0098163D01*
X0169468Y0098087D01*
X0169583Y0098008D01*
X0169696Y0097925D01*
X0169806Y0097839D01*
X0169914Y0097750D01*
X0170019Y0097658D01*
X0170122Y0097563D01*
X0170222Y0097465D01*
X0170319Y0097365D01*
X0170413Y0097261D01*
X0170505Y0097155D01*
X0170593Y0097047D01*
X0170678Y0096936D01*
X0170760Y0096822D01*
X0170839Y0096706D01*
X0170914Y0096589D01*
X0170986Y0096469D01*
X0171054Y0096347D01*
X0171119Y0096223D01*
X0171181Y0096097D01*
X0171239Y0095970D01*
X0171293Y0095841D01*
X0171344Y0095710D01*
X0171390Y0095578D01*
X0171433Y0095445D01*
X0171473Y0095311D01*
X0171508Y0095176D01*
X0171540Y0095039D01*
X0171567Y0094902D01*
X0171591Y0094764D01*
X0171611Y0094626D01*
X0171627Y0094487D01*
X0171639Y0094347D01*
X0171647Y0094208D01*
X0171651Y0094068D01*
X0171651Y0093928D01*
X0171647Y0093788D01*
X0171639Y0093649D01*
X0171627Y0093509D01*
X0171611Y0093370D01*
X0171591Y0093232D01*
X0171567Y0093094D01*
X0171540Y0092957D01*
X0171508Y0092820D01*
X0171473Y0092685D01*
X0171433Y0092551D01*
X0171390Y0092418D01*
X0171344Y0092286D01*
X0171293Y0092155D01*
X0171239Y0092026D01*
X0171181Y0091899D01*
X0171119Y0091773D01*
X0171054Y0091649D01*
X0170986Y0091527D01*
X0170914Y0091407D01*
X0170839Y0091290D01*
X0170760Y0091174D01*
X0170678Y0091060D01*
X0170593Y0090949D01*
X0170505Y0090841D01*
X0170413Y0090735D01*
X0170319Y0090631D01*
X0170222Y0090531D01*
X0170122Y0090433D01*
X0170019Y0090338D01*
X0169914Y0090246D01*
X0169806Y0090157D01*
X0169696Y0090071D01*
X0169583Y0089988D01*
X0169468Y0089909D01*
X0169350Y0089833D01*
X0169231Y0089760D01*
X0169109Y0089690D01*
X0168986Y0089625D01*
X0168861Y0089562D01*
X0168734Y0089503D01*
X0168605Y0089448D01*
X0168475Y0089397D01*
X0168344Y0089349D01*
X0168211Y0089305D01*
X0168077Y0089265D01*
X0167942Y0089228D01*
X0167806Y0089196D01*
X0167669Y0089167D01*
X0167531Y0089143D01*
X0167393Y0089122D01*
X0167254Y0089105D01*
X0167114Y0089092D01*
X0166975Y0089083D01*
X0166835Y0089078D01*
X0166695Y0089077D01*
X0166555Y0089080D01*
X0166415Y0089087D01*
X0166276Y0089098D01*
X0166137Y0089113D01*
X0165998Y0089132D01*
X0165860Y0089154D01*
X0165723Y0089181D01*
X0165586Y0089212D01*
X0165451Y0089246D01*
X0165316Y0089284D01*
X0165183Y0089327D01*
X0165051Y0089372D01*
X0164920Y0089422D01*
X0164790Y0089475D01*
X0164663Y0089532D01*
X0164537Y0089593D01*
X0164412Y0089657D01*
X0164290Y0089725D01*
X0164169Y0089796D01*
X0164051Y0089870D01*
X0163935Y0089948D01*
X0163821Y0090029D01*
X0163709Y0090114D01*
X0163600Y0090201D01*
X0163493Y0090291D01*
X0163389Y0090385D01*
X0163288Y0090481D01*
X0163189Y0090581D01*
X0163093Y0090683D01*
X0163001Y0090787D01*
X0162911Y0090895D01*
X0162824Y0091005D01*
X0162741Y0091117D01*
X0162660Y0091231D01*
X0162583Y0091348D01*
X0162510Y0091467D01*
X0162439Y0091588D01*
X0162373Y0091711D01*
X0162309Y0091836D01*
X0162250Y0091962D01*
X0162194Y0092091D01*
X0162141Y0092220D01*
X0162093Y0092351D01*
X0162048Y0092484D01*
X0162007Y0092618D01*
X0161969Y0092753D01*
X0161936Y0092888D01*
X0161906Y0093025D01*
X0161880Y0093163D01*
X0161859Y0093301D01*
X0161841Y0093440D01*
X0161827Y0093579D01*
X0161817Y0093718D01*
X0161811Y0093858D01*
X0161809Y0093998D01*
X0106691Y0180612D02*
X0106693Y0180752D01*
X0106699Y0180892D01*
X0106709Y0181031D01*
X0106723Y0181170D01*
X0106741Y0181309D01*
X0106762Y0181447D01*
X0106788Y0181585D01*
X0106818Y0181722D01*
X0106851Y0181857D01*
X0106889Y0181992D01*
X0106930Y0182126D01*
X0106975Y0182259D01*
X0107023Y0182390D01*
X0107076Y0182519D01*
X0107132Y0182648D01*
X0107191Y0182774D01*
X0107255Y0182899D01*
X0107321Y0183022D01*
X0107392Y0183143D01*
X0107465Y0183262D01*
X0107542Y0183379D01*
X0107623Y0183493D01*
X0107706Y0183605D01*
X0107793Y0183715D01*
X0107883Y0183823D01*
X0107975Y0183927D01*
X0108071Y0184029D01*
X0108170Y0184129D01*
X0108271Y0184225D01*
X0108375Y0184319D01*
X0108482Y0184409D01*
X0108591Y0184496D01*
X0108703Y0184581D01*
X0108817Y0184662D01*
X0108933Y0184740D01*
X0109051Y0184814D01*
X0109172Y0184885D01*
X0109294Y0184953D01*
X0109419Y0185017D01*
X0109545Y0185078D01*
X0109672Y0185135D01*
X0109802Y0185188D01*
X0109933Y0185238D01*
X0110065Y0185283D01*
X0110198Y0185326D01*
X0110333Y0185364D01*
X0110468Y0185398D01*
X0110605Y0185429D01*
X0110742Y0185456D01*
X0110880Y0185478D01*
X0111019Y0185497D01*
X0111158Y0185512D01*
X0111297Y0185523D01*
X0111437Y0185530D01*
X0111577Y0185533D01*
X0111717Y0185532D01*
X0111857Y0185527D01*
X0111996Y0185518D01*
X0112136Y0185505D01*
X0112275Y0185488D01*
X0112413Y0185467D01*
X0112551Y0185443D01*
X0112688Y0185414D01*
X0112824Y0185382D01*
X0112959Y0185345D01*
X0113093Y0185305D01*
X0113226Y0185261D01*
X0113357Y0185213D01*
X0113487Y0185162D01*
X0113616Y0185107D01*
X0113743Y0185048D01*
X0113868Y0184985D01*
X0113991Y0184920D01*
X0114113Y0184850D01*
X0114232Y0184777D01*
X0114350Y0184701D01*
X0114465Y0184622D01*
X0114578Y0184539D01*
X0114688Y0184453D01*
X0114796Y0184364D01*
X0114901Y0184272D01*
X0115004Y0184177D01*
X0115104Y0184079D01*
X0115201Y0183979D01*
X0115295Y0183875D01*
X0115387Y0183769D01*
X0115475Y0183661D01*
X0115560Y0183550D01*
X0115642Y0183436D01*
X0115721Y0183320D01*
X0115796Y0183203D01*
X0115868Y0183083D01*
X0115936Y0182961D01*
X0116001Y0182837D01*
X0116063Y0182711D01*
X0116121Y0182584D01*
X0116175Y0182455D01*
X0116226Y0182324D01*
X0116272Y0182192D01*
X0116315Y0182059D01*
X0116355Y0181925D01*
X0116390Y0181790D01*
X0116422Y0181653D01*
X0116449Y0181516D01*
X0116473Y0181378D01*
X0116493Y0181240D01*
X0116509Y0181101D01*
X0116521Y0180961D01*
X0116529Y0180822D01*
X0116533Y0180682D01*
X0116533Y0180542D01*
X0116529Y0180402D01*
X0116521Y0180263D01*
X0116509Y0180123D01*
X0116493Y0179984D01*
X0116473Y0179846D01*
X0116449Y0179708D01*
X0116422Y0179571D01*
X0116390Y0179434D01*
X0116355Y0179299D01*
X0116315Y0179165D01*
X0116272Y0179032D01*
X0116226Y0178900D01*
X0116175Y0178769D01*
X0116121Y0178640D01*
X0116063Y0178513D01*
X0116001Y0178387D01*
X0115936Y0178263D01*
X0115868Y0178141D01*
X0115796Y0178021D01*
X0115721Y0177904D01*
X0115642Y0177788D01*
X0115560Y0177674D01*
X0115475Y0177563D01*
X0115387Y0177455D01*
X0115295Y0177349D01*
X0115201Y0177245D01*
X0115104Y0177145D01*
X0115004Y0177047D01*
X0114901Y0176952D01*
X0114796Y0176860D01*
X0114688Y0176771D01*
X0114578Y0176685D01*
X0114465Y0176602D01*
X0114350Y0176523D01*
X0114232Y0176447D01*
X0114113Y0176374D01*
X0113991Y0176304D01*
X0113868Y0176239D01*
X0113743Y0176176D01*
X0113616Y0176117D01*
X0113487Y0176062D01*
X0113357Y0176011D01*
X0113226Y0175963D01*
X0113093Y0175919D01*
X0112959Y0175879D01*
X0112824Y0175842D01*
X0112688Y0175810D01*
X0112551Y0175781D01*
X0112413Y0175757D01*
X0112275Y0175736D01*
X0112136Y0175719D01*
X0111996Y0175706D01*
X0111857Y0175697D01*
X0111717Y0175692D01*
X0111577Y0175691D01*
X0111437Y0175694D01*
X0111297Y0175701D01*
X0111158Y0175712D01*
X0111019Y0175727D01*
X0110880Y0175746D01*
X0110742Y0175768D01*
X0110605Y0175795D01*
X0110468Y0175826D01*
X0110333Y0175860D01*
X0110198Y0175898D01*
X0110065Y0175941D01*
X0109933Y0175986D01*
X0109802Y0176036D01*
X0109672Y0176089D01*
X0109545Y0176146D01*
X0109419Y0176207D01*
X0109294Y0176271D01*
X0109172Y0176339D01*
X0109051Y0176410D01*
X0108933Y0176484D01*
X0108817Y0176562D01*
X0108703Y0176643D01*
X0108591Y0176728D01*
X0108482Y0176815D01*
X0108375Y0176905D01*
X0108271Y0176999D01*
X0108170Y0177095D01*
X0108071Y0177195D01*
X0107975Y0177297D01*
X0107883Y0177401D01*
X0107793Y0177509D01*
X0107706Y0177619D01*
X0107623Y0177731D01*
X0107542Y0177845D01*
X0107465Y0177962D01*
X0107392Y0178081D01*
X0107321Y0178202D01*
X0107255Y0178325D01*
X0107191Y0178450D01*
X0107132Y0178576D01*
X0107076Y0178705D01*
X0107023Y0178834D01*
X0106975Y0178965D01*
X0106930Y0179098D01*
X0106889Y0179232D01*
X0106851Y0179367D01*
X0106818Y0179502D01*
X0106788Y0179639D01*
X0106762Y0179777D01*
X0106741Y0179915D01*
X0106723Y0180054D01*
X0106709Y0180193D01*
X0106699Y0180332D01*
X0106693Y0180472D01*
X0106691Y0180612D01*
X0051573Y0093998D02*
X0051575Y0094138D01*
X0051581Y0094278D01*
X0051591Y0094417D01*
X0051605Y0094556D01*
X0051623Y0094695D01*
X0051644Y0094833D01*
X0051670Y0094971D01*
X0051700Y0095108D01*
X0051733Y0095243D01*
X0051771Y0095378D01*
X0051812Y0095512D01*
X0051857Y0095645D01*
X0051905Y0095776D01*
X0051958Y0095905D01*
X0052014Y0096034D01*
X0052073Y0096160D01*
X0052137Y0096285D01*
X0052203Y0096408D01*
X0052274Y0096529D01*
X0052347Y0096648D01*
X0052424Y0096765D01*
X0052505Y0096879D01*
X0052588Y0096991D01*
X0052675Y0097101D01*
X0052765Y0097209D01*
X0052857Y0097313D01*
X0052953Y0097415D01*
X0053052Y0097515D01*
X0053153Y0097611D01*
X0053257Y0097705D01*
X0053364Y0097795D01*
X0053473Y0097882D01*
X0053585Y0097967D01*
X0053699Y0098048D01*
X0053815Y0098126D01*
X0053933Y0098200D01*
X0054054Y0098271D01*
X0054176Y0098339D01*
X0054301Y0098403D01*
X0054427Y0098464D01*
X0054554Y0098521D01*
X0054684Y0098574D01*
X0054815Y0098624D01*
X0054947Y0098669D01*
X0055080Y0098712D01*
X0055215Y0098750D01*
X0055350Y0098784D01*
X0055487Y0098815D01*
X0055624Y0098842D01*
X0055762Y0098864D01*
X0055901Y0098883D01*
X0056040Y0098898D01*
X0056179Y0098909D01*
X0056319Y0098916D01*
X0056459Y0098919D01*
X0056599Y0098918D01*
X0056739Y0098913D01*
X0056878Y0098904D01*
X0057018Y0098891D01*
X0057157Y0098874D01*
X0057295Y0098853D01*
X0057433Y0098829D01*
X0057570Y0098800D01*
X0057706Y0098768D01*
X0057841Y0098731D01*
X0057975Y0098691D01*
X0058108Y0098647D01*
X0058239Y0098599D01*
X0058369Y0098548D01*
X0058498Y0098493D01*
X0058625Y0098434D01*
X0058750Y0098371D01*
X0058873Y0098306D01*
X0058995Y0098236D01*
X0059114Y0098163D01*
X0059232Y0098087D01*
X0059347Y0098008D01*
X0059460Y0097925D01*
X0059570Y0097839D01*
X0059678Y0097750D01*
X0059783Y0097658D01*
X0059886Y0097563D01*
X0059986Y0097465D01*
X0060083Y0097365D01*
X0060177Y0097261D01*
X0060269Y0097155D01*
X0060357Y0097047D01*
X0060442Y0096936D01*
X0060524Y0096822D01*
X0060603Y0096706D01*
X0060678Y0096589D01*
X0060750Y0096469D01*
X0060818Y0096347D01*
X0060883Y0096223D01*
X0060945Y0096097D01*
X0061003Y0095970D01*
X0061057Y0095841D01*
X0061108Y0095710D01*
X0061154Y0095578D01*
X0061197Y0095445D01*
X0061237Y0095311D01*
X0061272Y0095176D01*
X0061304Y0095039D01*
X0061331Y0094902D01*
X0061355Y0094764D01*
X0061375Y0094626D01*
X0061391Y0094487D01*
X0061403Y0094347D01*
X0061411Y0094208D01*
X0061415Y0094068D01*
X0061415Y0093928D01*
X0061411Y0093788D01*
X0061403Y0093649D01*
X0061391Y0093509D01*
X0061375Y0093370D01*
X0061355Y0093232D01*
X0061331Y0093094D01*
X0061304Y0092957D01*
X0061272Y0092820D01*
X0061237Y0092685D01*
X0061197Y0092551D01*
X0061154Y0092418D01*
X0061108Y0092286D01*
X0061057Y0092155D01*
X0061003Y0092026D01*
X0060945Y0091899D01*
X0060883Y0091773D01*
X0060818Y0091649D01*
X0060750Y0091527D01*
X0060678Y0091407D01*
X0060603Y0091290D01*
X0060524Y0091174D01*
X0060442Y0091060D01*
X0060357Y0090949D01*
X0060269Y0090841D01*
X0060177Y0090735D01*
X0060083Y0090631D01*
X0059986Y0090531D01*
X0059886Y0090433D01*
X0059783Y0090338D01*
X0059678Y0090246D01*
X0059570Y0090157D01*
X0059460Y0090071D01*
X0059347Y0089988D01*
X0059232Y0089909D01*
X0059114Y0089833D01*
X0058995Y0089760D01*
X0058873Y0089690D01*
X0058750Y0089625D01*
X0058625Y0089562D01*
X0058498Y0089503D01*
X0058369Y0089448D01*
X0058239Y0089397D01*
X0058108Y0089349D01*
X0057975Y0089305D01*
X0057841Y0089265D01*
X0057706Y0089228D01*
X0057570Y0089196D01*
X0057433Y0089167D01*
X0057295Y0089143D01*
X0057157Y0089122D01*
X0057018Y0089105D01*
X0056878Y0089092D01*
X0056739Y0089083D01*
X0056599Y0089078D01*
X0056459Y0089077D01*
X0056319Y0089080D01*
X0056179Y0089087D01*
X0056040Y0089098D01*
X0055901Y0089113D01*
X0055762Y0089132D01*
X0055624Y0089154D01*
X0055487Y0089181D01*
X0055350Y0089212D01*
X0055215Y0089246D01*
X0055080Y0089284D01*
X0054947Y0089327D01*
X0054815Y0089372D01*
X0054684Y0089422D01*
X0054554Y0089475D01*
X0054427Y0089532D01*
X0054301Y0089593D01*
X0054176Y0089657D01*
X0054054Y0089725D01*
X0053933Y0089796D01*
X0053815Y0089870D01*
X0053699Y0089948D01*
X0053585Y0090029D01*
X0053473Y0090114D01*
X0053364Y0090201D01*
X0053257Y0090291D01*
X0053153Y0090385D01*
X0053052Y0090481D01*
X0052953Y0090581D01*
X0052857Y0090683D01*
X0052765Y0090787D01*
X0052675Y0090895D01*
X0052588Y0091005D01*
X0052505Y0091117D01*
X0052424Y0091231D01*
X0052347Y0091348D01*
X0052274Y0091467D01*
X0052203Y0091588D01*
X0052137Y0091711D01*
X0052073Y0091836D01*
X0052014Y0091962D01*
X0051958Y0092091D01*
X0051905Y0092220D01*
X0051857Y0092351D01*
X0051812Y0092484D01*
X0051771Y0092618D01*
X0051733Y0092753D01*
X0051700Y0092888D01*
X0051670Y0093025D01*
X0051644Y0093163D01*
X0051623Y0093301D01*
X0051605Y0093440D01*
X0051591Y0093579D01*
X0051581Y0093718D01*
X0051575Y0093858D01*
X0051573Y0093998D01*
D18*
X0214762Y0112305D03*
X0214762Y0162305D03*
D19*
X0234507Y0299250D03*
X0244350Y0299250D03*
X0254193Y0299250D03*
X0100093Y0299250D03*
X0090250Y0299250D03*
X0080407Y0299250D03*
D20*
X0204250Y0280140D03*
X0204250Y0266360D03*
D21*
X0306124Y0138250D03*
D22*
X0290376Y0133722D03*
X0290376Y0142778D03*
D23*
X0171729Y0234250D02*
X0162871Y0234250D01*
X0162871Y0249250D02*
X0171729Y0249250D01*
X0171729Y0264250D02*
X0162871Y0264250D01*
D24*
X0038080Y0029650D03*
X0028080Y0011250D03*
D25*
X0028085Y0011316D03*
X0035615Y0026716D03*
X0025815Y0034316D03*
X0025885Y0034516D03*
X0026015Y0034916D03*
X0011615Y0022516D03*
X0011615Y0022384D03*
X0011615Y0022316D03*
X0011615Y0022184D03*
X0011615Y0022116D03*
X0035015Y0052184D03*
X0035285Y0052584D03*
X0026685Y0056916D03*
X0025615Y0054316D03*
D26*
X0025815Y0053984D03*
X0034685Y0051916D03*
X0035485Y0053116D03*
X0030685Y0043184D03*
X0027015Y0038584D03*
X0026885Y0038184D03*
X0026885Y0038116D03*
X0026885Y0037984D03*
X0026815Y0037916D03*
X0026815Y0037784D03*
X0026685Y0037316D03*
X0027615Y0033716D03*
X0027615Y0033584D03*
X0027815Y0032716D03*
X0027885Y0032584D03*
X0028415Y0031916D03*
X0028685Y0031584D03*
X0028815Y0031384D03*
X0029015Y0030916D03*
X0026885Y0030916D03*
X0025285Y0032984D03*
X0024215Y0031984D03*
X0035215Y0025384D03*
X0035485Y0024116D03*
X0036815Y0021516D03*
X0028085Y0011384D03*
X0013485Y0016916D03*
X0013415Y0016984D03*
X0012285Y0019184D03*
X0038215Y0037184D03*
D27*
X0028285Y0043850D03*
X0027285Y0039650D03*
X0027215Y0039450D03*
X0027685Y0034050D03*
X0014615Y0020850D03*
X0012015Y0023250D03*
X0027615Y0016850D03*
X0030815Y0015850D03*
X0030885Y0016050D03*
X0031015Y0016250D03*
X0031085Y0016450D03*
X0031485Y0017450D03*
X0030485Y0015050D03*
X0030285Y0014650D03*
X0030085Y0014250D03*
X0028085Y0011450D03*
X0050215Y0025050D03*
X0050285Y0026250D03*
X0050085Y0026650D03*
X0049815Y0027050D03*
X0051015Y0028850D03*
X0052685Y0038050D03*
X0052815Y0038250D03*
X0053015Y0038650D03*
X0035615Y0053450D03*
X0025885Y0053850D03*
X0025085Y0056850D03*
X0025085Y0057050D03*
X0025085Y0058050D03*
X0025015Y0058250D03*
X0024415Y0059650D03*
D28*
X0026485Y0056716D03*
X0018485Y0054184D03*
X0018485Y0054116D03*
X0018415Y0053984D03*
X0028085Y0042984D03*
X0028015Y0042716D03*
X0029485Y0038716D03*
X0029485Y0038584D03*
X0029415Y0038516D03*
X0029285Y0038184D03*
X0029285Y0038116D03*
X0029215Y0037984D03*
X0029085Y0037716D03*
X0029015Y0037584D03*
X0029015Y0037516D03*
X0028885Y0037184D03*
X0028815Y0037116D03*
X0028685Y0036784D03*
X0028685Y0036716D03*
X0028615Y0036584D03*
X0028485Y0036316D03*
X0028415Y0036184D03*
X0028415Y0036116D03*
X0028285Y0035784D03*
X0028215Y0035716D03*
X0028215Y0035584D03*
X0028085Y0035316D03*
X0028015Y0035116D03*
X0024885Y0032384D03*
X0026285Y0029316D03*
X0025615Y0028516D03*
X0028215Y0029516D03*
X0032815Y0034316D03*
X0032815Y0034384D03*
X0032815Y0034516D03*
X0032815Y0034584D03*
X0032815Y0034716D03*
X0032815Y0034784D03*
X0035485Y0026316D03*
X0035685Y0023784D03*
X0035685Y0023716D03*
X0025415Y0018916D03*
X0029285Y0012984D03*
X0029215Y0012916D03*
X0028085Y0011516D03*
X0016685Y0021384D03*
X0016615Y0021316D03*
X0012085Y0023116D03*
X0013885Y0033916D03*
X0013885Y0033984D03*
X0013885Y0034116D03*
X0013885Y0034184D03*
X0013885Y0034316D03*
X0013815Y0034384D03*
X0013815Y0034516D03*
X0013815Y0034584D03*
X0013815Y0034716D03*
X0013815Y0034784D03*
X0035615Y0054116D03*
X0035615Y0054184D03*
X0051215Y0035984D03*
X0051215Y0029916D03*
X0051285Y0029784D03*
X0051285Y0029716D03*
X0042885Y0033916D03*
X0042685Y0033716D03*
X0042215Y0033316D03*
D29*
X0043015Y0034116D03*
X0037285Y0034116D03*
X0037085Y0034516D03*
X0032815Y0034984D03*
X0029815Y0039584D03*
X0029885Y0039784D03*
X0030015Y0040116D03*
X0030015Y0040184D03*
X0030085Y0040384D03*
X0030615Y0042116D03*
X0030685Y0042316D03*
X0030685Y0042384D03*
X0035615Y0054316D03*
X0035615Y0054384D03*
X0035615Y0054516D03*
X0034815Y0056116D03*
X0034615Y0056316D03*
X0037885Y0054984D03*
X0049885Y0041516D03*
X0053215Y0040984D03*
X0053215Y0040916D03*
X0053285Y0040784D03*
X0051015Y0035716D03*
X0050885Y0035584D03*
X0050685Y0030384D03*
X0050815Y0030316D03*
X0035415Y0025984D03*
X0028215Y0029584D03*
X0025615Y0028584D03*
X0024485Y0029784D03*
X0017815Y0022916D03*
X0017685Y0022716D03*
X0017415Y0022384D03*
X0017285Y0022184D03*
X0016285Y0020916D03*
X0016685Y0017984D03*
X0016615Y0017916D03*
X0016485Y0017784D03*
X0016415Y0017716D03*
X0025015Y0017184D03*
X0025015Y0017116D03*
X0025085Y0016784D03*
X0028085Y0011584D03*
X0014685Y0030316D03*
X0014685Y0030384D03*
X0014615Y0030516D03*
X0014615Y0030584D03*
X0014485Y0030984D03*
X0014415Y0031184D03*
X0014285Y0031716D03*
X0014285Y0031784D03*
X0014215Y0031984D03*
X0013815Y0042116D03*
X0013815Y0042184D03*
X0013815Y0042316D03*
X0013815Y0042384D03*
X0013815Y0042516D03*
X0013815Y0042584D03*
X0013885Y0042716D03*
X0013885Y0042784D03*
X0013885Y0042916D03*
X0013885Y0042984D03*
X0013885Y0043116D03*
X0018215Y0053516D03*
X0018215Y0053584D03*
D30*
X0034850Y0056050D03*
X0035450Y0055050D03*
X0037850Y0054850D03*
X0037850Y0054650D03*
X0037850Y0054450D03*
X0030450Y0041450D03*
X0030250Y0040850D03*
X0030050Y0040250D03*
X0037250Y0034250D03*
X0049650Y0041250D03*
X0050050Y0041650D03*
X0049850Y0024650D03*
X0029050Y0012850D03*
X0028050Y0011650D03*
X0026450Y0013650D03*
X0018050Y0023250D03*
D31*
X0015050Y0029116D03*
X0015050Y0029184D03*
X0028850Y0019116D03*
X0026850Y0013116D03*
X0028050Y0011716D03*
X0045250Y0026116D03*
X0045250Y0026184D03*
X0045250Y0026316D03*
X0045250Y0026384D03*
X0050250Y0034784D03*
X0045050Y0036116D03*
X0044850Y0035916D03*
X0049450Y0040984D03*
X0037650Y0053184D03*
X0037650Y0053316D03*
X0037650Y0053384D03*
X0037850Y0057784D03*
X0031450Y0049116D03*
X0034650Y0042984D03*
X0034650Y0042916D03*
X0033450Y0039516D03*
X0033250Y0038916D03*
X0033250Y0038784D03*
X0015850Y0048716D03*
X0016050Y0049116D03*
X0016050Y0049184D03*
X0016250Y0049584D03*
X0016650Y0050516D03*
X0016850Y0050916D03*
X0016850Y0050984D03*
X0017050Y0051316D03*
D32*
X0017920Y0052716D03*
X0015320Y0047516D03*
X0015050Y0046916D03*
X0014980Y0046784D03*
X0014780Y0046316D03*
X0014720Y0046184D03*
X0014650Y0045984D03*
X0014580Y0045916D03*
X0014520Y0045716D03*
X0014450Y0045584D03*
X0014380Y0045384D03*
X0014320Y0045316D03*
X0014250Y0045184D03*
X0014250Y0045116D03*
X0014180Y0044984D03*
X0014180Y0044916D03*
X0014120Y0044784D03*
X0014050Y0044716D03*
X0015180Y0028784D03*
X0015250Y0028584D03*
X0015320Y0028516D03*
X0015380Y0028316D03*
X0027050Y0030116D03*
X0029250Y0019784D03*
X0027050Y0012916D03*
X0028050Y0011784D03*
X0015450Y0016916D03*
X0043450Y0022716D03*
X0043520Y0022784D03*
X0043650Y0022916D03*
X0045180Y0026984D03*
X0045180Y0027116D03*
X0045180Y0027184D03*
X0049320Y0027984D03*
X0049720Y0024584D03*
X0049850Y0034316D03*
X0049920Y0034384D03*
X0045720Y0036784D03*
X0045650Y0036716D03*
X0045520Y0036584D03*
X0045450Y0036516D03*
X0045320Y0036384D03*
X0048920Y0040384D03*
X0049050Y0040516D03*
X0049120Y0040584D03*
X0052720Y0041516D03*
X0037320Y0051516D03*
X0037320Y0051584D03*
X0037380Y0051784D03*
X0037380Y0051916D03*
X0037380Y0051984D03*
X0037450Y0052116D03*
X0037450Y0052184D03*
X0037520Y0052516D03*
X0037780Y0058116D03*
X0037780Y0058184D03*
X0035120Y0044116D03*
X0035050Y0043916D03*
X0034980Y0043784D03*
X0034980Y0043716D03*
X0034920Y0043584D03*
D33*
X0035250Y0044450D03*
X0037050Y0050450D03*
X0048650Y0040050D03*
X0047450Y0038650D03*
X0047250Y0038450D03*
X0047050Y0038250D03*
X0049650Y0034050D03*
X0045050Y0027850D03*
X0033050Y0035250D03*
X0025650Y0028850D03*
X0015850Y0027450D03*
X0015650Y0027850D03*
X0028050Y0011850D03*
X0022650Y0053850D03*
D34*
X0022650Y0053784D03*
X0022850Y0054316D03*
X0036850Y0049516D03*
X0036650Y0048784D03*
X0036650Y0048716D03*
X0036450Y0048116D03*
X0036450Y0047984D03*
X0036250Y0047384D03*
X0036250Y0047316D03*
X0036050Y0046716D03*
X0035850Y0046116D03*
X0035850Y0045984D03*
X0035650Y0045516D03*
X0037650Y0058784D03*
X0043050Y0034384D03*
X0044450Y0029316D03*
X0044650Y0028984D03*
X0044650Y0028916D03*
X0049050Y0033316D03*
X0041250Y0020984D03*
X0027450Y0017184D03*
X0028050Y0011916D03*
X0017250Y0025784D03*
X0017050Y0025984D03*
X0025650Y0028916D03*
X0025650Y0028984D03*
D35*
X0024050Y0030116D03*
X0018580Y0024716D03*
X0018320Y0024916D03*
X0018250Y0024984D03*
X0018050Y0025116D03*
X0028050Y0011984D03*
X0040650Y0020584D03*
X0045380Y0024784D03*
X0044320Y0029516D03*
X0044180Y0029716D03*
X0044120Y0029784D03*
X0048720Y0032916D03*
X0048780Y0032984D03*
X0049380Y0028116D03*
X0037520Y0059184D03*
X0023050Y0054516D03*
D36*
X0028050Y0012050D03*
D37*
X0028020Y0012116D03*
X0027420Y0017316D03*
X0025620Y0018716D03*
X0019080Y0024316D03*
X0019020Y0024384D03*
X0015480Y0020584D03*
X0014620Y0016384D03*
X0023950Y0030316D03*
X0023880Y0030384D03*
X0023880Y0030516D03*
X0023820Y0030584D03*
X0025680Y0029184D03*
X0038220Y0037116D03*
X0043020Y0034516D03*
X0043620Y0030384D03*
X0043680Y0030316D03*
X0047880Y0031716D03*
X0048080Y0031584D03*
X0048220Y0031516D03*
X0048420Y0031384D03*
X0048550Y0031316D03*
X0048750Y0031184D03*
X0048880Y0031116D03*
X0049150Y0030984D03*
X0049280Y0030916D03*
X0048080Y0032116D03*
X0048150Y0032184D03*
X0048220Y0032316D03*
X0048280Y0032384D03*
X0049420Y0028184D03*
X0040220Y0020316D03*
X0029480Y0052516D03*
X0037350Y0059716D03*
X0037350Y0059784D03*
D38*
X0037215Y0060116D03*
X0035885Y0061984D03*
X0035685Y0062116D03*
X0035615Y0062184D03*
X0035485Y0062316D03*
X0041885Y0035184D03*
X0043285Y0030716D03*
X0043415Y0030584D03*
X0045485Y0024716D03*
X0029015Y0019984D03*
X0028015Y0012184D03*
D39*
X0028015Y0012250D03*
X0021285Y0023050D03*
X0024015Y0061050D03*
X0025215Y0061650D03*
X0036215Y0061650D03*
X0036415Y0061450D03*
D40*
X0036680Y0061116D03*
X0026350Y0062184D03*
X0026220Y0062116D03*
X0025820Y0056584D03*
X0025820Y0056516D03*
X0033480Y0035516D03*
X0041680Y0035316D03*
X0042950Y0030984D03*
X0036950Y0018784D03*
X0028020Y0012316D03*
X0021550Y0022916D03*
X0021420Y0022984D03*
X0019220Y0024116D03*
X0051350Y0042116D03*
D41*
X0026650Y0062316D03*
X0028050Y0012384D03*
D42*
X0028050Y0012450D03*
X0019250Y0024050D03*
X0041450Y0035450D03*
X0051380Y0042050D03*
X0030920Y0049250D03*
X0025650Y0056250D03*
X0027380Y0062650D03*
D43*
X0027685Y0062784D03*
X0025615Y0056184D03*
X0018415Y0052516D03*
X0033615Y0035584D03*
X0027615Y0029916D03*
X0014685Y0016784D03*
X0028015Y0012516D03*
X0042615Y0031184D03*
D44*
X0045750Y0024584D03*
X0028750Y0020116D03*
X0028020Y0012584D03*
D45*
X0028015Y0012650D03*
X0036885Y0018850D03*
D46*
X0028050Y0012716D03*
X0051380Y0041916D03*
X0025250Y0055984D03*
D47*
X0042885Y0034916D03*
X0042215Y0031384D03*
X0028015Y0012784D03*
D48*
X0027185Y0012850D03*
X0015315Y0016850D03*
X0042115Y0021650D03*
X0042385Y0021850D03*
X0044985Y0028050D03*
X0046515Y0037650D03*
X0046715Y0037850D03*
X0047785Y0039050D03*
X0047985Y0039250D03*
X0048115Y0039450D03*
X0048315Y0039650D03*
X0035315Y0044650D03*
X0036985Y0050050D03*
X0037115Y0050650D03*
X0037185Y0050850D03*
X0037715Y0058450D03*
D49*
X0037915Y0057516D03*
X0037915Y0057384D03*
X0037915Y0057316D03*
X0037715Y0053716D03*
X0037715Y0053584D03*
X0037585Y0052984D03*
X0037585Y0052916D03*
X0034715Y0043116D03*
X0034585Y0042784D03*
X0034515Y0042584D03*
X0034315Y0042116D03*
X0033385Y0039316D03*
X0033315Y0039116D03*
X0033315Y0038984D03*
X0033185Y0038584D03*
X0033185Y0038516D03*
X0033115Y0038316D03*
X0032915Y0037184D03*
X0032915Y0037116D03*
X0032915Y0036984D03*
X0032915Y0036916D03*
X0028185Y0029716D03*
X0029115Y0019516D03*
X0028985Y0019316D03*
X0028715Y0018916D03*
X0026785Y0013184D03*
X0026985Y0012984D03*
X0015715Y0017116D03*
X0015515Y0020184D03*
X0015115Y0028984D03*
X0014985Y0029316D03*
X0014985Y0029384D03*
X0013985Y0044116D03*
X0013985Y0044184D03*
X0013985Y0044316D03*
X0013985Y0044384D03*
X0015585Y0048116D03*
X0015985Y0048984D03*
X0016115Y0049316D03*
X0016315Y0049716D03*
X0016315Y0049784D03*
X0016385Y0049916D03*
X0016515Y0050184D03*
X0016585Y0050316D03*
X0016585Y0050384D03*
X0016715Y0050584D03*
X0016785Y0050716D03*
X0016785Y0050784D03*
X0016915Y0051116D03*
X0016985Y0051184D03*
X0044715Y0035784D03*
X0044915Y0035984D03*
X0050385Y0034916D03*
X0049385Y0040916D03*
X0044185Y0023384D03*
X0044115Y0023316D03*
D50*
X0050315Y0034850D03*
X0044985Y0036050D03*
X0044785Y0035850D03*
X0049315Y0040850D03*
X0037585Y0052850D03*
X0037715Y0053650D03*
X0037915Y0057250D03*
X0037915Y0057450D03*
X0034585Y0042850D03*
X0034515Y0042650D03*
X0033385Y0039250D03*
X0033315Y0039050D03*
X0033185Y0038650D03*
X0032915Y0037250D03*
X0032915Y0037050D03*
X0032915Y0036850D03*
X0015915Y0048850D03*
X0016185Y0049450D03*
X0016385Y0049850D03*
X0016515Y0050250D03*
X0016715Y0050650D03*
X0016915Y0051050D03*
X0013985Y0044250D03*
X0013985Y0044050D03*
X0026915Y0013050D03*
D51*
X0029315Y0013050D03*
X0032115Y0019050D03*
X0026915Y0030650D03*
X0024915Y0032450D03*
X0027915Y0034850D03*
X0027985Y0035050D03*
X0029315Y0038250D03*
X0027715Y0041450D03*
X0027785Y0041650D03*
X0027915Y0042250D03*
X0027985Y0042450D03*
X0027985Y0042650D03*
X0028115Y0043250D03*
X0028185Y0043450D03*
X0028185Y0043650D03*
X0030715Y0042850D03*
X0041915Y0033050D03*
X0042385Y0033450D03*
X0042585Y0033650D03*
X0051585Y0036450D03*
X0053385Y0039850D03*
X0053385Y0040050D03*
X0053385Y0040250D03*
X0051315Y0029650D03*
X0051315Y0029450D03*
X0019715Y0021050D03*
X0019515Y0020850D03*
X0019315Y0020650D03*
X0019115Y0020450D03*
X0018785Y0020050D03*
X0018585Y0019850D03*
X0018385Y0019650D03*
X0018185Y0019450D03*
X0017985Y0019250D03*
X0017785Y0019050D03*
X0013785Y0035050D03*
X0013785Y0035250D03*
X0013785Y0035450D03*
X0013785Y0035650D03*
X0013715Y0035850D03*
X0013715Y0036050D03*
X0013715Y0036250D03*
X0013715Y0036450D03*
X0013715Y0036650D03*
X0013715Y0036850D03*
X0013715Y0037050D03*
X0013715Y0037250D03*
X0013715Y0038650D03*
X0013715Y0038850D03*
X0013715Y0039050D03*
X0013715Y0039250D03*
X0013715Y0039450D03*
X0013715Y0039650D03*
X0013715Y0039850D03*
X0013715Y0040050D03*
X0013715Y0040250D03*
X0018515Y0054250D03*
X0018585Y0054450D03*
X0018715Y0054850D03*
D52*
X0018715Y0054784D03*
X0018715Y0054716D03*
X0018785Y0054916D03*
X0018785Y0054984D03*
X0018585Y0054384D03*
X0025915Y0053716D03*
X0034385Y0051784D03*
X0028185Y0043584D03*
X0028185Y0043516D03*
X0028185Y0043384D03*
X0028115Y0043316D03*
X0028115Y0043184D03*
X0028115Y0043116D03*
X0027985Y0042584D03*
X0027985Y0042516D03*
X0027915Y0042384D03*
X0027915Y0042316D03*
X0027915Y0042184D03*
X0027785Y0041784D03*
X0027785Y0041716D03*
X0029385Y0038384D03*
X0029185Y0037916D03*
X0029115Y0037784D03*
X0028115Y0035384D03*
X0027985Y0034984D03*
X0027915Y0034916D03*
X0027915Y0034784D03*
X0024985Y0032516D03*
X0024585Y0032184D03*
X0026385Y0029384D03*
X0020585Y0021984D03*
X0020515Y0021916D03*
X0019785Y0021116D03*
X0019585Y0020916D03*
X0019385Y0020716D03*
X0019185Y0020516D03*
X0018915Y0020184D03*
X0018715Y0019984D03*
X0018515Y0019784D03*
X0018315Y0019584D03*
X0018115Y0019384D03*
X0017915Y0019184D03*
X0015515Y0019984D03*
X0027585Y0016916D03*
X0029385Y0013116D03*
X0031985Y0018716D03*
X0032115Y0018984D03*
X0032185Y0019184D03*
X0035715Y0023516D03*
X0035515Y0026384D03*
X0036915Y0034784D03*
X0041985Y0033116D03*
X0042315Y0033384D03*
X0042515Y0033584D03*
X0051315Y0036116D03*
X0051385Y0036184D03*
X0051515Y0036384D03*
X0053385Y0039916D03*
X0053385Y0039984D03*
X0053385Y0040116D03*
X0053385Y0040184D03*
X0053385Y0040316D03*
X0051315Y0029584D03*
X0051315Y0029516D03*
X0051315Y0029384D03*
X0013785Y0034916D03*
X0013785Y0034984D03*
X0013785Y0035116D03*
X0013785Y0035184D03*
X0013785Y0035316D03*
X0013785Y0035384D03*
X0013785Y0035516D03*
X0013785Y0035584D03*
X0013785Y0035716D03*
X0013715Y0035784D03*
X0013715Y0035916D03*
X0013715Y0035984D03*
X0013715Y0036116D03*
X0013715Y0036184D03*
X0013715Y0036316D03*
X0013715Y0036384D03*
X0013715Y0036516D03*
X0013715Y0036584D03*
X0013715Y0036716D03*
X0013715Y0036784D03*
X0013715Y0036916D03*
X0013715Y0036984D03*
X0013715Y0037116D03*
X0013715Y0037184D03*
X0013715Y0037316D03*
X0013715Y0037384D03*
X0013715Y0038716D03*
X0013715Y0038784D03*
X0013715Y0038916D03*
X0013715Y0038984D03*
X0013715Y0039116D03*
X0013715Y0039184D03*
X0013715Y0039316D03*
X0013715Y0039384D03*
X0013715Y0039516D03*
X0013715Y0039584D03*
X0013715Y0039716D03*
X0013715Y0039784D03*
X0013715Y0039916D03*
X0013715Y0039984D03*
X0013715Y0040116D03*
X0013715Y0040184D03*
X0013715Y0040316D03*
X0013715Y0040384D03*
D53*
X0027850Y0041916D03*
X0027850Y0041984D03*
X0028050Y0042784D03*
X0028050Y0042916D03*
X0028050Y0035184D03*
X0037850Y0028984D03*
X0037850Y0028916D03*
X0037850Y0028384D03*
X0042050Y0033184D03*
X0042450Y0033516D03*
X0051450Y0036316D03*
X0050050Y0024784D03*
X0032050Y0018916D03*
X0029450Y0013184D03*
X0019850Y0021184D03*
X0019650Y0020984D03*
X0019450Y0020784D03*
X0019250Y0020584D03*
X0018850Y0020116D03*
X0018650Y0019916D03*
X0018450Y0019716D03*
X0018250Y0019516D03*
X0018050Y0019316D03*
X0017850Y0019116D03*
X0012050Y0023184D03*
X0018650Y0054516D03*
X0018650Y0054584D03*
X0035650Y0053984D03*
X0035650Y0053916D03*
D54*
X0035350Y0055250D03*
X0035280Y0055450D03*
X0035150Y0055650D03*
X0035020Y0055850D03*
X0037950Y0056650D03*
X0037950Y0056850D03*
X0037950Y0057050D03*
X0037820Y0054250D03*
X0037750Y0054050D03*
X0037750Y0053850D03*
X0037680Y0053450D03*
X0034350Y0042250D03*
X0034280Y0042050D03*
X0034220Y0041850D03*
X0034150Y0041650D03*
X0034080Y0041450D03*
X0034020Y0041250D03*
X0033950Y0041050D03*
X0033880Y0040850D03*
X0033820Y0040650D03*
X0033750Y0040450D03*
X0033680Y0040250D03*
X0033620Y0040050D03*
X0033550Y0039850D03*
X0033480Y0039650D03*
X0033420Y0039450D03*
X0032880Y0036650D03*
X0032880Y0036450D03*
X0027020Y0030250D03*
X0025620Y0028650D03*
X0018220Y0023450D03*
X0015880Y0017250D03*
X0025220Y0016250D03*
X0025280Y0016050D03*
X0025350Y0015850D03*
X0025420Y0015650D03*
X0025480Y0015450D03*
X0025620Y0015250D03*
X0025680Y0015050D03*
X0025750Y0014850D03*
X0025880Y0014650D03*
X0026080Y0014250D03*
X0026750Y0013250D03*
X0037080Y0018650D03*
X0044420Y0023650D03*
X0045150Y0025050D03*
X0045150Y0025450D03*
X0045220Y0025850D03*
X0044220Y0035250D03*
X0044420Y0035450D03*
X0044620Y0035650D03*
X0050480Y0035050D03*
X0050620Y0035250D03*
X0049480Y0041050D03*
X0053020Y0041250D03*
X0017880Y0052850D03*
X0013950Y0043850D03*
X0013950Y0043650D03*
X0014820Y0029850D03*
X0014880Y0029650D03*
X0014950Y0029450D03*
D55*
X0013280Y0022250D03*
X0013680Y0021850D03*
X0013880Y0021650D03*
X0014080Y0021450D03*
X0018950Y0020250D03*
X0019880Y0021250D03*
X0020080Y0021450D03*
X0020280Y0021650D03*
X0025620Y0028450D03*
X0026420Y0029450D03*
X0026550Y0029650D03*
X0028220Y0029450D03*
X0027820Y0034450D03*
X0027480Y0040450D03*
X0027620Y0041050D03*
X0027680Y0041250D03*
X0027820Y0041850D03*
X0037350Y0033850D03*
X0037880Y0029050D03*
X0035350Y0025650D03*
X0035750Y0023450D03*
X0031950Y0018650D03*
X0031880Y0018450D03*
X0031820Y0018250D03*
X0029620Y0013450D03*
X0029480Y0013250D03*
X0050080Y0024850D03*
X0050750Y0028650D03*
X0051280Y0029250D03*
X0051750Y0036650D03*
X0053280Y0039450D03*
X0053350Y0039650D03*
X0035620Y0053650D03*
X0013680Y0038450D03*
X0013680Y0038250D03*
X0013680Y0038050D03*
X0013680Y0037850D03*
X0013680Y0037650D03*
X0013680Y0037450D03*
D56*
X0013950Y0043716D03*
X0013950Y0043784D03*
X0013950Y0043916D03*
X0013950Y0043984D03*
X0017880Y0052784D03*
X0017950Y0052916D03*
X0017950Y0052984D03*
X0030480Y0041584D03*
X0030420Y0041384D03*
X0033680Y0040316D03*
X0033620Y0040116D03*
X0033620Y0039984D03*
X0033550Y0039916D03*
X0033550Y0039784D03*
X0033480Y0039716D03*
X0033480Y0039584D03*
X0033420Y0039384D03*
X0033350Y0039184D03*
X0033750Y0040516D03*
X0033820Y0040716D03*
X0033880Y0040916D03*
X0033950Y0041116D03*
X0034020Y0041316D03*
X0034080Y0041516D03*
X0034150Y0041716D03*
X0034220Y0041784D03*
X0034220Y0041916D03*
X0034280Y0041984D03*
X0034350Y0042184D03*
X0034420Y0042316D03*
X0034420Y0042384D03*
X0034480Y0042516D03*
X0034550Y0042716D03*
X0032880Y0036784D03*
X0032880Y0036716D03*
X0032880Y0036584D03*
X0032880Y0036516D03*
X0032880Y0035116D03*
X0044150Y0035184D03*
X0044280Y0035316D03*
X0044350Y0035384D03*
X0044480Y0035516D03*
X0044550Y0035584D03*
X0044680Y0035716D03*
X0050420Y0034984D03*
X0050550Y0035116D03*
X0050550Y0035184D03*
X0050680Y0035316D03*
X0049550Y0041116D03*
X0049620Y0041184D03*
X0052880Y0041384D03*
X0052950Y0041316D03*
X0049280Y0027916D03*
X0045220Y0025984D03*
X0045220Y0025916D03*
X0045220Y0025784D03*
X0045220Y0025716D03*
X0045150Y0025516D03*
X0045150Y0025384D03*
X0044350Y0023584D03*
X0044280Y0023516D03*
X0026680Y0013316D03*
X0026620Y0013384D03*
X0026480Y0013584D03*
X0026350Y0013784D03*
X0026150Y0014116D03*
X0026020Y0014384D03*
X0025950Y0014516D03*
X0025880Y0014584D03*
X0025820Y0014716D03*
X0025820Y0014784D03*
X0025750Y0014916D03*
X0025680Y0014984D03*
X0025680Y0015116D03*
X0025620Y0015184D03*
X0025550Y0015316D03*
X0025550Y0015384D03*
X0025480Y0015516D03*
X0025480Y0015584D03*
X0025420Y0015716D03*
X0025420Y0015784D03*
X0025350Y0015916D03*
X0025280Y0016116D03*
X0025220Y0016316D03*
X0018020Y0023184D03*
X0018150Y0023384D03*
X0012150Y0022984D03*
X0015950Y0017316D03*
X0015820Y0017184D03*
X0014950Y0029516D03*
X0014880Y0029584D03*
X0014880Y0029716D03*
X0035480Y0054916D03*
X0035480Y0054984D03*
X0035420Y0055116D03*
X0035420Y0055184D03*
X0035350Y0055316D03*
X0035280Y0055384D03*
X0035220Y0055516D03*
X0035220Y0055584D03*
X0035080Y0055784D03*
X0037950Y0056584D03*
X0037950Y0056716D03*
X0037950Y0056784D03*
X0037950Y0056916D03*
X0037950Y0056984D03*
X0037950Y0057116D03*
X0037950Y0057184D03*
X0037820Y0054384D03*
X0037820Y0054316D03*
X0037750Y0053984D03*
X0037750Y0053916D03*
X0037750Y0053784D03*
X0037680Y0053516D03*
D57*
X0035620Y0053716D03*
X0035620Y0053784D03*
X0030750Y0042916D03*
X0028220Y0043716D03*
X0027880Y0042116D03*
X0027750Y0041584D03*
X0027750Y0041516D03*
X0027680Y0041384D03*
X0027680Y0041316D03*
X0027680Y0041184D03*
X0027620Y0041116D03*
X0027620Y0040984D03*
X0027620Y0040916D03*
X0027550Y0040784D03*
X0027550Y0040716D03*
X0027880Y0034716D03*
X0027820Y0034584D03*
X0027820Y0034516D03*
X0027750Y0034316D03*
X0025020Y0032584D03*
X0026620Y0029716D03*
X0026550Y0029584D03*
X0026480Y0029516D03*
X0032880Y0034184D03*
X0035620Y0023916D03*
X0032020Y0018784D03*
X0031950Y0018584D03*
X0031880Y0018516D03*
X0031880Y0018384D03*
X0031820Y0018316D03*
X0031750Y0018184D03*
X0031750Y0018116D03*
X0031680Y0017984D03*
X0031620Y0017784D03*
X0029680Y0013516D03*
X0029550Y0013316D03*
X0020420Y0021784D03*
X0020350Y0021716D03*
X0020220Y0021584D03*
X0020150Y0021516D03*
X0020020Y0021384D03*
X0019950Y0021316D03*
X0019080Y0020384D03*
X0019020Y0020316D03*
X0014220Y0021316D03*
X0014150Y0021384D03*
X0014020Y0021516D03*
X0013950Y0021584D03*
X0013820Y0021716D03*
X0013750Y0021784D03*
X0013220Y0022316D03*
X0013150Y0022384D03*
X0012950Y0022516D03*
X0012880Y0022584D03*
X0014550Y0015784D03*
X0013680Y0037516D03*
X0013680Y0037584D03*
X0013680Y0037716D03*
X0013680Y0037784D03*
X0013680Y0037916D03*
X0013680Y0037984D03*
X0013680Y0038116D03*
X0013680Y0038184D03*
X0013680Y0038316D03*
X0013680Y0038384D03*
X0013680Y0038516D03*
X0013680Y0038584D03*
X0049220Y0027784D03*
X0051280Y0029316D03*
X0050150Y0024916D03*
X0051620Y0036516D03*
X0051680Y0036584D03*
X0053220Y0039116D03*
X0053220Y0039184D03*
X0053280Y0039316D03*
X0053280Y0039384D03*
X0053350Y0039516D03*
X0053350Y0039584D03*
X0053350Y0039716D03*
X0053350Y0039784D03*
D58*
X0053185Y0038984D03*
X0053115Y0038916D03*
X0052985Y0038584D03*
X0052785Y0038184D03*
X0052115Y0037184D03*
X0051985Y0036984D03*
X0051915Y0036916D03*
X0051785Y0036716D03*
X0049585Y0027316D03*
X0049715Y0027184D03*
X0049785Y0027116D03*
X0049915Y0026916D03*
X0049985Y0026784D03*
X0050115Y0026584D03*
X0050185Y0024984D03*
X0037915Y0028316D03*
X0037915Y0029116D03*
X0035315Y0025584D03*
X0035585Y0023984D03*
X0031585Y0017716D03*
X0031515Y0017584D03*
X0031515Y0017516D03*
X0031385Y0017184D03*
X0031185Y0016716D03*
X0030315Y0014716D03*
X0030115Y0014316D03*
X0029915Y0013916D03*
X0029785Y0013716D03*
X0029715Y0013584D03*
X0029585Y0013384D03*
X0015515Y0019916D03*
X0014515Y0020984D03*
X0014385Y0021116D03*
X0014315Y0021184D03*
X0013585Y0021984D03*
X0013385Y0022184D03*
X0025115Y0032716D03*
X0026915Y0030716D03*
X0027715Y0034116D03*
X0027715Y0034184D03*
X0027785Y0034384D03*
X0027315Y0039784D03*
X0027385Y0040116D03*
X0027515Y0040516D03*
X0027515Y0040584D03*
X0030715Y0042984D03*
X0037315Y0033784D03*
X0035585Y0053584D03*
X0026585Y0056784D03*
X0025915Y0053784D03*
X0024385Y0059716D03*
D59*
X0017985Y0053050D03*
X0013915Y0043450D03*
X0013915Y0043250D03*
X0014715Y0030250D03*
X0014785Y0030050D03*
X0017915Y0023050D03*
X0017785Y0022850D03*
X0016115Y0017450D03*
X0025115Y0016650D03*
X0025185Y0016450D03*
X0025985Y0014450D03*
X0026185Y0014050D03*
X0026315Y0013850D03*
X0026585Y0013450D03*
X0028185Y0029650D03*
X0030115Y0040450D03*
X0030185Y0040650D03*
X0030315Y0041050D03*
X0030385Y0041250D03*
X0030515Y0041650D03*
X0030585Y0041850D03*
X0035515Y0054850D03*
X0037915Y0055050D03*
X0037915Y0055250D03*
X0037915Y0055450D03*
X0037915Y0055650D03*
X0037985Y0056450D03*
X0050785Y0035450D03*
X0050585Y0030450D03*
X0045185Y0025650D03*
X0045115Y0025250D03*
D60*
X0045115Y0025316D03*
X0045115Y0025184D03*
X0045115Y0025116D03*
X0045185Y0025584D03*
X0044515Y0023784D03*
X0037185Y0034384D03*
X0033715Y0040384D03*
X0033785Y0040584D03*
X0033915Y0040984D03*
X0033985Y0041184D03*
X0034115Y0041584D03*
X0030585Y0041916D03*
X0030585Y0041984D03*
X0030515Y0041784D03*
X0030515Y0041716D03*
X0030385Y0041316D03*
X0030385Y0041184D03*
X0030315Y0041116D03*
X0030315Y0040984D03*
X0030185Y0040716D03*
X0030115Y0040516D03*
X0032715Y0050784D03*
X0035515Y0054784D03*
X0035115Y0055716D03*
X0034985Y0055916D03*
X0034915Y0055984D03*
X0037915Y0055784D03*
X0037915Y0055716D03*
X0037915Y0055584D03*
X0037915Y0055516D03*
X0037915Y0055384D03*
X0037915Y0055316D03*
X0037915Y0055184D03*
X0037915Y0055116D03*
X0037785Y0054184D03*
X0037785Y0054116D03*
X0037985Y0056516D03*
X0051315Y0042384D03*
X0049785Y0041384D03*
X0049715Y0041316D03*
X0053115Y0041116D03*
X0050715Y0035384D03*
X0026985Y0030384D03*
X0026985Y0030316D03*
X0018115Y0023316D03*
X0017985Y0023116D03*
X0017715Y0022784D03*
X0017585Y0022584D03*
X0015515Y0020116D03*
X0016185Y0017516D03*
X0014585Y0015984D03*
X0025115Y0016584D03*
X0025185Y0016516D03*
X0025185Y0016384D03*
X0025115Y0016716D03*
X0025315Y0015984D03*
X0026115Y0014184D03*
X0026385Y0013716D03*
X0026515Y0013516D03*
X0027585Y0016984D03*
X0014785Y0029916D03*
X0014785Y0029984D03*
X0014715Y0030184D03*
X0013915Y0043184D03*
X0013915Y0043316D03*
X0013915Y0043384D03*
X0013915Y0043516D03*
X0013915Y0043584D03*
X0018115Y0053316D03*
D61*
X0030715Y0043050D03*
X0027585Y0040850D03*
X0027515Y0040650D03*
X0027385Y0040050D03*
X0027715Y0034250D03*
X0035515Y0026450D03*
X0031715Y0018050D03*
X0031585Y0017650D03*
X0031385Y0017250D03*
X0031315Y0017050D03*
X0030185Y0014450D03*
X0029985Y0014050D03*
X0029785Y0013650D03*
X0013515Y0022050D03*
X0049985Y0026850D03*
X0050185Y0026450D03*
X0051185Y0029050D03*
X0051915Y0036850D03*
X0052185Y0037250D03*
X0052315Y0037450D03*
X0052915Y0038450D03*
X0053115Y0038850D03*
X0053185Y0039050D03*
D62*
X0053050Y0038784D03*
X0053050Y0038716D03*
X0052850Y0038316D03*
X0052650Y0037984D03*
X0051850Y0036784D03*
X0051250Y0029184D03*
X0051250Y0029116D03*
X0050850Y0028716D03*
X0049850Y0026984D03*
X0050050Y0026716D03*
X0048450Y0028584D03*
X0031650Y0017916D03*
X0031450Y0017384D03*
X0031450Y0017316D03*
X0031050Y0016384D03*
X0030250Y0014584D03*
X0030050Y0014184D03*
X0029850Y0013784D03*
X0028250Y0029384D03*
X0024650Y0029716D03*
X0024450Y0032116D03*
X0027450Y0040316D03*
X0027450Y0040384D03*
X0028250Y0043784D03*
X0025050Y0056716D03*
X0031650Y0057516D03*
X0013450Y0022116D03*
X0013650Y0021916D03*
D63*
X0013050Y0022450D03*
X0014250Y0021250D03*
X0014450Y0021050D03*
X0025050Y0032650D03*
X0027450Y0040250D03*
X0036850Y0034850D03*
X0049650Y0027250D03*
X0052050Y0037050D03*
X0052450Y0037650D03*
X0053250Y0039250D03*
X0031650Y0017850D03*
X0031250Y0016850D03*
X0030650Y0015450D03*
X0029850Y0013850D03*
D64*
X0026250Y0013916D03*
X0026250Y0013984D03*
X0026050Y0014316D03*
X0025250Y0016184D03*
X0025050Y0016916D03*
X0025050Y0016984D03*
X0017850Y0022984D03*
X0016250Y0017584D03*
X0016050Y0017384D03*
X0014850Y0029784D03*
X0030050Y0040316D03*
X0030250Y0040784D03*
X0030250Y0040916D03*
X0030450Y0041516D03*
X0030650Y0042184D03*
X0034050Y0041384D03*
X0033850Y0040784D03*
X0033650Y0040184D03*
X0037250Y0034316D03*
X0037250Y0034184D03*
X0043050Y0034184D03*
X0050850Y0035516D03*
X0053050Y0041184D03*
X0044450Y0023716D03*
X0037850Y0054516D03*
X0037850Y0054584D03*
X0037850Y0054716D03*
X0037850Y0054784D03*
X0037850Y0054916D03*
X0018050Y0053184D03*
X0018050Y0053116D03*
D65*
X0025150Y0057184D03*
X0025150Y0057316D03*
X0025150Y0057384D03*
X0025150Y0057516D03*
X0025150Y0057584D03*
X0024950Y0058516D03*
X0027350Y0039984D03*
X0027350Y0039916D03*
X0027150Y0039184D03*
X0027150Y0039116D03*
X0025150Y0032784D03*
X0024950Y0029316D03*
X0032950Y0034116D03*
X0036750Y0034916D03*
X0037950Y0029184D03*
X0035550Y0026516D03*
X0035750Y0023384D03*
X0031350Y0017116D03*
X0031150Y0016584D03*
X0030950Y0016184D03*
X0030950Y0016116D03*
X0030750Y0015716D03*
X0030550Y0015184D03*
X0030350Y0014784D03*
X0030150Y0014384D03*
X0029950Y0013984D03*
X0014550Y0015716D03*
X0014550Y0020916D03*
X0049550Y0027384D03*
X0050150Y0026516D03*
X0050950Y0028784D03*
X0051150Y0028984D03*
X0052350Y0037516D03*
X0052550Y0037784D03*
X0052750Y0038116D03*
X0052950Y0038516D03*
D66*
X0052885Y0038384D03*
X0052615Y0037916D03*
X0052485Y0037716D03*
X0052415Y0037584D03*
X0052285Y0037384D03*
X0052215Y0037316D03*
X0052085Y0037116D03*
X0051085Y0028916D03*
X0049215Y0027716D03*
X0050215Y0026384D03*
X0050215Y0026316D03*
X0050285Y0026184D03*
X0050285Y0026116D03*
X0050285Y0025184D03*
X0035285Y0025516D03*
X0031285Y0016984D03*
X0031285Y0016916D03*
X0031215Y0016784D03*
X0031085Y0016516D03*
X0031015Y0016316D03*
X0030885Y0015984D03*
X0030885Y0015916D03*
X0030815Y0015784D03*
X0030685Y0015584D03*
X0030685Y0015516D03*
X0030615Y0015384D03*
X0030615Y0015316D03*
X0030485Y0015116D03*
X0030415Y0014984D03*
X0030415Y0014916D03*
X0030215Y0014516D03*
X0030015Y0014116D03*
X0014685Y0020784D03*
X0026885Y0030784D03*
X0027685Y0033984D03*
X0027215Y0039316D03*
X0027215Y0039384D03*
X0027215Y0039516D03*
X0027285Y0039584D03*
X0027285Y0039716D03*
X0027415Y0040184D03*
X0035615Y0053516D03*
X0025085Y0056784D03*
X0025085Y0056916D03*
X0025085Y0056984D03*
X0025085Y0057116D03*
X0025085Y0057916D03*
X0025085Y0057984D03*
X0025015Y0058316D03*
X0024885Y0058716D03*
X0024485Y0059584D03*
D67*
X0024550Y0059450D03*
X0024750Y0059050D03*
X0025150Y0057450D03*
X0025150Y0057250D03*
X0027350Y0039850D03*
X0035550Y0024050D03*
X0031150Y0016650D03*
X0030750Y0015650D03*
X0030550Y0015250D03*
X0030350Y0014850D03*
X0050350Y0025850D03*
X0052550Y0037850D03*
D68*
X0014585Y0015384D03*
D69*
X0014585Y0015450D03*
X0025515Y0054450D03*
D70*
X0022950Y0030984D03*
X0014550Y0015516D03*
D71*
X0014550Y0015584D03*
X0023750Y0031716D03*
X0025750Y0034116D03*
X0025950Y0034716D03*
X0034950Y0052116D03*
X0035150Y0052384D03*
D72*
X0025785Y0054050D03*
X0028385Y0044050D03*
X0026715Y0037450D03*
X0026585Y0037050D03*
X0027585Y0033450D03*
X0027585Y0033250D03*
X0027715Y0032850D03*
X0028785Y0031450D03*
X0028985Y0031050D03*
X0028915Y0030250D03*
X0028785Y0030050D03*
X0025315Y0033050D03*
X0037315Y0033650D03*
X0014585Y0015650D03*
X0013385Y0017050D03*
X0012985Y0017650D03*
X0012585Y0018450D03*
X0012385Y0018850D03*
X0012315Y0019050D03*
X0012185Y0019450D03*
X0012115Y0019650D03*
X0011985Y0020250D03*
X0011915Y0020450D03*
D73*
X0014550Y0015850D03*
X0013950Y0033450D03*
X0013750Y0040450D03*
X0013750Y0040650D03*
X0013750Y0040850D03*
X0013750Y0041050D03*
X0013750Y0041250D03*
X0018350Y0053850D03*
X0029550Y0038850D03*
X0029150Y0037850D03*
X0028950Y0037450D03*
X0028550Y0036450D03*
X0028150Y0035450D03*
X0042150Y0033250D03*
X0053350Y0040450D03*
D74*
X0049950Y0041584D03*
X0037950Y0055916D03*
X0037950Y0055984D03*
X0037950Y0056116D03*
X0037950Y0056184D03*
X0037950Y0056316D03*
X0037950Y0056384D03*
X0035550Y0054716D03*
X0035550Y0054584D03*
X0034750Y0056184D03*
X0034550Y0056384D03*
X0018150Y0053384D03*
X0030150Y0040584D03*
X0029950Y0039984D03*
X0029950Y0039916D03*
X0014150Y0032316D03*
X0014350Y0031516D03*
X0014550Y0030784D03*
X0014550Y0030716D03*
X0014750Y0030116D03*
X0017550Y0022516D03*
X0017150Y0021984D03*
X0016150Y0020784D03*
X0014550Y0015916D03*
X0024950Y0017316D03*
X0024950Y0017384D03*
X0024950Y0017516D03*
D75*
X0025485Y0018850D03*
X0028685Y0018850D03*
X0028815Y0019050D03*
X0029085Y0019450D03*
X0029215Y0019650D03*
X0043815Y0023050D03*
X0044015Y0023250D03*
X0045215Y0026450D03*
X0045215Y0026650D03*
X0045215Y0026850D03*
X0043085Y0034250D03*
X0045215Y0036250D03*
X0052815Y0041450D03*
X0037485Y0052450D03*
X0037615Y0053050D03*
X0037885Y0057650D03*
X0037815Y0057850D03*
X0037815Y0058050D03*
X0034685Y0043050D03*
X0033085Y0038250D03*
X0033085Y0038050D03*
X0033015Y0037850D03*
X0015085Y0029050D03*
X0014615Y0016050D03*
X0014015Y0044450D03*
X0014485Y0045650D03*
X0015015Y0046850D03*
X0015085Y0047050D03*
X0015215Y0047250D03*
X0015285Y0047450D03*
X0015485Y0047850D03*
X0015615Y0048250D03*
X0015815Y0048650D03*
X0016015Y0049050D03*
X0016085Y0049250D03*
X0016285Y0049650D03*
X0017015Y0051250D03*
D76*
X0035085Y0043984D03*
X0035215Y0044384D03*
X0037215Y0051116D03*
X0037215Y0051184D03*
X0037285Y0051316D03*
X0037285Y0051384D03*
X0048685Y0040116D03*
X0048615Y0039984D03*
X0048885Y0040316D03*
X0046815Y0037984D03*
X0046285Y0037384D03*
X0046215Y0037316D03*
X0046085Y0037184D03*
X0046015Y0037116D03*
X0045885Y0036984D03*
X0045815Y0036916D03*
X0049685Y0034116D03*
X0045085Y0027784D03*
X0045085Y0027716D03*
X0045215Y0024916D03*
X0043285Y0022584D03*
X0043215Y0022516D03*
X0043015Y0022384D03*
X0048015Y0023516D03*
X0052615Y0041584D03*
X0025615Y0028784D03*
X0024215Y0029916D03*
X0015685Y0027784D03*
X0015615Y0027916D03*
X0015485Y0028116D03*
X0015485Y0028184D03*
X0012285Y0022784D03*
X0014615Y0016116D03*
X0027485Y0017116D03*
D77*
X0014620Y0016184D03*
X0016880Y0026184D03*
X0016750Y0026316D03*
X0016680Y0026384D03*
X0016550Y0026516D03*
X0016480Y0026584D03*
X0016420Y0026716D03*
X0016350Y0026784D03*
X0016080Y0027116D03*
X0024150Y0029984D03*
X0035350Y0044716D03*
X0035420Y0044916D03*
X0035480Y0044984D03*
X0035480Y0045116D03*
X0035550Y0045184D03*
X0035620Y0045384D03*
X0035680Y0045584D03*
X0035750Y0045784D03*
X0036750Y0049116D03*
X0036750Y0049184D03*
X0036820Y0049316D03*
X0036820Y0049384D03*
X0036880Y0049584D03*
X0036880Y0049716D03*
X0036950Y0049916D03*
X0036950Y0049984D03*
X0037020Y0050184D03*
X0037680Y0058716D03*
X0022750Y0054184D03*
X0047480Y0038716D03*
X0047550Y0038784D03*
X0048020Y0039316D03*
X0048080Y0039384D03*
X0049420Y0033784D03*
X0049350Y0033716D03*
X0049280Y0033584D03*
X0049220Y0033516D03*
X0044750Y0028716D03*
X0044820Y0028584D03*
X0044820Y0028516D03*
X0044880Y0028384D03*
X0041950Y0021516D03*
X0041680Y0021316D03*
X0041420Y0021116D03*
D78*
X0044485Y0029250D03*
X0049015Y0033250D03*
X0036215Y0047250D03*
X0036285Y0047450D03*
X0024085Y0030050D03*
X0017885Y0025250D03*
X0017615Y0025450D03*
X0017415Y0025650D03*
X0014615Y0016250D03*
D79*
X0014615Y0016316D03*
X0015485Y0020516D03*
X0018485Y0024784D03*
X0024015Y0030184D03*
X0037015Y0018716D03*
X0044015Y0029916D03*
X0043885Y0030116D03*
X0048615Y0032784D03*
X0029485Y0052384D03*
X0037485Y0059316D03*
X0037485Y0059384D03*
X0037415Y0059516D03*
D80*
X0037215Y0060050D03*
X0036015Y0061850D03*
X0035815Y0062050D03*
X0035285Y0062450D03*
X0029685Y0052250D03*
X0015485Y0020650D03*
X0014615Y0016450D03*
D81*
X0014650Y0016516D03*
X0020650Y0023384D03*
X0020780Y0023316D03*
X0027380Y0017384D03*
X0039780Y0020116D03*
X0043180Y0030784D03*
X0042980Y0034584D03*
X0037120Y0060316D03*
X0037050Y0060384D03*
X0036120Y0061784D03*
X0035180Y0062516D03*
X0035050Y0062584D03*
X0024920Y0061516D03*
X0024650Y0061384D03*
X0024520Y0061316D03*
D82*
X0031850Y0057316D03*
X0036450Y0061384D03*
X0036650Y0061184D03*
X0043050Y0030916D03*
X0049450Y0028316D03*
X0014650Y0016584D03*
D83*
X0014650Y0016650D03*
X0021650Y0022850D03*
X0028850Y0020050D03*
X0042850Y0031050D03*
D84*
X0042720Y0031116D03*
X0025720Y0056316D03*
X0027250Y0062584D03*
X0014650Y0016716D03*
D85*
X0027650Y0016716D03*
X0036980Y0020916D03*
X0036980Y0020984D03*
X0036720Y0021916D03*
X0038050Y0029516D03*
X0037320Y0033584D03*
X0048050Y0028716D03*
X0030650Y0043316D03*
X0028450Y0044184D03*
X0023580Y0031584D03*
X0022980Y0030916D03*
D86*
X0023050Y0030716D03*
X0026850Y0030984D03*
X0028850Y0031316D03*
X0029050Y0030784D03*
X0029050Y0030716D03*
X0029050Y0030584D03*
X0029050Y0030516D03*
X0028850Y0030116D03*
X0027650Y0032984D03*
X0026650Y0037116D03*
X0026650Y0037184D03*
X0036850Y0021384D03*
X0027650Y0016784D03*
X0013250Y0017184D03*
X0013050Y0017516D03*
X0012650Y0018316D03*
X0012450Y0018716D03*
X0012450Y0018784D03*
X0012250Y0019316D03*
X0012250Y0019384D03*
X0012050Y0019916D03*
X0012050Y0019984D03*
X0011850Y0020716D03*
X0035450Y0052916D03*
X0035450Y0052984D03*
D87*
X0034580Y0051850D03*
X0025120Y0057650D03*
X0025120Y0057850D03*
X0024980Y0058450D03*
X0024920Y0058650D03*
X0024850Y0058850D03*
X0024650Y0059250D03*
X0027180Y0039250D03*
X0027120Y0039050D03*
X0027050Y0038850D03*
X0027050Y0038650D03*
X0026980Y0038450D03*
X0026920Y0038250D03*
X0027650Y0033850D03*
X0027850Y0032650D03*
X0027980Y0032450D03*
X0028320Y0032050D03*
X0025180Y0032850D03*
X0024320Y0032050D03*
X0023120Y0030650D03*
X0024720Y0029650D03*
X0024850Y0029450D03*
X0035250Y0025450D03*
X0037980Y0028250D03*
X0037980Y0029250D03*
X0032720Y0020450D03*
X0015520Y0019850D03*
X0013580Y0016850D03*
X0049250Y0027650D03*
X0049450Y0027450D03*
X0050320Y0026050D03*
X0050380Y0025650D03*
X0050320Y0025450D03*
X0050320Y0025250D03*
X0051320Y0042450D03*
D88*
X0049815Y0041450D03*
X0035615Y0054450D03*
X0034685Y0056250D03*
X0030685Y0042450D03*
X0030685Y0042250D03*
X0030615Y0042050D03*
X0029885Y0039850D03*
X0029815Y0039650D03*
X0032815Y0035050D03*
X0035415Y0026050D03*
X0025015Y0017050D03*
X0025085Y0016850D03*
X0017615Y0022650D03*
X0017485Y0022450D03*
X0016215Y0020850D03*
X0014615Y0030450D03*
X0014485Y0031050D03*
X0014415Y0031250D03*
X0014215Y0032050D03*
X0014085Y0032650D03*
X0013815Y0042050D03*
X0013815Y0042250D03*
X0013815Y0042450D03*
X0013885Y0042650D03*
X0013885Y0042850D03*
X0013885Y0043050D03*
X0018085Y0053250D03*
D89*
X0016150Y0049384D03*
X0015950Y0048916D03*
X0015750Y0048516D03*
X0015550Y0047984D03*
X0015350Y0047584D03*
X0015150Y0047184D03*
X0015150Y0047116D03*
X0014950Y0046716D03*
X0014550Y0045784D03*
X0015150Y0028916D03*
X0015550Y0016984D03*
X0028550Y0018716D03*
X0028750Y0018984D03*
X0029150Y0019584D03*
X0043750Y0022984D03*
X0043950Y0023184D03*
X0045150Y0024984D03*
X0045150Y0036184D03*
X0033150Y0038384D03*
X0032950Y0037584D03*
X0032950Y0037516D03*
X0032950Y0037384D03*
X0032950Y0037316D03*
X0032950Y0035184D03*
X0034750Y0043184D03*
X0037550Y0052584D03*
X0037550Y0052716D03*
X0037550Y0052784D03*
D90*
X0037650Y0053250D03*
X0034450Y0042450D03*
X0033250Y0038850D03*
X0045250Y0026250D03*
X0045250Y0026050D03*
X0044250Y0023450D03*
X0015650Y0017050D03*
X0015050Y0029250D03*
X0016450Y0050050D03*
X0016650Y0050450D03*
X0016850Y0050850D03*
D91*
X0015750Y0048450D03*
X0015550Y0048050D03*
X0015350Y0047650D03*
X0014750Y0046250D03*
X0015150Y0028850D03*
X0024350Y0029850D03*
X0032950Y0037450D03*
X0032950Y0037650D03*
X0033150Y0038450D03*
X0034750Y0043250D03*
X0037550Y0052650D03*
X0049150Y0040650D03*
X0050150Y0034650D03*
X0028950Y0019250D03*
X0027550Y0017050D03*
D92*
X0036715Y0021716D03*
X0036785Y0021584D03*
X0035715Y0023316D03*
X0037985Y0029316D03*
X0037985Y0029384D03*
X0036715Y0034984D03*
X0028915Y0031184D03*
X0028985Y0030984D03*
X0028715Y0031516D03*
X0028585Y0031716D03*
X0028985Y0030384D03*
X0028715Y0029984D03*
X0027715Y0032916D03*
X0027585Y0033316D03*
X0027585Y0033384D03*
X0027585Y0033516D03*
X0025385Y0033184D03*
X0025385Y0033116D03*
X0024115Y0031916D03*
X0026515Y0036716D03*
X0026585Y0036916D03*
X0026585Y0036984D03*
X0026715Y0037384D03*
X0026715Y0037516D03*
X0026785Y0037716D03*
X0015515Y0019784D03*
X0012715Y0018184D03*
X0012715Y0018116D03*
X0012785Y0017984D03*
X0012915Y0017784D03*
X0012915Y0017716D03*
X0013115Y0017384D03*
X0013185Y0017316D03*
X0013315Y0017116D03*
X0012585Y0018384D03*
X0012515Y0018516D03*
X0012515Y0018584D03*
X0012385Y0018916D03*
X0012315Y0019116D03*
X0012185Y0019516D03*
X0012185Y0019584D03*
X0012115Y0019716D03*
X0012115Y0019784D03*
X0011985Y0020184D03*
D93*
X0012020Y0020050D03*
X0012080Y0019850D03*
X0011880Y0020650D03*
X0011820Y0020850D03*
X0011750Y0021050D03*
X0011750Y0021250D03*
X0011680Y0021450D03*
X0012750Y0018050D03*
X0013080Y0017450D03*
X0013220Y0017250D03*
X0025420Y0033250D03*
X0027620Y0033050D03*
X0026220Y0035650D03*
X0026280Y0035850D03*
X0026350Y0036050D03*
X0026420Y0036250D03*
X0026420Y0036450D03*
X0026480Y0036650D03*
X0026550Y0036850D03*
X0030680Y0043250D03*
X0034880Y0052050D03*
X0035420Y0052850D03*
X0038020Y0029450D03*
X0035620Y0026650D03*
X0036880Y0021250D03*
X0048220Y0028650D03*
D94*
X0050950Y0035650D03*
X0053150Y0041050D03*
X0037150Y0034450D03*
X0029750Y0039450D03*
X0029950Y0040050D03*
X0026950Y0030450D03*
X0014550Y0030850D03*
X0014350Y0031450D03*
X0012150Y0023050D03*
X0017350Y0022250D03*
X0016550Y0017850D03*
X0016350Y0017650D03*
X0024950Y0017450D03*
X0024950Y0017250D03*
X0018150Y0053450D03*
X0035550Y0054650D03*
X0037950Y0055850D03*
X0037950Y0056050D03*
X0037950Y0056250D03*
D95*
X0037415Y0059450D03*
X0029415Y0052450D03*
X0018085Y0052650D03*
X0043015Y0034450D03*
X0044085Y0029850D03*
X0048685Y0032850D03*
X0049885Y0030650D03*
X0040415Y0020450D03*
X0027415Y0017250D03*
X0018685Y0024650D03*
D96*
X0025715Y0018650D03*
X0027315Y0017450D03*
X0043115Y0030850D03*
X0042985Y0034650D03*
X0036715Y0061050D03*
X0036585Y0061250D03*
D97*
X0027085Y0062516D03*
X0049485Y0028384D03*
X0027285Y0017516D03*
X0021815Y0022784D03*
D98*
X0025620Y0028316D03*
X0028880Y0030184D03*
X0028950Y0030316D03*
X0027620Y0033116D03*
X0027620Y0033184D03*
X0025550Y0033516D03*
X0025480Y0033384D03*
X0025480Y0033316D03*
X0026280Y0035916D03*
X0026350Y0036116D03*
X0026350Y0036184D03*
X0026420Y0036316D03*
X0026420Y0036384D03*
X0026480Y0036516D03*
X0026480Y0036584D03*
X0026550Y0036784D03*
X0035420Y0024184D03*
X0036750Y0021784D03*
X0036880Y0021316D03*
X0013020Y0017584D03*
X0012820Y0017916D03*
X0012020Y0020116D03*
X0011950Y0020316D03*
X0011950Y0020384D03*
X0011880Y0020516D03*
X0011880Y0020584D03*
X0011820Y0020784D03*
X0011820Y0020916D03*
X0011820Y0020984D03*
X0011750Y0021116D03*
X0011750Y0021184D03*
X0011750Y0021316D03*
X0011680Y0021516D03*
X0011680Y0021584D03*
X0034820Y0051984D03*
X0025750Y0054116D03*
X0025680Y0054184D03*
D99*
X0024250Y0053116D03*
X0020250Y0056984D03*
X0022380Y0060716D03*
X0022520Y0060784D03*
X0031380Y0064116D03*
X0031250Y0055984D03*
X0031250Y0055916D03*
X0026520Y0017584D03*
D100*
X0026520Y0017650D03*
X0028050Y0020450D03*
X0018980Y0052250D03*
D101*
X0030350Y0052984D03*
X0026550Y0017716D03*
D102*
X0026515Y0017784D03*
D103*
X0036850Y0021450D03*
X0028250Y0029250D03*
X0029050Y0030450D03*
X0029050Y0030650D03*
X0029050Y0030850D03*
X0026650Y0037250D03*
X0012250Y0019250D03*
X0012650Y0018250D03*
X0012850Y0017850D03*
D104*
X0026550Y0017850D03*
X0032080Y0056850D03*
D105*
X0031185Y0055584D03*
X0028715Y0049784D03*
X0020385Y0057184D03*
X0027915Y0020516D03*
X0026585Y0017984D03*
X0026585Y0017916D03*
D106*
X0017580Y0018850D03*
X0017380Y0018650D03*
X0017180Y0018450D03*
X0016980Y0018250D03*
X0016780Y0018050D03*
X0015520Y0020050D03*
X0016380Y0021050D03*
X0016580Y0021250D03*
X0016720Y0021450D03*
X0016920Y0021650D03*
X0017050Y0021850D03*
X0017180Y0022050D03*
X0014580Y0030650D03*
X0014320Y0031650D03*
X0014250Y0031850D03*
X0014180Y0032250D03*
X0014120Y0032450D03*
X0014050Y0032850D03*
X0013980Y0033050D03*
X0013980Y0033250D03*
X0013920Y0033650D03*
X0013780Y0041450D03*
X0013780Y0041650D03*
X0013780Y0041850D03*
X0018250Y0053650D03*
X0030720Y0042650D03*
X0029720Y0039250D03*
X0028720Y0036850D03*
X0028450Y0036250D03*
X0028380Y0036050D03*
X0037320Y0034050D03*
X0037780Y0028650D03*
X0037780Y0028450D03*
X0035380Y0025850D03*
X0035720Y0023650D03*
X0042980Y0034050D03*
X0051120Y0035850D03*
X0053320Y0040650D03*
X0053250Y0040850D03*
X0050920Y0030250D03*
X0051120Y0030050D03*
X0051250Y0029850D03*
X0049250Y0027850D03*
X0034450Y0056450D03*
D107*
X0024215Y0053250D03*
X0020415Y0057250D03*
X0026615Y0018050D03*
D108*
X0032250Y0019316D03*
X0035380Y0025916D03*
X0035450Y0026116D03*
X0035450Y0026184D03*
X0037780Y0028516D03*
X0037780Y0028584D03*
X0037780Y0028716D03*
X0037780Y0028784D03*
X0037320Y0033984D03*
X0037050Y0034584D03*
X0032780Y0034916D03*
X0028580Y0036516D03*
X0028520Y0036384D03*
X0029580Y0038916D03*
X0029580Y0038984D03*
X0029650Y0039116D03*
X0029650Y0039184D03*
X0029720Y0039316D03*
X0029720Y0039384D03*
X0029780Y0039516D03*
X0029850Y0039716D03*
X0030720Y0042516D03*
X0030720Y0042584D03*
X0024780Y0032316D03*
X0014520Y0030916D03*
X0014450Y0031116D03*
X0014380Y0031316D03*
X0014380Y0031384D03*
X0014320Y0031584D03*
X0014250Y0031916D03*
X0014180Y0032116D03*
X0014180Y0032184D03*
X0014120Y0032384D03*
X0014120Y0032516D03*
X0014120Y0032584D03*
X0014050Y0032716D03*
X0014050Y0032784D03*
X0014050Y0032916D03*
X0014050Y0032984D03*
X0013980Y0033116D03*
X0013980Y0033184D03*
X0013980Y0033316D03*
X0013980Y0033384D03*
X0013920Y0033584D03*
X0013920Y0033716D03*
X0013920Y0033784D03*
X0013780Y0041384D03*
X0013780Y0041516D03*
X0013780Y0041584D03*
X0013780Y0041716D03*
X0013780Y0041784D03*
X0013780Y0041916D03*
X0013780Y0041984D03*
X0018320Y0053716D03*
X0018320Y0053784D03*
X0018380Y0053916D03*
X0042920Y0033984D03*
X0051050Y0035784D03*
X0053320Y0040716D03*
X0050980Y0030184D03*
X0051050Y0030116D03*
X0051180Y0029984D03*
X0049980Y0024716D03*
X0017720Y0018984D03*
X0017650Y0018916D03*
X0017520Y0018784D03*
X0017450Y0018716D03*
X0017320Y0018584D03*
X0017250Y0018516D03*
X0017120Y0018384D03*
X0017050Y0018316D03*
X0016920Y0018184D03*
X0016850Y0018116D03*
X0016320Y0020984D03*
X0016450Y0021116D03*
X0016520Y0021184D03*
X0016780Y0021516D03*
X0016850Y0021584D03*
X0016920Y0021716D03*
X0016980Y0021784D03*
X0017120Y0021916D03*
X0017250Y0022116D03*
X0017380Y0022316D03*
D109*
X0026615Y0018116D03*
X0024215Y0053316D03*
X0022415Y0054916D03*
X0022085Y0060516D03*
D110*
X0021180Y0059716D03*
X0020450Y0057316D03*
X0024120Y0053584D03*
X0024180Y0053384D03*
X0030520Y0053184D03*
X0031180Y0055516D03*
X0032120Y0056784D03*
X0022650Y0022184D03*
X0027780Y0020584D03*
X0026650Y0018184D03*
D111*
X0026650Y0018250D03*
X0024850Y0021650D03*
X0028450Y0049850D03*
X0031180Y0055450D03*
X0031380Y0064050D03*
D112*
X0021085Y0059516D03*
X0020485Y0057384D03*
X0041015Y0031716D03*
X0026815Y0018584D03*
X0026685Y0018316D03*
D113*
X0026750Y0018384D03*
X0036550Y0019116D03*
X0032150Y0051384D03*
X0031150Y0055316D03*
X0031150Y0055384D03*
X0024150Y0053516D03*
X0021150Y0059584D03*
D114*
X0021150Y0059650D03*
X0024150Y0053450D03*
X0030550Y0053250D03*
X0031150Y0055250D03*
X0026750Y0018450D03*
D115*
X0026785Y0018516D03*
X0028115Y0049916D03*
X0030585Y0053316D03*
D116*
X0025585Y0054384D03*
X0026715Y0056984D03*
X0026785Y0031184D03*
X0023185Y0031316D03*
X0035115Y0025184D03*
X0036715Y0021984D03*
X0037185Y0018584D03*
X0015515Y0019584D03*
D117*
X0012485Y0018650D03*
X0026885Y0030850D03*
X0028485Y0031850D03*
X0028615Y0031650D03*
X0028885Y0031250D03*
X0027615Y0033650D03*
X0026815Y0037850D03*
X0026885Y0038050D03*
X0035485Y0053050D03*
X0026615Y0056850D03*
D118*
X0025720Y0053650D03*
X0031720Y0057450D03*
X0037780Y0058250D03*
X0037450Y0052250D03*
X0037450Y0052050D03*
X0037380Y0051850D03*
X0034920Y0043650D03*
X0034850Y0043450D03*
X0045380Y0036450D03*
X0045580Y0036650D03*
X0045780Y0036850D03*
X0048980Y0040450D03*
X0049980Y0034450D03*
X0045180Y0027250D03*
X0045180Y0027050D03*
X0043580Y0022850D03*
X0043120Y0022450D03*
X0028520Y0018650D03*
X0027050Y0030050D03*
X0015320Y0028450D03*
X0015250Y0028650D03*
X0012250Y0022850D03*
X0015520Y0020250D03*
X0014050Y0044650D03*
X0014120Y0044850D03*
X0014180Y0045050D03*
X0014320Y0045250D03*
X0014380Y0045450D03*
X0014580Y0045850D03*
X0014650Y0046050D03*
X0014850Y0046450D03*
X0014920Y0046650D03*
D119*
X0033150Y0035316D03*
X0035950Y0046384D03*
X0036150Y0046984D03*
X0037550Y0059116D03*
X0048950Y0033184D03*
X0041150Y0020916D03*
X0040950Y0020784D03*
X0029150Y0019916D03*
X0025550Y0018784D03*
X0017950Y0025184D03*
X0017550Y0025516D03*
D120*
X0015215Y0028716D03*
X0012215Y0022916D03*
X0025615Y0028716D03*
X0027015Y0030184D03*
X0033015Y0037716D03*
X0033015Y0037784D03*
X0033015Y0037916D03*
X0033015Y0037984D03*
X0033085Y0038116D03*
X0033085Y0038184D03*
X0033215Y0038716D03*
X0034815Y0043316D03*
X0034815Y0043384D03*
X0034885Y0043516D03*
X0037485Y0052316D03*
X0037485Y0052384D03*
X0037615Y0053116D03*
X0037885Y0057584D03*
X0037885Y0057716D03*
X0037815Y0057916D03*
X0037815Y0057984D03*
X0049285Y0040784D03*
X0049215Y0040716D03*
X0045285Y0036316D03*
X0050015Y0034516D03*
X0050085Y0034584D03*
X0050215Y0034716D03*
X0045215Y0026916D03*
X0045215Y0026784D03*
X0045215Y0026716D03*
X0045215Y0026584D03*
X0045215Y0026516D03*
X0043885Y0023116D03*
X0029215Y0019716D03*
X0029015Y0019384D03*
X0028885Y0019184D03*
X0028615Y0018784D03*
X0014015Y0044516D03*
X0014015Y0044584D03*
X0014415Y0045516D03*
X0014685Y0046116D03*
X0014815Y0046384D03*
X0014885Y0046516D03*
X0014885Y0046584D03*
X0015085Y0046984D03*
X0015215Y0047316D03*
X0015285Y0047384D03*
X0015415Y0047716D03*
X0015415Y0047784D03*
X0015485Y0047916D03*
X0015615Y0048184D03*
X0015685Y0048316D03*
X0015685Y0048384D03*
X0015815Y0048584D03*
X0015885Y0048784D03*
X0016215Y0049516D03*
X0016415Y0049984D03*
X0016485Y0050116D03*
D121*
X0018650Y0054650D03*
X0028050Y0042850D03*
X0027850Y0042050D03*
X0029250Y0038050D03*
X0027850Y0034650D03*
X0032850Y0034250D03*
X0035650Y0023850D03*
X0032050Y0018850D03*
X0020650Y0022050D03*
X0020450Y0021850D03*
X0035650Y0053850D03*
D122*
X0031980Y0057116D03*
X0019920Y0056516D03*
X0019920Y0056184D03*
X0018720Y0052384D03*
X0019450Y0023716D03*
X0036780Y0018916D03*
X0051380Y0041784D03*
D123*
X0050350Y0025584D03*
X0050350Y0025516D03*
X0028950Y0031116D03*
X0028550Y0031784D03*
X0028350Y0031984D03*
X0027950Y0032516D03*
X0027750Y0032784D03*
X0026750Y0037584D03*
X0026950Y0038316D03*
X0026950Y0038384D03*
X0028350Y0043984D03*
X0035550Y0053184D03*
X0011950Y0023316D03*
X0012350Y0018984D03*
D124*
X0023780Y0021984D03*
X0036720Y0018984D03*
X0034180Y0035784D03*
X0032320Y0051184D03*
X0024250Y0052984D03*
X0018850Y0052316D03*
X0020120Y0056716D03*
X0031380Y0064184D03*
D125*
X0022215Y0060650D03*
X0038685Y0033050D03*
X0036615Y0019050D03*
D126*
X0032150Y0019116D03*
X0035750Y0023584D03*
X0035350Y0025716D03*
X0035350Y0025784D03*
X0038750Y0033316D03*
X0037350Y0033916D03*
X0036950Y0034716D03*
X0042750Y0033784D03*
X0051150Y0035916D03*
X0053350Y0040384D03*
X0053350Y0040516D03*
X0053350Y0040584D03*
X0050550Y0028584D03*
X0028950Y0037316D03*
X0028950Y0037384D03*
X0028750Y0036984D03*
X0028750Y0036916D03*
X0028350Y0035984D03*
X0028350Y0035916D03*
X0028150Y0035516D03*
X0029350Y0038316D03*
X0029550Y0038784D03*
X0030750Y0042716D03*
X0030750Y0042784D03*
X0018550Y0054316D03*
X0013750Y0041316D03*
X0013750Y0041184D03*
X0013750Y0041116D03*
X0013750Y0040984D03*
X0013750Y0040916D03*
X0013750Y0040784D03*
X0013750Y0040716D03*
X0013750Y0040584D03*
X0013750Y0040516D03*
X0013950Y0033516D03*
X0026950Y0030584D03*
X0026950Y0030516D03*
D127*
X0027350Y0020784D03*
X0036550Y0019184D03*
X0030950Y0054116D03*
X0030950Y0054184D03*
X0020750Y0058116D03*
X0020750Y0058184D03*
D128*
X0018415Y0054050D03*
X0028085Y0043050D03*
X0029615Y0039050D03*
X0029485Y0038650D03*
X0029415Y0038450D03*
X0029085Y0037650D03*
X0028885Y0037250D03*
X0028815Y0037050D03*
X0028615Y0036650D03*
X0028285Y0035850D03*
X0028215Y0035650D03*
X0028085Y0035250D03*
X0024685Y0032250D03*
X0032815Y0034450D03*
X0032815Y0034650D03*
X0032815Y0034850D03*
X0037015Y0034650D03*
X0037815Y0028850D03*
X0035485Y0026250D03*
X0032215Y0019250D03*
X0042815Y0033850D03*
X0051285Y0036050D03*
X0051415Y0036250D03*
X0035615Y0054050D03*
X0035615Y0054250D03*
X0013815Y0034850D03*
X0013815Y0034650D03*
X0013815Y0034450D03*
X0013885Y0034250D03*
X0013885Y0034050D03*
X0013885Y0033850D03*
D129*
X0036485Y0019250D03*
D130*
X0036450Y0019316D03*
X0047250Y0024316D03*
X0019650Y0051916D03*
D131*
X0038520Y0032384D03*
X0035720Y0019384D03*
D132*
X0015520Y0019450D03*
X0026780Y0057050D03*
D133*
X0035785Y0019450D03*
D134*
X0037315Y0033516D03*
X0015515Y0019516D03*
D135*
X0035850Y0019516D03*
X0039050Y0031916D03*
D136*
X0035950Y0019584D03*
X0022350Y0055784D03*
D137*
X0023650Y0031650D03*
X0022980Y0030850D03*
X0011850Y0023450D03*
X0015520Y0019650D03*
X0035380Y0024250D03*
X0035720Y0023250D03*
D138*
X0036015Y0019650D03*
X0022415Y0055850D03*
D139*
X0035115Y0052316D03*
X0035385Y0052716D03*
X0035385Y0052784D03*
X0026315Y0035984D03*
X0026185Y0035584D03*
X0026185Y0035516D03*
X0026115Y0035384D03*
X0026115Y0035316D03*
X0026115Y0035184D03*
X0025985Y0034784D03*
X0025915Y0034584D03*
X0025785Y0034184D03*
X0025715Y0033984D03*
X0025715Y0033916D03*
X0025585Y0033584D03*
X0022985Y0030784D03*
X0011915Y0023384D03*
X0011715Y0021384D03*
X0015515Y0019716D03*
X0035185Y0025316D03*
X0038115Y0028184D03*
X0035715Y0031716D03*
X0036915Y0021184D03*
X0036915Y0021116D03*
D140*
X0036080Y0019716D03*
X0022480Y0055916D03*
D141*
X0036185Y0019784D03*
D142*
X0042615Y0022050D03*
X0042885Y0022250D03*
X0045085Y0027650D03*
X0049815Y0034250D03*
X0046885Y0038050D03*
X0048485Y0039850D03*
X0048815Y0040250D03*
X0037215Y0051050D03*
X0037285Y0051250D03*
X0037285Y0051450D03*
X0035085Y0044050D03*
X0035015Y0043850D03*
X0015415Y0028250D03*
X0029285Y0019850D03*
X0031415Y0064450D03*
D143*
X0036215Y0019850D03*
D144*
X0036285Y0019916D03*
D145*
X0034350Y0019984D03*
X0030620Y0053384D03*
X0031150Y0055116D03*
X0031150Y0055184D03*
X0032150Y0056716D03*
X0022020Y0060384D03*
X0021020Y0059316D03*
X0020550Y0057584D03*
X0020550Y0057516D03*
D146*
X0025515Y0056116D03*
X0029785Y0052584D03*
X0032515Y0050984D03*
X0027985Y0062916D03*
X0041315Y0035516D03*
X0039315Y0019984D03*
X0019315Y0023984D03*
D147*
X0034050Y0020050D03*
X0024250Y0053050D03*
D148*
X0026080Y0062050D03*
X0034620Y0062850D03*
X0038750Y0033250D03*
X0045620Y0024650D03*
X0039620Y0020050D03*
D149*
X0033820Y0020116D03*
X0040550Y0035784D03*
X0038150Y0036984D03*
X0022620Y0054784D03*
D150*
X0019785Y0056316D03*
X0019785Y0056384D03*
X0030385Y0051916D03*
X0031915Y0057184D03*
X0038715Y0033184D03*
X0033585Y0020184D03*
X0028585Y0020184D03*
D151*
X0033150Y0020316D03*
X0039950Y0020184D03*
X0051350Y0042184D03*
X0037150Y0060184D03*
X0035950Y0061916D03*
X0035350Y0062384D03*
D152*
X0031380Y0064250D03*
X0022320Y0022450D03*
X0028450Y0020250D03*
D153*
X0033350Y0020250D03*
X0027550Y0029850D03*
D154*
X0023880Y0030450D03*
X0040080Y0020250D03*
X0043750Y0030250D03*
X0048020Y0031650D03*
X0048280Y0031450D03*
X0048020Y0032050D03*
X0048350Y0032450D03*
X0049020Y0031050D03*
X0049420Y0030850D03*
X0022820Y0053650D03*
X0037280Y0059850D03*
D155*
X0037715Y0058584D03*
X0037715Y0058516D03*
X0037185Y0050984D03*
X0037185Y0050916D03*
X0037115Y0050716D03*
X0037115Y0050584D03*
X0037115Y0050516D03*
X0036985Y0050116D03*
X0036915Y0049784D03*
X0035385Y0044784D03*
X0035315Y0044584D03*
X0035185Y0044316D03*
X0046385Y0037516D03*
X0046585Y0037716D03*
X0046785Y0037916D03*
X0046915Y0038116D03*
X0046985Y0038184D03*
X0047115Y0038316D03*
X0047185Y0038384D03*
X0047315Y0038516D03*
X0047385Y0038584D03*
X0047715Y0038984D03*
X0047915Y0039184D03*
X0048185Y0039516D03*
X0048385Y0039716D03*
X0051315Y0042316D03*
X0049585Y0033984D03*
X0049515Y0033916D03*
X0044915Y0028316D03*
X0044985Y0028184D03*
X0044985Y0028116D03*
X0045115Y0027584D03*
X0042785Y0022184D03*
X0042715Y0022116D03*
X0042315Y0021784D03*
X0042185Y0021716D03*
X0041785Y0021384D03*
X0032915Y0020384D03*
X0015515Y0020316D03*
X0016185Y0026984D03*
X0015985Y0027316D03*
X0015915Y0027384D03*
X0015785Y0027584D03*
X0015715Y0027716D03*
X0022715Y0054116D03*
D156*
X0019515Y0023584D03*
X0022385Y0022384D03*
X0028315Y0020316D03*
D157*
X0017715Y0025384D03*
X0017315Y0025716D03*
X0017115Y0025916D03*
X0016915Y0026116D03*
X0012315Y0022716D03*
X0015515Y0020384D03*
X0041515Y0021184D03*
X0044715Y0028784D03*
X0044585Y0029116D03*
X0044515Y0029184D03*
X0049115Y0033384D03*
X0035585Y0045316D03*
X0035715Y0045716D03*
X0035785Y0045916D03*
X0035915Y0046316D03*
X0035985Y0046516D03*
X0036115Y0046916D03*
X0036185Y0047116D03*
X0036315Y0047516D03*
X0036315Y0047584D03*
X0036385Y0047716D03*
X0036385Y0047784D03*
X0036515Y0048184D03*
X0036515Y0048316D03*
X0036585Y0048384D03*
X0036585Y0048516D03*
X0036585Y0048584D03*
X0036715Y0048916D03*
X0036715Y0048984D03*
X0037585Y0058916D03*
X0037585Y0058984D03*
X0022915Y0054384D03*
D158*
X0029585Y0049584D03*
X0031385Y0056316D03*
X0028185Y0020384D03*
D159*
X0040315Y0020384D03*
X0043985Y0029984D03*
X0043785Y0030184D03*
X0048385Y0032516D03*
X0049585Y0030784D03*
X0049715Y0030716D03*
X0029585Y0052316D03*
X0031785Y0057384D03*
X0037385Y0059584D03*
X0023115Y0054584D03*
D160*
X0022980Y0054450D03*
X0032650Y0050850D03*
X0037520Y0059250D03*
X0051320Y0042250D03*
X0048850Y0033050D03*
X0044250Y0029650D03*
X0025650Y0029050D03*
X0018380Y0024850D03*
X0018120Y0025050D03*
X0015520Y0020450D03*
D161*
X0018750Y0024584D03*
X0040550Y0020516D03*
X0048550Y0032716D03*
D162*
X0027620Y0020650D03*
X0021020Y0059250D03*
D163*
X0037550Y0059050D03*
X0036350Y0047650D03*
X0044350Y0029450D03*
X0040750Y0020650D03*
X0012350Y0022650D03*
D164*
X0015485Y0020716D03*
X0021015Y0023184D03*
X0029815Y0052184D03*
X0025085Y0061584D03*
X0025485Y0061784D03*
X0024285Y0061184D03*
X0023885Y0060984D03*
X0031415Y0064384D03*
X0034885Y0062716D03*
X0036285Y0061584D03*
X0036885Y0060784D03*
X0037015Y0060516D03*
X0018285Y0052584D03*
D165*
X0020615Y0057716D03*
X0031085Y0054916D03*
X0031085Y0054784D03*
X0025285Y0021516D03*
X0027485Y0020716D03*
D166*
X0037050Y0020716D03*
X0030650Y0043384D03*
D167*
X0035885Y0046184D03*
X0036015Y0046584D03*
X0036085Y0046784D03*
X0036215Y0047184D03*
X0036415Y0047916D03*
X0022685Y0053716D03*
X0044285Y0029584D03*
X0044415Y0029384D03*
X0048885Y0033116D03*
X0050085Y0030584D03*
X0040885Y0020716D03*
X0017815Y0025316D03*
X0017485Y0025584D03*
D168*
X0011815Y0023516D03*
X0037015Y0020784D03*
X0021685Y0060984D03*
D169*
X0027150Y0020850D03*
D170*
X0025585Y0028250D03*
X0022985Y0031050D03*
X0023115Y0031250D03*
X0028515Y0044250D03*
X0036985Y0020850D03*
D171*
X0041050Y0020850D03*
X0035650Y0045450D03*
X0035850Y0046050D03*
X0036050Y0046650D03*
X0036450Y0048050D03*
X0036650Y0048650D03*
X0037650Y0058850D03*
D172*
X0032215Y0056516D03*
X0021885Y0060116D03*
X0027015Y0020916D03*
D173*
X0026850Y0020984D03*
X0026520Y0021116D03*
X0026320Y0021184D03*
X0031980Y0051584D03*
D174*
X0021850Y0060050D03*
X0026650Y0021050D03*
D175*
X0035150Y0025250D03*
X0036950Y0021050D03*
X0025750Y0034050D03*
D176*
X0017185Y0025850D03*
X0016985Y0026050D03*
X0035715Y0045650D03*
X0035785Y0045850D03*
X0035915Y0046250D03*
X0035985Y0046450D03*
X0036115Y0046850D03*
X0036185Y0047050D03*
X0036385Y0047850D03*
X0036515Y0048250D03*
X0036585Y0048450D03*
X0036715Y0049050D03*
X0036785Y0049250D03*
X0049185Y0033450D03*
X0044585Y0029050D03*
X0045315Y0024850D03*
X0041315Y0021050D03*
D177*
X0026115Y0021250D03*
X0019385Y0052050D03*
D178*
X0022680Y0054050D03*
X0022820Y0054250D03*
X0037020Y0050250D03*
X0036950Y0049850D03*
X0036880Y0049650D03*
X0036820Y0049450D03*
X0036680Y0048850D03*
X0035550Y0045250D03*
X0035480Y0045050D03*
X0035420Y0044850D03*
X0047620Y0038850D03*
X0052480Y0041650D03*
X0049480Y0033850D03*
X0049350Y0033650D03*
X0049350Y0028050D03*
X0044950Y0028250D03*
X0044880Y0028450D03*
X0044820Y0028650D03*
X0044680Y0028850D03*
X0041880Y0021450D03*
X0041620Y0021250D03*
X0016820Y0026250D03*
X0016620Y0026450D03*
X0016480Y0026650D03*
X0016280Y0026850D03*
X0016150Y0027050D03*
X0016020Y0027250D03*
X0037680Y0058650D03*
D179*
X0026985Y0050184D03*
X0025915Y0021316D03*
D180*
X0025715Y0021384D03*
X0030985Y0054316D03*
X0032185Y0056584D03*
X0021915Y0060184D03*
D181*
X0020885Y0058650D03*
X0020815Y0058250D03*
X0031015Y0054450D03*
X0025485Y0021450D03*
D182*
X0025050Y0021584D03*
X0021050Y0059384D03*
D183*
X0022650Y0053984D03*
X0022650Y0053916D03*
X0037050Y0050384D03*
X0037050Y0050316D03*
X0035250Y0044516D03*
X0043050Y0034316D03*
X0046450Y0037584D03*
X0046650Y0037784D03*
X0047650Y0038916D03*
X0047850Y0039116D03*
X0048250Y0039584D03*
X0048450Y0039784D03*
X0050250Y0030516D03*
X0045050Y0027984D03*
X0045050Y0027916D03*
X0042450Y0021916D03*
X0042050Y0021584D03*
X0027050Y0029984D03*
X0016250Y0026916D03*
X0016050Y0027184D03*
X0015850Y0027516D03*
D184*
X0011650Y0021850D03*
X0011650Y0021650D03*
X0025650Y0033850D03*
X0026050Y0035050D03*
X0025650Y0054250D03*
D185*
X0035550Y0053250D03*
X0026750Y0037650D03*
X0028150Y0032250D03*
X0036750Y0021650D03*
D186*
X0028250Y0029184D03*
X0025650Y0033716D03*
X0025650Y0033784D03*
X0025850Y0034384D03*
X0026050Y0034984D03*
X0026050Y0035116D03*
X0026250Y0035716D03*
X0026250Y0035784D03*
X0023850Y0031784D03*
X0028450Y0044116D03*
X0035250Y0052516D03*
X0011650Y0022584D03*
X0011650Y0021984D03*
X0011650Y0021916D03*
X0011650Y0021784D03*
X0011650Y0021716D03*
D187*
X0024650Y0021716D03*
X0030450Y0053116D03*
D188*
X0029015Y0049716D03*
X0024415Y0021784D03*
D189*
X0024215Y0021850D03*
X0029285Y0049650D03*
X0032285Y0051250D03*
X0031285Y0056050D03*
D190*
X0035315Y0052650D03*
X0026185Y0035450D03*
X0026115Y0035250D03*
X0025985Y0034850D03*
X0025915Y0034650D03*
X0025585Y0033650D03*
X0025515Y0033450D03*
X0023985Y0031850D03*
X0033115Y0034050D03*
X0036715Y0021850D03*
D191*
X0024020Y0021916D03*
X0022480Y0022316D03*
D192*
X0015550Y0027984D03*
X0015350Y0028384D03*
X0035150Y0044184D03*
X0037150Y0050784D03*
X0037350Y0051716D03*
X0037750Y0058316D03*
X0037750Y0058384D03*
X0048750Y0040184D03*
X0048550Y0039916D03*
X0049750Y0034184D03*
X0045150Y0027516D03*
X0045150Y0027384D03*
X0045150Y0027316D03*
X0042950Y0022316D03*
X0042550Y0021984D03*
D193*
X0026815Y0031050D03*
X0025815Y0034250D03*
X0025885Y0034450D03*
X0011615Y0022450D03*
X0011615Y0022250D03*
X0011615Y0022050D03*
X0035085Y0052250D03*
X0035215Y0052450D03*
D194*
X0031985Y0057050D03*
X0023585Y0022050D03*
D195*
X0026785Y0031250D03*
X0036715Y0022050D03*
D196*
X0022750Y0022116D03*
X0030750Y0053584D03*
X0022350Y0054984D03*
X0020950Y0058984D03*
X0021950Y0060316D03*
X0031350Y0063984D03*
D197*
X0022550Y0022250D03*
D198*
X0022220Y0022516D03*
X0019420Y0023784D03*
X0028620Y0063116D03*
D199*
X0041150Y0035584D03*
X0022150Y0022584D03*
D200*
X0022050Y0022650D03*
X0031850Y0057250D03*
X0027850Y0062850D03*
D201*
X0037350Y0051650D03*
X0035150Y0044250D03*
X0045950Y0037050D03*
X0046150Y0037250D03*
X0046350Y0037450D03*
X0045150Y0027450D03*
X0043350Y0022650D03*
X0015750Y0027650D03*
X0015550Y0028050D03*
D202*
X0021950Y0022716D03*
X0042950Y0034716D03*
X0025750Y0056384D03*
X0034350Y0062984D03*
D203*
X0034750Y0062784D03*
X0036150Y0061716D03*
X0036350Y0061516D03*
X0036950Y0060584D03*
X0025350Y0061716D03*
X0024150Y0061116D03*
X0021150Y0023116D03*
X0047950Y0023584D03*
D204*
X0049450Y0028250D03*
X0041780Y0035250D03*
X0020920Y0023250D03*
X0024380Y0061250D03*
X0024780Y0061450D03*
X0034980Y0062650D03*
X0037050Y0060450D03*
X0037120Y0060250D03*
D205*
X0035550Y0062250D03*
X0033350Y0035450D03*
X0043350Y0030650D03*
X0020550Y0023450D03*
X0019150Y0024250D03*
D206*
X0019550Y0023516D03*
X0020150Y0056784D03*
X0022950Y0060916D03*
D207*
X0019485Y0023650D03*
D208*
X0047850Y0023650D03*
D209*
X0047815Y0023716D03*
X0042885Y0034984D03*
X0040815Y0035716D03*
D210*
X0047685Y0023784D03*
X0031415Y0056384D03*
D211*
X0028380Y0063050D03*
X0033780Y0035650D03*
X0019380Y0023850D03*
D212*
X0046885Y0023850D03*
D213*
X0049515Y0028516D03*
X0042385Y0031316D03*
X0051385Y0041984D03*
X0033985Y0063116D03*
X0031385Y0064316D03*
X0028185Y0062984D03*
X0019315Y0023916D03*
D214*
X0046950Y0023916D03*
X0031950Y0051716D03*
D215*
X0047015Y0023984D03*
D216*
X0047085Y0024050D03*
D217*
X0047115Y0024116D03*
X0047185Y0024184D03*
D218*
X0019185Y0024184D03*
X0032585Y0050916D03*
X0024385Y0052784D03*
X0025785Y0061916D03*
X0025915Y0061984D03*
X0036515Y0061316D03*
X0036785Y0060984D03*
X0036785Y0060916D03*
X0036915Y0060716D03*
D219*
X0024820Y0050650D03*
X0047350Y0024450D03*
X0047220Y0024250D03*
D220*
X0047880Y0028784D03*
X0035350Y0024316D03*
X0035080Y0025116D03*
X0032680Y0050716D03*
D221*
X0039280Y0032984D03*
X0047350Y0024516D03*
X0047280Y0024384D03*
D222*
X0043915Y0030050D03*
X0048185Y0032250D03*
X0048515Y0032650D03*
X0023985Y0030250D03*
X0018915Y0024450D03*
X0037385Y0059650D03*
D223*
X0033250Y0035384D03*
X0025650Y0029116D03*
X0018850Y0024516D03*
X0048450Y0032584D03*
D224*
X0049320Y0027584D03*
X0049380Y0027516D03*
X0050320Y0025984D03*
X0050320Y0025916D03*
X0050380Y0025784D03*
X0050380Y0025716D03*
X0050320Y0025384D03*
X0050320Y0025316D03*
X0050250Y0025116D03*
X0035580Y0026584D03*
X0037320Y0033716D03*
X0028250Y0032116D03*
X0028180Y0032184D03*
X0028120Y0032316D03*
X0028050Y0032384D03*
X0027650Y0033784D03*
X0027650Y0033916D03*
X0025250Y0032916D03*
X0024780Y0029584D03*
X0024780Y0029516D03*
X0024850Y0029384D03*
X0025580Y0028384D03*
X0028250Y0029316D03*
X0026980Y0038516D03*
X0027050Y0038716D03*
X0027050Y0038784D03*
X0027120Y0038916D03*
X0027120Y0038984D03*
X0028320Y0043916D03*
X0030720Y0043116D03*
X0035580Y0053316D03*
X0035580Y0053384D03*
X0025850Y0053916D03*
X0024520Y0052716D03*
X0025120Y0057716D03*
X0025120Y0057784D03*
X0025050Y0058116D03*
X0025050Y0058184D03*
X0024980Y0058384D03*
X0024920Y0058584D03*
X0024850Y0058784D03*
X0024780Y0058916D03*
X0024780Y0058984D03*
X0024720Y0059116D03*
X0024720Y0059184D03*
X0024650Y0059316D03*
X0024580Y0059384D03*
X0024520Y0059516D03*
D225*
X0023050Y0031184D03*
X0023050Y0031116D03*
X0035650Y0026784D03*
D226*
X0035685Y0026850D03*
D227*
X0049485Y0028450D03*
X0030085Y0052050D03*
D228*
X0047750Y0028850D03*
D229*
X0047615Y0028916D03*
D230*
X0028250Y0029050D03*
D231*
X0028285Y0029116D03*
X0026815Y0031116D03*
X0023485Y0031516D03*
X0023285Y0031384D03*
X0038085Y0029584D03*
D232*
X0047850Y0031850D03*
X0048650Y0031250D03*
X0025650Y0029250D03*
D233*
X0038120Y0029716D03*
X0031450Y0064516D03*
D234*
X0027550Y0062716D03*
X0042950Y0034784D03*
X0027550Y0029784D03*
D235*
X0043585Y0030450D03*
X0023185Y0054650D03*
D236*
X0031185Y0049184D03*
X0047915Y0031916D03*
X0047985Y0031984D03*
X0043515Y0030516D03*
D237*
X0024650Y0030650D03*
D238*
X0042480Y0031250D03*
X0025420Y0056050D03*
D239*
X0023350Y0031450D03*
D240*
X0042080Y0031450D03*
X0019820Y0056250D03*
D241*
X0030085Y0052716D03*
X0032415Y0051116D03*
X0041885Y0031516D03*
D242*
X0041650Y0031584D03*
D243*
X0041385Y0031650D03*
X0022515Y0054850D03*
X0022715Y0060850D03*
D244*
X0022280Y0055716D03*
X0038750Y0032184D03*
X0039280Y0031784D03*
D245*
X0047850Y0031784D03*
X0037250Y0059916D03*
X0037250Y0059984D03*
D246*
X0038915Y0032050D03*
X0039185Y0031850D03*
D247*
X0038985Y0031984D03*
X0038785Y0032116D03*
D248*
X0038650Y0032250D03*
X0031250Y0063250D03*
D249*
X0038550Y0032316D03*
D250*
X0038480Y0032450D03*
D251*
X0038485Y0032516D03*
D252*
X0038550Y0032584D03*
D253*
X0038620Y0032650D03*
X0022080Y0051250D03*
D254*
X0019920Y0051784D03*
X0038720Y0032716D03*
D255*
X0038850Y0032784D03*
X0037850Y0036584D03*
D256*
X0038985Y0032850D03*
X0023915Y0050850D03*
D257*
X0024250Y0050784D03*
X0031320Y0063716D03*
X0039120Y0032916D03*
D258*
X0038685Y0033116D03*
X0042815Y0035116D03*
X0029885Y0049516D03*
X0030815Y0051784D03*
D259*
X0038185Y0037050D03*
X0042915Y0034850D03*
D260*
X0042850Y0035050D03*
D261*
X0041585Y0035384D03*
X0029915Y0052116D03*
X0026785Y0062384D03*
X0034515Y0062916D03*
D262*
X0024285Y0052850D03*
X0041015Y0035650D03*
D263*
X0033950Y0035716D03*
D264*
X0037280Y0035850D03*
D265*
X0037250Y0035916D03*
D266*
X0037215Y0035984D03*
D267*
X0037150Y0036050D03*
D268*
X0037115Y0036116D03*
D269*
X0037050Y0036184D03*
D270*
X0037015Y0036250D03*
D271*
X0036950Y0036316D03*
D272*
X0036880Y0036384D03*
D273*
X0037785Y0036450D03*
D274*
X0037820Y0036516D03*
X0021750Y0055184D03*
D275*
X0037915Y0036650D03*
D276*
X0037985Y0036716D03*
D277*
X0038020Y0036784D03*
X0032020Y0051516D03*
D278*
X0021050Y0059450D03*
X0038050Y0036850D03*
D279*
X0038085Y0036916D03*
X0030285Y0052916D03*
X0032085Y0056916D03*
X0020215Y0056916D03*
D280*
X0019985Y0056584D03*
X0051385Y0041716D03*
D281*
X0051385Y0041850D03*
D282*
X0028550Y0044316D03*
D283*
X0030685Y0049316D03*
D284*
X0030385Y0049384D03*
D285*
X0030150Y0049450D03*
D286*
X0027850Y0049984D03*
X0019250Y0052116D03*
X0020650Y0057784D03*
D287*
X0020750Y0058050D03*
X0021950Y0060250D03*
X0030950Y0054250D03*
X0027550Y0050050D03*
D288*
X0027250Y0050116D03*
X0020850Y0058516D03*
D289*
X0026685Y0050250D03*
D290*
X0026350Y0050316D03*
D291*
X0026080Y0050384D03*
X0019550Y0051984D03*
X0021820Y0059916D03*
D292*
X0025750Y0050450D03*
D293*
X0025450Y0050516D03*
D294*
X0025150Y0050584D03*
X0031350Y0063784D03*
D295*
X0024550Y0050716D03*
D296*
X0023620Y0050916D03*
D297*
X0023315Y0050984D03*
D298*
X0022980Y0051050D03*
X0021650Y0055050D03*
D299*
X0032450Y0051050D03*
D300*
X0022685Y0051116D03*
X0021685Y0055116D03*
D301*
X0022385Y0051184D03*
X0031315Y0063584D03*
D302*
X0021750Y0051316D03*
D303*
X0024220Y0053184D03*
X0020350Y0057116D03*
X0022150Y0060584D03*
X0031220Y0055716D03*
X0032220Y0051316D03*
D304*
X0020685Y0051384D03*
D305*
X0020550Y0051450D03*
D306*
X0020685Y0057850D03*
X0031085Y0054850D03*
X0032085Y0051450D03*
D307*
X0020415Y0051516D03*
D308*
X0020315Y0051584D03*
X0022115Y0055516D03*
D309*
X0020150Y0051650D03*
X0031280Y0063450D03*
D310*
X0031350Y0063850D03*
X0031950Y0051650D03*
D311*
X0020050Y0051716D03*
D312*
X0019780Y0051850D03*
D313*
X0030550Y0051850D03*
D314*
X0030250Y0051984D03*
D315*
X0019150Y0052184D03*
D316*
X0018550Y0052450D03*
D317*
X0029985Y0052650D03*
D318*
X0030150Y0052784D03*
D319*
X0030250Y0052850D03*
D320*
X0024250Y0052916D03*
X0020050Y0056116D03*
D321*
X0030385Y0053050D03*
X0031185Y0055650D03*
D322*
X0030650Y0053450D03*
D323*
X0030715Y0053516D03*
X0031115Y0054984D03*
X0020985Y0059116D03*
X0020985Y0059184D03*
D324*
X0020950Y0059050D03*
X0030750Y0053650D03*
D325*
X0030780Y0053716D03*
X0031050Y0054584D03*
X0031050Y0054716D03*
X0020720Y0057916D03*
X0020720Y0057984D03*
X0020920Y0058784D03*
X0020920Y0058916D03*
D326*
X0020885Y0058716D03*
X0020885Y0058584D03*
X0020815Y0058384D03*
X0020815Y0058316D03*
X0031015Y0054516D03*
X0031015Y0054384D03*
X0030885Y0053984D03*
X0030885Y0053916D03*
X0030815Y0053784D03*
D327*
X0030850Y0053850D03*
X0031050Y0054650D03*
X0032180Y0056650D03*
X0020920Y0058850D03*
D328*
X0030915Y0054050D03*
D329*
X0022750Y0054716D03*
D330*
X0020585Y0057650D03*
X0031115Y0055050D03*
D331*
X0021815Y0055250D03*
D332*
X0021885Y0055316D03*
D333*
X0021950Y0055384D03*
D334*
X0022050Y0055450D03*
D335*
X0022185Y0055584D03*
D336*
X0022250Y0055650D03*
D337*
X0031250Y0055784D03*
D338*
X0031250Y0055850D03*
D339*
X0020350Y0055984D03*
D340*
X0020180Y0056050D03*
D341*
X0031315Y0056116D03*
X0031315Y0056184D03*
D342*
X0031350Y0056250D03*
X0020220Y0056850D03*
D343*
X0019850Y0056450D03*
D344*
X0025785Y0056450D03*
X0026515Y0062250D03*
D345*
X0031415Y0056450D03*
D346*
X0020050Y0056650D03*
D347*
X0025850Y0056650D03*
X0025650Y0061850D03*
X0036850Y0060850D03*
D348*
X0032050Y0056984D03*
D349*
X0020315Y0057050D03*
D350*
X0020515Y0057450D03*
D351*
X0020850Y0058450D03*
D352*
X0021815Y0059784D03*
D353*
X0021850Y0059850D03*
D354*
X0021850Y0059984D03*
D355*
X0022015Y0060450D03*
D356*
X0036950Y0060650D03*
D357*
X0026950Y0062450D03*
D358*
X0034185Y0063050D03*
D359*
X0031250Y0063184D03*
D360*
X0031285Y0063316D03*
D361*
X0031285Y0063384D03*
D362*
X0031320Y0063516D03*
D363*
X0031315Y0063650D03*
D364*
X0031350Y0063916D03*
D365*
X0146350Y0059750D03*
X0146350Y0041250D03*
X0146350Y0022750D03*
X0167250Y0022750D03*
X0167250Y0041250D03*
X0167250Y0059750D03*
X0188150Y0059750D03*
X0188150Y0041250D03*
X0188150Y0022750D03*
D366*
X0188250Y0022850D01*
X0188250Y0027644D01*
X0188248Y0027762D01*
X0188242Y0027880D01*
X0188233Y0027997D01*
X0188219Y0028115D01*
X0188202Y0028231D01*
X0188181Y0028347D01*
X0188156Y0028463D01*
X0188127Y0028577D01*
X0188095Y0028691D01*
X0188059Y0028803D01*
X0188019Y0028914D01*
X0187976Y0029024D01*
X0187929Y0029132D01*
X0187878Y0029239D01*
X0187824Y0029344D01*
X0187767Y0029447D01*
X0187706Y0029548D01*
X0187642Y0029647D01*
X0187575Y0029744D01*
X0187505Y0029839D01*
X0187431Y0029932D01*
X0187355Y0030022D01*
X0187276Y0030109D01*
X0187194Y0030194D01*
X0187109Y0030276D01*
X0187022Y0030355D01*
X0186932Y0030431D01*
X0186839Y0030505D01*
X0186744Y0030575D01*
X0186647Y0030642D01*
X0186548Y0030706D01*
X0186447Y0030767D01*
X0186344Y0030824D01*
X0186239Y0030878D01*
X0186132Y0030929D01*
X0186024Y0030976D01*
X0185914Y0031019D01*
X0185803Y0031059D01*
X0185691Y0031095D01*
X0185577Y0031127D01*
X0185463Y0031156D01*
X0185347Y0031181D01*
X0185231Y0031202D01*
X0185115Y0031219D01*
X0184997Y0031233D01*
X0184880Y0031242D01*
X0184762Y0031248D01*
X0184644Y0031250D01*
X0172250Y0031250D01*
X0172110Y0031252D01*
X0171970Y0031258D01*
X0171830Y0031268D01*
X0171690Y0031281D01*
X0171551Y0031299D01*
X0171412Y0031321D01*
X0171275Y0031346D01*
X0171137Y0031375D01*
X0171001Y0031408D01*
X0170866Y0031445D01*
X0170732Y0031486D01*
X0170599Y0031531D01*
X0170467Y0031579D01*
X0170337Y0031631D01*
X0170208Y0031686D01*
X0170081Y0031745D01*
X0169955Y0031808D01*
X0169831Y0031874D01*
X0169710Y0031943D01*
X0169590Y0032016D01*
X0169472Y0032093D01*
X0169357Y0032172D01*
X0169243Y0032255D01*
X0169133Y0032341D01*
X0169024Y0032430D01*
X0168918Y0032522D01*
X0168815Y0032617D01*
X0168714Y0032714D01*
X0168617Y0032815D01*
X0168522Y0032918D01*
X0168430Y0033024D01*
X0168341Y0033133D01*
X0168255Y0033243D01*
X0168172Y0033357D01*
X0168093Y0033472D01*
X0168016Y0033590D01*
X0167943Y0033710D01*
X0167874Y0033831D01*
X0167808Y0033955D01*
X0167745Y0034081D01*
X0167686Y0034208D01*
X0167631Y0034337D01*
X0167579Y0034467D01*
X0167531Y0034599D01*
X0167486Y0034732D01*
X0167445Y0034866D01*
X0167408Y0035001D01*
X0167375Y0035137D01*
X0167346Y0035275D01*
X0167321Y0035412D01*
X0167299Y0035551D01*
X0167281Y0035690D01*
X0167268Y0035830D01*
X0167258Y0035970D01*
X0167252Y0036110D01*
X0167250Y0036250D01*
X0167250Y0041250D01*
X0167250Y0045250D01*
X0167252Y0045390D01*
X0167258Y0045530D01*
X0167268Y0045670D01*
X0167281Y0045810D01*
X0167299Y0045949D01*
X0167321Y0046088D01*
X0167346Y0046225D01*
X0167375Y0046363D01*
X0167408Y0046499D01*
X0167445Y0046634D01*
X0167486Y0046768D01*
X0167531Y0046901D01*
X0167579Y0047033D01*
X0167631Y0047163D01*
X0167686Y0047292D01*
X0167745Y0047419D01*
X0167808Y0047545D01*
X0167874Y0047669D01*
X0167943Y0047790D01*
X0168016Y0047910D01*
X0168093Y0048028D01*
X0168172Y0048143D01*
X0168255Y0048257D01*
X0168341Y0048367D01*
X0168430Y0048476D01*
X0168522Y0048582D01*
X0168617Y0048685D01*
X0168714Y0048786D01*
X0168815Y0048883D01*
X0168918Y0048978D01*
X0169024Y0049070D01*
X0169133Y0049159D01*
X0169243Y0049245D01*
X0169357Y0049328D01*
X0169472Y0049407D01*
X0169590Y0049484D01*
X0169710Y0049557D01*
X0169831Y0049626D01*
X0169955Y0049692D01*
X0170081Y0049755D01*
X0170208Y0049814D01*
X0170337Y0049869D01*
X0170467Y0049921D01*
X0170599Y0049969D01*
X0170732Y0050014D01*
X0170866Y0050055D01*
X0171001Y0050092D01*
X0171137Y0050125D01*
X0171275Y0050154D01*
X0171412Y0050179D01*
X0171551Y0050201D01*
X0171690Y0050219D01*
X0171830Y0050232D01*
X0171970Y0050242D01*
X0172110Y0050248D01*
X0172250Y0050250D01*
X0217496Y0050250D01*
X0217837Y0050254D01*
X0218178Y0050267D01*
X0218518Y0050288D01*
X0218858Y0050317D01*
X0219197Y0050354D01*
X0219534Y0050400D01*
X0219871Y0050455D01*
X0220206Y0050517D01*
X0220540Y0050588D01*
X0220871Y0050666D01*
X0221201Y0050753D01*
X0221529Y0050848D01*
X0221854Y0050951D01*
X0222176Y0051062D01*
X0222496Y0051181D01*
X0222812Y0051307D01*
X0223126Y0051442D01*
X0223436Y0051584D01*
X0223742Y0051733D01*
X0224045Y0051890D01*
X0224343Y0052055D01*
X0224638Y0052226D01*
X0224928Y0052405D01*
X0225214Y0052591D01*
X0225495Y0052784D01*
X0225771Y0052984D01*
X0226043Y0053190D01*
X0226309Y0053403D01*
X0226570Y0053623D01*
X0226825Y0053849D01*
X0227075Y0054081D01*
X0227319Y0054319D01*
X0239223Y0059250D02*
X0269125Y0059250D01*
X0265526Y0012250D02*
X0266889Y0012266D01*
X0268251Y0012315D01*
X0269612Y0012396D01*
X0270970Y0012509D01*
X0272326Y0012655D01*
X0273677Y0012833D01*
X0275024Y0013043D01*
X0276365Y0013285D01*
X0277701Y0013559D01*
X0279029Y0013864D01*
X0280350Y0014202D01*
X0281662Y0014570D01*
X0282965Y0014970D01*
X0284259Y0015400D01*
X0285542Y0015861D01*
X0286813Y0016353D01*
X0288072Y0016874D01*
X0289319Y0017426D01*
X0290552Y0018007D01*
X0291771Y0018617D01*
X0292975Y0019256D01*
X0294163Y0019923D01*
X0295336Y0020619D01*
X0296491Y0021342D01*
X0297629Y0022093D01*
X0298749Y0022870D01*
X0299850Y0023674D01*
X0300931Y0024504D01*
X0301992Y0025359D01*
X0303033Y0026239D01*
X0304053Y0027144D01*
X0305050Y0028073D01*
X0306026Y0029025D01*
X0265526Y0012250D02*
X0259905Y0012250D01*
X0244250Y0034250D02*
X0244250Y0047045D01*
X0239223Y0059250D02*
X0238822Y0059245D01*
X0238422Y0059231D01*
X0238022Y0059207D01*
X0237623Y0059174D01*
X0237224Y0059131D01*
X0236827Y0059079D01*
X0236431Y0059017D01*
X0236037Y0058946D01*
X0235644Y0058865D01*
X0235254Y0058775D01*
X0234866Y0058676D01*
X0234480Y0058568D01*
X0234097Y0058451D01*
X0233717Y0058324D01*
X0233340Y0058189D01*
X0232966Y0058044D01*
X0232596Y0057891D01*
X0232229Y0057729D01*
X0231867Y0057558D01*
X0231509Y0057379D01*
X0231155Y0057191D01*
X0230805Y0056995D01*
X0230461Y0056790D01*
X0230121Y0056578D01*
X0229787Y0056357D01*
X0229458Y0056128D01*
X0229134Y0055892D01*
X0228816Y0055648D01*
X0228504Y0055397D01*
X0228198Y0055138D01*
X0227899Y0054872D01*
X0227606Y0054599D01*
X0227319Y0054319D01*
X0240795Y0071455D02*
X0244250Y0071455D01*
X0240795Y0071455D02*
X0240595Y0071457D01*
X0240395Y0071465D01*
X0240195Y0071477D01*
X0239995Y0071494D01*
X0239796Y0071515D01*
X0239598Y0071542D01*
X0239400Y0071573D01*
X0239203Y0071609D01*
X0239007Y0071650D01*
X0238812Y0071696D01*
X0238618Y0071746D01*
X0238426Y0071801D01*
X0238235Y0071860D01*
X0238045Y0071925D01*
X0237857Y0071993D01*
X0237671Y0072067D01*
X0237486Y0072144D01*
X0237304Y0072227D01*
X0237123Y0072313D01*
X0236945Y0072404D01*
X0236769Y0072499D01*
X0236595Y0072599D01*
X0236424Y0072702D01*
X0236255Y0072810D01*
X0236089Y0072922D01*
X0235925Y0073037D01*
X0235765Y0073157D01*
X0235607Y0073280D01*
X0235452Y0073408D01*
X0235301Y0073539D01*
X0235153Y0073673D01*
X0235008Y0073811D01*
X0234866Y0073953D01*
X0234728Y0074098D01*
X0234594Y0074246D01*
X0234463Y0074397D01*
X0234335Y0074552D01*
X0234212Y0074710D01*
X0234092Y0074870D01*
X0233977Y0075034D01*
X0233865Y0075200D01*
X0233757Y0075369D01*
X0233654Y0075540D01*
X0233554Y0075714D01*
X0233459Y0075890D01*
X0233368Y0076068D01*
X0233282Y0076249D01*
X0233199Y0076431D01*
X0233122Y0076616D01*
X0233048Y0076802D01*
X0232980Y0076990D01*
X0232915Y0077180D01*
X0232856Y0077371D01*
X0232801Y0077563D01*
X0232751Y0077757D01*
X0232705Y0077952D01*
X0232664Y0078148D01*
X0232628Y0078345D01*
X0232597Y0078543D01*
X0232570Y0078741D01*
X0232549Y0078940D01*
X0232532Y0079140D01*
X0232520Y0079340D01*
X0232512Y0079540D01*
X0232510Y0079740D01*
X0232510Y0097250D01*
X0232510Y0112250D01*
X0214817Y0112250D01*
X0214762Y0112305D01*
X0232510Y0112250D02*
X0232510Y0127250D01*
X0232250Y0127510D01*
X0232250Y0140510D01*
X0232510Y0140250D01*
X0244940Y0140250D01*
X0245048Y0140252D01*
X0245156Y0140257D01*
X0245263Y0140267D01*
X0245371Y0140279D01*
X0245477Y0140296D01*
X0245583Y0140316D01*
X0245689Y0140340D01*
X0245793Y0140367D01*
X0245897Y0140398D01*
X0245999Y0140433D01*
X0246100Y0140470D01*
X0246200Y0140512D01*
X0246298Y0140556D01*
X0246395Y0140605D01*
X0246490Y0140656D01*
X0246583Y0140710D01*
X0246674Y0140768D01*
X0246763Y0140829D01*
X0246851Y0140893D01*
X0246935Y0140959D01*
X0247018Y0141029D01*
X0247098Y0141101D01*
X0247176Y0141176D01*
X0248250Y0143769D02*
X0248250Y0154630D01*
X0248252Y0154785D01*
X0248258Y0154940D01*
X0248267Y0155095D01*
X0248280Y0155250D01*
X0248298Y0155404D01*
X0248318Y0155558D01*
X0248343Y0155711D01*
X0248372Y0155864D01*
X0248404Y0156016D01*
X0248440Y0156167D01*
X0248479Y0156317D01*
X0248522Y0156466D01*
X0248569Y0156614D01*
X0248620Y0156761D01*
X0248674Y0156906D01*
X0248731Y0157050D01*
X0248793Y0157193D01*
X0248857Y0157334D01*
X0248925Y0157474D01*
X0248997Y0157612D01*
X0249072Y0157748D01*
X0249150Y0157882D01*
X0249231Y0158014D01*
X0249316Y0158144D01*
X0249404Y0158272D01*
X0249495Y0158398D01*
X0249589Y0158521D01*
X0249686Y0158643D01*
X0249786Y0158761D01*
X0249888Y0158878D01*
X0249994Y0158991D01*
X0250103Y0159102D01*
X0257701Y0162250D02*
X0271510Y0162250D01*
X0278990Y0162250D02*
X0281074Y0162250D01*
X0281299Y0162247D01*
X0281523Y0162239D01*
X0281748Y0162226D01*
X0281972Y0162207D01*
X0282195Y0162182D01*
X0282418Y0162152D01*
X0282640Y0162117D01*
X0282861Y0162077D01*
X0283081Y0162031D01*
X0283300Y0161980D01*
X0283518Y0161923D01*
X0283734Y0161862D01*
X0283948Y0161795D01*
X0284161Y0161723D01*
X0284373Y0161646D01*
X0284582Y0161563D01*
X0284789Y0161476D01*
X0284994Y0161384D01*
X0285197Y0161287D01*
X0285397Y0161185D01*
X0285595Y0161078D01*
X0285790Y0160966D01*
X0285982Y0160850D01*
X0286172Y0160729D01*
X0286358Y0160603D01*
X0286542Y0160473D01*
X0286722Y0160339D01*
X0286899Y0160201D01*
X0287072Y0160058D01*
X0287242Y0159911D01*
X0287409Y0159760D01*
X0287572Y0159605D01*
X0287731Y0159446D01*
X0287886Y0159283D01*
X0288037Y0159116D01*
X0288184Y0158946D01*
X0288327Y0158773D01*
X0288465Y0158596D01*
X0288599Y0158416D01*
X0288729Y0158232D01*
X0288855Y0158046D01*
X0288976Y0157856D01*
X0289092Y0157664D01*
X0289204Y0157469D01*
X0289311Y0157271D01*
X0289413Y0157071D01*
X0289510Y0156868D01*
X0289602Y0156663D01*
X0289689Y0156456D01*
X0289772Y0156247D01*
X0289849Y0156035D01*
X0289921Y0155822D01*
X0289988Y0155608D01*
X0290049Y0155392D01*
X0290106Y0155174D01*
X0290157Y0154955D01*
X0290203Y0154735D01*
X0290243Y0154514D01*
X0290278Y0154292D01*
X0290308Y0154069D01*
X0290333Y0153846D01*
X0290352Y0153622D01*
X0290365Y0153397D01*
X0290373Y0153173D01*
X0290376Y0152948D01*
X0290376Y0142778D01*
X0285364Y0127250D02*
X0285185Y0127252D01*
X0285006Y0127259D01*
X0284828Y0127269D01*
X0284649Y0127284D01*
X0284471Y0127303D01*
X0284294Y0127327D01*
X0284117Y0127354D01*
X0283941Y0127386D01*
X0283766Y0127422D01*
X0283592Y0127462D01*
X0283418Y0127506D01*
X0283246Y0127555D01*
X0283075Y0127607D01*
X0282905Y0127663D01*
X0282737Y0127724D01*
X0282570Y0127789D01*
X0282405Y0127857D01*
X0282241Y0127929D01*
X0282079Y0128006D01*
X0281919Y0128086D01*
X0281761Y0128170D01*
X0281605Y0128257D01*
X0281451Y0128349D01*
X0281299Y0128443D01*
X0281150Y0128542D01*
X0281003Y0128644D01*
X0280859Y0128750D01*
X0280717Y0128858D01*
X0280577Y0128971D01*
X0280441Y0129086D01*
X0280307Y0129205D01*
X0280176Y0129327D01*
X0280048Y0129452D01*
X0276335Y0130990D02*
X0271250Y0130990D01*
X0271250Y0135250D01*
X0292866Y0164635D02*
X0292229Y0165256D01*
X0291577Y0165861D01*
X0290911Y0166451D01*
X0290230Y0167023D01*
X0289536Y0167579D01*
X0288828Y0168118D01*
X0288107Y0168639D01*
X0287374Y0169142D01*
X0286628Y0169627D01*
X0285871Y0170094D01*
X0285102Y0170542D01*
X0284323Y0170970D01*
X0283533Y0171380D01*
X0282734Y0171770D01*
X0281925Y0172141D01*
X0281108Y0172491D01*
X0280282Y0172821D01*
X0279448Y0173131D01*
X0278607Y0173421D01*
X0277759Y0173689D01*
X0276904Y0173937D01*
X0276044Y0174164D01*
X0275179Y0174369D01*
X0274309Y0174554D01*
X0273434Y0174716D01*
X0272556Y0174858D01*
X0271675Y0174977D01*
X0270790Y0175075D01*
X0269904Y0175152D01*
X0269016Y0175206D01*
X0268127Y0175239D01*
X0267238Y0175250D01*
X0262259Y0175250D01*
X0257701Y0162250D02*
X0257445Y0162247D01*
X0257190Y0162238D01*
X0256934Y0162223D01*
X0256679Y0162201D01*
X0256425Y0162174D01*
X0256172Y0162141D01*
X0255919Y0162101D01*
X0255667Y0162056D01*
X0255417Y0162004D01*
X0255167Y0161947D01*
X0254919Y0161884D01*
X0254673Y0161815D01*
X0254429Y0161740D01*
X0254186Y0161659D01*
X0253945Y0161572D01*
X0253707Y0161480D01*
X0253470Y0161382D01*
X0253237Y0161279D01*
X0253005Y0161170D01*
X0252776Y0161055D01*
X0252551Y0160935D01*
X0252328Y0160810D01*
X0252108Y0160680D01*
X0251891Y0160544D01*
X0251677Y0160403D01*
X0251467Y0160257D01*
X0251261Y0160106D01*
X0251058Y0159951D01*
X0250858Y0159790D01*
X0250663Y0159625D01*
X0250472Y0159455D01*
X0250285Y0159281D01*
X0250102Y0159102D01*
X0251990Y0149250D02*
X0251990Y0137250D01*
X0252313Y0137250D01*
X0260187Y0132954D02*
X0260185Y0132795D01*
X0260179Y0132636D01*
X0260170Y0132477D01*
X0260157Y0132319D01*
X0260140Y0132161D01*
X0260119Y0132003D01*
X0260094Y0131846D01*
X0260066Y0131690D01*
X0260034Y0131534D01*
X0259999Y0131379D01*
X0259959Y0131225D01*
X0259916Y0131072D01*
X0259870Y0130920D01*
X0259820Y0130769D01*
X0259766Y0130619D01*
X0259708Y0130471D01*
X0259648Y0130324D01*
X0259583Y0130179D01*
X0259515Y0130035D01*
X0259444Y0129893D01*
X0259370Y0129752D01*
X0259292Y0129613D01*
X0259211Y0129477D01*
X0259126Y0129342D01*
X0259039Y0129209D01*
X0258948Y0129079D01*
X0258854Y0128950D01*
X0258758Y0128824D01*
X0258658Y0128700D01*
X0258555Y0128579D01*
X0258450Y0128460D01*
X0258341Y0128344D01*
X0258230Y0128230D01*
X0254611Y0124611D01*
X0252250Y0118911D02*
X0252250Y0117313D01*
X0252313Y0117250D01*
X0249176Y0117250D01*
X0249084Y0117248D01*
X0248991Y0117242D01*
X0248899Y0117233D01*
X0248808Y0117220D01*
X0248717Y0117202D01*
X0248627Y0117182D01*
X0248538Y0117157D01*
X0248450Y0117129D01*
X0248363Y0117097D01*
X0248278Y0117062D01*
X0248194Y0117023D01*
X0248112Y0116981D01*
X0248031Y0116935D01*
X0247953Y0116886D01*
X0247877Y0116834D01*
X0247803Y0116779D01*
X0247731Y0116720D01*
X0247662Y0116659D01*
X0247595Y0116595D01*
X0246135Y0115990D02*
X0241250Y0115990D01*
X0239990Y0117250D01*
X0239990Y0127250D01*
X0246135Y0115990D02*
X0246225Y0115992D01*
X0246315Y0115998D01*
X0246405Y0116008D01*
X0246494Y0116021D01*
X0246582Y0116039D01*
X0246669Y0116060D01*
X0246756Y0116086D01*
X0246841Y0116115D01*
X0246925Y0116147D01*
X0247008Y0116183D01*
X0247089Y0116223D01*
X0247168Y0116267D01*
X0247245Y0116313D01*
X0247319Y0116363D01*
X0247392Y0116417D01*
X0247462Y0116473D01*
X0247530Y0116533D01*
X0247595Y0116595D01*
X0246469Y0107030D02*
X0246553Y0106950D01*
X0246639Y0106871D01*
X0246728Y0106796D01*
X0246819Y0106724D01*
X0246912Y0106655D01*
X0247008Y0106589D01*
X0247105Y0106526D01*
X0247205Y0106466D01*
X0247307Y0106409D01*
X0247410Y0106356D01*
X0247515Y0106307D01*
X0247622Y0106260D01*
X0247730Y0106218D01*
X0247839Y0106179D01*
X0247950Y0106143D01*
X0248062Y0106111D01*
X0248174Y0106083D01*
X0248288Y0106058D01*
X0248402Y0106037D01*
X0248517Y0106020D01*
X0248633Y0106007D01*
X0248749Y0105998D01*
X0248865Y0105992D01*
X0248981Y0105990D01*
X0251250Y0105990D01*
X0254757Y0105990D01*
X0254902Y0105992D01*
X0255046Y0105998D01*
X0255190Y0106007D01*
X0255334Y0106021D01*
X0255478Y0106038D01*
X0255621Y0106059D01*
X0255763Y0106084D01*
X0255905Y0106113D01*
X0256046Y0106145D01*
X0256186Y0106181D01*
X0256325Y0106221D01*
X0256462Y0106265D01*
X0256599Y0106312D01*
X0256734Y0106363D01*
X0256868Y0106417D01*
X0257001Y0106475D01*
X0257132Y0106537D01*
X0257261Y0106602D01*
X0257388Y0106670D01*
X0257514Y0106742D01*
X0257637Y0106817D01*
X0257759Y0106895D01*
X0257878Y0106977D01*
X0257995Y0107061D01*
X0258110Y0107149D01*
X0258223Y0107240D01*
X0258333Y0107334D01*
X0258440Y0107430D01*
X0258545Y0107530D01*
X0258647Y0107632D01*
X0258747Y0107737D01*
X0258843Y0107844D01*
X0258937Y0107954D01*
X0259028Y0108067D01*
X0259116Y0108182D01*
X0259200Y0108299D01*
X0259282Y0108418D01*
X0259360Y0108540D01*
X0259435Y0108663D01*
X0259507Y0108789D01*
X0259575Y0108916D01*
X0259640Y0109045D01*
X0259702Y0109176D01*
X0259760Y0109309D01*
X0259814Y0109443D01*
X0259865Y0109578D01*
X0259912Y0109715D01*
X0259956Y0109852D01*
X0259996Y0109991D01*
X0260032Y0110131D01*
X0260064Y0110272D01*
X0260093Y0110414D01*
X0260118Y0110556D01*
X0260139Y0110699D01*
X0260156Y0110843D01*
X0260170Y0110987D01*
X0260179Y0111131D01*
X0260185Y0111275D01*
X0260187Y0111420D01*
X0260187Y0113510D01*
X0263313Y0113510D01*
X0252250Y0118910D02*
X0252252Y0119102D01*
X0252259Y0119294D01*
X0252271Y0119485D01*
X0252287Y0119676D01*
X0252307Y0119867D01*
X0252332Y0120057D01*
X0252362Y0120247D01*
X0252396Y0120436D01*
X0252434Y0120624D01*
X0252477Y0120811D01*
X0252525Y0120997D01*
X0252577Y0121181D01*
X0252633Y0121365D01*
X0252693Y0121547D01*
X0252758Y0121727D01*
X0252827Y0121906D01*
X0252901Y0122084D01*
X0252979Y0122259D01*
X0253060Y0122433D01*
X0253146Y0122604D01*
X0253236Y0122774D01*
X0253330Y0122941D01*
X0253428Y0123106D01*
X0253530Y0123269D01*
X0253635Y0123429D01*
X0253745Y0123586D01*
X0253858Y0123741D01*
X0253975Y0123894D01*
X0254095Y0124043D01*
X0254219Y0124189D01*
X0254347Y0124333D01*
X0254477Y0124473D01*
X0254611Y0124611D01*
X0260187Y0120990D02*
X0260447Y0121250D01*
X0265750Y0121250D01*
X0271250Y0121446D02*
X0271248Y0121254D01*
X0271241Y0121063D01*
X0271229Y0120871D01*
X0271213Y0120680D01*
X0271192Y0120489D01*
X0271167Y0120299D01*
X0271137Y0120110D01*
X0271102Y0119921D01*
X0271063Y0119733D01*
X0271019Y0119547D01*
X0270971Y0119361D01*
X0270919Y0119176D01*
X0270862Y0118993D01*
X0270800Y0118812D01*
X0270734Y0118632D01*
X0270664Y0118453D01*
X0270590Y0118276D01*
X0270511Y0118101D01*
X0270428Y0117928D01*
X0270341Y0117757D01*
X0270250Y0117589D01*
X0270154Y0117422D01*
X0270055Y0117258D01*
X0269952Y0117096D01*
X0269845Y0116937D01*
X0269734Y0116781D01*
X0269620Y0116627D01*
X0269501Y0116476D01*
X0269379Y0116328D01*
X0269254Y0116183D01*
X0269125Y0116041D01*
X0268993Y0115902D01*
X0268857Y0115766D01*
X0268718Y0115634D01*
X0268576Y0115505D01*
X0268431Y0115380D01*
X0268283Y0115258D01*
X0268132Y0115139D01*
X0267978Y0115025D01*
X0267822Y0114914D01*
X0267663Y0114807D01*
X0267501Y0114704D01*
X0267337Y0114605D01*
X0267170Y0114509D01*
X0267002Y0114418D01*
X0266831Y0114331D01*
X0266658Y0114248D01*
X0266483Y0114169D01*
X0266306Y0114095D01*
X0266127Y0114025D01*
X0265947Y0113959D01*
X0265766Y0113897D01*
X0265583Y0113840D01*
X0265398Y0113788D01*
X0265212Y0113740D01*
X0265026Y0113696D01*
X0264838Y0113657D01*
X0264649Y0113622D01*
X0264460Y0113592D01*
X0264270Y0113567D01*
X0264079Y0113546D01*
X0263888Y0113530D01*
X0263696Y0113518D01*
X0263505Y0113511D01*
X0263313Y0113509D01*
X0271250Y0121446D02*
X0271250Y0123510D01*
X0276335Y0130990D02*
X0276477Y0130988D01*
X0276619Y0130982D01*
X0276761Y0130973D01*
X0276903Y0130959D01*
X0277044Y0130942D01*
X0277185Y0130921D01*
X0277325Y0130896D01*
X0277464Y0130867D01*
X0277602Y0130835D01*
X0277740Y0130799D01*
X0277876Y0130759D01*
X0278012Y0130715D01*
X0278146Y0130668D01*
X0278279Y0130617D01*
X0278410Y0130563D01*
X0278540Y0130505D01*
X0278668Y0130443D01*
X0278795Y0130378D01*
X0278919Y0130310D01*
X0279042Y0130238D01*
X0279163Y0130163D01*
X0279282Y0130085D01*
X0279398Y0130004D01*
X0279513Y0129919D01*
X0279625Y0129832D01*
X0279734Y0129741D01*
X0279842Y0129648D01*
X0279946Y0129551D01*
X0280048Y0129452D01*
X0285364Y0127250D02*
X0294127Y0127250D01*
X0294254Y0127252D01*
X0294381Y0127258D01*
X0294507Y0127268D01*
X0294634Y0127281D01*
X0294759Y0127299D01*
X0294885Y0127320D01*
X0295009Y0127345D01*
X0295133Y0127375D01*
X0295255Y0127407D01*
X0295377Y0127444D01*
X0295497Y0127484D01*
X0295616Y0127528D01*
X0295734Y0127576D01*
X0295850Y0127627D01*
X0295965Y0127682D01*
X0296078Y0127741D01*
X0296189Y0127802D01*
X0296297Y0127868D01*
X0296404Y0127936D01*
X0296509Y0128008D01*
X0296612Y0128083D01*
X0296712Y0128161D01*
X0296809Y0128242D01*
X0296905Y0128326D01*
X0296997Y0128413D01*
X0297087Y0128503D01*
X0297174Y0128595D01*
X0297258Y0128691D01*
X0297339Y0128788D01*
X0297417Y0128888D01*
X0297492Y0128991D01*
X0297564Y0129096D01*
X0297632Y0129203D01*
X0297698Y0129311D01*
X0297759Y0129422D01*
X0297818Y0129535D01*
X0297873Y0129650D01*
X0297924Y0129766D01*
X0297972Y0129884D01*
X0298016Y0130003D01*
X0298056Y0130123D01*
X0298093Y0130245D01*
X0298125Y0130367D01*
X0298155Y0130491D01*
X0298180Y0130615D01*
X0298201Y0130741D01*
X0298219Y0130866D01*
X0298232Y0130993D01*
X0298242Y0131119D01*
X0298248Y0131246D01*
X0298250Y0131373D01*
X0298250Y0151635D01*
X0306124Y0138250D02*
X0307124Y0134676D01*
X0307125Y0134676D02*
X0307158Y0134412D01*
X0307184Y0134146D01*
X0307204Y0133881D01*
X0307218Y0133614D01*
X0307226Y0133348D01*
X0307227Y0133082D01*
X0307221Y0132815D01*
X0307209Y0132549D01*
X0307191Y0132283D01*
X0307166Y0132018D01*
X0307135Y0131753D01*
X0307097Y0131489D01*
X0307053Y0131226D01*
X0307003Y0130964D01*
X0306946Y0130704D01*
X0306884Y0130445D01*
X0306814Y0130188D01*
X0306739Y0129932D01*
X0306658Y0129678D01*
X0306570Y0129426D01*
X0306476Y0129177D01*
X0306377Y0128930D01*
X0306271Y0128685D01*
X0306160Y0128443D01*
X0306042Y0128204D01*
X0305919Y0127967D01*
X0305791Y0127734D01*
X0305656Y0127504D01*
X0305517Y0127277D01*
X0305371Y0127053D01*
X0305221Y0126833D01*
X0305065Y0126617D01*
X0304904Y0126405D01*
X0304738Y0126196D01*
X0304566Y0125992D01*
X0304390Y0125792D01*
X0304210Y0125596D01*
X0304024Y0125405D01*
X0303834Y0125218D01*
X0303639Y0125036D01*
X0303441Y0124858D01*
X0303238Y0124686D01*
X0303030Y0124518D01*
X0302819Y0124356D01*
X0302604Y0124198D01*
X0302385Y0124046D01*
X0302163Y0123899D01*
X0301937Y0123758D01*
X0301708Y0123622D01*
X0301475Y0123491D01*
X0301240Y0123367D01*
X0301001Y0123248D01*
X0300760Y0123135D01*
X0300516Y0123027D01*
X0300269Y0122926D01*
X0300020Y0122831D01*
X0299769Y0122741D01*
X0299516Y0122658D01*
X0299261Y0122581D01*
X0299004Y0122510D01*
X0298746Y0122445D01*
X0298486Y0122387D01*
X0298224Y0122335D01*
X0297962Y0122289D01*
X0297698Y0122249D01*
X0297698Y0122250D02*
X0290852Y0122250D01*
X0290644Y0122247D01*
X0290436Y0122240D01*
X0290229Y0122227D01*
X0290022Y0122210D01*
X0289815Y0122187D01*
X0289609Y0122160D01*
X0289404Y0122127D01*
X0289199Y0122090D01*
X0288996Y0122047D01*
X0288793Y0122000D01*
X0288592Y0121948D01*
X0288392Y0121891D01*
X0288194Y0121829D01*
X0287997Y0121762D01*
X0287802Y0121691D01*
X0287608Y0121615D01*
X0287417Y0121534D01*
X0287227Y0121449D01*
X0287040Y0121359D01*
X0286854Y0121265D01*
X0286672Y0121166D01*
X0286491Y0121063D01*
X0286313Y0120955D01*
X0286138Y0120843D01*
X0285966Y0120727D01*
X0285796Y0120607D01*
X0285629Y0120483D01*
X0285466Y0120355D01*
X0285305Y0120223D01*
X0285148Y0120087D01*
X0284994Y0119947D01*
X0284843Y0119804D01*
X0284696Y0119657D01*
X0284553Y0119506D01*
X0284413Y0119352D01*
X0284277Y0119195D01*
X0284145Y0119034D01*
X0284017Y0118871D01*
X0283893Y0118704D01*
X0283773Y0118534D01*
X0283657Y0118362D01*
X0283545Y0118187D01*
X0283437Y0118009D01*
X0283334Y0117828D01*
X0283235Y0117646D01*
X0283141Y0117460D01*
X0283051Y0117273D01*
X0282966Y0117083D01*
X0282885Y0116892D01*
X0282809Y0116698D01*
X0282738Y0116503D01*
X0282671Y0116306D01*
X0282609Y0116108D01*
X0282552Y0115908D01*
X0282500Y0115707D01*
X0282453Y0115504D01*
X0282410Y0115301D01*
X0282373Y0115096D01*
X0282340Y0114891D01*
X0282313Y0114685D01*
X0282290Y0114478D01*
X0282273Y0114271D01*
X0282260Y0114064D01*
X0282253Y0113856D01*
X0282250Y0113648D01*
X0282250Y0113510D01*
X0282510Y0113250D01*
X0282510Y0093250D01*
X0284360Y0093250D01*
X0280620Y0090444D01*
X0280618Y0090276D01*
X0280612Y0090109D01*
X0280602Y0089942D01*
X0280588Y0089775D01*
X0280569Y0089608D01*
X0280547Y0089442D01*
X0280521Y0089277D01*
X0280491Y0089112D01*
X0280457Y0088948D01*
X0280419Y0088785D01*
X0280376Y0088622D01*
X0280330Y0088461D01*
X0280281Y0088301D01*
X0280227Y0088143D01*
X0280169Y0087985D01*
X0280108Y0087829D01*
X0280043Y0087675D01*
X0279974Y0087522D01*
X0279902Y0087371D01*
X0279826Y0087222D01*
X0279746Y0087074D01*
X0279663Y0086929D01*
X0279576Y0086785D01*
X0279486Y0086644D01*
X0279393Y0086505D01*
X0279296Y0086368D01*
X0279196Y0086234D01*
X0279092Y0086102D01*
X0278986Y0085973D01*
X0278876Y0085846D01*
X0278764Y0085722D01*
X0278648Y0085601D01*
X0278529Y0085482D01*
X0278408Y0085366D01*
X0278284Y0085254D01*
X0278157Y0085144D01*
X0278028Y0085038D01*
X0277896Y0084934D01*
X0277762Y0084834D01*
X0277625Y0084737D01*
X0277486Y0084644D01*
X0277345Y0084554D01*
X0277201Y0084467D01*
X0277056Y0084384D01*
X0276908Y0084304D01*
X0276759Y0084228D01*
X0276608Y0084156D01*
X0276455Y0084087D01*
X0276301Y0084022D01*
X0276145Y0083961D01*
X0275987Y0083903D01*
X0275829Y0083849D01*
X0275669Y0083800D01*
X0275508Y0083754D01*
X0275345Y0083711D01*
X0275182Y0083673D01*
X0275018Y0083639D01*
X0274853Y0083609D01*
X0274688Y0083583D01*
X0274522Y0083561D01*
X0274355Y0083542D01*
X0274188Y0083528D01*
X0274021Y0083518D01*
X0273854Y0083512D01*
X0273686Y0083510D01*
X0260187Y0083510D01*
X0326250Y0077852D02*
X0326230Y0076209D01*
X0326172Y0074566D01*
X0326074Y0072926D01*
X0325937Y0071288D01*
X0325762Y0069654D01*
X0325547Y0068025D01*
X0325294Y0066401D01*
X0325002Y0064784D01*
X0324672Y0063174D01*
X0324304Y0061573D01*
X0323897Y0059980D01*
X0323453Y0058398D01*
X0322971Y0056827D01*
X0322452Y0055268D01*
X0321896Y0053721D01*
X0321304Y0052188D01*
X0320675Y0050670D01*
X0320010Y0049167D01*
X0319310Y0047681D01*
X0318574Y0046211D01*
X0317804Y0044759D01*
X0316999Y0043326D01*
X0316160Y0041913D01*
X0315288Y0040520D01*
X0314384Y0039148D01*
X0313446Y0037798D01*
X0312477Y0036471D01*
X0311477Y0035168D01*
X0310446Y0033888D01*
X0309384Y0032633D01*
X0308293Y0031404D01*
X0307174Y0030201D01*
X0306025Y0029026D01*
X0326250Y0077852D02*
X0326250Y0268830D01*
X0326247Y0269084D01*
X0326238Y0269338D01*
X0326223Y0269591D01*
X0326202Y0269844D01*
X0326175Y0270097D01*
X0326141Y0270348D01*
X0326102Y0270599D01*
X0326057Y0270849D01*
X0326006Y0271098D01*
X0325949Y0271346D01*
X0325886Y0271592D01*
X0325818Y0271836D01*
X0325743Y0272079D01*
X0325663Y0272320D01*
X0325577Y0272559D01*
X0325486Y0272796D01*
X0325389Y0273030D01*
X0325286Y0273262D01*
X0325178Y0273492D01*
X0325064Y0273719D01*
X0324945Y0273944D01*
X0324820Y0274165D01*
X0324691Y0274383D01*
X0324556Y0274599D01*
X0324416Y0274811D01*
X0324272Y0275019D01*
X0324122Y0275224D01*
X0323967Y0275426D01*
X0323808Y0275623D01*
X0323644Y0275817D01*
X0323475Y0276007D01*
X0323302Y0276193D01*
X0323125Y0276375D01*
X0311356Y0281250D02*
X0291839Y0281250D01*
X0280502Y0266199D02*
X0280502Y0249574D01*
X0280497Y0249155D01*
X0280482Y0248737D01*
X0280456Y0248319D01*
X0280421Y0247902D01*
X0280376Y0247486D01*
X0280320Y0247071D01*
X0280255Y0246657D01*
X0280179Y0246246D01*
X0280094Y0245836D01*
X0279999Y0245428D01*
X0279894Y0245023D01*
X0279779Y0244620D01*
X0279654Y0244221D01*
X0279520Y0243824D01*
X0279376Y0243431D01*
X0279223Y0243041D01*
X0279061Y0242655D01*
X0278889Y0242274D01*
X0278708Y0241896D01*
X0278518Y0241523D01*
X0278319Y0241155D01*
X0278111Y0240791D01*
X0277894Y0240433D01*
X0277669Y0240080D01*
X0277435Y0239733D01*
X0277193Y0239391D01*
X0276943Y0239056D01*
X0276685Y0238726D01*
X0276419Y0238403D01*
X0276145Y0238086D01*
X0275864Y0237776D01*
X0275575Y0237473D01*
X0275279Y0237177D01*
X0274976Y0236888D01*
X0274666Y0236607D01*
X0274349Y0236333D01*
X0274026Y0236067D01*
X0273696Y0235809D01*
X0273361Y0235559D01*
X0273019Y0235317D01*
X0272672Y0235083D01*
X0272319Y0234858D01*
X0271961Y0234641D01*
X0271597Y0234433D01*
X0271229Y0234234D01*
X0270856Y0234044D01*
X0270478Y0233863D01*
X0270097Y0233691D01*
X0269711Y0233529D01*
X0269321Y0233376D01*
X0268928Y0233232D01*
X0268531Y0233098D01*
X0268132Y0232973D01*
X0267729Y0232858D01*
X0267324Y0232753D01*
X0266916Y0232658D01*
X0266506Y0232573D01*
X0266095Y0232497D01*
X0265681Y0232432D01*
X0265266Y0232376D01*
X0264850Y0232331D01*
X0264433Y0232296D01*
X0264015Y0232270D01*
X0263597Y0232255D01*
X0263178Y0232250D01*
X0262721Y0232244D01*
X0262264Y0232228D01*
X0261807Y0232200D01*
X0261351Y0232162D01*
X0260896Y0232112D01*
X0260443Y0232051D01*
X0259991Y0231980D01*
X0259541Y0231897D01*
X0259094Y0231804D01*
X0258648Y0231700D01*
X0258205Y0231585D01*
X0257766Y0231460D01*
X0257329Y0231324D01*
X0256896Y0231177D01*
X0256466Y0231020D01*
X0256040Y0230853D01*
X0255619Y0230675D01*
X0255202Y0230487D01*
X0254789Y0230290D01*
X0254382Y0230082D01*
X0253979Y0229864D01*
X0253582Y0229637D01*
X0253191Y0229401D01*
X0252805Y0229155D01*
X0252426Y0228899D01*
X0252052Y0228635D01*
X0251686Y0228362D01*
X0251326Y0228080D01*
X0250972Y0227789D01*
X0250626Y0227490D01*
X0250288Y0227182D01*
X0249957Y0226867D01*
X0249633Y0226543D01*
X0249318Y0226212D01*
X0249010Y0225874D01*
X0248711Y0225528D01*
X0248420Y0225174D01*
X0248138Y0224814D01*
X0247865Y0224448D01*
X0247601Y0224074D01*
X0247345Y0223695D01*
X0247099Y0223309D01*
X0246863Y0222918D01*
X0246636Y0222521D01*
X0246418Y0222118D01*
X0246210Y0221711D01*
X0246013Y0221298D01*
X0245825Y0220881D01*
X0245647Y0220460D01*
X0245480Y0220034D01*
X0245323Y0219604D01*
X0245176Y0219171D01*
X0245040Y0218734D01*
X0244915Y0218295D01*
X0244800Y0217852D01*
X0244696Y0217406D01*
X0244603Y0216959D01*
X0244520Y0216509D01*
X0244449Y0216057D01*
X0244388Y0215604D01*
X0244338Y0215149D01*
X0244300Y0214693D01*
X0244272Y0214236D01*
X0244256Y0213779D01*
X0244250Y0213322D01*
X0219250Y0204347D02*
X0219250Y0277015D01*
X0219252Y0277201D01*
X0219259Y0277387D01*
X0219270Y0277572D01*
X0219285Y0277757D01*
X0219305Y0277942D01*
X0219329Y0278126D01*
X0219358Y0278310D01*
X0219391Y0278493D01*
X0219428Y0278675D01*
X0219470Y0278856D01*
X0219516Y0279036D01*
X0219566Y0279215D01*
X0219621Y0279393D01*
X0219680Y0279569D01*
X0219742Y0279744D01*
X0219809Y0279918D01*
X0219881Y0280089D01*
X0219956Y0280259D01*
X0220035Y0280428D01*
X0220118Y0280594D01*
X0220205Y0280758D01*
X0220296Y0280920D01*
X0220391Y0281080D01*
X0220490Y0281237D01*
X0220592Y0281393D01*
X0220698Y0281545D01*
X0220808Y0281695D01*
X0220921Y0281843D01*
X0221038Y0281988D01*
X0221158Y0282129D01*
X0221281Y0282268D01*
X0221408Y0282405D01*
X0221538Y0282538D01*
X0204250Y0284250D02*
X0204258Y0284902D01*
X0204282Y0285554D01*
X0204321Y0286206D01*
X0204376Y0286856D01*
X0204447Y0287504D01*
X0204533Y0288151D01*
X0204635Y0288796D01*
X0204753Y0289437D01*
X0204886Y0290076D01*
X0205035Y0290712D01*
X0205198Y0291343D01*
X0205377Y0291971D01*
X0205571Y0292593D01*
X0205781Y0293212D01*
X0206005Y0293824D01*
X0206243Y0294432D01*
X0206497Y0295033D01*
X0206764Y0295628D01*
X0207046Y0296216D01*
X0207343Y0296798D01*
X0207653Y0297372D01*
X0207977Y0297938D01*
X0208314Y0298496D01*
X0208665Y0299046D01*
X0209029Y0299588D01*
X0209407Y0300120D01*
X0209796Y0300643D01*
X0210199Y0301157D01*
X0210613Y0301661D01*
X0211040Y0302154D01*
X0211479Y0302637D01*
X0211929Y0303110D01*
X0212390Y0303571D01*
X0212863Y0304021D01*
X0213346Y0304460D01*
X0213839Y0304887D01*
X0214343Y0305301D01*
X0214857Y0305704D01*
X0215380Y0306093D01*
X0215912Y0306471D01*
X0216454Y0306835D01*
X0217004Y0307186D01*
X0217562Y0307523D01*
X0218128Y0307847D01*
X0218702Y0308157D01*
X0219284Y0308454D01*
X0219872Y0308736D01*
X0220467Y0309003D01*
X0221068Y0309257D01*
X0221676Y0309495D01*
X0222288Y0309719D01*
X0222907Y0309929D01*
X0223529Y0310123D01*
X0224157Y0310302D01*
X0224788Y0310465D01*
X0225424Y0310614D01*
X0226063Y0310747D01*
X0226704Y0310865D01*
X0227349Y0310967D01*
X0227996Y0311053D01*
X0228644Y0311124D01*
X0229294Y0311179D01*
X0229946Y0311218D01*
X0230598Y0311242D01*
X0231250Y0311250D01*
X0232350Y0311250D01*
X0235232Y0287250D02*
X0235808Y0287257D01*
X0236383Y0287277D01*
X0236957Y0287312D01*
X0237531Y0287360D01*
X0238103Y0287421D01*
X0238674Y0287496D01*
X0239243Y0287585D01*
X0239809Y0287687D01*
X0240373Y0287803D01*
X0240934Y0287932D01*
X0241492Y0288074D01*
X0242046Y0288230D01*
X0242597Y0288398D01*
X0243143Y0288580D01*
X0243684Y0288775D01*
X0244221Y0288983D01*
X0244753Y0289203D01*
X0245280Y0289436D01*
X0245800Y0289681D01*
X0246315Y0289939D01*
X0246824Y0290209D01*
X0247326Y0290490D01*
X0247821Y0290784D01*
X0248308Y0291090D01*
X0248789Y0291407D01*
X0249262Y0291735D01*
X0249727Y0292074D01*
X0250183Y0292425D01*
X0250632Y0292786D01*
X0251071Y0293158D01*
X0251502Y0293540D01*
X0251923Y0293932D01*
X0252335Y0294334D01*
X0252334Y0294334D02*
X0254193Y0296193D01*
X0254193Y0299250D01*
X0244350Y0299250D02*
X0244346Y0299540D01*
X0244336Y0299830D01*
X0244318Y0300119D01*
X0244294Y0300408D01*
X0244263Y0300696D01*
X0244224Y0300984D01*
X0244179Y0301270D01*
X0244126Y0301556D01*
X0244067Y0301839D01*
X0244001Y0302122D01*
X0243929Y0302402D01*
X0243849Y0302681D01*
X0243763Y0302958D01*
X0243670Y0303233D01*
X0243570Y0303505D01*
X0243464Y0303775D01*
X0243352Y0304042D01*
X0243232Y0304307D01*
X0243107Y0304568D01*
X0242975Y0304827D01*
X0242838Y0305082D01*
X0242694Y0305334D01*
X0242544Y0305582D01*
X0242388Y0305826D01*
X0242226Y0306067D01*
X0242058Y0306303D01*
X0241885Y0306536D01*
X0241706Y0306764D01*
X0241522Y0306988D01*
X0241332Y0307207D01*
X0241137Y0307422D01*
X0240937Y0307632D01*
X0240732Y0307837D01*
X0240522Y0308037D01*
X0240307Y0308232D01*
X0240088Y0308422D01*
X0239864Y0308606D01*
X0239636Y0308785D01*
X0239403Y0308958D01*
X0239167Y0309126D01*
X0238926Y0309288D01*
X0238682Y0309444D01*
X0238434Y0309594D01*
X0238182Y0309738D01*
X0237927Y0309875D01*
X0237668Y0310007D01*
X0237407Y0310132D01*
X0237142Y0310252D01*
X0236875Y0310364D01*
X0236605Y0310470D01*
X0236333Y0310570D01*
X0236058Y0310663D01*
X0235781Y0310749D01*
X0235502Y0310829D01*
X0235222Y0310901D01*
X0234939Y0310967D01*
X0234656Y0311026D01*
X0234370Y0311079D01*
X0234084Y0311124D01*
X0233796Y0311163D01*
X0233508Y0311194D01*
X0233219Y0311218D01*
X0232930Y0311236D01*
X0232640Y0311246D01*
X0232350Y0311250D01*
X0232914Y0287250D02*
X0235232Y0287250D01*
X0232914Y0287250D02*
X0232519Y0287245D01*
X0232125Y0287231D01*
X0231730Y0287206D01*
X0231337Y0287173D01*
X0230945Y0287129D01*
X0230553Y0287076D01*
X0230163Y0287013D01*
X0229775Y0286941D01*
X0229389Y0286859D01*
X0229005Y0286768D01*
X0228623Y0286667D01*
X0228244Y0286557D01*
X0227867Y0286438D01*
X0227494Y0286310D01*
X0227124Y0286172D01*
X0226757Y0286025D01*
X0226394Y0285870D01*
X0226035Y0285705D01*
X0225680Y0285532D01*
X0225330Y0285350D01*
X0224984Y0285160D01*
X0224643Y0284961D01*
X0224306Y0284754D01*
X0223975Y0284539D01*
X0223650Y0284315D01*
X0223330Y0284084D01*
X0223016Y0283845D01*
X0222707Y0283598D01*
X0222405Y0283344D01*
X0222109Y0283082D01*
X0221820Y0282813D01*
X0221537Y0282538D01*
X0204250Y0284250D02*
X0204250Y0280140D01*
X0204250Y0266360D02*
X0204250Y0265250D01*
X0195250Y0265250D01*
X0175767Y0249250D02*
X0167300Y0249250D01*
X0167300Y0234250D02*
X0148990Y0234250D01*
X0141510Y0234250D02*
X0141510Y0264250D01*
X0141510Y0267146D01*
X0141508Y0267291D01*
X0141502Y0267436D01*
X0141492Y0267581D01*
X0141479Y0267726D01*
X0141461Y0267870D01*
X0141439Y0268014D01*
X0141414Y0268157D01*
X0141385Y0268299D01*
X0141351Y0268441D01*
X0141314Y0268581D01*
X0141274Y0268720D01*
X0141229Y0268859D01*
X0141181Y0268996D01*
X0141129Y0269131D01*
X0141073Y0269266D01*
X0141014Y0269398D01*
X0140951Y0269529D01*
X0140885Y0269659D01*
X0140815Y0269786D01*
X0140742Y0269911D01*
X0140666Y0270035D01*
X0140586Y0270156D01*
X0140503Y0270275D01*
X0140416Y0270392D01*
X0140327Y0270507D01*
X0140234Y0270619D01*
X0140139Y0270728D01*
X0140040Y0270835D01*
X0139939Y0270939D01*
X0139835Y0271040D01*
X0139728Y0271139D01*
X0139619Y0271234D01*
X0139507Y0271327D01*
X0139392Y0271416D01*
X0139275Y0271503D01*
X0139156Y0271586D01*
X0139035Y0271666D01*
X0138911Y0271742D01*
X0138786Y0271815D01*
X0138659Y0271885D01*
X0138529Y0271951D01*
X0138398Y0272014D01*
X0138266Y0272073D01*
X0138131Y0272129D01*
X0137996Y0272181D01*
X0137859Y0272229D01*
X0137720Y0272274D01*
X0137581Y0272314D01*
X0137441Y0272351D01*
X0137299Y0272385D01*
X0137157Y0272414D01*
X0137014Y0272439D01*
X0136870Y0272461D01*
X0136726Y0272479D01*
X0136581Y0272492D01*
X0136436Y0272502D01*
X0136291Y0272508D01*
X0136146Y0272510D01*
X0133250Y0272510D01*
X0148990Y0264250D02*
X0167300Y0264250D01*
X0175767Y0249250D02*
X0176151Y0249245D01*
X0176535Y0249231D01*
X0176918Y0249208D01*
X0177301Y0249175D01*
X0177683Y0249132D01*
X0178064Y0249081D01*
X0178443Y0249020D01*
X0178821Y0248949D01*
X0179196Y0248870D01*
X0179570Y0248781D01*
X0179942Y0248683D01*
X0180311Y0248576D01*
X0180677Y0248460D01*
X0181040Y0248335D01*
X0181400Y0248201D01*
X0181757Y0248059D01*
X0182110Y0247907D01*
X0182459Y0247747D01*
X0182804Y0247579D01*
X0183145Y0247402D01*
X0183482Y0247217D01*
X0183814Y0247023D01*
X0184141Y0246822D01*
X0184463Y0246612D01*
X0184780Y0246395D01*
X0185091Y0246170D01*
X0185397Y0245937D01*
X0185697Y0245697D01*
X0185990Y0245450D01*
X0186278Y0245195D01*
X0186560Y0244934D01*
X0186835Y0244666D01*
X0192250Y0231591D02*
X0192250Y0202637D01*
X0219250Y0204347D02*
X0219240Y0203480D01*
X0219209Y0202613D01*
X0219157Y0201747D01*
X0219085Y0200882D01*
X0218992Y0200020D01*
X0218879Y0199160D01*
X0218745Y0198303D01*
X0218591Y0197449D01*
X0218417Y0196599D01*
X0218223Y0195754D01*
X0218008Y0194914D01*
X0217774Y0194078D01*
X0217519Y0193249D01*
X0217245Y0192426D01*
X0216952Y0191610D01*
X0216639Y0190801D01*
X0216307Y0189999D01*
X0215956Y0189206D01*
X0215587Y0188421D01*
X0215198Y0187646D01*
X0214792Y0186879D01*
X0214367Y0186123D01*
X0213924Y0185377D01*
X0213464Y0184642D01*
X0212986Y0183918D01*
X0212492Y0183205D01*
X0211980Y0182505D01*
X0211452Y0181816D01*
X0210908Y0181141D01*
X0210348Y0180479D01*
X0209772Y0179830D01*
X0209181Y0179195D01*
X0208575Y0178574D01*
X0205795Y0147990D02*
X0205147Y0147998D01*
X0204499Y0148021D01*
X0203851Y0148059D01*
X0203205Y0148113D01*
X0202561Y0148183D01*
X0201918Y0148267D01*
X0201277Y0148367D01*
X0200639Y0148482D01*
X0200004Y0148613D01*
X0199372Y0148758D01*
X0198744Y0148918D01*
X0198119Y0149094D01*
X0197500Y0149284D01*
X0196884Y0149488D01*
X0196274Y0149708D01*
X0195669Y0149942D01*
X0195070Y0150190D01*
X0194477Y0150452D01*
X0193891Y0150728D01*
X0193311Y0151019D01*
X0192738Y0151323D01*
X0192173Y0151640D01*
X0191615Y0151971D01*
X0191066Y0152315D01*
X0190525Y0152672D01*
X0189992Y0153042D01*
X0189468Y0153424D01*
X0188954Y0153819D01*
X0188449Y0154226D01*
X0187954Y0154644D01*
X0187469Y0155075D01*
X0186994Y0155517D01*
X0186531Y0155970D01*
X0181250Y0168717D02*
X0181250Y0176081D01*
X0181255Y0176493D01*
X0181270Y0176905D01*
X0181294Y0177316D01*
X0181328Y0177726D01*
X0181372Y0178136D01*
X0181426Y0178544D01*
X0181490Y0178951D01*
X0181563Y0179357D01*
X0181646Y0179760D01*
X0181738Y0180162D01*
X0181840Y0180561D01*
X0181951Y0180957D01*
X0182072Y0181351D01*
X0182202Y0181742D01*
X0182341Y0182130D01*
X0182490Y0182514D01*
X0182647Y0182894D01*
X0182814Y0183271D01*
X0182990Y0183644D01*
X0183174Y0184012D01*
X0183367Y0184376D01*
X0183569Y0184735D01*
X0183779Y0185089D01*
X0183998Y0185438D01*
X0184224Y0185782D01*
X0184459Y0186121D01*
X0184702Y0186453D01*
X0184953Y0186780D01*
X0185211Y0187101D01*
X0185477Y0187415D01*
X0185751Y0187723D01*
X0186032Y0188025D01*
X0186319Y0188320D01*
X0186656Y0188664D01*
X0186985Y0189017D01*
X0187304Y0189377D01*
X0187616Y0189745D01*
X0187918Y0190121D01*
X0188211Y0190503D01*
X0188496Y0190892D01*
X0188770Y0191288D01*
X0189036Y0191690D01*
X0189291Y0192099D01*
X0189537Y0192513D01*
X0189773Y0192933D01*
X0189999Y0193359D01*
X0190215Y0193790D01*
X0190420Y0194226D01*
X0190615Y0194666D01*
X0190800Y0195112D01*
X0190973Y0195561D01*
X0191136Y0196015D01*
X0191289Y0196472D01*
X0191430Y0196932D01*
X0191560Y0197396D01*
X0191679Y0197863D01*
X0191787Y0198333D01*
X0191884Y0198805D01*
X0191970Y0199279D01*
X0192044Y0199755D01*
X0192107Y0200233D01*
X0192158Y0200712D01*
X0192198Y0201193D01*
X0192227Y0201674D01*
X0192244Y0202155D01*
X0192250Y0202637D01*
X0229027Y0176570D02*
X0229891Y0177455D01*
X0230734Y0178360D01*
X0231555Y0179286D01*
X0232354Y0180230D01*
X0233130Y0181193D01*
X0233883Y0182175D01*
X0234613Y0183174D01*
X0235318Y0184190D01*
X0235999Y0185222D01*
X0236655Y0186271D01*
X0237287Y0187334D01*
X0237892Y0188413D01*
X0238472Y0189506D01*
X0239026Y0190612D01*
X0239553Y0191731D01*
X0240054Y0192862D01*
X0240527Y0194005D01*
X0240973Y0195159D01*
X0241391Y0196323D01*
X0241782Y0197496D01*
X0242145Y0198679D01*
X0242479Y0199870D01*
X0242785Y0201068D01*
X0243062Y0202274D01*
X0243311Y0203486D01*
X0243530Y0204703D01*
X0243721Y0205925D01*
X0243882Y0207152D01*
X0244015Y0208381D01*
X0244118Y0209614D01*
X0244191Y0210849D01*
X0244235Y0212085D01*
X0244250Y0213322D01*
X0229027Y0176570D02*
X0214762Y0162305D01*
X0214880Y0152250D02*
X0214623Y0152253D01*
X0214366Y0152262D01*
X0214110Y0152278D01*
X0213854Y0152300D01*
X0213599Y0152328D01*
X0213344Y0152362D01*
X0213090Y0152402D01*
X0212838Y0152448D01*
X0212586Y0152500D01*
X0212336Y0152559D01*
X0212087Y0152623D01*
X0211840Y0152694D01*
X0211595Y0152770D01*
X0211352Y0152853D01*
X0211111Y0152941D01*
X0210871Y0153035D01*
X0210635Y0153134D01*
X0210401Y0153240D01*
X0210169Y0153351D01*
X0209940Y0153468D01*
X0209714Y0153590D01*
X0209491Y0153717D01*
X0209271Y0153850D01*
X0209055Y0153988D01*
X0208841Y0154132D01*
X0208632Y0154280D01*
X0208426Y0154434D01*
X0208224Y0154592D01*
X0208025Y0154755D01*
X0207831Y0154923D01*
X0207641Y0155096D01*
X0207455Y0155273D01*
X0207273Y0155455D01*
X0207096Y0155641D01*
X0206923Y0155831D01*
X0206755Y0156025D01*
X0206592Y0156224D01*
X0206434Y0156426D01*
X0206280Y0156632D01*
X0206132Y0156841D01*
X0205988Y0157055D01*
X0205850Y0157271D01*
X0205717Y0157491D01*
X0205590Y0157714D01*
X0205468Y0157940D01*
X0205351Y0158169D01*
X0205240Y0158401D01*
X0205134Y0158635D01*
X0205035Y0158871D01*
X0204941Y0159111D01*
X0204853Y0159352D01*
X0204770Y0159595D01*
X0204694Y0159840D01*
X0204623Y0160087D01*
X0204559Y0160336D01*
X0204500Y0160586D01*
X0204448Y0160838D01*
X0204402Y0161090D01*
X0204362Y0161344D01*
X0204328Y0161599D01*
X0204300Y0161854D01*
X0204278Y0162110D01*
X0204262Y0162366D01*
X0204253Y0162623D01*
X0204250Y0162880D01*
X0204250Y0168134D01*
X0186530Y0155969D02*
X0186221Y0156286D01*
X0185920Y0156610D01*
X0185627Y0156942D01*
X0185342Y0157280D01*
X0185066Y0157626D01*
X0184798Y0157978D01*
X0184539Y0158336D01*
X0184288Y0158701D01*
X0184047Y0159072D01*
X0183815Y0159449D01*
X0183592Y0159831D01*
X0183379Y0160219D01*
X0183175Y0160611D01*
X0182981Y0161009D01*
X0182797Y0161411D01*
X0182622Y0161818D01*
X0182458Y0162229D01*
X0182304Y0162644D01*
X0182160Y0163062D01*
X0182026Y0163484D01*
X0181903Y0163909D01*
X0181790Y0164337D01*
X0181688Y0164767D01*
X0181596Y0165200D01*
X0181515Y0165635D01*
X0181445Y0166072D01*
X0181386Y0166510D01*
X0181337Y0166950D01*
X0181299Y0167391D01*
X0181272Y0167832D01*
X0181255Y0168275D01*
X0181250Y0168717D01*
X0205795Y0147990D02*
X0232250Y0147990D01*
X0243250Y0147990D01*
X0244510Y0149250D01*
X0248250Y0143769D02*
X0248248Y0143649D01*
X0248242Y0143529D01*
X0248232Y0143410D01*
X0248219Y0143290D01*
X0248201Y0143172D01*
X0248180Y0143054D01*
X0248154Y0142937D01*
X0248125Y0142820D01*
X0248092Y0142705D01*
X0248055Y0142591D01*
X0248015Y0142478D01*
X0247971Y0142366D01*
X0247923Y0142256D01*
X0247872Y0142148D01*
X0247817Y0142041D01*
X0247759Y0141936D01*
X0247697Y0141833D01*
X0247632Y0141732D01*
X0247564Y0141634D01*
X0247492Y0141537D01*
X0247418Y0141443D01*
X0247340Y0141352D01*
X0247260Y0141263D01*
X0247176Y0141177D01*
X0260187Y0140990D02*
X0265510Y0140990D01*
X0262259Y0175250D02*
X0261370Y0175239D01*
X0260481Y0175206D01*
X0259593Y0175152D01*
X0258707Y0175076D01*
X0257823Y0174977D01*
X0256942Y0174858D01*
X0256064Y0174717D01*
X0255190Y0174554D01*
X0254320Y0174370D01*
X0253455Y0174164D01*
X0252595Y0173937D01*
X0251741Y0173690D01*
X0250893Y0173421D01*
X0250052Y0173132D01*
X0249218Y0172822D01*
X0248392Y0172492D01*
X0247575Y0172141D01*
X0246767Y0171771D01*
X0245967Y0171381D01*
X0245178Y0170971D01*
X0244399Y0170543D01*
X0243630Y0170095D01*
X0242873Y0169628D01*
X0242128Y0169143D01*
X0241395Y0168640D01*
X0240674Y0168119D01*
X0239966Y0167581D01*
X0239272Y0167025D01*
X0238591Y0166452D01*
X0237925Y0165863D01*
X0237274Y0165258D01*
X0236637Y0164637D01*
X0227266Y0155266D01*
X0219985Y0152250D02*
X0214880Y0152250D01*
X0219985Y0152250D02*
X0220230Y0152253D01*
X0220475Y0152262D01*
X0220720Y0152276D01*
X0220964Y0152297D01*
X0221207Y0152323D01*
X0221450Y0152355D01*
X0221692Y0152393D01*
X0221934Y0152436D01*
X0222174Y0152485D01*
X0222412Y0152540D01*
X0222650Y0152601D01*
X0222886Y0152667D01*
X0223120Y0152739D01*
X0223352Y0152816D01*
X0223583Y0152899D01*
X0223812Y0152988D01*
X0224038Y0153081D01*
X0224262Y0153180D01*
X0224484Y0153285D01*
X0224703Y0153395D01*
X0224919Y0153509D01*
X0225133Y0153629D01*
X0225344Y0153754D01*
X0225551Y0153884D01*
X0225756Y0154019D01*
X0225957Y0154159D01*
X0226155Y0154304D01*
X0226350Y0154453D01*
X0226540Y0154607D01*
X0226727Y0154765D01*
X0226911Y0154927D01*
X0227090Y0155094D01*
X0227265Y0155266D01*
X0204250Y0168134D02*
X0204254Y0168496D01*
X0204268Y0168858D01*
X0204290Y0169220D01*
X0204321Y0169581D01*
X0204361Y0169941D01*
X0204410Y0170300D01*
X0204467Y0170658D01*
X0204534Y0171015D01*
X0204609Y0171369D01*
X0204692Y0171722D01*
X0204785Y0172072D01*
X0204886Y0172420D01*
X0204995Y0172766D01*
X0205113Y0173108D01*
X0205239Y0173448D01*
X0205374Y0173784D01*
X0205517Y0174117D01*
X0205668Y0174447D01*
X0205827Y0174773D01*
X0205993Y0175094D01*
X0206168Y0175412D01*
X0206351Y0175725D01*
X0206541Y0176033D01*
X0206738Y0176337D01*
X0206943Y0176636D01*
X0207156Y0176929D01*
X0207375Y0177218D01*
X0207601Y0177501D01*
X0207835Y0177778D01*
X0208075Y0178050D01*
X0208321Y0178315D01*
X0208575Y0178574D01*
X0192250Y0231591D02*
X0192245Y0232031D01*
X0192229Y0232471D01*
X0192203Y0232910D01*
X0192166Y0233349D01*
X0192119Y0233786D01*
X0192062Y0234222D01*
X0191994Y0234657D01*
X0191916Y0235090D01*
X0191827Y0235521D01*
X0191729Y0235950D01*
X0191620Y0236377D01*
X0191501Y0236800D01*
X0191372Y0237221D01*
X0191233Y0237638D01*
X0191084Y0238053D01*
X0190926Y0238463D01*
X0190757Y0238870D01*
X0190579Y0239272D01*
X0190392Y0239670D01*
X0190195Y0240064D01*
X0189988Y0240452D01*
X0189773Y0240836D01*
X0189548Y0241214D01*
X0189315Y0241587D01*
X0189072Y0241955D01*
X0188822Y0242316D01*
X0188562Y0242672D01*
X0188294Y0243021D01*
X0188018Y0243363D01*
X0187734Y0243699D01*
X0187442Y0244028D01*
X0187142Y0244351D01*
X0186834Y0244665D01*
X0133250Y0279990D02*
X0133244Y0280455D01*
X0133228Y0280921D01*
X0133199Y0281385D01*
X0133160Y0281849D01*
X0133110Y0282312D01*
X0133048Y0282773D01*
X0132975Y0283233D01*
X0132891Y0283690D01*
X0132796Y0284146D01*
X0132690Y0284599D01*
X0132574Y0285050D01*
X0132446Y0285497D01*
X0132307Y0285942D01*
X0132158Y0286383D01*
X0131998Y0286820D01*
X0131828Y0287253D01*
X0131647Y0287682D01*
X0131456Y0288106D01*
X0131255Y0288526D01*
X0131044Y0288941D01*
X0130823Y0289350D01*
X0130592Y0289754D01*
X0130351Y0290152D01*
X0130100Y0290545D01*
X0129841Y0290931D01*
X0129572Y0291311D01*
X0129294Y0291684D01*
X0129007Y0292050D01*
X0128711Y0292410D01*
X0128406Y0292762D01*
X0128093Y0293106D01*
X0127772Y0293443D01*
X0127443Y0293772D01*
X0127106Y0294093D01*
X0126762Y0294406D01*
X0126410Y0294711D01*
X0126050Y0295007D01*
X0125684Y0295294D01*
X0125311Y0295572D01*
X0124931Y0295841D01*
X0124545Y0296100D01*
X0124152Y0296351D01*
X0123754Y0296592D01*
X0123350Y0296823D01*
X0122941Y0297044D01*
X0122526Y0297255D01*
X0122106Y0297456D01*
X0121682Y0297647D01*
X0121253Y0297828D01*
X0120820Y0297998D01*
X0120383Y0298158D01*
X0119942Y0298307D01*
X0119497Y0298446D01*
X0119050Y0298574D01*
X0118599Y0298690D01*
X0118146Y0298796D01*
X0117690Y0298891D01*
X0117233Y0298975D01*
X0116773Y0299048D01*
X0116312Y0299110D01*
X0115849Y0299160D01*
X0115385Y0299199D01*
X0114921Y0299228D01*
X0114455Y0299244D01*
X0113990Y0299250D01*
X0100093Y0299250D01*
X0090250Y0293732D02*
X0090254Y0293407D01*
X0090266Y0293083D01*
X0090286Y0292758D01*
X0090314Y0292435D01*
X0090350Y0292112D01*
X0090393Y0291790D01*
X0090445Y0291469D01*
X0090504Y0291150D01*
X0090572Y0290832D01*
X0090647Y0290516D01*
X0090729Y0290202D01*
X0090820Y0289890D01*
X0090918Y0289580D01*
X0091024Y0289273D01*
X0091137Y0288969D01*
X0091257Y0288667D01*
X0091385Y0288369D01*
X0091521Y0288073D01*
X0091663Y0287781D01*
X0091813Y0287493D01*
X0091969Y0287208D01*
X0092133Y0286928D01*
X0092303Y0286651D01*
X0092480Y0286379D01*
X0092664Y0286111D01*
X0092855Y0285848D01*
X0093051Y0285589D01*
X0093254Y0285336D01*
X0093463Y0285087D01*
X0093679Y0284844D01*
X0093900Y0284606D01*
X0094126Y0284373D01*
X0090250Y0293732D02*
X0090250Y0299250D01*
X0080407Y0299251D02*
X0080189Y0299227D01*
X0079971Y0299199D01*
X0079753Y0299165D01*
X0079537Y0299126D01*
X0079321Y0299081D01*
X0079107Y0299032D01*
X0078894Y0298977D01*
X0078683Y0298917D01*
X0078473Y0298852D01*
X0078264Y0298781D01*
X0078058Y0298706D01*
X0077853Y0298626D01*
X0077650Y0298540D01*
X0077449Y0298450D01*
X0077251Y0298355D01*
X0077055Y0298255D01*
X0076862Y0298151D01*
X0076671Y0298041D01*
X0076483Y0297927D01*
X0076298Y0297809D01*
X0076115Y0297686D01*
X0075936Y0297558D01*
X0075760Y0297427D01*
X0075587Y0297291D01*
X0075417Y0297151D01*
X0075251Y0297006D01*
X0075089Y0296858D01*
X0074930Y0296706D01*
X0074775Y0296550D01*
X0074624Y0296390D01*
X0074477Y0296227D01*
X0074333Y0296060D01*
X0074194Y0295889D01*
X0074059Y0295716D01*
X0073929Y0295539D01*
X0073802Y0295359D01*
X0073681Y0295176D01*
X0073563Y0294990D01*
X0073450Y0294801D01*
X0073342Y0294609D01*
X0073239Y0294415D01*
X0073140Y0294219D01*
X0073046Y0294020D01*
X0072957Y0293819D01*
X0072873Y0293615D01*
X0072794Y0293410D01*
X0072720Y0293203D01*
X0072651Y0292994D01*
X0072587Y0292784D01*
X0072529Y0292572D01*
X0072475Y0292358D01*
X0072427Y0292144D01*
X0072384Y0291928D01*
X0072346Y0291711D01*
X0072313Y0291494D01*
X0072286Y0291276D01*
X0072264Y0291057D01*
X0072248Y0290837D01*
X0072237Y0290618D01*
X0072231Y0290398D01*
X0072230Y0290178D01*
X0072235Y0289958D01*
X0072246Y0289738D01*
X0072261Y0289519D01*
X0072282Y0289300D01*
X0072309Y0289082D01*
X0072340Y0288864D01*
X0072377Y0288647D01*
X0072419Y0288431D01*
X0072467Y0288217D01*
X0072519Y0288003D01*
X0072577Y0287791D01*
X0072640Y0287580D01*
X0072709Y0287371D01*
X0072782Y0287164D01*
X0072860Y0286958D01*
X0072943Y0286755D01*
X0073031Y0286553D01*
X0073124Y0286354D01*
X0073222Y0286157D01*
X0073325Y0285962D01*
X0073432Y0285770D01*
X0073544Y0285581D01*
X0073661Y0285395D01*
X0073782Y0285211D01*
X0073908Y0285030D01*
X0074038Y0284853D01*
X0074172Y0284679D01*
X0074310Y0284508D01*
X0074453Y0284340D01*
X0074600Y0284176D01*
X0074750Y0284016D01*
X0074904Y0283859D01*
X0075063Y0283707D01*
X0075225Y0283558D01*
X0075390Y0283413D01*
X0075559Y0283272D01*
X0075731Y0283135D01*
X0075907Y0283003D01*
X0076086Y0282875D01*
X0076267Y0282751D01*
X0076452Y0282632D01*
X0076640Y0282517D01*
X0076830Y0282407D01*
X0077023Y0282302D01*
X0077219Y0282201D01*
X0077417Y0282105D01*
X0077617Y0282014D01*
X0077819Y0281928D01*
X0078024Y0281847D01*
X0078230Y0281771D01*
X0078438Y0281699D01*
X0078648Y0281633D01*
X0078859Y0281573D01*
X0079072Y0281517D01*
X0079286Y0281466D01*
X0079502Y0281421D01*
X0079718Y0281381D01*
X0079935Y0281346D01*
X0080153Y0281317D01*
X0080372Y0281293D01*
X0080591Y0281274D01*
X0080810Y0281261D01*
X0081030Y0281253D01*
X0081250Y0281250D01*
X0094126Y0284373D02*
X0094417Y0284076D01*
X0094701Y0283771D01*
X0094977Y0283459D01*
X0095246Y0283142D01*
X0095507Y0282817D01*
X0095761Y0282487D01*
X0096006Y0282151D01*
X0096244Y0281809D01*
X0096473Y0281461D01*
X0096694Y0281109D01*
X0096906Y0280750D01*
X0097110Y0280387D01*
X0097305Y0280020D01*
X0097492Y0279647D01*
X0097669Y0279271D01*
X0097838Y0278890D01*
X0097997Y0278505D01*
X0098147Y0278117D01*
X0098288Y0277725D01*
X0098419Y0277330D01*
X0098541Y0276932D01*
X0098654Y0276532D01*
X0098757Y0276128D01*
X0098850Y0275722D01*
X0098934Y0275315D01*
X0099008Y0274905D01*
X0099072Y0274494D01*
X0099126Y0274081D01*
X0099171Y0273667D01*
X0099205Y0273252D01*
X0099230Y0272836D01*
X0099245Y0272420D01*
X0099250Y0272004D01*
X0099250Y0228222D01*
X0099246Y0227909D01*
X0099235Y0227595D01*
X0099216Y0227282D01*
X0099189Y0226970D01*
X0099155Y0226658D01*
X0099114Y0226348D01*
X0099065Y0226038D01*
X0099008Y0225730D01*
X0098944Y0225423D01*
X0098873Y0225118D01*
X0098794Y0224814D01*
X0098708Y0224513D01*
X0098615Y0224213D01*
X0098515Y0223916D01*
X0098407Y0223622D01*
X0098292Y0223330D01*
X0098171Y0223041D01*
X0098042Y0222756D01*
X0097906Y0222473D01*
X0097764Y0222194D01*
X0097615Y0221918D01*
X0097459Y0221646D01*
X0097297Y0221377D01*
X0097129Y0221113D01*
X0096954Y0220853D01*
X0096773Y0220597D01*
X0096585Y0220346D01*
X0096392Y0220099D01*
X0096193Y0219857D01*
X0095988Y0219620D01*
X0095777Y0219388D01*
X0095561Y0219161D01*
X0095339Y0218939D01*
X0095112Y0218723D01*
X0094880Y0218512D01*
X0094643Y0218307D01*
X0094401Y0218108D01*
X0094154Y0217915D01*
X0093903Y0217727D01*
X0093647Y0217546D01*
X0093387Y0217371D01*
X0093123Y0217203D01*
X0092854Y0217041D01*
X0092582Y0216885D01*
X0092306Y0216736D01*
X0092027Y0216594D01*
X0091744Y0216458D01*
X0091459Y0216329D01*
X0091170Y0216208D01*
X0090878Y0216093D01*
X0090584Y0215985D01*
X0090287Y0215885D01*
X0089987Y0215792D01*
X0089686Y0215706D01*
X0089382Y0215627D01*
X0089077Y0215556D01*
X0088770Y0215492D01*
X0088462Y0215435D01*
X0088152Y0215386D01*
X0087842Y0215345D01*
X0087530Y0215311D01*
X0087218Y0215284D01*
X0086905Y0215265D01*
X0086591Y0215254D01*
X0086278Y0215250D01*
X0085842Y0215245D01*
X0085407Y0215229D01*
X0084972Y0215203D01*
X0084538Y0215166D01*
X0084105Y0215119D01*
X0083673Y0215061D01*
X0083243Y0214993D01*
X0082814Y0214914D01*
X0082388Y0214825D01*
X0081964Y0214726D01*
X0081542Y0214617D01*
X0081123Y0214497D01*
X0080707Y0214368D01*
X0080294Y0214228D01*
X0079885Y0214078D01*
X0079480Y0213919D01*
X0079078Y0213750D01*
X0078681Y0213571D01*
X0078288Y0213383D01*
X0077900Y0213185D01*
X0077517Y0212978D01*
X0077139Y0212762D01*
X0076766Y0212536D01*
X0076398Y0212302D01*
X0076037Y0212059D01*
X0075681Y0211807D01*
X0075332Y0211547D01*
X0074989Y0211278D01*
X0074653Y0211001D01*
X0074323Y0210716D01*
X0074001Y0210423D01*
X0073685Y0210123D01*
X0073377Y0209815D01*
X0073077Y0209499D01*
X0072784Y0209177D01*
X0072499Y0208847D01*
X0072222Y0208511D01*
X0071953Y0208168D01*
X0071693Y0207819D01*
X0071441Y0207463D01*
X0071198Y0207102D01*
X0070964Y0206734D01*
X0070738Y0206361D01*
X0070522Y0205983D01*
X0070315Y0205600D01*
X0070117Y0205212D01*
X0069929Y0204819D01*
X0069750Y0204422D01*
X0069581Y0204020D01*
X0069422Y0203615D01*
X0069272Y0203206D01*
X0069132Y0202793D01*
X0069003Y0202377D01*
X0068883Y0201958D01*
X0068774Y0201536D01*
X0068675Y0201112D01*
X0068586Y0200686D01*
X0068507Y0200257D01*
X0068439Y0199827D01*
X0068381Y0199395D01*
X0068334Y0198962D01*
X0068297Y0198528D01*
X0068271Y0198093D01*
X0068255Y0197658D01*
X0068250Y0197222D01*
X0068250Y0177272D01*
X0094250Y0165238D02*
X0094250Y0127884D01*
X0094254Y0127550D01*
X0094266Y0127217D01*
X0094287Y0126883D01*
X0094315Y0126551D01*
X0094352Y0126219D01*
X0094397Y0125888D01*
X0094450Y0125559D01*
X0094511Y0125231D01*
X0094580Y0124904D01*
X0094658Y0124579D01*
X0094743Y0124256D01*
X0094836Y0123936D01*
X0094936Y0123618D01*
X0095045Y0123302D01*
X0095161Y0122989D01*
X0095285Y0122679D01*
X0095417Y0122372D01*
X0095556Y0122069D01*
X0095702Y0121769D01*
X0095856Y0121473D01*
X0096017Y0121180D01*
X0096185Y0120892D01*
X0096360Y0120608D01*
X0096542Y0120328D01*
X0096731Y0120052D01*
X0096927Y0119782D01*
X0097129Y0119516D01*
X0097337Y0119256D01*
X0097552Y0119000D01*
X0097773Y0118750D01*
X0098001Y0118506D01*
X0098234Y0118267D01*
X0101250Y0110984D02*
X0101250Y0075108D01*
X0081250Y0087850D02*
X0081250Y0145887D01*
X0081245Y0146276D01*
X0081231Y0146664D01*
X0081208Y0147052D01*
X0081176Y0147440D01*
X0081134Y0147826D01*
X0081084Y0148212D01*
X0081024Y0148596D01*
X0080955Y0148978D01*
X0080877Y0149359D01*
X0080790Y0149738D01*
X0080693Y0150115D01*
X0080588Y0150489D01*
X0080474Y0150860D01*
X0080352Y0151229D01*
X0080220Y0151595D01*
X0080080Y0151958D01*
X0079931Y0152317D01*
X0079774Y0152672D01*
X0079608Y0153024D01*
X0079434Y0153372D01*
X0079252Y0153715D01*
X0079062Y0154054D01*
X0078863Y0154388D01*
X0078657Y0154718D01*
X0078443Y0155042D01*
X0078221Y0155362D01*
X0077992Y0155676D01*
X0077755Y0155984D01*
X0077511Y0156287D01*
X0077260Y0156583D01*
X0077002Y0156874D01*
X0076737Y0157159D01*
X0076466Y0157437D01*
X0076000Y0157915D01*
X0075545Y0158403D01*
X0075101Y0158903D01*
X0074670Y0159412D01*
X0074251Y0159932D01*
X0073845Y0160462D01*
X0073451Y0161001D01*
X0073071Y0161549D01*
X0072703Y0162106D01*
X0072349Y0162672D01*
X0072008Y0163246D01*
X0071681Y0163829D01*
X0071368Y0164418D01*
X0071069Y0165015D01*
X0070785Y0165619D01*
X0070515Y0166230D01*
X0070259Y0166846D01*
X0070019Y0167469D01*
X0069793Y0168097D01*
X0069582Y0168731D01*
X0069386Y0169369D01*
X0069206Y0170012D01*
X0069041Y0170659D01*
X0068891Y0171309D01*
X0068757Y0171963D01*
X0068638Y0172620D01*
X0068536Y0173280D01*
X0068448Y0173942D01*
X0068377Y0174606D01*
X0068321Y0175271D01*
X0068282Y0175937D01*
X0068258Y0176604D01*
X0068250Y0177272D01*
X0078898Y0202301D02*
X0079770Y0201408D01*
X0080620Y0200495D01*
X0081448Y0199563D01*
X0082253Y0198610D01*
X0083036Y0197639D01*
X0083795Y0196649D01*
X0084531Y0195642D01*
X0085242Y0194617D01*
X0085929Y0193576D01*
X0086591Y0192518D01*
X0087228Y0191445D01*
X0087839Y0190358D01*
X0088423Y0189256D01*
X0088982Y0188140D01*
X0089513Y0187012D01*
X0090018Y0185871D01*
X0090495Y0184719D01*
X0090945Y0183555D01*
X0091367Y0182381D01*
X0091761Y0181198D01*
X0092127Y0180005D01*
X0092464Y0178804D01*
X0092773Y0177595D01*
X0093052Y0176380D01*
X0093303Y0175158D01*
X0093524Y0173930D01*
X0093716Y0172697D01*
X0093879Y0171461D01*
X0094013Y0170220D01*
X0094116Y0168977D01*
X0094191Y0167732D01*
X0094235Y0166485D01*
X0094250Y0165238D01*
X0098234Y0118266D02*
X0098410Y0118085D01*
X0098582Y0117900D01*
X0098750Y0117710D01*
X0098912Y0117517D01*
X0099070Y0117320D01*
X0099223Y0117119D01*
X0099371Y0116914D01*
X0099514Y0116705D01*
X0099652Y0116493D01*
X0099785Y0116278D01*
X0099912Y0116060D01*
X0100034Y0115838D01*
X0100150Y0115614D01*
X0100261Y0115387D01*
X0100367Y0115157D01*
X0100466Y0114925D01*
X0100560Y0114690D01*
X0100648Y0114453D01*
X0100730Y0114214D01*
X0100807Y0113973D01*
X0100877Y0113731D01*
X0100941Y0113486D01*
X0101000Y0113240D01*
X0101052Y0112993D01*
X0101098Y0112745D01*
X0101139Y0112495D01*
X0101173Y0112245D01*
X0101200Y0111993D01*
X0101222Y0111742D01*
X0101238Y0111489D01*
X0101247Y0111237D01*
X0101250Y0110984D01*
X0111049Y0051451D02*
X0111642Y0050872D01*
X0112249Y0050307D01*
X0112869Y0049757D01*
X0113501Y0049221D01*
X0114147Y0048701D01*
X0114804Y0048197D01*
X0115474Y0047708D01*
X0116155Y0047235D01*
X0116847Y0046779D01*
X0117549Y0046339D01*
X0118262Y0045916D01*
X0118985Y0045510D01*
X0119717Y0045122D01*
X0120458Y0044751D01*
X0121208Y0044397D01*
X0121966Y0044062D01*
X0122732Y0043745D01*
X0123505Y0043446D01*
X0124285Y0043166D01*
X0125071Y0042904D01*
X0125864Y0042661D01*
X0126662Y0042437D01*
X0127465Y0042232D01*
X0128273Y0042046D01*
X0129085Y0041879D01*
X0129900Y0041732D01*
X0130719Y0041604D01*
X0131541Y0041496D01*
X0132365Y0041408D01*
X0133191Y0041339D01*
X0134019Y0041289D01*
X0134847Y0041260D01*
X0135676Y0041250D01*
X0146350Y0041250D01*
X0146350Y0059750D02*
X0146350Y0063503D01*
X0146352Y0063690D01*
X0146359Y0063877D01*
X0146370Y0064064D01*
X0146386Y0064251D01*
X0146406Y0064437D01*
X0146431Y0064622D01*
X0146461Y0064807D01*
X0146494Y0064991D01*
X0146533Y0065175D01*
X0146575Y0065357D01*
X0146622Y0065538D01*
X0146673Y0065718D01*
X0146729Y0065897D01*
X0146789Y0066074D01*
X0146853Y0066250D01*
X0146922Y0066424D01*
X0146995Y0066597D01*
X0147071Y0066768D01*
X0147152Y0066936D01*
X0147237Y0067103D01*
X0147326Y0067268D01*
X0147419Y0067430D01*
X0147516Y0067591D01*
X0147617Y0067748D01*
X0147721Y0067904D01*
X0147830Y0068057D01*
X0147941Y0068207D01*
X0148057Y0068354D01*
X0148176Y0068499D01*
X0148298Y0068640D01*
X0148424Y0068779D01*
X0148553Y0068914D01*
X0148686Y0069047D01*
X0148821Y0069176D01*
X0148960Y0069302D01*
X0149101Y0069424D01*
X0149246Y0069543D01*
X0149393Y0069659D01*
X0149543Y0069770D01*
X0149696Y0069879D01*
X0149852Y0069983D01*
X0150009Y0070084D01*
X0150170Y0070181D01*
X0150332Y0070274D01*
X0150497Y0070363D01*
X0150664Y0070448D01*
X0150832Y0070529D01*
X0151003Y0070605D01*
X0151176Y0070678D01*
X0151350Y0070747D01*
X0151526Y0070811D01*
X0151703Y0070871D01*
X0151882Y0070927D01*
X0152062Y0070978D01*
X0152243Y0071025D01*
X0152425Y0071067D01*
X0152609Y0071106D01*
X0152793Y0071139D01*
X0152978Y0071169D01*
X0153163Y0071194D01*
X0153349Y0071214D01*
X0153536Y0071230D01*
X0153723Y0071241D01*
X0153910Y0071248D01*
X0154097Y0071250D01*
X0180994Y0071250D01*
X0181167Y0071248D01*
X0181340Y0071242D01*
X0181512Y0071231D01*
X0181685Y0071217D01*
X0181857Y0071198D01*
X0182028Y0071175D01*
X0182199Y0071148D01*
X0182369Y0071117D01*
X0182538Y0071081D01*
X0182707Y0071042D01*
X0182874Y0070999D01*
X0183040Y0070951D01*
X0183205Y0070900D01*
X0183369Y0070844D01*
X0183532Y0070785D01*
X0183692Y0070722D01*
X0183852Y0070655D01*
X0184010Y0070584D01*
X0184165Y0070509D01*
X0184320Y0070430D01*
X0184472Y0070348D01*
X0184622Y0070262D01*
X0184770Y0070173D01*
X0184916Y0070080D01*
X0185059Y0069983D01*
X0185200Y0069883D01*
X0185339Y0069780D01*
X0185475Y0069673D01*
X0185608Y0069563D01*
X0185739Y0069450D01*
X0185867Y0069334D01*
X0185993Y0069215D01*
X0186115Y0069093D01*
X0186234Y0068967D01*
X0186350Y0068839D01*
X0186463Y0068708D01*
X0186573Y0068575D01*
X0186680Y0068439D01*
X0186783Y0068300D01*
X0186883Y0068159D01*
X0186980Y0068016D01*
X0187073Y0067870D01*
X0187162Y0067722D01*
X0187248Y0067572D01*
X0187330Y0067420D01*
X0187409Y0067265D01*
X0187484Y0067110D01*
X0187555Y0066952D01*
X0187622Y0066792D01*
X0187685Y0066632D01*
X0187744Y0066469D01*
X0187800Y0066305D01*
X0187851Y0066140D01*
X0187899Y0065974D01*
X0187942Y0065807D01*
X0187981Y0065638D01*
X0188017Y0065469D01*
X0188048Y0065299D01*
X0188075Y0065128D01*
X0188098Y0064957D01*
X0188117Y0064785D01*
X0188131Y0064612D01*
X0188142Y0064440D01*
X0188148Y0064267D01*
X0188150Y0064094D01*
X0188150Y0059750D01*
X0188150Y0041250D02*
X0187250Y0041250D01*
X0186250Y0040250D01*
X0195020Y0040250D01*
X0212484Y0033016D02*
X0214402Y0031098D01*
X0212484Y0033016D02*
X0212050Y0033439D01*
X0211606Y0033852D01*
X0211152Y0034254D01*
X0210688Y0034644D01*
X0210215Y0035023D01*
X0209733Y0035390D01*
X0209241Y0035745D01*
X0208741Y0036088D01*
X0208233Y0036418D01*
X0207717Y0036736D01*
X0207194Y0037041D01*
X0206663Y0037334D01*
X0206124Y0037613D01*
X0205580Y0037879D01*
X0205029Y0038131D01*
X0204472Y0038370D01*
X0203909Y0038595D01*
X0203341Y0038806D01*
X0202767Y0039003D01*
X0202189Y0039187D01*
X0201607Y0039355D01*
X0201021Y0039510D01*
X0200431Y0039650D01*
X0199838Y0039775D01*
X0199242Y0039886D01*
X0198644Y0039983D01*
X0198043Y0040064D01*
X0197441Y0040131D01*
X0196837Y0040183D01*
X0196232Y0040220D01*
X0195626Y0040243D01*
X0195020Y0040250D01*
X0146350Y0022750D02*
X0144777Y0022769D01*
X0143205Y0022826D01*
X0141634Y0022921D01*
X0140067Y0023054D01*
X0138503Y0023225D01*
X0136944Y0023433D01*
X0135390Y0023679D01*
X0133843Y0023963D01*
X0132302Y0024284D01*
X0130771Y0024642D01*
X0129248Y0025037D01*
X0127735Y0025468D01*
X0126233Y0025936D01*
X0124743Y0026440D01*
X0123265Y0026980D01*
X0121801Y0027556D01*
X0120351Y0028167D01*
X0118917Y0028812D01*
X0117498Y0029493D01*
X0116097Y0030207D01*
X0114712Y0030955D01*
X0113347Y0031736D01*
X0112001Y0032550D01*
X0110674Y0033396D01*
X0109369Y0034274D01*
X0108085Y0035183D01*
X0106824Y0036123D01*
X0105585Y0037093D01*
X0104371Y0038093D01*
X0103181Y0039122D01*
X0102016Y0040179D01*
X0100877Y0041265D01*
X0099765Y0042377D01*
X0098679Y0043516D01*
X0097622Y0044681D01*
X0096593Y0045871D01*
X0095593Y0047085D01*
X0094623Y0048324D01*
X0093683Y0049585D01*
X0092774Y0050869D01*
X0091896Y0052174D01*
X0091050Y0053501D01*
X0090236Y0054847D01*
X0089455Y0056212D01*
X0088707Y0057597D01*
X0087993Y0058998D01*
X0087312Y0060417D01*
X0086667Y0061851D01*
X0086056Y0063301D01*
X0085480Y0064765D01*
X0084940Y0066243D01*
X0084436Y0067733D01*
X0083968Y0069235D01*
X0083537Y0070748D01*
X0083142Y0072271D01*
X0082784Y0073802D01*
X0082463Y0075343D01*
X0082179Y0076890D01*
X0081933Y0078444D01*
X0081725Y0080003D01*
X0081554Y0081567D01*
X0081421Y0083134D01*
X0081326Y0084705D01*
X0081269Y0086277D01*
X0081250Y0087850D01*
X0101250Y0075108D02*
X0101259Y0074312D01*
X0101288Y0073516D01*
X0101335Y0072721D01*
X0101401Y0071928D01*
X0101487Y0071136D01*
X0101591Y0070347D01*
X0101713Y0069560D01*
X0101855Y0068776D01*
X0102015Y0067996D01*
X0102193Y0067220D01*
X0102390Y0066449D01*
X0102605Y0065682D01*
X0102839Y0064921D01*
X0103090Y0064166D01*
X0103359Y0063416D01*
X0103647Y0062674D01*
X0103951Y0061938D01*
X0104273Y0061210D01*
X0104613Y0060490D01*
X0104969Y0059778D01*
X0105342Y0059074D01*
X0105732Y0058380D01*
X0106139Y0057695D01*
X0106561Y0057020D01*
X0106999Y0056356D01*
X0107454Y0055702D01*
X0107923Y0055059D01*
X0108408Y0054427D01*
X0108907Y0053807D01*
X0109422Y0053199D01*
X0109950Y0052603D01*
X0110493Y0052021D01*
X0111049Y0051451D01*
X0239990Y0097250D02*
X0239990Y0098510D01*
X0251250Y0098510D01*
X0252313Y0098510D01*
X0252313Y0087250D01*
X0260187Y0090990D02*
X0260447Y0091250D01*
X0266250Y0091250D01*
X0298139Y0088264D02*
X0298131Y0087563D01*
X0298105Y0086862D01*
X0298063Y0086162D01*
X0298004Y0085464D01*
X0297927Y0084767D01*
X0297835Y0084072D01*
X0297725Y0083379D01*
X0297598Y0082690D01*
X0297455Y0082003D01*
X0297296Y0081320D01*
X0297120Y0080642D01*
X0296928Y0079968D01*
X0296719Y0079298D01*
X0296494Y0078634D01*
X0296254Y0077975D01*
X0295997Y0077323D01*
X0295725Y0076677D01*
X0295437Y0076037D01*
X0295134Y0075405D01*
X0294816Y0074781D01*
X0294482Y0074164D01*
X0294134Y0073555D01*
X0293771Y0072955D01*
X0293394Y0072364D01*
X0293003Y0071782D01*
X0292598Y0071210D01*
X0292179Y0070648D01*
X0291746Y0070096D01*
X0291301Y0069555D01*
X0290842Y0069024D01*
X0290371Y0068505D01*
X0289887Y0067997D01*
X0289392Y0067502D01*
X0288884Y0067018D01*
X0288365Y0066547D01*
X0287834Y0066088D01*
X0287293Y0065643D01*
X0286741Y0065210D01*
X0286179Y0064791D01*
X0285607Y0064386D01*
X0285025Y0063995D01*
X0284434Y0063618D01*
X0283834Y0063255D01*
X0283225Y0062907D01*
X0282608Y0062573D01*
X0281984Y0062255D01*
X0281352Y0061952D01*
X0280712Y0061664D01*
X0280066Y0061392D01*
X0279414Y0061135D01*
X0278755Y0060895D01*
X0278091Y0060670D01*
X0277421Y0060461D01*
X0276747Y0060269D01*
X0276069Y0060093D01*
X0275386Y0059934D01*
X0274699Y0059791D01*
X0274010Y0059664D01*
X0273317Y0059554D01*
X0272622Y0059462D01*
X0271925Y0059385D01*
X0271227Y0059326D01*
X0270527Y0059284D01*
X0269826Y0059258D01*
X0269125Y0059250D01*
X0259905Y0012250D02*
X0258326Y0012269D01*
X0256747Y0012328D01*
X0255171Y0012424D01*
X0253597Y0012560D01*
X0252028Y0012734D01*
X0250463Y0012947D01*
X0248903Y0013197D01*
X0247351Y0013486D01*
X0245806Y0013814D01*
X0244269Y0014179D01*
X0242742Y0014581D01*
X0241225Y0015021D01*
X0239719Y0015498D01*
X0238226Y0016012D01*
X0236745Y0016562D01*
X0235279Y0017148D01*
X0233827Y0017771D01*
X0232391Y0018428D01*
X0230972Y0019121D01*
X0229570Y0019848D01*
X0228187Y0020610D01*
X0226822Y0021405D01*
X0225477Y0022234D01*
X0224154Y0023095D01*
X0222851Y0023989D01*
X0221571Y0024914D01*
X0220314Y0025870D01*
X0219081Y0026857D01*
X0217873Y0027874D01*
X0216690Y0028920D01*
X0215532Y0029995D01*
X0214402Y0031098D01*
X0246073Y0107428D02*
X0245986Y0107512D01*
X0245896Y0107593D01*
X0245804Y0107671D01*
X0245709Y0107746D01*
X0245612Y0107818D01*
X0245513Y0107887D01*
X0245411Y0107953D01*
X0245308Y0108015D01*
X0245202Y0108074D01*
X0245094Y0108129D01*
X0244985Y0108181D01*
X0244874Y0108229D01*
X0244762Y0108273D01*
X0244648Y0108314D01*
X0244533Y0108351D01*
X0244416Y0108384D01*
X0244299Y0108413D01*
X0244181Y0108439D01*
X0244062Y0108461D01*
X0243942Y0108478D01*
X0243822Y0108492D01*
X0243702Y0108502D01*
X0243581Y0108508D01*
X0243460Y0108510D01*
X0241250Y0108510D01*
X0246072Y0107428D02*
X0246470Y0107030D01*
X0260187Y0132954D02*
X0260187Y0133510D01*
X0265510Y0140990D02*
X0265660Y0140988D01*
X0265810Y0140982D01*
X0265960Y0140972D01*
X0266110Y0140959D01*
X0266259Y0140941D01*
X0266408Y0140919D01*
X0266556Y0140894D01*
X0266703Y0140865D01*
X0266850Y0140831D01*
X0266996Y0140794D01*
X0267140Y0140754D01*
X0267284Y0140709D01*
X0267426Y0140661D01*
X0267567Y0140609D01*
X0267707Y0140553D01*
X0267845Y0140494D01*
X0267981Y0140431D01*
X0268116Y0140364D01*
X0268249Y0140294D01*
X0268380Y0140221D01*
X0268509Y0140144D01*
X0268636Y0140064D01*
X0268761Y0139980D01*
X0268884Y0139894D01*
X0269004Y0139804D01*
X0269122Y0139711D01*
X0269238Y0139615D01*
X0269351Y0139516D01*
X0269461Y0139414D01*
X0269569Y0139309D01*
X0269674Y0139201D01*
X0269776Y0139091D01*
X0269875Y0138978D01*
X0269971Y0138862D01*
X0270064Y0138744D01*
X0270154Y0138624D01*
X0270240Y0138501D01*
X0270324Y0138376D01*
X0270404Y0138249D01*
X0270481Y0138120D01*
X0270554Y0137989D01*
X0270624Y0137856D01*
X0270691Y0137721D01*
X0270754Y0137585D01*
X0270813Y0137447D01*
X0270869Y0137307D01*
X0270921Y0137166D01*
X0270969Y0137024D01*
X0271014Y0136880D01*
X0271054Y0136736D01*
X0271091Y0136590D01*
X0271125Y0136443D01*
X0271154Y0136296D01*
X0271179Y0136148D01*
X0271201Y0135999D01*
X0271219Y0135850D01*
X0271232Y0135700D01*
X0271242Y0135550D01*
X0271248Y0135400D01*
X0271250Y0135250D01*
X0298250Y0151635D02*
X0298244Y0152086D01*
X0298228Y0152537D01*
X0298200Y0152987D01*
X0298161Y0153437D01*
X0298112Y0153886D01*
X0298051Y0154333D01*
X0297979Y0154778D01*
X0297897Y0155222D01*
X0297803Y0155663D01*
X0297699Y0156102D01*
X0297584Y0156539D01*
X0297458Y0156972D01*
X0297322Y0157402D01*
X0297175Y0157829D01*
X0297018Y0158252D01*
X0296851Y0158671D01*
X0296673Y0159085D01*
X0296485Y0159496D01*
X0296287Y0159901D01*
X0296079Y0160302D01*
X0295862Y0160697D01*
X0295634Y0161087D01*
X0295398Y0161471D01*
X0295152Y0161849D01*
X0294896Y0162221D01*
X0294632Y0162587D01*
X0294359Y0162946D01*
X0294077Y0163298D01*
X0293786Y0163644D01*
X0293487Y0163982D01*
X0293180Y0164312D01*
X0292865Y0164635D01*
X0294750Y0113250D02*
X0289990Y0113250D01*
X0294750Y0113250D02*
X0299510Y0113250D01*
X0306990Y0107578D02*
X0306988Y0107447D01*
X0306982Y0107317D01*
X0306972Y0107186D01*
X0306958Y0107056D01*
X0306941Y0106927D01*
X0306919Y0106798D01*
X0306894Y0106670D01*
X0306864Y0106542D01*
X0306831Y0106416D01*
X0306794Y0106290D01*
X0306753Y0106166D01*
X0306709Y0106043D01*
X0306661Y0105922D01*
X0306609Y0105802D01*
X0306553Y0105683D01*
X0306494Y0105567D01*
X0306432Y0105452D01*
X0306366Y0105339D01*
X0306297Y0105228D01*
X0306224Y0105119D01*
X0306148Y0105013D01*
X0306069Y0104909D01*
X0305987Y0104807D01*
X0305902Y0104708D01*
X0305813Y0104611D01*
X0305722Y0104518D01*
X0305629Y0104427D01*
X0305532Y0104338D01*
X0305433Y0104253D01*
X0305331Y0104171D01*
X0305227Y0104092D01*
X0305121Y0104016D01*
X0305012Y0103943D01*
X0304901Y0103874D01*
X0304788Y0103808D01*
X0304673Y0103746D01*
X0304557Y0103687D01*
X0304438Y0103631D01*
X0304318Y0103579D01*
X0304197Y0103531D01*
X0304074Y0103487D01*
X0303950Y0103446D01*
X0303824Y0103409D01*
X0303698Y0103376D01*
X0303570Y0103346D01*
X0303442Y0103321D01*
X0303313Y0103299D01*
X0303184Y0103282D01*
X0303054Y0103268D01*
X0302923Y0103258D01*
X0302793Y0103252D01*
X0302662Y0103250D01*
X0302530Y0103248D01*
X0302399Y0103242D01*
X0302268Y0103233D01*
X0302137Y0103219D01*
X0302006Y0103202D01*
X0301877Y0103181D01*
X0301747Y0103157D01*
X0301619Y0103128D01*
X0301491Y0103096D01*
X0301365Y0103060D01*
X0301239Y0103020D01*
X0301115Y0102977D01*
X0300992Y0102930D01*
X0300871Y0102880D01*
X0300750Y0102826D01*
X0300632Y0102769D01*
X0300515Y0102708D01*
X0300401Y0102644D01*
X0300288Y0102577D01*
X0300177Y0102506D01*
X0300068Y0102432D01*
X0299961Y0102355D01*
X0299857Y0102275D01*
X0299755Y0102192D01*
X0299655Y0102106D01*
X0299558Y0102017D01*
X0299464Y0101925D01*
X0299372Y0101831D01*
X0299283Y0101734D01*
X0299197Y0101634D01*
X0299114Y0101532D01*
X0299034Y0101428D01*
X0298957Y0101321D01*
X0298883Y0101212D01*
X0298812Y0101101D01*
X0298745Y0100989D01*
X0298681Y0100874D01*
X0298620Y0100757D01*
X0298563Y0100639D01*
X0298509Y0100518D01*
X0298459Y0100397D01*
X0298412Y0100274D01*
X0298369Y0100150D01*
X0298329Y0100024D01*
X0298293Y0099898D01*
X0298261Y0099770D01*
X0298232Y0099642D01*
X0298208Y0099512D01*
X0298187Y0099383D01*
X0298170Y0099252D01*
X0298156Y0099121D01*
X0298147Y0098990D01*
X0298141Y0098859D01*
X0298139Y0098727D01*
X0298140Y0098727D02*
X0298140Y0093250D01*
X0298140Y0088264D01*
X0306990Y0107578D02*
X0306990Y0113250D01*
X0255502Y0266199D02*
X0256377Y0267053D01*
X0257272Y0267887D01*
X0258187Y0268698D01*
X0259121Y0269488D01*
X0260073Y0270256D01*
X0261043Y0271000D01*
X0262031Y0271721D01*
X0263036Y0272419D01*
X0264057Y0273092D01*
X0265093Y0273741D01*
X0266145Y0274365D01*
X0267211Y0274964D01*
X0268292Y0275537D01*
X0269385Y0276085D01*
X0270492Y0276606D01*
X0271610Y0277101D01*
X0272740Y0277569D01*
X0273881Y0278010D01*
X0275032Y0278424D01*
X0276192Y0278810D01*
X0277361Y0279168D01*
X0278539Y0279499D01*
X0279724Y0279801D01*
X0280916Y0280076D01*
X0282114Y0280321D01*
X0283317Y0280538D01*
X0284526Y0280727D01*
X0285738Y0280887D01*
X0286954Y0281017D01*
X0288173Y0281119D01*
X0289394Y0281192D01*
X0290616Y0281235D01*
X0291839Y0281250D01*
X0311356Y0281250D02*
X0311752Y0281245D01*
X0312148Y0281231D01*
X0312543Y0281208D01*
X0312938Y0281175D01*
X0313332Y0281132D01*
X0313725Y0281081D01*
X0314116Y0281020D01*
X0314506Y0280949D01*
X0314894Y0280870D01*
X0315280Y0280781D01*
X0315664Y0280683D01*
X0316045Y0280576D01*
X0316424Y0280460D01*
X0316799Y0280335D01*
X0317172Y0280201D01*
X0317542Y0280058D01*
X0317908Y0279906D01*
X0318270Y0279746D01*
X0318628Y0279577D01*
X0318982Y0279400D01*
X0319332Y0279214D01*
X0319678Y0279020D01*
X0320018Y0278818D01*
X0320354Y0278608D01*
X0320685Y0278390D01*
X0321010Y0278164D01*
X0321330Y0277930D01*
X0321644Y0277689D01*
X0321952Y0277441D01*
X0322255Y0277185D01*
X0322551Y0276922D01*
X0322841Y0276652D01*
X0323124Y0276375D01*
X0091250Y0271250D02*
X0091250Y0261250D01*
X0091247Y0261008D01*
X0091238Y0260767D01*
X0091224Y0260526D01*
X0091203Y0260285D01*
X0091177Y0260045D01*
X0091145Y0259805D01*
X0091107Y0259566D01*
X0091064Y0259329D01*
X0091014Y0259092D01*
X0090959Y0258857D01*
X0090899Y0258623D01*
X0090832Y0258391D01*
X0090761Y0258160D01*
X0090683Y0257931D01*
X0090600Y0257704D01*
X0090512Y0257479D01*
X0090418Y0257256D01*
X0090319Y0257036D01*
X0090214Y0256818D01*
X0090105Y0256603D01*
X0089990Y0256390D01*
X0089870Y0256180D01*
X0089745Y0255974D01*
X0089615Y0255770D01*
X0089480Y0255569D01*
X0089340Y0255372D01*
X0089196Y0255178D01*
X0089047Y0254988D01*
X0088893Y0254802D01*
X0088735Y0254619D01*
X0088573Y0254440D01*
X0088406Y0254265D01*
X0088235Y0254094D01*
X0088060Y0253927D01*
X0087881Y0253765D01*
X0087698Y0253607D01*
X0087512Y0253453D01*
X0087322Y0253304D01*
X0087128Y0253160D01*
X0086931Y0253020D01*
X0086730Y0252885D01*
X0086526Y0252755D01*
X0086320Y0252630D01*
X0086110Y0252510D01*
X0085897Y0252395D01*
X0085682Y0252286D01*
X0085464Y0252181D01*
X0085244Y0252082D01*
X0085021Y0251988D01*
X0084796Y0251900D01*
X0084569Y0251817D01*
X0084340Y0251739D01*
X0084109Y0251668D01*
X0083877Y0251601D01*
X0083643Y0251541D01*
X0083408Y0251486D01*
X0083171Y0251436D01*
X0082934Y0251393D01*
X0082695Y0251355D01*
X0082455Y0251323D01*
X0082215Y0251297D01*
X0081974Y0251276D01*
X0081733Y0251262D01*
X0081492Y0251253D01*
X0081250Y0251250D01*
X0051250Y0251250D01*
X0050710Y0251243D01*
X0050170Y0251224D01*
X0049631Y0251191D01*
X0049093Y0251146D01*
X0048556Y0251087D01*
X0048020Y0251015D01*
X0047487Y0250931D01*
X0046956Y0250834D01*
X0046427Y0250723D01*
X0045901Y0250600D01*
X0045378Y0250465D01*
X0044859Y0250317D01*
X0044343Y0250156D01*
X0043831Y0249983D01*
X0043324Y0249797D01*
X0042821Y0249600D01*
X0042323Y0249390D01*
X0041831Y0249168D01*
X0041344Y0248935D01*
X0040863Y0248690D01*
X0040387Y0248433D01*
X0039918Y0248165D01*
X0039456Y0247885D01*
X0039001Y0247595D01*
X0038553Y0247293D01*
X0038112Y0246981D01*
X0037679Y0246658D01*
X0037254Y0246325D01*
X0036836Y0245982D01*
X0036428Y0245629D01*
X0036028Y0245266D01*
X0035637Y0244893D01*
X0035255Y0244511D01*
X0034882Y0244120D01*
X0034519Y0243720D01*
X0034166Y0243312D01*
X0033823Y0242894D01*
X0033490Y0242469D01*
X0033167Y0242036D01*
X0032855Y0241595D01*
X0032553Y0241147D01*
X0032263Y0240692D01*
X0031983Y0240230D01*
X0031715Y0239761D01*
X0031458Y0239285D01*
X0031213Y0238804D01*
X0030980Y0238317D01*
X0030758Y0237825D01*
X0030548Y0237327D01*
X0030351Y0236824D01*
X0030165Y0236317D01*
X0029992Y0235805D01*
X0029831Y0235289D01*
X0029683Y0234770D01*
X0029548Y0234247D01*
X0029425Y0233721D01*
X0029314Y0233192D01*
X0029217Y0232661D01*
X0029133Y0232128D01*
X0029061Y0231592D01*
X0029002Y0231055D01*
X0028957Y0230517D01*
X0028924Y0229978D01*
X0028905Y0229438D01*
X0028898Y0228898D01*
X0028898Y0202301D01*
X0091250Y0271250D02*
X0091247Y0271492D01*
X0091238Y0271733D01*
X0091224Y0271974D01*
X0091203Y0272215D01*
X0091177Y0272455D01*
X0091145Y0272695D01*
X0091107Y0272934D01*
X0091064Y0273171D01*
X0091014Y0273408D01*
X0090959Y0273643D01*
X0090899Y0273877D01*
X0090832Y0274109D01*
X0090761Y0274340D01*
X0090683Y0274569D01*
X0090600Y0274796D01*
X0090512Y0275021D01*
X0090418Y0275244D01*
X0090319Y0275464D01*
X0090214Y0275682D01*
X0090105Y0275897D01*
X0089990Y0276110D01*
X0089870Y0276320D01*
X0089745Y0276526D01*
X0089615Y0276730D01*
X0089480Y0276931D01*
X0089340Y0277128D01*
X0089196Y0277322D01*
X0089047Y0277512D01*
X0088893Y0277698D01*
X0088735Y0277881D01*
X0088573Y0278060D01*
X0088406Y0278235D01*
X0088235Y0278406D01*
X0088060Y0278573D01*
X0087881Y0278735D01*
X0087698Y0278893D01*
X0087512Y0279047D01*
X0087322Y0279196D01*
X0087128Y0279340D01*
X0086931Y0279480D01*
X0086730Y0279615D01*
X0086526Y0279745D01*
X0086320Y0279870D01*
X0086110Y0279990D01*
X0085897Y0280105D01*
X0085682Y0280214D01*
X0085464Y0280319D01*
X0085244Y0280418D01*
X0085021Y0280512D01*
X0084796Y0280600D01*
X0084569Y0280683D01*
X0084340Y0280761D01*
X0084109Y0280832D01*
X0083877Y0280899D01*
X0083643Y0280959D01*
X0083408Y0281014D01*
X0083171Y0281064D01*
X0082934Y0281107D01*
X0082695Y0281145D01*
X0082455Y0281177D01*
X0082215Y0281203D01*
X0081974Y0281224D01*
X0081733Y0281238D01*
X0081492Y0281247D01*
X0081250Y0281250D01*
D367*
X0195250Y0265250D03*
X0265750Y0121250D03*
X0266250Y0091250D03*
X0294750Y0113250D03*
X0244250Y0034250D03*
M02*
